<?xml version="1.0" encoding="utf-8"?>
<!-- Generator: Adobe Illustrator 28.1.0, SVG Export Plug-In . SVG Version: 6.00 Build 0)  -->
<svg version="1.1" id="Layer_1" xmlns="http://www.w3.org/2000/svg" xmlns:xlink="http://www.w3.org/1999/xlink" x="0px" y="0px"
	 viewBox="0 0 42 42" style="enable-background:new 0 0 42 42;" xml:space="preserve">
<style type="text/css">
	.st0{fill:url(#SVGID_1_);}
	.st1{fill:none;stroke:url(#SVGID_00000067208484107296851810000015421304040665245069_);}
	.st2{fill:none;stroke:#FFFFFF;stroke-width:3;stroke-linecap:round;stroke-linejoin:round;}
</style>
<linearGradient id="SVGID_1_" gradientUnits="userSpaceOnUse" x1="0.6719" y1="43.7745" x2="41.7695" y2="1.7745" gradientTransform="matrix(-1 0 0 1 42 -2)">
	<stop  offset="0" style="stop-color:#FE5B3A"/>
	<stop  offset="1" style="stop-color:#FC2A64"/>
</linearGradient>
<path class="st0" d="M21,41.5L21,41.5C9.7,41.5,0.5,32.3,0.5,21l0,0C0.5,9.7,9.7,0.5,21,0.5l0,0c11.3,0,20.5,9.2,20.5,20.5l0,0
	C41.5,32.3,32.3,41.5,21,41.5z"/>
<linearGradient id="SVGID_00000069368767646513211220000000880426444032022199_" gradientUnits="userSpaceOnUse" x1="0.6719" y1="43.7745" x2="41.7695" y2="1.7745" gradientTransform="matrix(-1 0 0 1 42 -2)">
	<stop  offset="0" style="stop-color:#FE5B3A"/>
	<stop  offset="1" style="stop-color:#FC2A64"/>
</linearGradient>
<path style="fill:none;stroke:url(#SVGID_00000069368767646513211220000000880426444032022199_);" d="M21,41.5L21,41.5
	C9.7,41.5,0.5,32.3,0.5,21l0,0C0.5,9.7,9.7,0.5,21,0.5l0,0c11.3,0,20.5,9.2,20.5,20.5l0,0C41.5,32.3,32.3,41.5,21,41.5z"/>
<path class="st2" d="M24,13l-8,8l8,8"/>
</svg>
