<svg width="72" height="72" viewBox="0 0 72 72" fill="none" xmlns="http://www.w3.org/2000/svg">
<g filter="url(#filter0_b_176_9901)">
<rect width="72" height="72" rx="36" fill="url(#paint0_linear_176_9901)" fill-opacity="0.16"/>
<path d="M29.4467 35.1556C29.0078 35.2791 28.5456 35.3466 28.0679 35.3466C27.59 35.3466 27.1278 35.2791 26.6889 35.1556L23.5842 36.5653L23.1016 39.028H33.0342L32.5516 36.5653L29.4467 35.1556Z" fill="url(#paint1_linear_176_9901)"/>
<path d="M28.0671 32.6512C29.3921 32.6512 30.4702 31.5733 30.4702 30.2483C30.4702 28.9233 29.3921 27.8452 28.0671 27.8452C26.7421 27.8452 25.6641 28.9233 25.6641 30.2483C25.6641 31.5733 26.7421 32.6512 28.0671 32.6512Z" fill="url(#paint2_linear_176_9901)"/>
<path d="M56.0605 22.7836C56.0605 22.2313 55.6128 21.7836 55.0605 21.7836H16.9414C16.3891 21.7836 15.9414 22.2313 15.9414 22.7836V50.1921C15.9414 50.7444 16.3891 51.1921 16.9414 51.1921H55.0605C55.6128 51.1921 56.0605 50.7444 56.0605 50.1921V22.7836ZM21.1067 35.1902C21.1688 34.8731 21.3804 34.6056 21.6746 34.472L22.8973 33.9168C23.4876 33.6488 23.6646 32.8947 23.4022 32.3019C23.1239 31.6734 22.9691 30.9787 22.9691 30.2483C22.9691 27.4371 25.2562 25.1499 28.0674 25.1499C30.8786 25.1499 33.1658 27.4371 33.1658 30.2483C33.1658 30.9787 33.011 31.6734 32.7328 32.3018C32.4703 32.8946 32.6473 33.6488 33.2376 33.9168L34.4602 34.472C34.7544 34.6056 34.966 34.8731 35.0281 35.1902L36.0748 40.531C36.1958 41.1487 35.7229 41.7233 35.0934 41.7233H21.0414C20.412 41.7233 19.939 41.1487 20.0601 40.531L21.1067 35.1902ZM36.9949 46.7849C36.9949 47.3372 36.5471 47.7849 35.9949 47.7849H20.14C19.5877 47.7849 19.14 47.3372 19.14 46.7849V46.0896C19.14 45.5373 19.5877 45.0896 20.14 45.0896H35.9948C36.5471 45.0896 36.9949 45.5373 36.9949 46.0896V46.7849ZM39.3718 35.0155C38.9813 34.625 38.9813 33.9918 39.3718 33.6013L42.5928 30.3804C42.9833 29.9899 43.6165 29.9899 44.007 30.3804L44.6815 31.0548C45.072 31.4453 45.7052 31.4453 46.0957 31.0548L47.1436 30.0068C47.4757 29.6747 47.2405 29.1069 46.7709 29.1069C46.4797 29.1069 46.2437 28.8709 46.2437 28.5798V27.4116C46.2437 26.8593 46.6914 26.4116 47.2437 26.4116H51.6447C52.197 26.4116 52.6447 26.8593 52.6447 27.4116V31.8126C52.6447 32.3649 52.197 32.8126 51.6447 32.8126H50.4766C50.1854 32.8126 49.9494 32.5766 49.9494 32.2854C49.9494 31.8158 49.3816 31.5806 49.0495 31.9127L46.0957 34.8665C45.7052 35.257 45.072 35.257 44.6815 34.8665L44.007 34.1921C43.6165 33.8016 42.9833 33.8016 42.5928 34.1921L41.2776 35.5072C40.8871 35.8977 40.254 35.8977 39.8634 35.5072L39.3718 35.0155ZM52.862 46.7849C52.862 47.3372 52.4143 47.7849 51.862 47.7849H42.8603C42.3081 47.7849 41.8603 47.3372 41.8603 46.7849V46.0896C41.8603 45.5373 42.3081 45.0896 42.8603 45.0896H51.862C52.4143 45.0896 52.862 45.5373 52.862 46.0896V46.7849ZM52.862 40.7233C52.862 41.2756 52.4143 41.7233 51.862 41.7233H46.5036C45.9513 41.7233 45.5036 41.2756 45.5036 40.7233V40.028C45.5036 39.4757 45.9513 39.028 46.5036 39.028H51.862C52.4143 39.028 52.862 39.4757 52.862 40.028V40.7233Z" fill="url(#paint3_linear_176_9901)"/>
</g>
<defs>
<filter id="filter0_b_176_9901" x="-52" y="-52" width="176" height="176" filterUnits="userSpaceOnUse" color-interpolation-filters="sRGB">
<feFlood flood-opacity="0" result="BackgroundImageFix"/>
<feGaussianBlur in="BackgroundImageFix" stdDeviation="26"/>
<feComposite in2="SourceAlpha" operator="in" result="effect1_backgroundBlur_176_9901"/>
<feBlend mode="normal" in="SourceGraphic" in2="effect1_backgroundBlur_176_9901" result="shape"/>
</filter>
<linearGradient id="paint0_linear_176_9901" x1="1.54688" y1="-1.7898e-06" x2="72" y2="72" gradientUnits="userSpaceOnUse">
<stop stop-color="#FE5B3A"/>
<stop offset="1" stop-color="#FC2A64"/>
</linearGradient>
<linearGradient id="paint1_linear_176_9901" x1="23.315" y1="35.1556" x2="25.8394" y2="41.7728" gradientUnits="userSpaceOnUse">
<stop stop-color="#FE5B3A"/>
<stop offset="1" stop-color="#FC2A64"/>
</linearGradient>
<linearGradient id="paint2_linear_176_9901" x1="25.7673" y1="27.8452" x2="30.4701" y2="32.6513" gradientUnits="userSpaceOnUse">
<stop stop-color="#FE5B3A"/>
<stop offset="1" stop-color="#FC2A64"/>
</linearGradient>
<linearGradient id="paint3_linear_176_9901" x1="16.8033" y1="21.7836" x2="44.0678" y2="59.7943" gradientUnits="userSpaceOnUse">
<stop stop-color="#FE5B3A"/>
<stop offset="1" stop-color="#FC2A64"/>
</linearGradient>
</defs>
</svg>
