<svg width="72" height="72" viewBox="0 0 72 72" fill="none" xmlns="http://www.w3.org/2000/svg">
<g filter="url(#filter0_b_176_9912)">
<rect width="72" height="72" rx="36" fill="url(#paint0_linear_176_9912)" fill-opacity="0.16"/>
<g clip-path="url(#clip0_176_9912)">
<path d="M26.8125 24.1055C26.0435 24.1055 25.418 24.7311 25.418 25.5001C25.418 26.269 26.0435 26.8946 26.8125 26.8946C27.5815 26.8946 28.207 26.269 28.207 25.5001C28.207 24.7311 27.5815 24.1055 26.8125 24.1055Z" fill="url(#paint1_linear_176_9912)"/>
<path d="M53.1465 16.3945H18.8574C16.7315 16.3945 15.002 18.1241 15.002 20.25V32.1445H57.002V20.25C57.002 18.1241 55.2724 16.3945 53.1465 16.3945ZM45.1895 29.3555C43.4938 29.3555 42.0513 28.2546 41.5365 26.7305H30.4674C29.9526 28.2546 28.5101 29.3555 26.8145 29.3555C24.6885 29.3555 22.959 27.6259 22.959 25.5C22.959 23.3741 24.6885 21.6445 26.8145 21.6445C28.5101 21.6445 29.9526 22.7454 30.4674 24.2695H41.5365C42.0513 22.7454 43.4938 21.6445 45.1895 21.6445C47.3154 21.6445 49.0449 23.3741 49.0449 25.5C49.0449 27.6259 47.3154 29.3555 45.1895 29.3555Z" fill="url(#paint2_linear_176_9912)"/>
<path d="M45.1875 24.1055C44.4185 24.1055 43.793 24.731 43.793 25.5C43.793 26.269 44.4185 26.8945 45.1875 26.8945C45.9565 26.8945 46.582 26.269 46.582 25.5C46.582 24.731 45.9565 24.1055 45.1875 24.1055Z" fill="url(#paint3_linear_176_9912)"/>
<path d="M15.002 34.6055V51.75C15.002 53.8759 16.7315 55.6055 18.8574 55.6055H45.2704C45.2707 55.6055 45.271 55.6055 45.2712 55.6055C45.3121 55.6055 45.3529 55.6033 45.3934 55.5992C45.4172 55.5969 45.4403 55.5926 45.4637 55.5889C45.4798 55.5864 45.4959 55.5847 45.5119 55.5815C45.5408 55.5758 45.5688 55.5681 45.597 55.5604C45.6073 55.5576 45.6177 55.5555 45.628 55.5525C45.6568 55.5438 45.6847 55.5333 45.7126 55.5225C45.7221 55.5188 45.7318 55.5159 45.7414 55.512C45.7679 55.5011 45.7933 55.4885 45.8188 55.4758C45.8294 55.4705 45.8403 55.4659 45.8507 55.4604C45.8744 55.4476 45.8971 55.4335 45.9199 55.4193C45.9313 55.4121 45.9432 55.4057 45.9546 55.3982C45.977 55.3832 45.9982 55.3667 46.0195 55.3503C46.0302 55.3421 46.0413 55.3347 46.0518 55.3262C46.0829 55.3006 46.1129 55.2736 46.1413 55.2451L46.1415 55.2449L56.6416 44.7449C56.6671 44.7193 56.6909 44.6928 56.7137 44.6655C56.7208 44.657 56.7276 44.6481 56.7345 44.6394C56.7501 44.6198 56.7651 44.5998 56.7794 44.5794C56.7866 44.5691 56.7938 44.5587 56.8007 44.5481C56.8147 44.5268 56.8278 44.505 56.8404 44.4829C56.8457 44.4736 56.8514 44.4645 56.8565 44.455C56.8723 44.4253 56.8869 44.395 56.9002 44.3643C56.9057 44.3515 56.9105 44.3384 56.9157 44.3254C56.9236 44.3051 56.9312 44.2847 56.9381 44.2641C56.9429 44.2496 56.9475 44.2351 56.9518 44.2204C56.9587 44.1968 56.9647 44.173 56.9701 44.1491C56.9726 44.1382 56.9756 44.1276 56.9778 44.1166C56.9847 44.0822 56.9898 44.0474 56.9937 44.0126C56.9949 44.0018 56.9956 43.991 56.9965 43.9801C56.999 43.9512 57.0005 43.9223 57.0009 43.8933C57.0011 43.8872 57.002 43.8812 57.002 43.875V34.6055H15.002ZM26.8145 50.3555H21.5645C20.8849 50.3555 20.334 49.8045 20.334 49.125C20.334 48.4455 20.8849 47.8945 21.5645 47.8945H26.8145C27.494 47.8945 28.0449 48.4455 28.0449 49.125C28.0449 49.8045 27.494 50.3555 26.8145 50.3555ZM26.8145 45.1055H21.5645C20.8849 45.1055 20.334 44.5545 20.334 43.875C20.334 43.1955 20.8849 42.6445 21.5645 42.6445H26.8145C27.494 42.6445 28.0449 43.1955 28.0449 43.875C28.0449 44.5545 27.494 45.1055 26.8145 45.1055ZM26.8145 39.8555H21.5645C20.8849 39.8555 20.334 39.3045 20.334 38.625C20.334 37.9455 20.8849 37.3945 21.5645 37.3945H26.8145C27.494 37.3945 28.0449 37.9455 28.0449 38.625C28.0449 39.3045 27.494 39.8555 26.8145 39.8555ZM38.627 50.3555H33.377C32.6974 50.3555 32.1465 49.8045 32.1465 49.125C32.1465 48.4455 32.6974 47.8945 33.377 47.8945H38.627C39.3065 47.8945 39.8574 48.4455 39.8574 49.125C39.8574 49.8045 39.3065 50.3555 38.627 50.3555ZM38.627 45.1055H33.377C32.6974 45.1055 32.1465 44.5545 32.1465 43.875C32.1465 43.1955 32.6974 42.6445 33.377 42.6445H38.627C39.3065 42.6445 39.8574 43.1955 39.8574 43.875C39.8574 44.5545 39.3065 45.1055 38.627 45.1055ZM38.627 39.8555H33.377C32.6974 39.8555 32.1465 39.3045 32.1465 38.625C32.1465 37.9455 32.6974 37.3945 33.377 37.3945H38.627C39.3065 37.3945 39.8574 37.9455 39.8574 38.625C39.8574 39.3045 39.3065 39.8555 38.627 39.8555ZM45.1895 39.8555C44.5099 39.8555 43.959 39.3045 43.959 38.625C43.959 37.9455 44.5099 37.3945 45.1895 37.3945H50.4395C51.119 37.3945 51.6699 37.9455 51.6699 38.625C51.6699 39.3045 51.119 39.8555 50.4395 39.8555H45.1895ZM46.502 51.4044V45.1055H52.8009L46.502 51.4044Z" fill="url(#paint4_linear_176_9912)"/>
</g>
</g>
<defs>
<filter id="filter0_b_176_9912" x="-34.0364" y="-34.0364" width="140.073" height="140.073" filterUnits="userSpaceOnUse" color-interpolation-filters="sRGB">
<feFlood flood-opacity="0" result="BackgroundImageFix"/>
<feGaussianBlur in="BackgroundImageFix" stdDeviation="17.0182"/>
<feComposite in2="SourceAlpha" operator="in" result="effect1_backgroundBlur_176_9912"/>
<feBlend mode="normal" in="SourceGraphic" in2="effect1_backgroundBlur_176_9912" result="shape"/>
</filter>
<linearGradient id="paint0_linear_176_9912" x1="1.54688" y1="-1.7898e-06" x2="72" y2="72" gradientUnits="userSpaceOnUse">
<stop stop-color="#FE5B3A"/>
<stop offset="1" stop-color="#FC2A64"/>
</linearGradient>
<linearGradient id="paint1_linear_176_9912" x1="25.4779" y1="24.1055" x2="28.207" y2="26.8946" gradientUnits="userSpaceOnUse">
<stop stop-color="#FE5B3A"/>
<stop offset="1" stop-color="#FC2A64"/>
</linearGradient>
<linearGradient id="paint2_linear_176_9912" x1="15.9043" y1="16.3945" x2="25.8748" y2="43.5664" gradientUnits="userSpaceOnUse">
<stop stop-color="#FE5B3A"/>
<stop offset="1" stop-color="#FC2A64"/>
</linearGradient>
<linearGradient id="paint3_linear_176_9912" x1="43.8529" y1="24.1055" x2="46.582" y2="26.8945" gradientUnits="userSpaceOnUse">
<stop stop-color="#FE5B3A"/>
<stop offset="1" stop-color="#FC2A64"/>
</linearGradient>
<linearGradient id="paint4_linear_176_9912" x1="15.9043" y1="34.6055" x2="32.1319" y2="67.7733" gradientUnits="userSpaceOnUse">
<stop stop-color="#FE5B3A"/>
<stop offset="1" stop-color="#FC2A64"/>
</linearGradient>
<clipPath id="clip0_176_9912">
<rect width="42" height="42" fill="white" transform="translate(15 15)"/>
</clipPath>
</defs>
</svg>
