<svg width="72" height="72" viewBox="0 0 72 72" fill="none" xmlns="http://www.w3.org/2000/svg">
<g filter="url(#filter0_b_176_9972)">
<rect width="72" height="72" rx="36" fill="url(#paint0_linear_176_9972)" fill-opacity="0.16"/>
<g clip-path="url(#clip0_176_9972)">
<path d="M40.7582 36C40.7582 35.124 40.048 34.4138 39.172 34.4138H38.3789V37.5862H39.172C40.048 37.5862 40.7582 36.8761 40.7582 36Z" fill="url(#paint1_linear_176_9972)"/>
<path d="M40.7581 28.069C39.882 28.069 39.1719 28.7791 39.1719 29.6552H42.3443C42.3443 28.7791 41.6341 28.069 40.7581 28.069Z" fill="url(#paint2_linear_176_9972)"/>
<path d="M39.9663 24.8965H32.0353C31.5973 24.8965 31.2422 25.2516 31.2422 25.6896V26.4828H40.7594V25.6896C40.7594 25.2516 40.4043 24.8965 39.9663 24.8965Z" fill="url(#paint3_linear_176_9972)"/>
<path d="M37.5865 45.5172H34.4141V51.7827C34.9359 51.8343 35.4649 51.862 36.0003 51.862C36.5356 51.862 37.0646 51.8335 37.5865 51.7827V45.5172Z" fill="url(#paint4_linear_176_9972)"/>
<path d="M32.65 36L32.0377 34.4075L31.4238 36H32.65Z" fill="url(#paint5_linear_176_9972)"/>
<path d="M29.6543 29.6552H32.8267C32.8267 28.7791 32.1165 28.069 31.2405 28.069C30.3645 28.069 29.6543 28.7791 29.6543 29.6552Z" fill="url(#paint6_linear_176_9972)"/>
<path d="M26.4824 28.069V40.7586H45.5169V28.069H43.4897C43.7752 28.5491 43.9274 29.0966 43.9307 29.6552C43.9307 30.5312 43.2205 31.2414 42.3445 31.2414H39.1721C38.296 31.2414 37.5859 30.5312 37.5859 29.6552C37.5892 29.0966 37.7414 28.5491 38.0268 28.069H33.9725C34.2579 28.5491 34.4102 29.0966 34.4135 29.6552C34.4135 30.5312 33.7033 31.2414 32.8272 31.2414H29.6548C28.7788 31.2414 28.0686 30.5312 28.0686 29.6552C28.0719 29.0966 28.2241 28.5491 28.5096 28.069H26.4824ZM36.7928 34.4138C36.7928 33.5378 37.5029 32.8276 38.379 32.8276H39.1721C40.9242 32.8276 42.3445 34.2479 42.3445 36C42.3445 37.7521 40.9242 39.1724 39.1721 39.1724H38.379C37.5029 39.1724 36.7928 38.4622 36.7928 37.5862V34.4138ZM28.9141 38.0946L30.551 33.838C30.7905 33.2281 31.3789 32.827 32.0341 32.827C32.6894 32.827 33.2778 33.2281 33.5172 33.838L35.1542 38.0946C35.3115 38.5037 35.1073 38.9628 34.6982 39.1201C34.2891 39.2773 33.8299 39.0731 33.6727 38.664L33.2587 37.5862H30.8112L30.3956 38.664C30.2383 39.0731 29.7792 39.2773 29.3701 39.1201C28.961 38.9628 28.7568 38.5037 28.9141 38.0946Z" fill="url(#paint7_linear_176_9972)"/>
<path d="M38.3791 43.9311H46.3109L46.3101 42.3448H25.6895V43.9311H33.6205H38.3791Z" fill="url(#paint8_linear_176_9972)"/>
<path d="M58.9445 34.4677C58.9058 34.0366 58.6166 33.6689 58.2069 33.5295L55.3866 32.5318C55.1902 31.4361 54.8999 30.3593 54.519 29.3133L56.47 27.0379C56.7531 26.712 56.8183 26.2502 56.6366 25.8586C56.4166 25.4018 56.1773 24.9502 55.9188 24.504C55.6602 24.0577 55.3887 23.6247 55.1043 23.2049C54.8579 22.8513 54.4269 22.6753 54.0034 22.7552L51.0602 23.3008C50.3419 22.45 49.5531 21.6613 48.7023 20.9429L49.2448 18.0005C49.3274 17.5767 49.1531 17.144 48.7999 16.8957C48.3811 16.6091 47.9481 16.3376 47.5008 16.0812C47.0535 15.8248 46.6019 15.5868 46.1462 15.3674C45.7546 15.1857 45.2928 15.2509 44.9668 15.534L42.6859 17.4779C41.6402 17.0978 40.564 16.8075 39.469 16.6102L38.4705 13.7931C38.3301 13.3846 37.9625 13.0969 37.5323 13.0587C37.0263 13.0174 36.5155 13 36 13C35.4845 13 34.9737 13.0174 34.4677 13.0555C34.0366 13.0942 33.6689 13.3834 33.5295 13.7931L32.531 16.6102C31.436 16.8075 30.3598 17.0978 29.3141 17.4779L27.0379 15.53C26.712 15.2469 26.2502 15.1817 25.8586 15.3634C25.4018 15.5829 24.9502 15.8208 24.504 16.0772C24.0577 16.3337 23.6234 16.6065 23.2009 16.8957C22.8474 17.1438 22.6728 17.5766 22.7552 18.0005L23.3008 20.9437C22.45 21.6621 21.6613 22.4508 20.9429 23.3016L18.0005 22.7552C17.5767 22.6726 17.144 22.8469 16.8957 23.2001C16.6091 23.6189 16.3376 24.0519 16.0812 24.4992C15.8248 24.9465 15.5868 25.3981 15.3674 25.8538C15.1825 26.2459 15.2462 26.7102 15.53 27.0379L17.4779 29.3173C17.0969 30.3633 16.8066 31.44 16.6102 32.5357L13.7931 33.5295C13.3846 33.6699 13.0969 34.0375 13.0587 34.4677C13.0174 34.9737 13 35.4845 13 36C13 36.5155 13.0174 37.0263 13.0555 37.5323C13.0944 37.9633 13.3835 38.3309 13.7931 38.4705L16.6126 39.4682C16.8094 40.5639 17.0997 41.6406 17.4802 42.6867L15.53 44.966C15.2469 45.292 15.1817 45.7538 15.3634 46.1454C15.5829 46.6022 15.8208 47.0537 16.0772 47.5C16.3337 47.9463 16.6052 48.3793 16.8918 48.7991C17.14 49.1523 17.5728 49.3266 17.9966 49.244L20.9382 48.6992C21.6568 49.5502 22.4458 50.3393 23.2969 51.0579L22.7552 54.0034C22.6726 54.4272 22.8469 54.86 23.2001 55.1082C23.6189 55.3943 24.0519 55.6658 24.4992 55.9228C24.9465 56.1797 25.3981 56.419 25.8538 56.6405C26.2454 56.8223 26.7072 56.7571 27.0332 56.474L29.3118 54.5277C30.3582 54.9078 31.4352 55.1981 32.531 55.3953L33.5295 58.2069C33.6699 58.6154 34.0375 58.9031 34.4677 58.9413C34.9737 58.9794 35.4845 58.9968 36 58.9968C36.5155 58.9968 37.0263 58.9794 37.5323 58.9413C37.9625 58.9031 38.3301 58.6154 38.4705 58.2069L39.4682 55.3882C40.564 55.1909 41.641 54.9007 42.6874 54.5206L44.966 56.4668C45.292 56.7499 45.7538 56.8151 46.1454 56.6334C46.6022 56.4134 47.0537 56.1742 47.5 55.9156C47.9463 55.6571 48.3793 55.3856 48.7991 55.1011C49.15 54.8542 49.3242 54.4251 49.2448 54.0034L48.7 51.0618C49.551 50.3432 50.34 49.5542 51.0587 48.7031L54.0034 49.2448C54.4272 49.3274 54.86 49.1531 55.1082 48.7999C55.3943 48.3811 55.6658 47.9481 55.9228 47.5008C56.1797 47.0535 56.419 46.6019 56.6405 46.1462C56.8223 45.7546 56.7571 45.2928 56.474 44.9668L54.5269 42.6874C54.9075 41.6414 55.1977 40.5646 55.3946 39.469L58.2069 38.4705C58.6153 38.3299 58.9029 37.9625 58.9413 37.5323C58.9794 37.0263 58.9968 36.5155 58.9968 36C58.9968 35.4845 58.9826 34.9737 58.9445 34.4677ZM36 53.4483C26.3636 53.4483 18.5517 45.6364 18.5517 36C18.5517 26.3636 26.3636 18.5517 36 18.5517C45.6364 18.5517 53.4483 26.3636 53.4483 36C53.4374 45.6319 45.6319 53.4374 36 53.4483Z" fill="url(#paint9_linear_176_9972)"/>
<path d="M36 20.1379C27.8508 20.1298 21.0213 26.298 20.2023 34.4059C19.3833 42.5138 24.8414 49.9232 32.8276 51.5448V45.5173H25.6897C24.8136 45.5173 24.1035 44.8071 24.1035 43.9311V42.3448C24.1052 41.7807 24.4074 41.2602 24.8966 40.9791V28.069C24.8966 27.1929 25.6067 26.4828 26.4828 26.4828H29.6552V25.6897C29.6552 24.3756 30.7204 23.3104 32.0345 23.3104H39.9655C41.2796 23.3104 42.3448 24.3756 42.3448 25.6897V26.4828H45.5173C46.3933 26.4828 47.1035 27.1929 47.1035 28.069V40.9791C47.5926 41.2602 47.8949 41.7807 47.8966 42.3448V43.9311C47.8966 44.8071 47.1864 45.5173 46.3104 45.5173H39.1724V51.5448C47.1586 49.9232 52.6167 42.5138 51.7977 34.4059C50.9787 26.298 44.1492 20.1298 36 20.1379Z" fill="url(#paint10_linear_176_9972)"/>
</g>
</g>
<defs>
<filter id="filter0_b_176_9972" x="-34.0364" y="-34.0364" width="140.073" height="140.073" filterUnits="userSpaceOnUse" color-interpolation-filters="sRGB">
<feFlood flood-opacity="0" result="BackgroundImageFix"/>
<feGaussianBlur in="BackgroundImageFix" stdDeviation="17.0182"/>
<feComposite in2="SourceAlpha" operator="in" result="effect1_backgroundBlur_176_9972"/>
<feBlend mode="normal" in="SourceGraphic" in2="effect1_backgroundBlur_176_9972" result="shape"/>
</filter>
<linearGradient id="paint0_linear_176_9972" x1="1.54688" y1="-1.7898e-06" x2="72" y2="72" gradientUnits="userSpaceOnUse">
<stop stop-color="#FE5B3A"/>
<stop offset="1" stop-color="#FC2A64"/>
</linearGradient>
<linearGradient id="paint1_linear_176_9972" x1="38.43" y1="34.4138" x2="41.4283" y2="36.7119" gradientUnits="userSpaceOnUse">
<stop stop-color="#FE5B3A"/>
<stop offset="1" stop-color="#FC2A64"/>
</linearGradient>
<linearGradient id="paint2_linear_176_9972" x1="39.24" y1="28.069" x2="40.4658" y2="30.5743" gradientUnits="userSpaceOnUse">
<stop stop-color="#FE5B3A"/>
<stop offset="1" stop-color="#FC2A64"/>
</linearGradient>
<linearGradient id="paint3_linear_176_9972" x1="31.4467" y1="24.8965" x2="31.9399" y2="27.9211" gradientUnits="userSpaceOnUse">
<stop stop-color="#FE5B3A"/>
<stop offset="1" stop-color="#FC2A64"/>
</linearGradient>
<linearGradient id="paint4_linear_176_9972" x1="34.4822" y1="45.5172" x2="39.5146" y2="48.0886" gradientUnits="userSpaceOnUse">
<stop stop-color="#FE5B3A"/>
<stop offset="1" stop-color="#FC2A64"/>
</linearGradient>
<linearGradient id="paint5_linear_176_9972" x1="31.4502" y1="34.4075" x2="32.9651" y2="35.5995" gradientUnits="userSpaceOnUse">
<stop stop-color="#FE5B3A"/>
<stop offset="1" stop-color="#FC2A64"/>
</linearGradient>
<linearGradient id="paint6_linear_176_9972" x1="29.7225" y1="28.069" x2="30.9482" y2="30.5743" gradientUnits="userSpaceOnUse">
<stop stop-color="#FE5B3A"/>
<stop offset="1" stop-color="#FC2A64"/>
</linearGradient>
<linearGradient id="paint7_linear_176_9972" x1="26.8914" y1="28.069" x2="38.2583" y2="45.4937" gradientUnits="userSpaceOnUse">
<stop stop-color="#FE5B3A"/>
<stop offset="1" stop-color="#FC2A64"/>
</linearGradient>
<linearGradient id="paint8_linear_176_9972" x1="26.1325" y1="42.3448" x2="26.3649" y2="45.4323" gradientUnits="userSpaceOnUse">
<stop stop-color="#FE5B3A"/>
<stop offset="1" stop-color="#FC2A64"/>
</linearGradient>
<linearGradient id="paint9_linear_176_9972" x1="13.9882" y1="13" x2="58.9968" y2="58.9968" gradientUnits="userSpaceOnUse">
<stop stop-color="#FE5B3A"/>
<stop offset="1" stop-color="#FC2A64"/>
</linearGradient>
<linearGradient id="paint10_linear_176_9972" x1="20.8034" y1="20.1379" x2="51.5262" y2="51.8862" gradientUnits="userSpaceOnUse">
<stop stop-color="#FE5B3A"/>
<stop offset="1" stop-color="#FC2A64"/>
</linearGradient>
<clipPath id="clip0_176_9972">
<rect width="46" height="46" fill="white" transform="translate(13 13)"/>
</clipPath>
</defs>
</svg>
