<svg width="72" height="72" viewBox="0 0 72 72" fill="none" xmlns="http://www.w3.org/2000/svg">
<g filter="url(#filter0_b_176_9932)">
<rect width="72" height="72" rx="36" fill="url(#paint0_linear_176_9932)" fill-opacity="0.16"/>
<path d="M54.6352 38.9814V34.0529L42.709 38.0276V42.9151L54.6352 46.8905V41.9656C55.0306 41.9656 55.4097 41.8086 55.6893 41.529C55.9688 41.2495 56.1259 40.8703 56.1259 40.4749C56.1259 40.0796 55.9688 39.7004 55.6893 39.4209C55.4097 39.1413 55.0306 38.9843 54.6352 38.9843V38.9814Z" fill="url(#paint1_linear_176_9932)"/>
<path d="M17.3657 25.5644V30.4936L29.2919 26.5182V21.6307L17.3657 17.6546V22.5831C17.1699 22.5831 16.9761 22.6216 16.7952 22.6965C16.6144 22.7715 16.45 22.8813 16.3116 23.0197C16.1732 23.1581 16.0634 23.3224 15.9885 23.5033C15.9136 23.6842 15.875 23.878 15.875 24.0738C15.875 24.2695 15.9136 24.4634 15.9885 24.6442C16.0634 24.8251 16.1732 24.9894 16.3116 25.1278C16.45 25.2663 16.6144 25.3761 16.7952 25.451C16.9761 25.5259 17.1699 25.5644 17.3657 25.5644Z" fill="url(#paint2_linear_176_9932)"/>
<path d="M35.2553 22.5831C35.2543 22.386 35.1754 22.1973 35.0357 22.0581C34.8961 21.919 34.707 21.8408 34.5099 21.8406H30.7832V26.3134H35.2553V22.5831Z" fill="url(#paint3_linear_176_9932)"/>
<path d="M38.2368 24.0738C38.2366 23.8762 38.158 23.6867 38.0183 23.5469C37.8785 23.4072 37.6891 23.3286 37.4914 23.3284H36.7461V24.8191H37.4914C37.6891 24.8191 37.8787 24.7406 38.0185 24.6008C38.1583 24.461 38.2368 24.2715 38.2368 24.0738Z" fill="url(#paint4_linear_176_9932)"/>
<path d="M34.509 33.764C34.7066 33.7638 34.8961 33.6852 35.0358 33.5454C35.1756 33.4057 35.2542 33.2162 35.2544 33.0186V27.8012H33.7637V33.0186C33.7639 33.2162 33.8424 33.4057 33.9822 33.5454C34.1219 33.6852 34.3114 33.7638 34.509 33.764Z" fill="url(#paint5_linear_176_9932)"/>
<path d="M39.726 44.1988V49.4169C39.726 49.7105 39.6681 50.0013 39.5557 50.2726C39.4434 50.5439 39.2787 50.7904 39.071 50.998C38.8634 51.2057 38.6169 51.3704 38.3456 51.4827C38.0743 51.5951 37.7836 51.6529 37.4899 51.6529C37.1963 51.6529 36.9055 51.5951 36.6342 51.4827C36.3629 51.3704 36.1164 51.2057 35.9088 50.998C35.7012 50.7904 35.5365 50.5439 35.4241 50.2726C35.3117 50.0013 35.2539 49.7105 35.2539 49.4169V42.7081H34.5085C33.9155 42.7081 33.3468 42.4725 32.9274 42.0532C32.5081 41.6338 32.2725 41.0651 32.2725 40.4721C32.2725 39.879 32.5081 39.3103 32.9274 38.891C33.3468 38.4716 33.9155 38.236 34.5085 38.236H35.3912C35.5444 37.8014 35.8284 37.4247 36.2041 37.1578C36.5799 36.891 37.029 36.7469 37.4899 36.7453H41.842L47.1801 34.9657V29.2919H42.7073V27.8012H38.6723L42.7073 23.7654V20.3471H47.1801V18.111C47.1793 17.5181 46.9434 16.9497 46.5241 16.5305C46.1048 16.1113 45.5363 15.8756 44.9434 15.875H41.9649C41.7672 15.8752 41.5778 15.9538 41.438 16.0935C41.2983 16.2333 41.2197 16.4227 41.2195 16.6203C41.2189 17.2132 40.9832 17.7816 40.564 18.2008C40.1448 18.62 39.5763 18.8558 38.9835 18.8564H33.0179C32.425 18.8558 31.8566 18.62 31.4374 18.2008C31.0182 17.7816 30.7824 17.2132 30.7818 16.6203C30.7817 16.5223 30.7623 16.4251 30.7246 16.3346C30.687 16.244 30.6318 16.1617 30.5623 16.0925C30.4928 16.0233 30.4103 15.9684 30.3196 15.9311C30.2289 15.8938 30.1317 15.8747 30.0336 15.875H27.0551C26.4622 15.8756 25.8937 16.1113 25.4744 16.5305C25.055 16.9497 24.8191 17.5181 24.8184 18.111V18.5682L30.1565 20.3471H34.5085C34.9694 20.3486 35.4186 20.4927 35.7943 20.7596C36.1701 21.0265 36.4541 21.4031 36.6073 21.8378H37.4899C38.0761 21.8483 38.6347 22.0885 39.0456 22.5068C39.4564 22.925 39.6866 23.4879 39.6866 24.0741C39.6866 24.6604 39.4564 25.2233 39.0456 25.6415C38.6347 26.0598 38.0761 26.3 37.4899 26.3105H36.7446V33.0186C36.7446 33.6117 36.509 34.1804 36.0897 34.5997C35.6703 35.0191 35.1016 35.2547 34.5085 35.2547C33.9155 35.2547 33.3468 35.0191 32.9274 34.5997C32.5081 34.1804 32.2725 33.6117 32.2725 33.0186V27.8012H30.1565L24.8184 29.5801V36.7453H29.2911V40.1637L33.3262 44.1988H29.2911V45.6895H24.8184V50.9076C24.8191 51.5005 25.055 52.0689 25.4744 52.4881C25.8937 52.9073 26.4622 53.1431 27.0551 53.1436H44.9434C45.5363 53.1431 46.1048 52.9073 46.5241 52.4881C46.9434 52.0689 47.1793 51.5005 47.1801 50.9076V45.9784L41.842 44.1988H39.726Z" fill="url(#paint6_linear_176_9932)"/>
<path d="M27.8012 42.7081H29.7282L27.8012 40.7811V38.236H15.875V44.2016H27.8012V42.7081ZM19.6017 41.9656H18.111V40.4721H19.6017V41.9656ZM22.5831 41.9656H21.0924V40.4721H22.5831V41.9656ZM25.5645 41.9656H24.0738V40.4721H25.5645V41.9656Z" fill="url(#paint7_linear_176_9932)"/>
<path d="M41.2182 38.236H37.4914C37.2938 38.2362 37.1043 38.3148 36.9646 38.4545C36.8249 38.5943 36.7463 38.7837 36.7461 38.9814V42.7081H41.2182V38.236Z" fill="url(#paint8_linear_176_9932)"/>
<path d="M27.0551 54.6343C26.2459 54.6313 25.46 54.3626 24.8184 53.8696V53.889C24.8191 54.4819 25.055 55.0503 25.4744 55.4695C25.8937 55.8887 26.4622 56.1244 27.0551 56.125H44.9434C45.5363 56.1244 46.1048 55.8887 46.5241 55.4695C46.9434 55.0503 47.1793 54.4819 47.1801 53.889V53.8696C46.5384 54.3626 45.7526 54.6313 44.9434 54.6343H27.0551Z" fill="url(#paint9_linear_176_9932)"/>
<path d="M33.0193 17.3657H38.985C39.1826 17.3655 39.3721 17.2869 39.5118 17.1472C39.6515 17.0074 39.7301 16.818 39.7303 16.6203C39.732 16.366 39.7775 16.1139 39.8647 15.875H32.1367C32.225 16.1137 32.2714 16.3659 32.274 16.6203C32.2742 16.818 32.3528 17.0074 32.4925 17.1472C32.6323 17.2869 32.8217 17.3655 33.0193 17.3657Z" fill="url(#paint10_linear_176_9932)"/>
<path d="M44.1985 21.8406V24.3857L42.2715 26.3134H44.1985V27.8041H56.1247V21.8406H44.1985ZM47.9259 25.5674H46.4352V24.0738H47.9259V25.5674ZM50.9073 25.5674H49.4166V24.0738H50.9073V25.5674ZM53.8886 25.5674H52.398V24.0738H53.8886V25.5674Z" fill="url(#paint11_linear_176_9932)"/>
<path d="M36.7461 49.4169C36.7461 49.6146 36.8246 49.8042 36.9644 49.944C37.1042 50.0837 37.2938 50.1623 37.4914 50.1623C37.6891 50.1623 37.8787 50.0837 38.0185 49.944C38.1583 49.8042 38.2368 49.6146 38.2368 49.4169V44.1988H36.7461V49.4169Z" fill="url(#paint12_linear_176_9932)"/>
<path d="M33.7637 40.4721C33.7639 40.6697 33.8424 40.8592 33.9822 40.9989C34.1219 41.1387 34.3114 41.2172 34.509 41.2174H35.2544V39.7267H34.509C34.3114 39.7269 34.1219 39.8055 33.9822 39.9453C33.8424 40.085 33.7639 40.2745 33.7637 40.4721Z" fill="url(#paint13_linear_176_9932)"/>
</g>
<defs>
<filter id="filter0_b_176_9932" x="-34.0364" y="-34.0364" width="140.073" height="140.073" filterUnits="userSpaceOnUse" color-interpolation-filters="sRGB">
<feFlood flood-opacity="0" result="BackgroundImageFix"/>
<feGaussianBlur in="BackgroundImageFix" stdDeviation="17.0182"/>
<feComposite in2="SourceAlpha" operator="in" result="effect1_backgroundBlur_176_9932"/>
<feBlend mode="normal" in="SourceGraphic" in2="effect1_backgroundBlur_176_9932" result="shape"/>
</filter>
<linearGradient id="paint0_linear_176_9932" x1="1.54688" y1="-1.7898e-06" x2="72" y2="72" gradientUnits="userSpaceOnUse">
<stop stop-color="#FE5B3A"/>
<stop offset="1" stop-color="#FC2A64"/>
</linearGradient>
<linearGradient id="paint1_linear_176_9932" x1="42.9972" y1="34.0529" x2="55.5348" y2="47.4439" gradientUnits="userSpaceOnUse">
<stop stop-color="#FE5B3A"/>
<stop offset="1" stop-color="#FC2A64"/>
</linearGradient>
<linearGradient id="paint2_linear_176_9932" x1="16.1633" y1="17.6546" x2="28.7023" y2="31.0457" gradientUnits="userSpaceOnUse">
<stop stop-color="#FE5B3A"/>
<stop offset="1" stop-color="#FC2A64"/>
</linearGradient>
<linearGradient id="paint3_linear_176_9932" x1="30.8793" y1="21.8406" x2="35.256" y2="26.3127" gradientUnits="userSpaceOnUse">
<stop stop-color="#FE5B3A"/>
<stop offset="1" stop-color="#FC2A64"/>
</linearGradient>
<linearGradient id="paint4_linear_176_9932" x1="36.7781" y1="23.3284" x2="38.2368" y2="24.8191" gradientUnits="userSpaceOnUse">
<stop stop-color="#FE5B3A"/>
<stop offset="1" stop-color="#FC2A64"/>
</linearGradient>
<linearGradient id="paint5_linear_176_9932" x1="33.7957" y1="27.8012" x2="36.595" y2="28.5164" gradientUnits="userSpaceOnUse">
<stop stop-color="#FE5B3A"/>
<stop offset="1" stop-color="#FC2A64"/>
</linearGradient>
<linearGradient id="paint6_linear_176_9932" x1="25.2988" y1="15.875" x2="57.809" y2="35.8099" gradientUnits="userSpaceOnUse">
<stop stop-color="#FE5B3A"/>
<stop offset="1" stop-color="#FC2A64"/>
</linearGradient>
<linearGradient id="paint7_linear_176_9932" x1="16.1726" y1="38.236" x2="20.3514" y2="48.1528" gradientUnits="userSpaceOnUse">
<stop stop-color="#FE5B3A"/>
<stop offset="1" stop-color="#FC2A64"/>
</linearGradient>
<linearGradient id="paint8_linear_176_9932" x1="36.8422" y1="38.236" x2="41.2182" y2="42.7081" gradientUnits="userSpaceOnUse">
<stop stop-color="#FE5B3A"/>
<stop offset="1" stop-color="#FC2A64"/>
</linearGradient>
<linearGradient id="paint9_linear_176_9932" x1="25.2988" y1="53.8696" x2="25.7303" y2="58.242" gradientUnits="userSpaceOnUse">
<stop stop-color="#FE5B3A"/>
<stop offset="1" stop-color="#FC2A64"/>
</linearGradient>
<linearGradient id="paint10_linear_176_9932" x1="32.3028" y1="15.875" x2="32.8346" y2="18.6926" gradientUnits="userSpaceOnUse">
<stop stop-color="#FE5B3A"/>
<stop offset="1" stop-color="#FC2A64"/>
</linearGradient>
<linearGradient id="paint11_linear_176_9932" x1="42.5691" y1="21.8406" x2="46.7453" y2="31.755" gradientUnits="userSpaceOnUse">
<stop stop-color="#FE5B3A"/>
<stop offset="1" stop-color="#FC2A64"/>
</linearGradient>
<linearGradient id="paint12_linear_176_9932" x1="36.7781" y1="44.1988" x2="39.5775" y2="44.9139" gradientUnits="userSpaceOnUse">
<stop stop-color="#FE5B3A"/>
<stop offset="1" stop-color="#FC2A64"/>
</linearGradient>
<linearGradient id="paint13_linear_176_9932" x1="33.7957" y1="39.7267" x2="35.2544" y2="41.2174" gradientUnits="userSpaceOnUse">
<stop stop-color="#FE5B3A"/>
<stop offset="1" stop-color="#FC2A64"/>
</linearGradient>
</defs>
</svg>
