<svg width="72" height="72" viewBox="0 0 72 72" fill="none" xmlns="http://www.w3.org/2000/svg">
<g filter="url(#filter0_b_176_9953)">
<rect width="72" height="72" rx="36" fill="url(#paint0_linear_176_9953)" fill-opacity="0.16"/>
<path d="M18.7135 28.6029C16.2853 28.8968 14.1636 30.1891 12.7617 32.057L18.7135 35.8046V28.6029Z" fill="url(#paint1_linear_176_9953)"/>
<path d="M20.5547 28.5727V36.5515H28.5094C28.1446 32.3258 24.777 28.9495 20.5547 28.5727Z" fill="url(#paint2_linear_176_9953)"/>
<path d="M28.4735 38.392H21.4395L25.4794 43.9564C27.095 42.5685 28.1987 40.6076 28.4735 38.392Z" fill="url(#paint3_linear_176_9953)"/>
<path d="M23.9707 45.0085L19.498 38.8481L14.9219 43.8959C16.4663 45.2512 18.4826 46.0808 20.6912 46.0808C22.2117 46.0808 22.7224 45.6913 23.9707 45.0085Z" fill="url(#paint4_linear_176_9953)"/>
<path d="M11.8168 33.6367C11.2979 34.7564 11 35.9985 11 37.3115C11 39.2727 11.6569 41.0805 12.7513 42.5437L18.1247 37.6088L11.8168 33.6367Z" fill="url(#paint5_linear_176_9953)"/>
<path d="M43.4529 22.0358C42.9604 22.0358 42.5605 22.4361 42.5605 22.9281C42.5605 23.434 42.9523 23.8303 43.4529 23.8303C43.9588 23.8303 44.3551 23.434 44.3551 22.9281C44.3551 22.4276 43.9588 22.0358 43.4529 22.0358Z" fill="url(#paint6_linear_176_9953)"/>
<path d="M35.408 26.1424C34.9155 26.1424 34.5156 26.5427 34.5156 27.0352C34.5156 27.5406 34.9074 27.9369 35.408 27.9369C35.9139 27.9369 36.3102 27.5406 36.3102 27.0352C36.3102 26.5346 35.9139 26.1424 35.408 26.1424Z" fill="url(#paint7_linear_176_9953)"/>
<path d="M27.3639 20.5992C26.8715 20.5992 26.4707 20.9996 26.4707 21.492C26.4707 21.9975 26.8634 22.3938 27.3639 22.3938C27.869 22.3938 28.2652 21.9975 28.2652 21.492C28.2652 20.9915 27.869 20.5992 27.3639 20.5992Z" fill="url(#paint8_linear_176_9953)"/>
<path d="M49.7713 51.5917H20.95H18.459V53.7834C18.459 54.5023 18.7411 55.1803 19.2525 55.6925C19.7566 56.1971 20.453 56.4864 21.162 56.4864H50.6681C50.1477 55.7875 49.7713 54.7517 49.7713 53.7821V51.5917Z" fill="url(#paint9_linear_176_9953)"/>
<path d="M51.4987 29.0674C51.0062 29.0674 50.6055 29.4677 50.6055 29.9597C50.6055 30.4656 50.9982 30.8619 51.4987 30.8619C52.0037 30.8619 52.4 30.4656 52.4 29.9597C52.4 29.4592 52.0037 29.0674 51.4987 29.0674Z" fill="url(#paint10_linear_176_9953)"/>
<path d="M54.9202 16H23.9468C22.8057 16 21.8672 16.9294 21.8672 18.0796V26.9042C30.448 28.6273 30.3961 37.3851 30.4341 37.4771C30.3855 37.5719 29.9239 46.6194 21.8672 47.8384V49.7523H50.6966C51.2027 49.7523 51.6168 50.1664 51.6168 50.6725V53.7828C51.6168 55.3884 53.0012 56.5707 54.4693 56.4789C55.868 56.3961 56.9998 55.117 56.9998 53.6171V18.0796C56.9998 16.9294 56.0704 16 54.9202 16ZM53.3191 46.9918H30.9402C30.4341 46.9918 30.02 46.5777 30.02 46.0716C30.02 45.5655 30.4341 45.1514 30.9402 45.1514H53.3191C53.8344 45.1514 54.2393 45.5655 54.2393 46.0716C54.2393 46.5777 53.8344 46.9918 53.3191 46.9918ZM53.3191 42.2252H34.2713C33.7652 42.2252 33.3511 41.8112 33.3511 41.3051C33.3511 40.799 33.7652 40.3849 34.2713 40.3849H53.3191C53.8344 40.3849 54.2393 40.799 54.2393 41.3051C54.2393 41.8112 53.8344 42.2252 53.3191 42.2252ZM53.3191 37.4679H34.9614C34.4553 37.4679 34.0412 37.0538 34.0412 36.5477C34.0412 36.0416 34.4553 35.6275 34.9614 35.6275H53.3191C53.8344 35.6275 54.2393 36.0416 54.2393 36.5477C54.2393 37.0538 53.8344 37.4679 53.3191 37.4679ZM51.4971 32.7014C49.9972 32.7014 48.7642 31.4683 48.7642 29.9592C48.7642 29.6095 48.8378 29.2782 48.9574 28.9654L44.7797 25.3123C44.3841 25.5331 43.9332 25.6711 43.4547 25.6711C42.7278 25.6711 42.0744 25.3859 41.5867 24.9166L38.1176 26.6925C38.1268 26.803 38.1545 26.9226 38.1545 27.033C38.1545 28.5513 36.9214 29.7752 35.4123 29.7752C33.9032 29.7752 32.6794 28.5513 32.6794 27.033C32.6794 26.7937 32.7161 26.5637 32.7713 26.3429L28.9526 23.7111C28.5109 24.0424 27.9588 24.2357 27.3607 24.2357C25.8608 24.2357 24.6277 23.0026 24.6277 21.4935C24.6277 19.9844 25.8608 18.7606 27.3607 18.7606C28.879 18.7606 30.1028 19.9844 30.1028 21.4935C30.1028 21.7419 30.066 21.972 30.0016 22.202L33.8112 24.8246C34.262 24.5025 34.8142 24.3001 35.4123 24.3001C36.1393 24.3001 36.7926 24.5945 37.2803 25.0546L40.7585 23.2787C40.7402 23.1591 40.7218 23.0486 40.7218 22.929C40.7218 21.4199 41.9456 20.196 43.4547 20.196C44.9638 20.196 46.1969 21.4199 46.1969 22.929C46.1969 23.2878 46.1232 23.6192 46.0036 23.932L50.1812 27.5851C50.5677 27.3643 51.0186 27.2263 51.4971 27.2263C53.0154 27.2263 54.2393 28.4501 54.2393 29.9592C54.2393 31.4683 53.0154 32.7014 51.4971 32.7014Z" fill="url(#paint11_linear_176_9953)"/>
</g>
<defs>
<filter id="filter0_b_176_9953" x="-34.0364" y="-34.0364" width="140.073" height="140.073" filterUnits="userSpaceOnUse" color-interpolation-filters="sRGB">
<feFlood flood-opacity="0" result="BackgroundImageFix"/>
<feGaussianBlur in="BackgroundImageFix" stdDeviation="17.0182"/>
<feComposite in2="SourceAlpha" operator="in" result="effect1_backgroundBlur_176_9953"/>
<feBlend mode="normal" in="SourceGraphic" in2="effect1_backgroundBlur_176_9953" result="shape"/>
</filter>
<linearGradient id="paint0_linear_176_9953" x1="1.54688" y1="-1.7898e-06" x2="72" y2="72" gradientUnits="userSpaceOnUse">
<stop stop-color="#FE5B3A"/>
<stop offset="1" stop-color="#FC2A64"/>
</linearGradient>
<linearGradient id="paint1_linear_176_9953" x1="12.8896" y1="28.6029" x2="19.8389" y2="34.4721" gradientUnits="userSpaceOnUse">
<stop stop-color="#FE5B3A"/>
<stop offset="1" stop-color="#FC2A64"/>
</linearGradient>
<linearGradient id="paint2_linear_176_9953" x1="20.7256" y1="28.5727" x2="28.5335" y2="36.5279" gradientUnits="userSpaceOnUse">
<stop stop-color="#FE5B3A"/>
<stop offset="1" stop-color="#FC2A64"/>
</linearGradient>
<linearGradient id="paint3_linear_176_9953" x1="21.5906" y1="38.392" x2="26.8629" y2="45.2031" gradientUnits="userSpaceOnUse">
<stop stop-color="#FE5B3A"/>
<stop offset="1" stop-color="#FC2A64"/>
</linearGradient>
<linearGradient id="paint4_linear_176_9953" x1="15.1163" y1="38.8481" x2="21.9868" y2="47.6325" gradientUnits="userSpaceOnUse">
<stop stop-color="#FE5B3A"/>
<stop offset="1" stop-color="#FC2A64"/>
</linearGradient>
<linearGradient id="paint5_linear_176_9953" x1="11.1531" y1="33.6367" x2="19.6966" y2="40.6208" gradientUnits="userSpaceOnUse">
<stop stop-color="#FE5B3A"/>
<stop offset="1" stop-color="#FC2A64"/>
</linearGradient>
<linearGradient id="paint6_linear_176_9953" x1="42.5991" y1="22.0358" x2="44.3551" y2="23.8303" gradientUnits="userSpaceOnUse">
<stop stop-color="#FE5B3A"/>
<stop offset="1" stop-color="#FC2A64"/>
</linearGradient>
<linearGradient id="paint7_linear_176_9953" x1="34.5542" y1="26.1424" x2="36.3102" y2="27.9369" gradientUnits="userSpaceOnUse">
<stop stop-color="#FE5B3A"/>
<stop offset="1" stop-color="#FC2A64"/>
</linearGradient>
<linearGradient id="paint8_linear_176_9953" x1="26.5093" y1="20.5992" x2="28.2652" y2="22.3938" gradientUnits="userSpaceOnUse">
<stop stop-color="#FE5B3A"/>
<stop offset="1" stop-color="#FC2A64"/>
</linearGradient>
<linearGradient id="paint9_linear_176_9953" x1="19.151" y1="51.5917" x2="20.545" y2="60.9659" gradientUnits="userSpaceOnUse">
<stop stop-color="#FE5B3A"/>
<stop offset="1" stop-color="#FC2A64"/>
</linearGradient>
<linearGradient id="paint10_linear_176_9953" x1="50.644" y1="29.0674" x2="52.4" y2="30.8619" gradientUnits="userSpaceOnUse">
<stop stop-color="#FE5B3A"/>
<stop offset="1" stop-color="#FC2A64"/>
</linearGradient>
<linearGradient id="paint11_linear_176_9953" x1="22.622" y1="16" x2="61.9616" y2="50.8892" gradientUnits="userSpaceOnUse">
<stop stop-color="#FE5B3A"/>
<stop offset="1" stop-color="#FC2A64"/>
</linearGradient>
</defs>
</svg>
