<svg width="72" height="72" viewBox="0 0 72 72" fill="none" xmlns="http://www.w3.org/2000/svg">
<g filter="url(#filter0_b_176_9874)">
<rect width="72" height="72" rx="36" fill="url(#paint0_linear_176_9874)" fill-opacity="0.16"/>
<path d="M18.3438 49.2096C18.3438 50.1333 19.0886 50.8782 20.0123 50.8782H26.314C26.1874 50.2151 26.1204 49.5224 26.1204 48.8223C26.1204 42.6397 31.1558 37.6042 37.3384 37.6042C43.5358 37.6042 48.5712 42.6397 48.5712 48.8223C48.5712 49.5224 48.5042 50.2151 48.3776 50.8782H54.6719C55.5955 50.8782 56.3404 50.1333 56.3404 49.2096V27.809H18.3438V49.2096ZM23.1255 29.4254H51.5556C51.9669 29.4254 52.3004 29.7586 52.3004 30.1703C52.3004 30.582 51.9669 30.9152 51.5556 30.9152H23.1255C22.7141 30.9152 22.3806 30.582 22.3806 30.1703C22.3806 29.7586 22.7141 29.4254 23.1255 29.4254ZM23.1255 33.2117H51.5556C51.9669 33.2117 52.3004 33.5448 52.3004 33.9565C52.3004 34.3683 51.9669 34.7014 51.5556 34.7014H23.1255C22.7141 34.7014 22.3806 34.3683 22.3806 33.9565C22.3806 33.5448 22.7141 33.2117 23.1255 33.2117Z" fill="url(#paint1_linear_176_9874)"/>
<path d="M54.5625 19.8387H25.3852L24.4914 20.7028L24.8266 22.6543C24.9309 23.2652 24.7596 23.891 24.3648 24.3602C23.9625 24.8369 23.3741 25.1125 22.7484 25.1125C22.4132 25.1125 22.0705 25.0306 21.7651 24.8667L20.0221 23.9504L18.3535 24.8295V26.3192H56.3428V21.619C56.3428 20.6357 55.5458 19.8387 54.5625 19.8387ZM46.5477 23.825H45.146C44.7346 23.825 44.4011 23.4918 44.4011 23.0801C44.4011 22.6683 44.7346 22.3352 45.146 22.3352H46.5477C46.9591 22.3352 47.2926 22.6683 47.2926 23.0801C47.2926 23.4918 46.9591 23.825 46.5477 23.825ZM50.0238 23.825H48.622C48.2107 23.825 47.8771 23.4918 47.8771 23.0801C47.8771 22.6683 48.2107 22.3352 48.622 22.3352H50.0238C50.4351 22.3352 50.7687 22.6683 50.7687 23.0801C50.7687 23.4918 50.4351 23.825 50.0238 23.825ZM53.4998 23.825H52.098C51.6867 23.825 51.3532 23.4918 51.3532 23.0801C51.3532 22.6683 51.6867 22.3352 52.098 22.3352H53.4998C53.9112 22.3352 54.2447 22.6683 54.2447 23.0801C54.2447 23.4918 53.9112 23.825 53.4998 23.825Z" fill="url(#paint2_linear_176_9874)"/>
<path d="M33.5215 48.0818H36.5997V43.9273C35.7688 43.8722 34.9506 43.7255 34.1568 43.4921C33.8066 44.8049 33.5744 46.355 33.5215 48.0818Z" fill="url(#paint3_linear_176_9874)"/>
<path d="M36.5991 58.4365V55.2078C35.9232 55.2593 35.2581 55.3863 34.6113 55.5741C35.1678 57.017 35.8747 58.0196 36.5991 58.4365Z" fill="url(#paint4_linear_176_9874)"/>
<path d="M34.156 54.1582C34.9497 53.9244 35.7682 53.7775 36.5997 53.7224V49.5715H33.5215C33.5743 51.297 33.8063 52.8459 34.156 54.1582Z" fill="url(#paint5_linear_176_9874)"/>
<path d="M41.9473 54.6772C42.6823 55.0049 43.3813 55.4115 44.0339 55.892C45.7376 54.279 46.8569 52.0602 47.0459 49.5715H42.6566C42.604 51.4554 42.3547 53.1841 41.9473 54.6772Z" fill="url(#paint6_linear_176_9874)"/>
<path d="M38.0898 58.4364C38.8142 58.0193 39.521 57.0165 40.0775 55.5735C39.4314 55.3862 38.7665 55.2594 38.0898 55.2078V58.4364Z" fill="url(#paint7_linear_176_9874)"/>
<path d="M32.0317 49.5715H27.6465C27.8349 52.0603 28.9514 54.279 30.6528 55.8919C31.307 55.4119 32.0066 55.0054 32.7413 54.6779C32.3337 53.1847 32.0844 51.4558 32.0317 49.5715Z" fill="url(#paint8_linear_176_9874)"/>
<path d="M27.6465 48.0817H32.0318C32.0845 46.1968 32.334 44.4669 32.7419 42.9734C32.0078 42.6469 31.3084 42.2418 30.6539 41.7637C28.952 43.3754 27.8344 45.5926 27.6465 48.0817Z" fill="url(#paint9_linear_176_9874)"/>
<path d="M34.6113 42.0763C35.258 42.2638 35.9228 42.3903 36.598 42.442V39.2167C35.8741 39.6334 35.1676 40.635 34.6113 42.0763Z" fill="url(#paint10_linear_176_9874)"/>
<path d="M40.5215 58.0243C41.3486 57.7384 42.128 57.351 42.8377 56.8653C42.4086 56.5749 41.9576 56.3215 41.4901 56.1036C41.2098 56.8333 40.8822 57.4721 40.5215 58.0243Z" fill="url(#paint11_linear_176_9874)"/>
<path d="M31.8496 56.866C32.5599 57.3525 33.3404 57.7404 34.1691 58.0262C33.8079 57.4738 33.48 56.8346 33.1993 56.1044C32.7316 56.3222 32.28 56.5757 31.8496 56.866Z" fill="url(#paint12_linear_176_9874)"/>
<path d="M34.1649 39.6326C33.3389 39.918 32.5604 40.3046 31.8516 40.7896C32.2816 41.0782 32.7325 41.3303 33.1993 41.5471C33.4789 40.82 33.8054 40.1834 34.1649 39.6326Z" fill="url(#paint13_linear_176_9874)"/>
<path d="M38.0899 53.7225C38.9222 53.7777 39.7406 53.9244 40.5333 54.1576C40.883 52.8455 41.1149 51.2967 41.1677 49.5715H38.0898L38.0899 53.7225Z" fill="url(#paint14_linear_176_9874)"/>
<path d="M41.9453 42.9741C42.3531 44.4675 42.6026 46.197 42.6552 48.0817H47.0446C46.856 45.6037 45.7381 43.3813 44.0304 41.7641C43.3777 42.2424 42.6793 42.6475 41.9453 42.9741Z" fill="url(#paint15_linear_176_9874)"/>
<path d="M42.8355 40.7895C42.1278 40.305 41.3496 39.9187 40.5234 39.633C40.8829 40.1838 41.2094 40.8206 41.4889 41.548C41.9558 41.3309 42.4064 41.0786 42.8355 40.7895Z" fill="url(#paint16_linear_176_9874)"/>
<path d="M38.0898 48.0818H41.1677C41.1149 46.3552 40.8826 44.8052 40.5325 43.4925C39.7396 43.7255 38.9215 43.8719 38.0898 43.9272V48.0818Z" fill="url(#paint17_linear_176_9874)"/>
<path d="M38.0898 39.2168V42.4418C38.7657 42.3902 39.4304 42.2637 40.0764 42.0768C39.5201 40.6354 38.8137 39.6335 38.0898 39.2168Z" fill="url(#paint18_linear_176_9874)"/>
<path d="M20.0237 22.2653L22.462 23.5515C22.9133 23.7896 23.4415 23.4063 23.3551 22.9033L22.8884 20.1872L23.2419 19.8409L24.8647 18.2645C25.2307 17.9091 25.0297 17.2882 24.5249 17.2148L21.7988 16.8175L20.5763 14.3427C20.3504 13.8854 19.6981 13.8858 19.473 14.3436L18.2559 16.8175L15.5271 17.2151C15.0227 17.2886 14.8214 17.9084 15.1864 18.2642L17.1591 20.1872L16.6927 22.9016C16.6061 23.4048 17.135 23.7882 17.5864 23.5494L18.3497 23.1457L20.0237 22.2653Z" fill="url(#paint19_linear_176_9874)"/>
</g>
<defs>
<filter id="filter0_b_176_9874" x="-52" y="-52" width="176" height="176" filterUnits="userSpaceOnUse" color-interpolation-filters="sRGB">
<feFlood flood-opacity="0" result="BackgroundImageFix"/>
<feGaussianBlur in="BackgroundImageFix" stdDeviation="26"/>
<feComposite in2="SourceAlpha" operator="in" result="effect1_backgroundBlur_176_9874"/>
<feBlend mode="normal" in="SourceGraphic" in2="effect1_backgroundBlur_176_9874" result="shape"/>
</filter>
<linearGradient id="paint0_linear_176_9874" x1="1.54688" y1="-1.7898e-06" x2="72" y2="72" gradientUnits="userSpaceOnUse">
<stop stop-color="#FE5B3A"/>
<stop offset="1" stop-color="#FC2A64"/>
</linearGradient>
<linearGradient id="paint1_linear_176_9874" x1="19.1601" y1="27.809" x2="38.9894" y2="61.1863" gradientUnits="userSpaceOnUse">
<stop stop-color="#FE5B3A"/>
<stop offset="1" stop-color="#FC2A64"/>
</linearGradient>
<linearGradient id="paint2_linear_176_9874" x1="19.1697" y1="19.8387" x2="21.2298" y2="32.1804" gradientUnits="userSpaceOnUse">
<stop stop-color="#FE5B3A"/>
<stop offset="1" stop-color="#FC2A64"/>
</linearGradient>
<linearGradient id="paint3_linear_176_9874" x1="33.5876" y1="43.4921" x2="37.7773" y2="46.3637" gradientUnits="userSpaceOnUse">
<stop stop-color="#FE5B3A"/>
<stop offset="1" stop-color="#FC2A64"/>
</linearGradient>
<linearGradient id="paint4_linear_176_9874" x1="34.654" y1="55.2078" x2="37.5029" y2="57.0001" gradientUnits="userSpaceOnUse">
<stop stop-color="#FE5B3A"/>
<stop offset="1" stop-color="#FC2A64"/>
</linearGradient>
<linearGradient id="paint5_linear_176_9874" x1="33.5876" y1="49.5715" x2="37.7755" y2="52.4439" gradientUnits="userSpaceOnUse">
<stop stop-color="#FE5B3A"/>
<stop offset="1" stop-color="#FC2A64"/>
</linearGradient>
<linearGradient id="paint6_linear_176_9874" x1="42.0568" y1="49.5715" x2="48.1293" y2="54.5777" gradientUnits="userSpaceOnUse">
<stop stop-color="#FE5B3A"/>
<stop offset="1" stop-color="#FC2A64"/>
</linearGradient>
<linearGradient id="paint7_linear_176_9874" x1="38.1325" y1="55.2078" x2="40.9812" y2="57" gradientUnits="userSpaceOnUse">
<stop stop-color="#FE5B3A"/>
<stop offset="1" stop-color="#FC2A64"/>
</linearGradient>
<linearGradient id="paint8_linear_176_9874" x1="27.7559" y1="49.5715" x2="33.8276" y2="54.5733" gradientUnits="userSpaceOnUse">
<stop stop-color="#FE5B3A"/>
<stop offset="1" stop-color="#FC2A64"/>
</linearGradient>
<linearGradient id="paint9_linear_176_9874" x1="27.756" y1="41.7637" x2="33.8259" y2="46.7666" gradientUnits="userSpaceOnUse">
<stop stop-color="#FE5B3A"/>
<stop offset="1" stop-color="#FC2A64"/>
</linearGradient>
<linearGradient id="paint10_linear_176_9874" x1="34.654" y1="39.2167" x2="37.5004" y2="41.0086" gradientUnits="userSpaceOnUse">
<stop stop-color="#FE5B3A"/>
<stop offset="1" stop-color="#FC2A64"/>
</linearGradient>
<linearGradient id="paint11_linear_176_9874" x1="40.5712" y1="56.1036" x2="42.4108" y2="58.3706" gradientUnits="userSpaceOnUse">
<stop stop-color="#FE5B3A"/>
<stop offset="1" stop-color="#FC2A64"/>
</linearGradient>
<linearGradient id="paint12_linear_176_9874" x1="31.8994" y1="56.1044" x2="33.7398" y2="58.3743" gradientUnits="userSpaceOnUse">
<stop stop-color="#FE5B3A"/>
<stop offset="1" stop-color="#FC2A64"/>
</linearGradient>
<linearGradient id="paint13_linear_176_9874" x1="31.9013" y1="39.6326" x2="33.7341" y2="41.8959" gradientUnits="userSpaceOnUse">
<stop stop-color="#FE5B3A"/>
<stop offset="1" stop-color="#FC2A64"/>
</linearGradient>
<linearGradient id="paint14_linear_176_9874" x1="38.156" y1="49.5715" x2="42.3434" y2="52.4436" gradientUnits="userSpaceOnUse">
<stop stop-color="#FE5B3A"/>
<stop offset="1" stop-color="#FC2A64"/>
</linearGradient>
<linearGradient id="paint15_linear_176_9874" x1="42.0549" y1="41.7641" x2="48.1254" y2="46.7715" gradientUnits="userSpaceOnUse">
<stop stop-color="#FE5B3A"/>
<stop offset="1" stop-color="#FC2A64"/>
</linearGradient>
<linearGradient id="paint16_linear_176_9874" x1="40.5731" y1="39.633" x2="42.4067" y2="41.8955" gradientUnits="userSpaceOnUse">
<stop stop-color="#FE5B3A"/>
<stop offset="1" stop-color="#FC2A64"/>
</linearGradient>
<linearGradient id="paint17_linear_176_9874" x1="38.156" y1="43.4925" x2="42.3452" y2="46.3638" gradientUnits="userSpaceOnUse">
<stop stop-color="#FE5B3A"/>
<stop offset="1" stop-color="#FC2A64"/>
</linearGradient>
<linearGradient id="paint18_linear_176_9874" x1="38.1325" y1="39.2168" x2="40.9787" y2="41.0085" gradientUnits="userSpaceOnUse">
<stop stop-color="#FE5B3A"/>
<stop offset="1" stop-color="#FC2A64"/>
</linearGradient>
<linearGradient id="paint19_linear_176_9874" x1="15.216" y1="14" x2="24.6153" y2="24.0329" gradientUnits="userSpaceOnUse">
<stop stop-color="#FE5B3A"/>
<stop offset="1" stop-color="#FC2A64"/>
</linearGradient>
</defs>
</svg>
