<svg width="84" height="97" viewBox="0 0 84 97" fill="none" xmlns="http://www.w3.org/2000/svg">
<path d="M30.4688 89.5082C29.8982 89.4582 29.6454 89.5082 29.4792 89.4154C16.2319 81.5539 7.34013 70.4465 3.88744 55.4298C3.01343 51.6132 3.16511 47.6896 4.14746 43.8444C6.26386 35.5478 13.2343 29.8407 21.866 29.3413C26.3371 29.0845 30.6494 29.534 34.5788 31.9666C34.8894 34.0283 35.0628 36.0757 35.5251 38.066C36.2546 41.1978 37.9304 43.7588 40.8486 45.3711C43.0444 46.5838 45.1536 46.6195 46.3527 45.4068C47.8623 43.8801 47.8406 41.9254 46.9305 40.2989C45.6665 38.0232 44.0485 35.9116 42.3727 33.8927C41.2892 32.5872 39.8373 31.5742 38.5733 30.4542C39.794 22.4144 47.5012 18.9616 56.783 22.3288C57.0863 23.4559 57.3392 24.6829 57.7509 25.8529C59.2316 30.0619 61.8536 33.3006 66.2237 34.7987C67.8633 35.3623 69.6836 35.5621 71.1066 34.1067C72.2045 32.9796 72.1973 30.9536 71.0271 28.9704C69.1635 25.8244 66.3609 23.6129 63.2911 21.701C62.222 21.0375 61.1097 20.4454 60.0623 19.8462C61.478 7.36197 72.8329 -1.46973 84 3.51683C83.8917 2.60369 84.0289 1.81897 83.6894 1.38381C83.3138 0.905839 82.5409 0.599083 81.898 0.477808C75.7944 -0.649339 70.0881 0.0426462 65.3641 4.45136C61.8464 7.74006 59.4194 11.7421 57.8592 16.265C57.6353 16.9071 57.3969 17.5491 57.1513 18.184C57.1152 18.2768 56.9924 18.341 56.7468 18.5692C56.1184 18.5122 55.3239 18.4694 54.5438 18.3481C44.8791 16.85 39.8157 19.4253 35.3084 28.3355C34.4055 28.0501 33.4592 27.7576 32.513 27.4437C26.9511 25.5889 21.3676 25.4677 15.7841 27.2797C6.59614 30.2545 0.665886 38.066 0.0663528 47.8965C-0.25869 53.2468 0.615326 58.4046 2.58004 63.3769C7.35458 75.426 15.1773 84.9068 26.8283 91.1062C27.4423 91.4343 28.0491 91.7696 28.6486 92.112C28.728 92.162 28.7641 92.2904 29.0458 92.7683C26.6044 93.3391 24.2785 93.1108 21.9671 93.018C19.699 92.9253 17.431 92.7398 14.9751 92.5829C15.1845 94.4448 16.1741 95.1796 17.4165 95.5791C18.8467 96.0356 20.313 96.5992 21.7793 96.6492C25.716 96.7918 29.667 96.8703 33.5892 96.6206C36.7097 96.428 37.5692 94.7658 36.1679 92.2618C33.1848 86.9614 30.1654 81.6752 27.1245 76.4104C26.6477 75.5829 25.9688 74.8767 25.1959 73.8708C23.8235 75.426 24.4302 76.5674 24.9286 77.6589C26.6983 81.5111 28.5041 85.3491 30.4472 89.5224L30.4688 89.5082ZM68.889 31.9452C63.9195 31.2817 60.7918 28.1429 60.6113 23.7199C63.9556 25.91 67.1483 27.8575 68.889 31.9452ZM44.4818 43.0312C40.2129 42.0681 38.2193 39.2003 38.6599 34.8415C41.4048 37.0887 43.8173 39.2645 44.4818 43.0312Z" fill="url(#paint0_linear_176_13748)"/>
<defs>
<linearGradient id="paint0_linear_176_13748" x1="82.1953" y1="-2.40585e-06" x2="-11.8531" y2="83.4192" gradientUnits="userSpaceOnUse">
<stop stop-color="#FE5B3A"/>
<stop offset="1" stop-color="#FC2A64"/>
</linearGradient>
</defs>
</svg>
