<svg width="84" height="97" viewBox="0 0 84 97" fill="none" xmlns="http://www.w3.org/2000/svg">
<path d="M53.5312 89.5082C54.1018 89.4582 54.3546 89.5082 54.5208 89.4154C67.7681 81.5539 76.6599 70.4465 80.1126 55.4298C80.9866 51.6132 80.8349 47.6896 79.8525 43.8444C77.7361 35.5478 70.7657 29.8407 62.134 29.3413C57.6629 29.0845 53.3506 29.534 49.4212 31.9666C49.1106 34.0283 48.9372 36.0757 48.4749 38.066C47.7454 41.1978 46.0696 43.7588 43.1514 45.3711C40.9556 46.5838 38.8464 46.6195 37.6473 45.4068C36.1377 43.8801 36.1594 41.9254 37.0695 40.2989C38.3335 38.0232 39.9515 35.9116 41.6273 33.8927C42.7108 32.5872 44.1627 31.5742 45.4267 30.4542C44.206 22.4144 36.4988 18.9616 27.217 22.3288C26.9137 23.4559 26.6608 24.6829 26.2491 25.8529C24.7684 30.0619 22.1464 33.3006 17.7763 34.7987C16.1367 35.3623 14.3164 35.5621 12.8934 34.1067C11.7955 32.9796 11.8027 30.9536 12.9729 28.9704C14.8365 25.8244 17.6391 23.6129 20.7089 21.701C21.778 21.0375 22.8903 20.4454 23.9377 19.8462C22.522 7.36197 11.1671 -1.46973 0 3.51683C0.108348 2.60369 -0.0288981 1.81897 0.310593 1.38381C0.686199 0.905839 1.45909 0.599083 2.10196 0.477808C8.20556 -0.649339 13.9119 0.0426462 18.6359 4.45136C22.1536 7.74006 24.5806 11.7421 26.1408 16.265C26.3647 16.9071 26.6031 17.5491 26.8487 18.184C26.8848 18.2768 27.0076 18.341 27.2532 18.5692C27.8816 18.5122 28.6761 18.4694 29.4562 18.3481C39.1209 16.85 44.1843 19.4253 48.6916 28.3355C49.5945 28.0501 50.5408 27.7576 51.487 27.4437C57.0489 25.5889 62.6324 25.4677 68.2159 27.2797C77.4039 30.2545 83.3341 38.066 83.9336 47.8965C84.2587 53.2468 83.3847 58.4046 81.42 63.3769C76.6454 75.426 68.8227 84.9068 57.1717 91.1062C56.5577 91.4343 55.9509 91.7696 55.3514 92.112C55.272 92.162 55.2359 92.2904 54.9542 92.7683C57.3956 93.3391 59.7215 93.1108 62.0329 93.018C64.301 92.9253 66.569 92.7398 69.0249 92.5829C68.8155 94.4448 67.8259 95.1796 66.5835 95.5791C65.1533 96.0356 63.687 96.5992 62.2207 96.6492C58.284 96.7918 54.333 96.8703 50.4108 96.6206C47.2903 96.428 46.4308 94.7658 47.8321 92.2618C50.8152 86.9614 53.8346 81.6752 56.8755 76.4104C57.3523 75.5829 58.0312 74.8767 58.8041 73.8708C60.1765 75.426 59.5698 76.5674 59.0714 77.6589C57.3017 81.5111 55.4959 85.3491 53.5528 89.5224L53.5312 89.5082ZM15.111 31.9452C20.0805 31.2817 23.2082 28.1429 23.3887 23.7199C20.0444 25.91 16.8517 27.8575 15.111 31.9452ZM39.5182 43.0312C43.7871 42.0681 45.7807 39.2003 45.3401 34.8415C42.5952 37.0887 40.1827 39.2645 39.5182 43.0312Z" fill="url(#paint0_linear_176_13749)"/>
<defs>
<linearGradient id="paint0_linear_176_13749" x1="1.80469" y1="-2.40585e-06" x2="95.8531" y2="83.4192" gradientUnits="userSpaceOnUse">
<stop stop-color="#FE5B3A"/>
<stop offset="1" stop-color="#FC2A64"/>
</linearGradient>
</defs>
</svg>
