<svg width="155" height="93" viewBox="0 0 155 93" fill="none" xmlns="http://www.w3.org/2000/svg">
<path fill-rule="evenodd" clip-rule="evenodd" d="M111.758 87.7187C125.597 88.0524 139.739 87.385 152.972 92.1173C153.76 92.3964 154.628 91.9899 154.913 91.2012C155.192 90.4125 154.786 89.5449 153.997 89.2598C140.455 84.4183 125.992 85.025 111.831 84.6852C110.994 84.6609 110.296 85.3283 110.278 86.1656C110.254 87.0028 110.921 87.6945 111.758 87.7187Z" fill="url(#paint0_linear_176_11740)"/>
<path fill-rule="evenodd" clip-rule="evenodd" d="M110.514 67.6267C114.828 63.6577 119.536 60.6842 125.227 59.2106C126.04 59.0006 126.525 58.1725 126.319 57.3619C126.106 56.5514 125.275 56.0642 124.468 56.2741C118.28 57.8758 113.153 61.0804 108.464 65.3935C107.845 65.9601 107.802 66.9205 108.373 67.5369C108.937 68.1527 109.901 68.1934 110.514 67.6267Z" fill="url(#paint1_linear_176_11740)"/>
<path fill-rule="evenodd" clip-rule="evenodd" d="M98.5128 24.294C100.491 17.5141 104.386 12.2103 110.356 8.38021C111.059 7.92822 111.266 6.98905 110.811 6.28467C110.362 5.58029 109.421 5.37521 108.718 5.8272C102.111 10.068 97.7908 15.9373 95.6006 23.444C95.364 24.2473 95.8312 25.0906 96.632 25.3248C97.439 25.5596 98.2823 25.0973 98.5128 24.294Z" fill="url(#paint2_linear_176_11740)"/>
<path fill-rule="evenodd" clip-rule="evenodd" d="M30.3502 15.0927C29.1732 16.4778 28.1175 17.9703 27.2196 19.5592C26.8192 20.2666 26.1154 21.77 26.0062 23.0593C25.8849 24.4328 26.352 25.5917 27.5532 26.202C29.1489 27.0113 30.423 26.927 31.4059 26.4374C32.3523 25.9672 33.0924 25.0432 33.5596 23.8043C34.4515 21.4363 34.318 17.8174 33.8508 15.7522C35.1067 14.4563 36.4839 13.281 37.9582 12.2363C48.9395 4.45535 65.0475 7.32446 77.4424 18.9586C81.7803 23.032 83.8674 31.5865 84.9534 40.8162C86.6461 55.1872 85.6814 71.2381 85.5479 75.9406C85.5176 77.1019 85.6268 77.7911 85.6875 77.9288C85.9726 78.6059 86.4762 78.7818 86.8281 78.8485C87.3377 78.9395 87.7441 78.8425 88.0717 78.6726C88.5146 78.4396 88.8787 78.0295 89.0486 77.3967C89.1396 77.0472 89.1638 76.5607 89.1517 76.042C89.1396 75.6822 89.0667 75.289 89.1395 75.0312C89.6128 73.3797 90.1831 71.7671 90.7412 70.143C92.6038 64.6833 95.0125 59.567 97.688 54.4567C106.188 38.2189 114.409 21.062 128.345 8.69074C128.97 8.13561 129.03 7.17581 128.472 6.5497C127.92 5.92358 126.961 5.86654 126.33 6.42228C112.115 19.038 103.67 36.4904 95.0003 53.0497C92.7252 57.3968 90.6381 61.7499 88.9029 66.3032C89.0789 58.2486 89.0121 47.0992 87.5378 37.2342C86.2274 28.4607 83.7338 20.7071 79.5173 16.7471C65.9393 4.00215 48.2296 1.23742 36.2048 9.76158C34.9186 10.6741 33.6931 11.6776 32.5525 12.766C26.261 1.40549 12.7922 -3.14784 0.888719 2.28579C0.124274 2.63343 -0.209406 3.53378 0.136414 4.29519C0.488301 5.0566 1.38619 5.39273 2.15063 5.04509C12.8771 0.149004 25.0416 4.51845 30.3502 15.0927ZM31.2299 18.8961C30.7385 19.5901 30.2834 20.3097 29.8587 21.0535C29.6343 21.4527 29.2459 22.2202 29.0821 22.9713C29.0457 23.1473 29.0397 23.4227 29.0397 23.5501C29.4583 23.7564 29.7859 23.8559 30.0528 23.7218C30.3865 23.5568 30.5565 23.1685 30.7203 22.7347C31.1328 21.6463 31.2663 20.2035 31.2299 18.8961Z" fill="url(#paint3_linear_176_11740)"/>
<defs>
<linearGradient id="paint0_linear_176_11740" x1="111.238" y1="84.6846" x2="113.597" y2="99.0182" gradientUnits="userSpaceOnUse">
<stop stop-color="#FE5B3A"/>
<stop offset="1" stop-color="#FC2A64"/>
</linearGradient>
<linearGradient id="paint1_linear_176_11740" x1="108.366" y1="56.2253" x2="118.768" y2="72.7962" gradientUnits="userSpaceOnUse">
<stop stop-color="#FE5B3A"/>
<stop offset="1" stop-color="#FC2A64"/>
</linearGradient>
<linearGradient id="paint2_linear_176_11740" x1="95.8724" y1="5.58716" x2="114.782" y2="20.7291" gradientUnits="userSpaceOnUse">
<stop stop-color="#FE5B3A"/>
<stop offset="1" stop-color="#FC2A64"/>
</linearGradient>
<linearGradient id="paint3_linear_176_11740" x1="2.76837" y1="-1.96091e-06" x2="70.8405" y2="113.636" gradientUnits="userSpaceOnUse">
<stop stop-color="#FE5B3A"/>
<stop offset="1" stop-color="#FC2A64"/>
</linearGradient>
</defs>
</svg>
