<svg width="541" height="419" viewBox="0 0 541 419" fill="none" xmlns="http://www.w3.org/2000/svg">
<path d="M436.041 0.205261H388.305C380.957 0.205261 375 6.16203 375 13.5101C375 20.8581 380.957 26.8149 388.305 26.8149H436.041C443.389 26.8149 449.346 20.8581 449.346 13.5101C449.346 6.16203 443.389 0.205261 436.041 0.205261Z" fill="url(#paint0_linear_176_11747)"/>
<path opacity="0.1" d="M79.9453 63.7106V232.441C79.9453 236.476 81.5483 240.346 84.4016 243.2C87.255 246.053 91.125 247.656 95.1602 247.656H304.036C308.071 247.656 311.941 246.053 314.794 243.2C317.648 240.346 319.251 236.476 319.251 232.441V63.7106C319.251 59.6753 317.648 55.8054 314.794 52.952C311.941 50.0987 308.071 48.4957 304.036 48.4957H95.1602C91.125 48.4957 87.255 50.0987 84.4016 52.952C81.5483 55.8054 79.9453 59.6753 79.9453 63.7106ZM304.184 239.9H94.9132C93.4197 239.9 91.9873 239.307 90.9312 238.251C89.875 237.195 89.2817 235.763 89.2817 234.269V61.9322C89.2817 60.4387 89.875 59.0063 90.9312 57.9502C91.9873 56.894 93.4197 56.3007 94.9132 56.3007H304.184C305.678 56.3007 307.11 56.894 308.166 57.9502C309.222 59.0063 309.816 60.4387 309.816 61.9322V234.22C309.816 235.713 309.222 237.146 308.166 238.202C307.11 239.258 305.678 239.851 304.184 239.851V239.9Z" fill="#FC2A64"/>
<path d="M463.757 143.539V362.542C463.757 363.88 463.494 365.206 462.981 366.442C462.469 367.679 461.718 368.803 460.772 369.749C459.826 370.696 458.702 371.446 457.465 371.959C456.229 372.471 454.903 372.735 453.565 372.735H119.611C116.907 372.735 114.315 371.661 112.403 369.749C110.492 367.838 109.418 365.245 109.418 362.542V143.539C109.418 140.448 110.027 137.387 111.211 134.531C112.394 131.675 114.129 129.08 116.316 126.895C118.502 124.71 121.098 122.977 123.955 121.795C126.812 120.614 129.873 120.007 132.965 120.009H440.26C446.493 120.022 452.468 122.506 456.872 126.917C461.277 131.328 463.753 137.306 463.757 143.539Z" fill="#FBF8FF"/>
<path d="M463.758 143.539V144.544H109.484V143.539C109.484 140.448 110.094 137.387 111.277 134.531C112.461 131.675 114.195 129.08 116.382 126.895C118.569 124.71 121.165 122.977 124.021 121.795C126.878 120.614 129.94 120.007 133.031 120.009H440.26C446.494 120.022 452.468 122.506 456.873 126.917C461.278 131.328 463.753 137.306 463.758 143.539Z" fill="#FC2A64"/>
<path d="M171.513 163.134H128.98C127.616 163.134 126.308 162.594 125.342 161.631C124.375 160.668 123.831 159.361 123.826 157.997C123.826 156.63 124.369 155.319 125.336 154.352C126.302 153.386 127.613 152.843 128.98 152.843H171.513C172.877 152.847 174.183 153.392 175.146 154.358C176.109 155.324 176.65 156.633 176.65 157.997C176.65 159.359 176.109 160.666 175.145 161.63C174.182 162.593 172.875 163.134 171.513 163.134Z" fill="#FE5B3A"/>
<path opacity="0.1" d="M328.587 162.048H309.848C309.451 162.05 309.057 161.973 308.69 161.823C308.322 161.672 307.988 161.451 307.707 161.171C307.425 160.891 307.202 160.558 307.049 160.191C306.897 159.825 306.818 159.431 306.818 159.034C306.818 158.231 307.138 157.46 307.706 156.892C308.274 156.324 309.045 156.004 309.848 156.004H328.587C329.388 156.009 330.154 156.33 330.719 156.898C331.283 157.465 331.6 158.234 331.6 159.034C331.6 159.833 331.283 160.6 330.718 161.165C330.152 161.73 329.386 162.048 328.587 162.048Z" fill="url(#paint1_linear_176_11747)"/>
<path opacity="0.1" d="M364.005 162.048H345.201C344.402 162.048 343.635 161.73 343.07 161.165C342.505 160.6 342.188 159.833 342.188 159.034C342.187 158.234 342.504 157.465 343.069 156.898C343.634 156.33 344.4 156.009 345.201 156.004H363.94C364.743 156.004 365.514 156.324 366.082 156.892C366.65 157.46 366.969 158.231 366.969 159.034C366.969 159.825 366.659 160.584 366.104 161.148C365.55 161.711 364.796 162.035 364.005 162.048Z" fill="url(#paint2_linear_176_11747)"/>
<path opacity="0.1" d="M399.967 162.048H381.245C380.848 162.05 380.454 161.973 380.087 161.823C379.719 161.672 379.385 161.451 379.103 161.171C378.822 160.891 378.598 160.558 378.446 160.191C378.293 159.825 378.215 159.431 378.215 159.034C378.215 158.231 378.534 157.46 379.102 156.892C379.67 156.324 380.441 156.004 381.245 156.004H399.967C400.77 156.004 401.541 156.324 402.109 156.892C402.678 157.46 402.997 158.231 402.997 159.034C402.997 159.431 402.918 159.825 402.766 160.191C402.613 160.558 402.39 160.891 402.108 161.171C401.827 161.451 401.493 161.672 401.125 161.823C400.758 161.973 400.364 162.05 399.967 162.048Z" fill="url(#paint3_linear_176_11747)"/>
<path opacity="0.1" d="M435.401 162.048H416.662C416.266 162.048 415.874 161.97 415.509 161.818C415.143 161.667 414.811 161.445 414.531 161.165C414.251 160.885 414.029 160.553 413.878 160.187C413.726 159.822 413.648 159.43 413.648 159.034C413.648 158.234 413.965 157.465 414.53 156.898C415.095 156.33 415.861 156.009 416.662 156.004H435.401C436.204 156.004 436.975 156.324 437.543 156.892C438.111 157.46 438.43 158.231 438.43 159.034C438.43 159.431 438.352 159.825 438.199 160.191C438.047 160.558 437.823 160.891 437.542 161.171C437.26 161.451 436.926 161.672 436.559 161.823C436.191 161.973 435.798 162.05 435.401 162.048Z" fill="url(#paint4_linear_176_11747)"/>
<path opacity="0.1" d="M283.088 193.992H144.408C142.444 193.992 140.852 195.585 140.852 197.549V285.792C140.852 287.756 142.444 289.349 144.408 289.349H283.088C285.052 289.349 286.645 287.756 286.645 285.792V197.549C286.645 195.585 285.052 193.992 283.088 193.992Z" fill="url(#paint5_linear_176_11747)"/>
<path opacity="0.1" d="M398.026 193.992H319.284C317.756 193.992 316.518 195.231 316.518 196.759V206.26C316.518 207.787 317.756 209.026 319.284 209.026H398.026C399.554 209.026 400.792 207.787 400.792 206.26V196.759C400.792 195.231 399.554 193.992 398.026 193.992Z" fill="url(#paint6_linear_176_11747)"/>
<path opacity="0.1" d="M375.549 227.254H319.185C318.478 227.254 317.799 226.973 317.299 226.473C316.799 225.973 316.518 225.294 316.518 224.587C316.522 223.881 316.804 223.205 317.304 222.705C317.803 222.206 318.479 221.924 319.185 221.919H375.549C376.257 221.919 376.935 222.2 377.436 222.701C377.936 223.201 378.217 223.879 378.217 224.587C378.219 224.938 378.152 225.286 378.018 225.61C377.885 225.935 377.689 226.23 377.441 226.478C377.192 226.726 376.897 226.922 376.573 227.056C376.248 227.189 375.9 227.257 375.549 227.254Z" fill="url(#paint7_linear_176_11747)"/>
<path opacity="0.1" d="M431.947 240.082H319.185C318.478 240.082 317.799 239.8 317.299 239.3C316.799 238.8 316.518 238.121 316.518 237.414C316.522 236.708 316.804 236.032 317.304 235.532C317.803 235.033 318.479 234.751 319.185 234.746H431.947C432.297 234.746 432.644 234.815 432.967 234.949C433.291 235.084 433.585 235.28 433.833 235.528C434.081 235.775 434.277 236.069 434.411 236.393C434.545 236.717 434.614 237.064 434.614 237.414C434.616 237.765 434.549 238.113 434.416 238.437C434.282 238.762 434.086 239.057 433.838 239.305C433.59 239.553 433.295 239.75 432.97 239.883C432.645 240.016 432.298 240.084 431.947 240.082Z" fill="url(#paint8_linear_176_11747)"/>
<path opacity="0.1" d="M431.947 252.991H319.185C318.835 252.991 318.488 252.922 318.164 252.788C317.841 252.654 317.547 252.458 317.299 252.21C317.051 251.962 316.855 251.668 316.721 251.344C316.587 251.021 316.518 250.674 316.518 250.324C316.522 249.618 316.804 248.941 317.304 248.442C317.803 247.943 318.479 247.66 319.185 247.656H431.947C432.651 247.656 433.327 247.935 433.827 248.432C434.327 248.928 434.61 249.603 434.614 250.307C434.619 250.659 434.553 251.009 434.42 251.336C434.288 251.662 434.092 251.959 433.844 252.209C433.595 252.459 433.3 252.657 432.974 252.791C432.648 252.925 432.299 252.993 431.947 252.991Z" fill="url(#paint9_linear_176_11747)"/>
<path opacity="0.1" d="M431.947 265.901H319.185C318.478 265.901 317.799 265.62 317.299 265.12C316.799 264.619 316.518 263.941 316.518 263.233C316.518 262.526 316.799 261.847 317.299 261.347C317.799 260.847 318.478 260.566 319.185 260.566H431.947C432.298 260.564 432.645 260.631 432.97 260.764C433.295 260.898 433.59 261.094 433.838 261.342C434.086 261.59 434.282 261.885 434.416 262.21C434.549 262.535 434.616 262.882 434.614 263.233C434.616 263.584 434.549 263.932 434.416 264.257C434.282 264.581 434.086 264.876 433.838 265.124C433.59 265.373 433.295 265.569 432.97 265.702C432.645 265.836 432.298 265.903 431.947 265.901Z" fill="url(#paint10_linear_176_11747)"/>
<path d="M354.72 293.548H322.33C320.789 293.548 319.31 292.935 318.22 291.845C317.13 290.755 316.518 289.277 316.518 287.735C316.518 286.194 317.13 284.715 318.22 283.625C319.31 282.535 320.789 281.923 322.33 281.923H354.72C356.261 281.923 357.74 282.535 358.83 283.625C359.92 284.715 360.532 286.194 360.532 287.735C360.532 289.277 359.92 290.755 358.83 291.845C357.74 292.935 356.261 293.548 354.72 293.548Z" fill="#FE5B3A"/>
<path d="M463.757 325.558V362.542C463.757 363.88 463.494 365.206 462.981 366.442C462.469 367.679 461.718 368.803 460.772 369.749C459.826 370.696 458.702 371.446 457.465 371.959C456.229 372.471 454.903 372.734 453.565 372.734H119.611C116.907 372.734 114.315 371.661 112.403 369.749C110.492 367.838 109.418 365.245 109.418 362.542V325.558H463.757Z" fill="white"/>
<path d="M369.638 346.965V372.735H203.592V346.965C203.592 345.535 204.159 344.164 205.168 343.151C206.177 342.139 207.547 341.568 208.976 341.564H364.172C364.886 341.555 365.596 341.688 366.259 341.956C366.922 342.223 367.525 342.62 368.033 343.122C368.542 343.625 368.946 344.223 369.221 344.883C369.497 345.542 369.639 346.25 369.638 346.965Z" fill="#FC2A64"/>
<path d="M409.996 133.396C410 134.006 409.822 134.603 409.485 135.111C409.149 135.62 408.669 136.017 408.107 136.253C407.545 136.488 406.925 136.552 406.327 136.435C405.728 136.318 405.178 136.026 404.746 135.596C404.313 135.166 404.018 134.617 403.898 134.019C403.778 133.422 403.838 132.802 404.071 132.238C404.303 131.674 404.698 131.193 405.205 130.854C405.711 130.514 406.307 130.333 406.917 130.333C407.731 130.333 408.512 130.656 409.089 131.229C409.666 131.803 409.992 132.582 409.996 133.396Z" fill="white"/>
<path d="M426.758 133.396C426.761 134.007 426.583 134.604 426.246 135.113C425.909 135.622 425.428 136.019 424.865 136.254C424.301 136.489 423.681 136.552 423.082 136.433C422.483 136.315 421.933 136.022 421.501 135.59C421.07 135.158 420.776 134.608 420.658 134.009C420.54 133.41 420.602 132.79 420.837 132.227C421.072 131.663 421.469 131.183 421.978 130.846C422.487 130.508 423.085 130.33 423.695 130.333C424.507 130.333 425.287 130.656 425.861 131.231C426.435 131.805 426.758 132.584 426.758 133.396Z" fill="white"/>
<path d="M442.779 133.396C442.783 134.007 442.604 134.604 442.267 135.113C441.93 135.622 441.45 136.019 440.886 136.254C440.323 136.489 439.702 136.552 439.104 136.433C438.505 136.315 437.955 136.022 437.523 135.59C437.091 135.158 436.798 134.608 436.679 134.009C436.561 133.41 436.624 132.79 436.859 132.227C437.094 131.663 437.491 131.183 438 130.846C438.509 130.508 439.106 130.33 439.717 130.333C440.529 130.333 441.308 130.656 441.882 131.231C442.457 131.805 442.779 132.584 442.779 133.396Z" fill="white"/>
<path d="M164.514 94.9143H28.7327C26.3864 94.9143 24.4844 96.8163 24.4844 99.1626V200.991C24.4844 203.337 26.3864 205.239 28.7327 205.239H164.514C166.86 205.239 168.762 203.337 168.762 200.991V99.1626C168.762 96.8163 166.86 94.9143 164.514 94.9143Z" fill="url(#paint11_linear_176_11747)"/>
<path d="M168.762 164.056V201.007C168.762 202.129 168.317 203.206 167.523 203.999C166.729 204.793 165.653 205.239 164.531 205.239H28.7162C27.5952 205.234 26.5213 204.787 25.7286 203.994C24.936 203.202 24.4887 202.128 24.4844 201.007V165.44C24.4844 165.44 47.6525 125.492 64.0036 125.492C84.4877 125.492 96.1459 172.108 106.306 172.108C116.465 172.108 129.836 139.983 143.306 139.983C151.374 139.983 161.748 153.37 168.762 164.056Z" fill="white" fill-opacity="0.24"/>
<path d="M150.24 117.753C150.24 119.613 149.688 121.432 148.654 122.978C147.621 124.525 146.151 125.73 144.432 126.441C142.713 127.152 140.822 127.338 138.997 126.974C137.173 126.609 135.498 125.712 134.184 124.396C132.869 123.079 131.975 121.402 131.614 119.577C131.253 117.752 131.442 115.861 132.156 114.144C132.87 112.426 134.078 110.959 135.626 109.927C137.175 108.896 138.994 108.348 140.854 108.351C143.345 108.355 145.732 109.348 147.492 111.111C149.252 112.873 150.24 115.262 150.24 117.753Z" fill="white" fill-opacity="0.24"/>
<path d="M515.823 186.055H437.23C435.72 186.055 434.496 187.279 434.496 188.789V295.623C434.496 297.132 435.72 298.356 437.23 298.356H515.823C517.333 298.356 518.557 297.132 518.557 295.623V188.789C518.557 187.279 517.333 186.055 515.823 186.055Z" fill="url(#paint12_linear_176_11747)"/>
<path d="M503.952 198.257H449.119V205.667H503.952V198.257Z" fill="white"/>
<path d="M488.012 286.434H464.959C464.415 286.434 463.876 286.327 463.374 286.118C462.871 285.91 462.415 285.604 462.031 285.218C461.647 284.833 461.343 284.375 461.136 283.872C460.929 283.368 460.824 282.829 460.826 282.285C460.824 281.741 460.929 281.202 461.136 280.698C461.343 280.195 461.647 279.737 462.031 279.352C462.415 278.966 462.871 278.66 463.374 278.452C463.876 278.243 464.415 278.135 464.959 278.135H488.012C489.113 278.135 490.168 278.573 490.946 279.351C491.725 280.129 492.162 281.184 492.162 282.285C492.162 283.385 491.725 284.441 490.946 285.219C490.168 285.997 489.113 286.434 488.012 286.434Z" fill="white"/>
<path d="M478.001 216.436H455.705C454.814 216.436 454.092 217.158 454.092 218.05V218.329C454.092 219.221 454.814 219.943 455.705 219.943H478.001C478.892 219.943 479.615 219.221 479.615 218.329V218.05C479.615 217.158 478.892 216.436 478.001 216.436Z" fill="white"/>
<path d="M506.833 225.064H455.705C454.814 225.064 454.092 225.787 454.092 226.678V226.958C454.092 227.849 454.814 228.572 455.705 228.572H506.833C507.725 228.572 508.447 227.849 508.447 226.958V226.678C508.447 225.787 507.725 225.064 506.833 225.064Z" fill="white"/>
<path d="M506.833 233.676H455.705C454.814 233.676 454.092 234.399 454.092 235.29V235.57C454.092 236.461 454.814 237.184 455.705 237.184H506.833C507.725 237.184 508.447 236.461 508.447 235.57V235.29C508.447 234.399 507.725 233.676 506.833 233.676Z" fill="white"/>
<path d="M445.233 218.198C445.23 218.542 445.125 218.878 444.931 219.163C444.737 219.448 444.463 219.669 444.144 219.799C443.825 219.928 443.475 219.96 443.137 219.891C442.8 219.822 442.49 219.654 442.248 219.41C442.005 219.165 441.841 218.854 441.775 218.516C441.709 218.178 441.744 217.828 441.877 217.51C442.009 217.192 442.233 216.92 442.52 216.729C442.806 216.538 443.143 216.436 443.488 216.436C443.718 216.436 443.946 216.482 444.159 216.57C444.372 216.659 444.565 216.789 444.728 216.953C444.89 217.117 445.018 217.311 445.105 217.525C445.192 217.738 445.235 217.967 445.233 218.198Z" fill="white"/>
<path d="M478.001 245.054H455.705C454.814 245.054 454.092 245.777 454.092 246.668V246.948C454.092 247.839 454.814 248.562 455.705 248.562H478.001C478.892 248.562 479.615 247.839 479.615 246.948V246.668C479.615 245.777 478.892 245.054 478.001 245.054Z" fill="white"/>
<path d="M506.833 253.683H455.705C454.814 253.683 454.092 254.405 454.092 255.296V255.576C454.092 256.468 454.814 257.19 455.705 257.19H506.833C507.725 257.19 508.447 256.468 508.447 255.576V255.296C508.447 254.405 507.725 253.683 506.833 253.683Z" fill="white"/>
<path d="M506.833 262.295H455.705C454.814 262.295 454.092 263.017 454.092 263.908V264.188C454.092 265.08 454.814 265.802 455.705 265.802H506.833C507.725 265.802 508.447 265.08 508.447 264.188V263.908C508.447 263.017 507.725 262.295 506.833 262.295Z" fill="white"/>
<path d="M445.233 246.816C445.23 247.161 445.125 247.497 444.931 247.781C444.737 248.066 444.463 248.287 444.144 248.417C443.825 248.547 443.475 248.579 443.137 248.51C442.8 248.44 442.49 248.273 442.248 248.028C442.005 247.783 441.841 247.472 441.775 247.134C441.709 246.796 441.744 246.446 441.877 246.128C442.009 245.81 442.233 245.538 442.52 245.347C442.806 245.156 443.143 245.054 443.488 245.054C443.718 245.054 443.946 245.1 444.159 245.189C444.372 245.277 444.565 245.408 444.728 245.571C444.89 245.735 445.018 245.93 445.105 246.143C445.192 246.357 445.235 246.586 445.233 246.816Z" fill="white"/>
<path d="M371.926 22.0178H269.818C266.171 22.0178 263.215 24.974 263.215 28.6208V98.4051C263.215 102.052 266.171 105.008 269.818 105.008H371.926C375.572 105.008 378.529 102.052 378.529 98.4051V28.6208C378.529 24.974 375.572 22.0178 371.926 22.0178Z" fill="url(#paint13_linear_176_11747)"/>
<path d="M378.526 89.0523V98.3887C378.526 100.136 377.832 101.811 376.597 103.046C375.362 104.281 373.686 104.975 371.94 104.975H269.848C268.101 104.975 266.426 104.281 265.191 103.046C263.956 101.811 263.262 100.136 263.262 98.3887V89.0523H378.526Z" fill="white"/>
<path d="M324.436 97.8124C324.433 98.5584 324.657 99.2875 325.078 99.9036H273.505C272.951 99.9036 272.419 99.6833 272.027 99.2911C271.634 98.8989 271.414 98.367 271.414 97.8124C271.414 97.2578 271.634 96.7258 272.027 96.3337C272.419 95.9415 272.951 95.7211 273.505 95.7211H325.078C324.657 96.3372 324.433 97.0664 324.436 97.8124Z" fill="url(#paint14_linear_176_11747)"/>
<path d="M342.253 97.8124C342.253 98.367 342.033 98.8989 341.641 99.2911C341.248 99.6833 340.717 99.9036 340.162 99.9036H325.079C324.66 99.2867 324.436 98.5582 324.436 97.8124C324.436 97.0666 324.66 96.338 325.079 95.7211H340.162C340.717 95.7211 341.248 95.9415 341.641 96.3337C342.033 96.7258 342.253 97.2578 342.253 97.8124Z" fill="url(#paint15_linear_176_11747)"/>
<g filter="url(#filter0_d_176_11747)">
<path d="M331.847 97.8124C331.853 98.7077 331.538 99.5756 330.959 100.258C330.38 100.941 329.575 101.393 328.691 101.533C327.806 101.672 326.901 101.489 326.14 101.018C325.379 100.546 324.813 99.8172 324.544 98.9632C324.275 98.1093 324.321 97.1872 324.675 96.3646C325.028 95.542 325.665 94.8736 326.47 94.481C327.274 94.0884 328.193 93.9976 329.059 94.2252C329.925 94.4528 330.68 94.9837 331.188 95.7212C331.614 96.3358 331.843 97.0648 331.847 97.8124Z" fill="white"/>
</g>
<path d="M329.952 97.8123C329.956 98.1752 329.851 98.5309 329.651 98.8339C329.452 99.137 329.166 99.3738 328.832 99.5142C328.497 99.6546 328.128 99.6922 327.772 99.6222C327.416 99.5522 327.089 99.3778 326.832 99.1211C326.576 98.8645 326.401 98.5374 326.331 98.1813C326.261 97.8252 326.299 97.4563 326.439 97.1217C326.58 96.7871 326.816 96.5018 327.119 96.3022C327.423 96.1026 327.778 95.9978 328.141 96.001C328.62 96.0053 329.078 96.1975 329.417 96.5363C329.756 96.8751 329.948 97.3333 329.952 97.8123Z" fill="url(#paint16_linear_176_11747)"/>
<path d="M357.814 99.6566V96.1657C357.818 96.0627 357.848 95.9622 357.9 95.8732C357.952 95.7843 358.025 95.7095 358.113 95.6558C358.201 95.602 358.301 95.5708 358.404 95.565C358.507 95.5591 358.61 95.5789 358.704 95.6224L362.178 97.3678C362.278 97.4187 362.363 97.4964 362.422 97.5923C362.481 97.6882 362.512 97.7986 362.512 97.9112C362.512 98.0237 362.481 98.1341 362.422 98.23C362.363 98.3259 362.278 98.4037 362.178 98.4546L358.704 100.2C358.61 100.243 358.507 100.263 358.404 100.257C358.301 100.252 358.201 100.22 358.113 100.167C358.025 100.113 357.952 100.038 357.9 99.9491C357.848 99.8602 357.818 99.7597 357.814 99.6566Z" fill="url(#paint17_linear_176_11747)"/>
<path d="M367.184 98.9815V96.8409C367.184 96.5609 367.414 96.3798 367.612 96.5115L369.258 97.5818C369.309 97.6202 369.351 97.6699 369.38 97.7271C369.408 97.7842 369.423 97.8472 369.423 97.9112C369.423 97.9751 369.408 98.0381 369.38 98.0953C369.351 98.1524 369.309 98.2021 369.258 98.2405L367.612 99.3108C367.414 99.4425 367.184 99.2614 367.184 98.9815Z" fill="url(#paint18_linear_176_11747)"/>
<path d="M369.453 98.9815V96.8409C369.453 96.5609 369.684 96.3798 369.881 96.5115L371.528 97.5818C371.579 97.6202 371.621 97.6699 371.649 97.7271C371.678 97.7842 371.693 97.8472 371.693 97.9112C371.693 97.9751 371.678 98.0381 371.649 98.0953C371.621 98.1524 371.579 98.2021 371.528 98.2405L369.881 99.3108C369.684 99.4425 369.453 99.2614 369.453 98.9815Z" fill="url(#paint19_linear_176_11747)"/>
<path d="M353.532 98.9815V96.8409C353.532 96.5609 353.302 96.3798 353.104 96.5115L351.458 97.5818C351.406 97.6202 351.365 97.6699 351.336 97.7271C351.308 97.7842 351.293 97.8472 351.293 97.9112C351.293 97.9751 351.308 98.0381 351.336 98.0953C351.365 98.1524 351.406 98.2021 351.458 98.2405L353.104 99.3108C353.302 99.4425 353.532 99.2614 353.532 98.9815Z" fill="url(#paint20_linear_176_11747)"/>
<path d="M351.259 98.9815V96.8409C351.259 96.5609 351.028 96.3798 350.831 96.5115L349.184 97.5818C349.133 97.6202 349.092 97.6699 349.063 97.7271C349.034 97.7842 349.02 97.8472 349.02 97.9112C349.02 97.9751 349.034 98.0381 349.063 98.0953C349.092 98.1524 349.133 98.2021 349.184 98.2405L350.831 99.3108C351.028 99.4425 351.259 99.2614 351.259 98.9815Z" fill="url(#paint21_linear_176_11747)"/>
<path d="M340.912 61.3758C343.534 50.3335 336.709 39.256 325.667 36.6335C314.624 34.011 303.547 40.8366 300.924 51.8789C298.302 62.9212 305.127 73.9987 316.17 76.6212C327.212 79.2437 338.289 72.4181 340.912 61.3758Z" fill="#FBF8FF"/>
<path d="M315.445 62.9037V50.274C315.445 49.9573 315.53 49.6463 315.692 49.3738C315.853 49.1014 316.085 48.8776 316.364 48.7259C316.642 48.5742 316.955 48.5003 317.272 48.5119C317.589 48.5236 317.896 48.6203 318.162 48.792L327.877 55.1151C328.122 55.2754 328.323 55.494 328.462 55.7513C328.601 56.0086 328.674 56.2964 328.674 56.5889C328.674 56.8813 328.601 57.1691 328.462 57.4264C328.323 57.6837 328.122 57.9023 327.877 58.0626L318.162 64.3857C317.896 64.5574 317.589 64.6541 317.272 64.6658C316.955 64.6774 316.642 64.6035 316.364 64.4518C316.085 64.3002 315.853 64.0763 315.692 63.8039C315.53 63.5314 315.445 63.2205 315.445 62.9037Z" fill="url(#paint22_linear_176_11747)"/>
<path d="M117.811 309.205H39.3814C34.7525 309.205 31 312.958 31 317.587V380.142C31 384.771 34.7525 388.524 39.3814 388.524H117.811C122.439 388.524 126.192 384.771 126.192 380.142V317.587C126.192 312.958 122.439 309.205 117.811 309.205Z" fill="white"/>
<path d="M72.8965 378.63H69.241C69.0784 378.631 68.9174 378.596 68.7705 378.527C68.6235 378.457 68.4943 378.355 68.3927 378.228C68.2911 378.101 68.2199 377.952 68.1842 377.794C68.1486 377.635 68.1496 377.47 68.1871 377.312L72.1391 359.825C72.1914 359.584 72.3243 359.368 72.5158 359.212C72.7073 359.056 72.9461 358.971 73.1929 358.969H79.3348C79.4996 358.967 79.6625 359.003 79.8114 359.073C79.9603 359.143 80.0913 359.247 80.1944 359.375C80.2975 359.504 80.37 359.654 80.4066 359.815C80.4431 359.975 80.4426 360.142 80.4051 360.302L76.9966 375.452C76.7679 376.364 76.2395 377.173 75.496 377.749C74.7525 378.326 73.8371 378.636 72.8965 378.63Z" fill="#FC2A64"/>
<path d="M104.658 354.045H101.184V342.14H104.658C105.44 342.14 106.214 342.294 106.937 342.594C107.659 342.894 108.315 343.333 108.867 343.887C109.419 344.441 109.857 345.098 110.155 345.821C110.452 346.544 110.605 347.319 110.602 348.101C110.602 349.677 109.976 351.189 108.861 352.304C107.747 353.419 106.235 354.045 104.658 354.045Z" fill="url(#paint23_linear_176_11747)"/>
<path d="M62.6712 335.356H72.024V361.126H62.6712C60.8501 361.126 59.1036 360.402 57.8158 359.115C56.5281 357.827 55.8047 356.08 55.8047 354.259V342.222C55.8047 340.401 56.5281 338.655 57.8158 337.367C59.1036 336.079 60.8501 335.356 62.6712 335.356Z" fill="url(#paint24_linear_176_11747)"/>
<path d="M72.0234 335.356L103.309 330.218C103.676 330.161 104.051 330.184 104.409 330.286C104.766 330.387 105.097 330.563 105.38 330.804C105.663 331.045 105.89 331.343 106.047 331.68C106.204 332.016 106.287 332.383 106.29 332.754V363.365C106.292 363.736 106.214 364.104 106.059 364.442C105.905 364.78 105.679 365.08 105.397 365.321C105.115 365.563 104.783 365.74 104.425 365.84C104.068 365.94 103.692 365.961 103.326 365.901L72.0399 361.126L72.0234 335.356Z" fill="url(#paint25_linear_176_11747)"/>
<path d="M67.7917 341.514H61.518C61.4258 341.514 61.3344 341.496 61.2494 341.46C61.1644 341.424 61.0875 341.372 61.0231 341.306C60.9586 341.24 60.908 341.162 60.8742 341.076C60.8404 340.99 60.8242 340.898 60.8264 340.806C60.8264 340.623 60.8992 340.447 61.0289 340.317C61.1586 340.188 61.3346 340.115 61.518 340.115H67.7917C67.8838 340.113 67.9755 340.129 68.0613 340.163C68.1472 340.196 68.2254 340.247 68.2913 340.311C68.3573 340.376 68.4097 340.453 68.4455 340.538C68.4813 340.623 68.4997 340.714 68.4997 340.806C68.4997 340.899 68.4814 340.991 68.4458 341.077C68.4102 341.163 68.3581 341.241 68.2923 341.307C68.2266 341.373 68.1485 341.425 68.0626 341.46C67.9767 341.496 67.8846 341.514 67.7917 341.514Z" fill="white"/>
<path d="M67.7915 344.165H61.5178C61.3344 344.165 61.1584 344.093 61.0287 343.963C60.899 343.833 60.8262 343.657 60.8262 343.474C60.8262 343.29 60.899 343.115 61.0287 342.985C61.1584 342.855 61.3344 342.782 61.5178 342.782H67.7915C67.8837 342.78 67.9753 342.796 68.0612 342.83C68.147 342.864 68.2252 342.914 68.2912 342.979C68.3571 343.043 68.4095 343.12 68.4453 343.205C68.4811 343.29 68.4995 343.382 68.4995 343.474C68.4995 343.566 68.4811 343.657 68.4453 343.742C68.4095 343.827 68.3571 343.904 68.2912 343.969C68.2252 344.033 68.147 344.084 68.0612 344.118C67.9753 344.151 67.8837 344.168 67.7915 344.165Z" fill="white"/>
<path d="M61.4174 266.543C60.8149 266.543 60.2259 266.364 59.725 266.03C59.224 265.695 58.8336 265.219 58.603 264.663C58.3724 264.106 58.3121 263.493 58.4296 262.903C58.5472 262.312 58.8373 261.769 59.2633 261.343C59.6894 260.917 60.2321 260.627 60.823 260.509C61.414 260.392 62.0265 260.452 62.5831 260.682C63.1397 260.913 63.6155 261.303 63.9502 261.804C64.285 262.305 64.4636 262.894 64.4636 263.497C64.4636 263.897 64.3848 264.293 64.2317 264.663C64.0787 265.032 63.8543 265.368 63.5714 265.651C63.2885 265.934 62.9527 266.158 62.5831 266.311C62.2135 266.464 61.8174 266.543 61.4174 266.543Z" fill="url(#paint26_linear_176_11747)"/>
<path d="M46.8295 266.543C46.227 266.543 45.638 266.364 45.1371 266.03C44.6361 265.695 44.2457 265.219 44.0151 264.663C43.7845 264.106 43.7242 263.493 43.8417 262.903C43.9593 262.312 44.2494 261.769 44.6755 261.343C45.1015 260.917 45.6443 260.627 46.2352 260.509C46.8261 260.392 47.4386 260.452 47.9953 260.682C48.5519 260.913 49.0277 261.303 49.3624 261.804C49.6971 262.305 49.8758 262.894 49.8758 263.497C49.8758 263.897 49.797 264.293 49.6439 264.663C49.4908 265.032 49.2664 265.368 48.9835 265.651C48.7007 265.934 48.3648 266.158 47.9953 266.311C47.6257 266.464 47.2295 266.543 46.8295 266.543Z" fill="url(#paint27_linear_176_11747)"/>
<path d="M32.2416 266.543C31.6391 266.543 31.0501 266.364 30.5492 266.03C30.0482 265.695 29.6578 265.219 29.4272 264.663C29.1966 264.106 29.1363 263.493 29.2538 262.903C29.3714 262.312 29.6615 261.769 30.0876 261.343C30.5136 260.917 31.0563 260.627 31.6473 260.509C32.2382 260.392 32.8507 260.452 33.4073 260.682C33.9639 260.913 34.4397 261.303 34.7745 261.804C35.1092 262.305 35.2879 262.894 35.2879 263.497C35.2879 263.897 35.209 264.293 35.056 264.663C34.9029 265.032 34.6785 265.368 34.3956 265.651C34.1127 265.934 33.7769 266.158 33.4073 266.311C33.0377 266.464 32.6416 266.543 32.2416 266.543Z" fill="url(#paint28_linear_176_11747)"/>
<path d="M17.6342 266.543C17.0317 266.543 16.4427 266.364 15.9418 266.03C15.4408 265.695 15.0503 265.219 14.8198 264.663C14.5892 264.106 14.5289 263.493 14.6464 262.903C14.764 262.312 15.0541 261.769 15.4801 261.343C15.9061 260.917 16.4489 260.627 17.0399 260.509C17.6308 260.392 18.2433 260.452 18.7999 260.682C19.3565 260.913 19.8323 261.303 20.167 261.804C20.5018 262.305 20.6805 262.894 20.6805 263.497C20.6805 263.897 20.6016 264.293 20.4485 264.663C20.2955 265.032 20.0711 265.368 19.7882 265.651C19.5053 265.934 19.1695 266.158 18.7999 266.311C18.4303 266.464 18.0342 266.543 17.6342 266.543Z" fill="url(#paint29_linear_176_11747)"/>
<path d="M3.04627 266.543C2.44378 266.543 1.85482 266.364 1.35386 266.03C0.852901 265.695 0.462463 265.219 0.231897 264.663C0.00133213 264.106 -0.0590107 263.493 0.0585304 262.903C0.176072 262.312 0.466221 261.769 0.89225 261.343C1.31828 260.917 1.86108 260.627 2.452 260.509C3.04292 260.392 3.65542 260.452 4.21205 260.682C4.76869 260.913 5.24446 261.303 5.57919 261.804C5.91392 262.305 6.09256 262.894 6.09256 263.497C6.09256 263.897 6.01379 264.293 5.8607 264.663C5.70761 265.032 5.48322 265.368 5.20034 265.651C4.91747 265.934 4.58164 266.158 4.21205 266.311C3.84246 266.464 3.44631 266.543 3.04627 266.543Z" fill="url(#paint30_linear_176_11747)"/>
<path d="M70.6908 279.535C70.0883 279.535 69.4994 279.356 68.9984 279.022C68.4974 278.687 68.107 278.211 67.8764 277.654C67.6458 277.098 67.5855 276.485 67.7031 275.894C67.8206 275.303 68.1107 274.761 68.5367 274.335C68.9628 273.909 69.5056 273.618 70.0965 273.501C70.6874 273.383 71.2999 273.444 71.8565 273.674C72.4132 273.905 72.889 274.295 73.2237 274.796C73.5584 275.297 73.7371 275.886 73.7371 276.489C73.7371 277.297 73.4161 278.071 72.8448 278.643C72.2736 279.214 71.4987 279.535 70.6908 279.535Z" fill="url(#paint31_linear_176_11747)"/>
<path d="M56.0834 279.535C55.4809 279.535 54.8919 279.356 54.3909 279.022C53.89 278.687 53.4995 278.211 53.269 277.654C53.0384 277.098 52.9781 276.485 53.0957 275.894C53.2132 275.303 53.5033 274.761 53.9293 274.335C54.3554 273.909 54.8982 273.618 55.4891 273.501C56.08 273.383 56.6925 273.444 57.2491 273.674C57.8058 273.905 58.2815 274.295 58.6163 274.796C58.951 275.297 59.1296 275.886 59.1296 276.489C59.1296 277.297 58.8087 278.071 58.2374 278.643C57.6661 279.214 56.8913 279.535 56.0834 279.535Z" fill="url(#paint32_linear_176_11747)"/>
<path d="M41.4955 279.535C40.893 279.535 40.304 279.356 39.8031 279.022C39.3021 278.687 38.9117 278.211 38.6811 277.654C38.4506 277.098 38.3902 276.485 38.5077 275.894C38.6253 275.303 38.9154 274.761 39.3415 274.335C39.7675 273.909 40.3103 273.618 40.9012 273.501C41.4921 273.383 42.1046 273.444 42.6613 273.674C43.2179 273.905 43.6936 274.295 44.0284 274.796C44.3631 275.297 44.5418 275.886 44.5418 276.489C44.5418 277.297 44.2208 278.071 43.6495 278.643C43.0782 279.214 42.3034 279.535 41.4955 279.535Z" fill="url(#paint33_linear_176_11747)"/>
<path d="M26.9057 279.535C28.5881 279.535 29.9519 278.171 29.9519 276.489C29.9519 274.806 28.5881 273.442 26.9057 273.442C25.2232 273.442 23.8594 274.806 23.8594 276.489C23.8594 278.171 25.2232 279.535 26.9057 279.535Z" fill="url(#paint34_linear_176_11747)"/>
<path d="M12.2982 279.535C13.9806 279.535 15.3445 278.171 15.3445 276.489C15.3445 274.806 13.9806 273.442 12.2982 273.442C10.6158 273.442 9.25195 274.806 9.25195 276.489C9.25195 278.171 10.6158 279.535 12.2982 279.535Z" fill="url(#paint35_linear_176_11747)"/>
<path d="M79.0717 292.527C80.7541 292.527 82.118 291.163 82.118 289.481C82.118 287.798 80.7541 286.434 79.0717 286.434C77.3893 286.434 76.0254 287.798 76.0254 289.481C76.0254 291.163 77.3893 292.527 79.0717 292.527Z" fill="url(#paint36_linear_176_11747)"/>
<path d="M64.4662 292.527C66.1486 292.527 67.5124 291.163 67.5124 289.481C67.5124 287.798 66.1486 286.434 64.4662 286.434C62.7838 286.434 61.4199 287.798 61.4199 289.481C61.4199 291.163 62.7838 292.527 64.4662 292.527Z" fill="url(#paint37_linear_176_11747)"/>
<path d="M49.8763 292.527C49.2739 292.527 48.6849 292.348 48.1839 292.013C47.683 291.679 47.2925 291.203 47.062 290.646C46.8314 290.09 46.7711 289.477 46.8886 288.886C47.0061 288.295 47.2963 287.753 47.7223 287.326C48.1484 286.9 48.6912 286.61 49.2821 286.493C49.873 286.375 50.4855 286.436 51.0421 286.666C51.5988 286.897 52.0745 287.287 52.4093 287.788C52.744 288.289 52.9226 288.878 52.9226 289.481C52.9226 290.288 52.6017 291.063 52.0304 291.635C51.4591 292.206 50.6843 292.527 49.8763 292.527Z" fill="url(#paint38_linear_176_11747)"/>
<path d="M35.2885 292.527C34.686 292.527 34.097 292.348 33.5961 292.013C33.0951 291.679 32.7046 291.203 32.474 290.646C32.2435 290.09 32.1832 289.477 32.3007 288.886C32.4183 288.295 32.7084 287.753 33.1344 287.326C33.5604 286.9 34.1032 286.61 34.6941 286.493C35.2851 286.375 35.8976 286.436 36.4542 286.666C37.0108 286.897 37.4866 287.287 37.8213 287.788C38.1561 288.289 38.3348 288.878 38.3348 289.481C38.3348 290.288 38.0138 291.063 37.4425 291.635C36.8712 292.206 36.0964 292.527 35.2885 292.527Z" fill="url(#paint39_linear_176_11747)"/>
<path d="M20.6791 292.527C20.0766 292.527 19.4876 292.348 18.9866 292.013C18.4857 291.679 18.0952 291.203 17.8647 290.646C17.6341 290.09 17.5738 289.477 17.6914 288.886C17.8089 288.295 18.099 287.753 18.525 287.326C18.9511 286.9 19.4939 286.61 20.0848 286.493C20.6757 286.375 21.2882 286.436 21.8448 286.666C22.4015 286.897 22.8772 287.287 23.212 287.788C23.5467 288.289 23.7253 288.878 23.7253 289.481C23.7253 290.288 23.4044 291.063 22.8331 291.635C22.2618 292.206 21.487 292.527 20.6791 292.527Z" fill="url(#paint40_linear_176_11747)"/>
<path d="M220.699 401.057H172.601C171.692 401.057 170.821 400.696 170.179 400.054C169.537 399.411 169.176 398.54 169.176 397.632C169.174 397.18 169.261 396.733 169.432 396.316C169.603 395.898 169.855 395.519 170.173 395.199C170.491 394.879 170.87 394.626 171.286 394.452C171.703 394.279 172.15 394.19 172.601 394.19H220.699C221.612 394.19 222.487 394.553 223.133 395.198C223.778 395.844 224.14 396.719 224.14 397.632C224.136 398.542 223.772 399.413 223.127 400.055C222.482 400.696 221.609 401.057 220.699 401.057Z" fill="url(#paint41_linear_176_11747)"/>
<path d="M220.699 418.264H172.601C171.692 418.264 170.821 417.903 170.179 417.261C169.537 416.618 169.176 415.747 169.176 414.839C169.176 413.929 169.536 413.056 170.178 412.411C170.82 411.766 171.691 411.402 172.601 411.397H220.699C221.61 411.402 222.483 411.766 223.128 412.41C223.772 413.055 224.136 413.928 224.14 414.839C224.136 415.749 223.772 416.62 223.127 417.262C222.482 417.904 221.609 418.264 220.699 418.264Z" fill="url(#paint42_linear_176_11747)"/>
<path d="M492.507 74.5289L503.012 72.553V63.1342L492.507 61.3229C491.709 57.508 490.201 53.8771 488.061 50.6198L494.087 41.7938L487.501 35.125L478.79 41.2834C475.523 39.1548 471.888 37.6527 468.071 36.8539L466.095 26.3484H456.676L454.865 36.8539C451.048 37.6455 447.416 39.1541 444.161 41.2999L435.319 35.2732L428.732 41.8597L434.891 50.5869C432.755 53.8466 431.247 57.4765 430.445 61.29L419.939 63.266V72.6847L430.445 74.496C431.254 78.3126 432.761 81.9468 434.891 85.2156L428.864 94.0416L435.451 100.71L444.161 94.552C447.422 96.6819 451.052 98.1841 454.865 98.9815L456.857 109.487H466.276L468.087 98.9815C471.9 98.179 475.53 96.6712 478.79 94.5355L487.616 100.562L494.203 93.9757L488.044 85.2485C490.182 81.9918 491.685 78.3604 492.474 74.5454L492.507 74.5289ZM461.418 87.4385C457.562 87.4418 453.792 86.3016 450.584 84.162C447.376 82.0225 444.874 78.9797 443.396 75.4185C441.917 71.8573 441.528 67.9376 442.277 64.155C443.026 60.3725 444.88 56.8971 447.604 54.1682C450.328 51.4393 453.801 49.5795 457.582 48.8241C461.363 48.0686 465.284 48.4514 468.847 49.924C472.411 51.3966 475.458 53.8929 477.603 57.0972C479.748 60.3016 480.895 64.07 480.898 67.9259C480.898 73.0953 478.847 78.0534 475.194 81.7118C471.542 85.3702 466.588 87.4298 461.418 87.4385Z" stroke="url(#paint43_linear_176_11747)" stroke-width="1.64663" stroke-miterlimit="10"/>
<path d="M528.767 135.833L534.827 137.957L537.659 133.017L532.719 128.917C533.45 126.694 533.757 124.354 533.625 122.018L539.405 119.235L537.939 113.768L531.567 114.361C530.508 112.273 529.073 110.397 527.335 108.828L529.443 102.769L524.503 99.953L520.403 104.893C518.179 104.167 515.838 103.865 513.503 104.004L510.72 98.2076L505.253 99.6731L505.846 106.062C503.757 107.112 501.885 108.547 500.33 110.294L494.27 108.17L491.438 113.11L496.378 117.193C495.648 119.422 495.34 121.768 495.472 124.109L489.742 126.81L491.208 132.26L497.58 131.684C498.641 133.766 500.075 135.636 501.812 137.2L499.704 143.276L504.644 146.108L508.744 141.168C510.968 141.895 513.309 142.196 515.644 142.057L518.427 147.854L523.893 146.388L523.301 139.999C525.39 138.95 527.262 137.514 528.817 135.767L528.767 135.833ZM508.728 133.215C506.722 132.059 505.103 130.334 504.077 128.258C503.051 126.182 502.664 123.848 502.965 121.552C503.265 119.256 504.239 117.101 505.765 115.359C507.29 113.617 509.298 112.366 511.534 111.765C513.77 111.164 516.135 111.239 518.328 111.982C520.521 112.725 522.445 114.101 523.856 115.937C525.267 117.773 526.102 119.986 526.255 122.297C526.408 124.607 525.873 126.911 524.717 128.917C523.166 131.607 520.611 133.571 517.612 134.377C514.614 135.183 511.418 134.765 508.728 133.215Z" stroke="#FC2A64" stroke-width="1.64663" stroke-miterlimit="10"/>
<defs>
<filter id="filter0_d_176_11747" x="322.23" y="91.9618" width="11.7578" height="11.757" filterUnits="userSpaceOnUse" color-interpolation-filters="sRGB">
<feFlood flood-opacity="0" result="BackgroundImageFix"/>
<feColorMatrix in="SourceAlpha" type="matrix" values="0 0 0 0 0 0 0 0 0 0 0 0 0 0 0 0 0 0 127 0" result="hardAlpha"/>
<feOffset/>
<feGaussianBlur stdDeviation="1.07031"/>
<feComposite in2="hardAlpha" operator="out"/>
<feColorMatrix type="matrix" values="0 0 0 0 0 0 0 0 0 0 0 0 0 0 0 0 0 0 0.16 0"/>
<feBlend mode="normal" in2="BackgroundImageFix" result="effect1_dropShadow_176_11747"/>
<feBlend mode="normal" in="SourceGraphic" in2="effect1_dropShadow_176_11747" result="shape"/>
</filter>
<linearGradient id="paint0_linear_176_11747" x1="376.597" y1="0.205261" x2="392.847" y2="46.6023" gradientUnits="userSpaceOnUse">
<stop stop-color="#FE5B3A"/>
<stop offset="1" stop-color="#FC2A64"/>
</linearGradient>
<linearGradient id="paint1_linear_176_11747" x1="307.351" y1="156.004" x2="310.021" y2="167.197" gradientUnits="userSpaceOnUse">
<stop stop-color="#FE5B3A"/>
<stop offset="1" stop-color="#FC2A64"/>
</linearGradient>
<linearGradient id="paint2_linear_176_11747" x1="342.72" y1="156.004" x2="345.391" y2="167.197" gradientUnits="userSpaceOnUse">
<stop stop-color="#FE5B3A"/>
<stop offset="1" stop-color="#FC2A64"/>
</linearGradient>
<linearGradient id="paint3_linear_176_11747" x1="378.747" y1="156.004" x2="381.418" y2="167.197" gradientUnits="userSpaceOnUse">
<stop stop-color="#FE5B3A"/>
<stop offset="1" stop-color="#FC2A64"/>
</linearGradient>
<linearGradient id="paint4_linear_176_11747" x1="414.181" y1="156.004" x2="416.852" y2="167.197" gradientUnits="userSpaceOnUse">
<stop stop-color="#FE5B3A"/>
<stop offset="1" stop-color="#FC2A64"/>
</linearGradient>
<linearGradient id="paint5_linear_176_11747" x1="143.984" y1="193.992" x2="228.733" y2="326.412" gradientUnits="userSpaceOnUse">
<stop stop-color="#FE5B3A"/>
<stop offset="1" stop-color="#FC2A64"/>
</linearGradient>
<linearGradient id="paint6_linear_176_11747" x1="318.328" y1="193.992" x2="323.313" y2="222.55" gradientUnits="userSpaceOnUse">
<stop stop-color="#FE5B3A"/>
<stop offset="1" stop-color="#FC2A64"/>
</linearGradient>
<linearGradient id="paint7_linear_176_11747" x1="317.843" y1="221.919" x2="318.721" y2="232.288" gradientUnits="userSpaceOnUse">
<stop stop-color="#FE5B3A"/>
<stop offset="1" stop-color="#FC2A64"/>
</linearGradient>
<linearGradient id="paint8_linear_176_11747" x1="319.055" y1="234.746" x2="319.516" y2="245.17" gradientUnits="userSpaceOnUse">
<stop stop-color="#FE5B3A"/>
<stop offset="1" stop-color="#FC2A64"/>
</linearGradient>
<linearGradient id="paint9_linear_176_11747" x1="319.055" y1="247.656" x2="319.516" y2="258.079" gradientUnits="userSpaceOnUse">
<stop stop-color="#FE5B3A"/>
<stop offset="1" stop-color="#FC2A64"/>
</linearGradient>
<linearGradient id="paint10_linear_176_11747" x1="319.055" y1="260.566" x2="319.516" y2="270.989" gradientUnits="userSpaceOnUse">
<stop stop-color="#FE5B3A"/>
<stop offset="1" stop-color="#FC2A64"/>
</linearGradient>
<linearGradient id="paint11_linear_176_11747" x1="27.5841" y1="94.9143" x2="131.176" y2="233.362" gradientUnits="userSpaceOnUse">
<stop stop-color="#FE5B3A"/>
<stop offset="1" stop-color="#FC2A64"/>
</linearGradient>
<linearGradient id="paint12_linear_176_11747" x1="436.302" y1="186.055" x2="542.386" y2="267.206" gradientUnits="userSpaceOnUse">
<stop stop-color="#FE5B3A"/>
<stop offset="1" stop-color="#FC2A64"/>
</linearGradient>
<linearGradient id="paint13_linear_176_11747" x1="265.692" y1="22.0178" x2="342.169" y2="130.614" gradientUnits="userSpaceOnUse">
<stop stop-color="#FE5B3A"/>
<stop offset="1" stop-color="#FC2A64"/>
</linearGradient>
<linearGradient id="paint14_linear_176_11747" x1="272.567" y1="95.7211" x2="273.188" y2="103.861" gradientUnits="userSpaceOnUse">
<stop stop-color="#FE5B3A"/>
<stop offset="1" stop-color="#FC2A64"/>
</linearGradient>
<linearGradient id="paint15_linear_176_11747" x1="324.818" y1="95.7211" x2="326.605" y2="103.498" gradientUnits="userSpaceOnUse">
<stop stop-color="#FE5B3A"/>
<stop offset="1" stop-color="#FC2A64"/>
</linearGradient>
<linearGradient id="paint16_linear_176_11747" x1="326.375" y1="96.0009" x2="329.952" y2="99.6565" gradientUnits="userSpaceOnUse">
<stop stop-color="#FE5B3A"/>
<stop offset="1" stop-color="#FC2A64"/>
</linearGradient>
<linearGradient id="paint17_linear_176_11747" x1="357.915" y1="95.564" x2="362.509" y2="100.261" gradientUnits="userSpaceOnUse">
<stop stop-color="#FE5B3A"/>
<stop offset="1" stop-color="#FC2A64"/>
</linearGradient>
<linearGradient id="paint18_linear_176_11747" x1="367.232" y1="96.4677" x2="369.983" y2="98.6486" gradientUnits="userSpaceOnUse">
<stop stop-color="#FE5B3A"/>
<stop offset="1" stop-color="#FC2A64"/>
</linearGradient>
<linearGradient id="paint19_linear_176_11747" x1="369.501" y1="96.4677" x2="372.252" y2="98.6486" gradientUnits="userSpaceOnUse">
<stop stop-color="#FE5B3A"/>
<stop offset="1" stop-color="#FC2A64"/>
</linearGradient>
<linearGradient id="paint20_linear_176_11747" x1="351.341" y1="96.4677" x2="354.092" y2="98.6485" gradientUnits="userSpaceOnUse">
<stop stop-color="#FE5B3A"/>
<stop offset="1" stop-color="#FC2A64"/>
</linearGradient>
<linearGradient id="paint21_linear_176_11747" x1="349.068" y1="96.4677" x2="351.819" y2="98.6485" gradientUnits="userSpaceOnUse">
<stop stop-color="#FE5B3A"/>
<stop offset="1" stop-color="#FC2A64"/>
</linearGradient>
<linearGradient id="paint22_linear_176_11747" x1="315.73" y1="48.5107" x2="331.295" y2="61.5348" gradientUnits="userSpaceOnUse">
<stop stop-color="#FE5B3A"/>
<stop offset="1" stop-color="#FC2A64"/>
</linearGradient>
<linearGradient id="paint23_linear_176_11747" x1="101.386" y1="342.14" x2="112.78" y2="351.352" gradientUnits="userSpaceOnUse">
<stop stop-color="#FE5B3A"/>
<stop offset="1" stop-color="#FC2A64"/>
</linearGradient>
<linearGradient id="paint24_linear_176_11747" x1="56.1532" y1="335.356" x2="79.1042" y2="350.118" gradientUnits="userSpaceOnUse">
<stop stop-color="#FE5B3A"/>
<stop offset="1" stop-color="#FC2A64"/>
</linearGradient>
<linearGradient id="paint25_linear_176_11747" x1="72.7596" y1="330.188" x2="107.739" y2="364.455" gradientUnits="userSpaceOnUse">
<stop stop-color="#FE5B3A"/>
<stop offset="1" stop-color="#FC2A64"/>
</linearGradient>
<linearGradient id="paint26_linear_176_11747" x1="58.502" y1="260.451" x2="64.4636" y2="266.543" gradientUnits="userSpaceOnUse">
<stop stop-color="#FE5B3A"/>
<stop offset="1" stop-color="#FC2A64"/>
</linearGradient>
<linearGradient id="paint27_linear_176_11747" x1="43.9141" y1="260.451" x2="49.8757" y2="266.543" gradientUnits="userSpaceOnUse">
<stop stop-color="#FE5B3A"/>
<stop offset="1" stop-color="#FC2A64"/>
</linearGradient>
<linearGradient id="paint28_linear_176_11747" x1="29.3262" y1="260.451" x2="35.2878" y2="266.543" gradientUnits="userSpaceOnUse">
<stop stop-color="#FE5B3A"/>
<stop offset="1" stop-color="#FC2A64"/>
</linearGradient>
<linearGradient id="paint29_linear_176_11747" x1="14.7188" y1="260.451" x2="20.6804" y2="266.543" gradientUnits="userSpaceOnUse">
<stop stop-color="#FE5B3A"/>
<stop offset="1" stop-color="#FC2A64"/>
</linearGradient>
<linearGradient id="paint30_linear_176_11747" x1="0.130895" y1="260.451" x2="6.09252" y2="266.543" gradientUnits="userSpaceOnUse">
<stop stop-color="#FE5B3A"/>
<stop offset="1" stop-color="#FC2A64"/>
</linearGradient>
<linearGradient id="paint31_linear_176_11747" x1="67.7754" y1="273.442" x2="73.7371" y2="279.535" gradientUnits="userSpaceOnUse">
<stop stop-color="#FE5B3A"/>
<stop offset="1" stop-color="#FC2A64"/>
</linearGradient>
<linearGradient id="paint32_linear_176_11747" x1="53.168" y1="273.442" x2="59.1297" y2="279.535" gradientUnits="userSpaceOnUse">
<stop stop-color="#FE5B3A"/>
<stop offset="1" stop-color="#FC2A64"/>
</linearGradient>
<linearGradient id="paint33_linear_176_11747" x1="38.5801" y1="273.442" x2="44.5418" y2="279.535" gradientUnits="userSpaceOnUse">
<stop stop-color="#FE5B3A"/>
<stop offset="1" stop-color="#FC2A64"/>
</linearGradient>
<linearGradient id="paint34_linear_176_11747" x1="23.9903" y1="273.442" x2="29.9519" y2="279.535" gradientUnits="userSpaceOnUse">
<stop stop-color="#FE5B3A"/>
<stop offset="1" stop-color="#FC2A64"/>
</linearGradient>
<linearGradient id="paint35_linear_176_11747" x1="9.38285" y1="273.442" x2="15.3445" y2="279.535" gradientUnits="userSpaceOnUse">
<stop stop-color="#FE5B3A"/>
<stop offset="1" stop-color="#FC2A64"/>
</linearGradient>
<linearGradient id="paint36_linear_176_11747" x1="76.1563" y1="286.434" x2="82.118" y2="292.527" gradientUnits="userSpaceOnUse">
<stop stop-color="#FE5B3A"/>
<stop offset="1" stop-color="#FC2A64"/>
</linearGradient>
<linearGradient id="paint37_linear_176_11747" x1="61.5508" y1="286.434" x2="67.5125" y2="292.527" gradientUnits="userSpaceOnUse">
<stop stop-color="#FE5B3A"/>
<stop offset="1" stop-color="#FC2A64"/>
</linearGradient>
<linearGradient id="paint38_linear_176_11747" x1="46.961" y1="286.434" x2="52.9226" y2="292.527" gradientUnits="userSpaceOnUse">
<stop stop-color="#FE5B3A"/>
<stop offset="1" stop-color="#FC2A64"/>
</linearGradient>
<linearGradient id="paint39_linear_176_11747" x1="32.3731" y1="286.434" x2="38.3348" y2="292.527" gradientUnits="userSpaceOnUse">
<stop stop-color="#FE5B3A"/>
<stop offset="1" stop-color="#FC2A64"/>
</linearGradient>
<linearGradient id="paint40_linear_176_11747" x1="17.7637" y1="286.434" x2="23.7254" y2="292.527" gradientUnits="userSpaceOnUse">
<stop stop-color="#FE5B3A"/>
<stop offset="1" stop-color="#FC2A64"/>
</linearGradient>
<linearGradient id="paint41_linear_176_11747" x1="170.357" y1="394.19" x2="171.976" y2="407.433" gradientUnits="userSpaceOnUse">
<stop stop-color="#FE5B3A"/>
<stop offset="1" stop-color="#FC2A64"/>
</linearGradient>
<linearGradient id="paint42_linear_176_11747" x1="170.357" y1="411.397" x2="171.976" y2="424.641" gradientUnits="userSpaceOnUse">
<stop stop-color="#FE5B3A"/>
<stop offset="1" stop-color="#FC2A64"/>
</linearGradient>
<linearGradient id="paint43_linear_176_11747" x1="421.724" y1="26.3484" x2="503.078" y2="109.423" gradientUnits="userSpaceOnUse">
<stop stop-color="#FE5B3A"/>
<stop offset="1" stop-color="#FC2A64"/>
</linearGradient>
</defs>
</svg>
