<svg width="32" height="33" viewBox="0 0 32 33" fill="none" xmlns="http://www.w3.org/2000/svg">
<g filter="url(#filter0_b_176_13788)">
<rect y="0.480469" width="32" height="32" rx="16" fill="url(#paint0_linear_176_13788)" fill-opacity="0.2"/>
<path d="M16.3308 13.7014C14.617 13.7014 13.2184 15.1 13.2184 16.8138C13.2184 18.5276 14.617 19.9262 16.3308 19.9262C18.0446 19.9262 19.4432 18.5276 19.4432 16.8138C19.4432 15.1 18.0446 13.7014 16.3308 13.7014ZM25.6656 16.8138C25.6656 15.5249 25.6773 14.2477 25.6049 12.9612C25.5325 11.4669 25.1916 10.1406 24.0989 9.04789C23.0039 7.95282 21.68 7.61425 20.1857 7.54187C18.8968 7.46949 17.6197 7.48116 16.3332 7.48116C15.0443 7.48116 13.7671 7.46949 12.4806 7.54187C10.9863 7.61425 9.66011 7.95515 8.56739 9.04789C7.47234 10.143 7.13378 11.4669 7.0614 12.9612C6.98902 14.2501 7.00069 15.5273 7.00069 16.8138C7.00069 18.1003 6.98902 19.3799 7.0614 20.6664C7.13378 22.1607 7.47467 23.487 8.56739 24.5797C9.66244 25.6748 10.9863 26.0133 12.4806 26.0857C13.7695 26.1581 15.0466 26.1464 16.3332 26.1464C17.622 26.1464 18.8992 26.1581 20.1857 26.0857C21.68 26.0133 23.0062 25.6725 24.0989 24.5797C25.194 23.4846 25.5325 22.1607 25.6049 20.6664C25.6796 19.3799 25.6656 18.1027 25.6656 16.8138ZM16.3308 21.6027C13.6807 21.6027 11.542 19.4639 11.542 16.8138C11.542 14.1637 13.6807 12.0249 16.3308 12.0249C18.9809 12.0249 21.1196 14.1637 21.1196 16.8138C21.1196 19.4639 18.9809 21.6027 16.3308 21.6027ZM21.3158 12.9472C20.697 12.9472 20.1974 12.4475 20.1974 11.8288C20.1974 11.21 20.697 10.7103 21.3158 10.7103C21.9345 10.7103 22.4342 11.21 22.4342 11.8288C22.4344 11.9757 22.4056 12.1212 22.3494 12.257C22.2933 12.3928 22.2109 12.5161 22.107 12.62C22.0031 12.7239 21.8798 12.8063 21.744 12.8624C21.6082 12.9186 21.4627 12.9474 21.3158 12.9472Z" fill="url(#paint1_linear_176_13788)"/>
</g>
<defs>
<filter id="filter0_b_176_13788" x="-300" y="-299.52" width="632" height="632" filterUnits="userSpaceOnUse" color-interpolation-filters="sRGB">
<feFlood flood-opacity="0" result="BackgroundImageFix"/>
<feGaussianBlur in="BackgroundImageFix" stdDeviation="150"/>
<feComposite in2="SourceAlpha" operator="in" result="effect1_backgroundBlur_176_13788"/>
<feBlend mode="normal" in="SourceGraphic" in2="effect1_backgroundBlur_176_13788" result="shape"/>
</filter>
<linearGradient id="paint0_linear_176_13788" x1="0.687501" y1="0.480468" x2="32" y2="32.4805" gradientUnits="userSpaceOnUse">
<stop stop-color="#FE5B3A"/>
<stop offset="1" stop-color="#FC2A64"/>
</linearGradient>
<linearGradient id="paint1_linear_176_13788" x1="7.40104" y1="7.48047" x2="25.6667" y2="26.1471" gradientUnits="userSpaceOnUse">
<stop stop-color="#FE5B3A"/>
<stop offset="1" stop-color="#FC2A64"/>
</linearGradient>
</defs>
</svg>
