<svg width="80" height="29" viewBox="0 0 80 29" fill="none" xmlns="http://www.w3.org/2000/svg">
<path d="M0.38 21.016V2.392C0.38 1.272 1.244 0.439999 2.364 0.439999C3.484 0.439999 4.316 1.272 4.316 2.392V19.416H14.46C15.452 19.416 16.252 20.216 16.252 21.208C16.252 22.2 15.452 23 14.46 23H2.364C1.244 23 0.38 22.136 0.38 21.016ZM27.464 23.384C22.312 23.384 18.504 19.448 18.504 14.648V14.584C18.504 9.752 22.344 5.752 27.528 5.752C32.744 5.752 36.52 9.688 36.52 14.52V14.584C36.52 19.352 32.68 23.384 27.464 23.384ZM27.528 19.992C30.696 19.992 32.648 17.56 32.648 14.648V14.584C32.648 11.608 30.504 9.144 27.464 9.144C24.36 9.144 22.376 11.576 22.376 14.52V14.584C22.376 17.528 24.552 19.992 27.528 19.992ZM47.9833 28.184C45.5833 28.184 43.5033 27.672 41.4553 26.68C40.7193 26.392 40.3673 25.88 40.3673 25.144C40.3673 24.28 41.1033 23.544 41.9993 23.544C42.2552 23.544 42.4793 23.608 42.7033 23.704C44.2393 24.568 45.9353 25.048 47.8873 25.048C51.3433 25.048 53.2313 23.288 53.2313 19.864V18.552C51.8233 20.376 50.0633 21.656 47.2793 21.656C43.3113 21.656 39.5993 18.712 39.5993 13.752V13.688C39.5993 8.696 43.3113 5.752 47.2793 5.752C50.1273 5.752 51.8873 7.064 53.1993 8.632V7.832C53.1993 6.776 54.0633 5.912 55.1193 5.912C56.2393 5.912 57.0713 6.744 57.0713 7.864V19.544C57.0713 22.36 56.3673 24.472 54.9272 25.912C53.3913 27.448 51.0553 28.184 47.9833 28.184ZM48.3033 18.36C50.9913 18.36 53.2633 16.472 53.2633 13.72V13.656C53.2633 10.904 50.9913 9.016 48.3033 9.016C45.6153 9.016 43.5033 10.872 43.5033 13.656V13.72C43.5033 16.472 45.6473 18.36 48.3033 18.36ZM69.964 23.384C64.812 23.384 61.004 19.448 61.004 14.648V14.584C61.004 9.752 64.844 5.752 70.028 5.752C75.244 5.752 79.02 9.688 79.02 14.52V14.584C79.02 19.352 75.18 23.384 69.964 23.384ZM70.028 19.992C73.196 19.992 75.148 17.56 75.148 14.648V14.584C75.148 11.608 73.004 9.144 69.964 9.144C66.86 9.144 64.876 11.576 64.876 14.52V14.584C64.876 17.528 67.052 19.992 70.028 19.992Z" fill="url(#paint0_linear_176_13784)"/>
<defs>
<linearGradient id="paint0_linear_176_13784" x1="-0.695311" y1="-10" x2="31.7599" y2="56.3357" gradientUnits="userSpaceOnUse">
<stop stop-color="#FE5B3A"/>
<stop offset="1" stop-color="#FC2A64"/>
</linearGradient>
</defs>
</svg>
