<?xml version="1.0" standalone="no"?>
<!DOCTYPE svg PUBLIC "-//W3C//DTD SVG 1.1//EN" "http://www.w3.org/Graphics/SVG/1.1/DTD/svg11.dtd" >
<svg xmlns="http://www.w3.org/2000/svg" xmlns:xlink="http://www.w3.org/1999/xlink" version="1.1">
<metadata>
Created by FontForge 20201107 at Thu Feb 29 13:14:16 2024
 By 
Copyright (C) 2006, 2007 Hoefler &#38; Co. http://www.typography.com |DCNT
</metadata>
<defs>
<font id="GothamRnd-Light" horiz-adv-x="1351" >
  <font-face 
    font-family="Gotham Rounded Light"
    font-weight="300"
    font-stretch="normal"
    units-per-em="2048"
    panose-1="0 0 0 0 0 0 0 0 0 0"
    ascent="1638"
    descent="-410"
    x-height="1044"
    cap-height="1442"
    bbox="-109 -459 2345 2093"
    underline-thickness="102"
    underline-position="-204"
    unicode-range="U+0020-FB04"
  />
<missing-glyph horiz-adv-x="1024" 
d="M0 -410v2048h1024v-2048h-1024zM145 1536l367 -799l367 799h-734zM102 -156l353 770l-353 770v-1540zM922 1384l-353 -770l353 -770v1540zM512 492l-367 -799h734z" />
    <glyph glyph-name="f_f" unicode="ff" horiz-adv-x="1482" 
d="M252 43v909h-113q-20 0 -33.5 13.5t-13.5 33.5q0 19 14 32t33 13h113v103q0 180 92 272q82 82 219 82q64 0 125 -14q17 -5 28 -17.5t11 -29.5q0 -23 -16.5 -35.5t-40.5 -7.5q-66 12 -107 12q-211 0 -211 -264v-101h326q20 0 33.5 -13.5t13.5 -33.5q0 -19 -14 -32t-33 -13
h-326v-909q0 -23 -13 -37t-36 -14t-37 14t-14 37zM993 43v909h-112q-20 0 -33.5 13.5t-13.5 33.5q0 19 14 32t33 13h112v103q0 180 92 272q82 82 220 82q64 0 125 -14q38 -10 38 -47q0 -23 -16.5 -35.5t-40.5 -7.5q-66 12 -106 12q-211 0 -211 -264v-101h325
q20 0 33.5 -13.5t13.5 -33.5q0 -19 -14 -32t-33 -13h-325v-909q0 -23 -13.5 -37t-36.5 -14t-37 14t-14 37z" />
    <glyph glyph-name="fi" unicode="fi" horiz-adv-x="1251" 
d="M252 43v909h-113q-20 0 -33.5 13.5t-13.5 33.5q0 19 14 32t33 13h113v103q0 180 92 272q82 82 219 82q64 0 125 -14q17 -5 28 -17.5t11 -29.5q0 -23 -16.5 -35.5t-40.5 -7.5q-66 12 -107 12q-211 0 -211 -264v-101h326q20 0 33.5 -13.5t13.5 -33.5q0 -19 -14 -32t-33 -13
h-326v-909q0 -23 -13 -37t-36 -14t-37 14t-14 37zM934 1368v35q0 26 17.5 43.5t43.5 17.5q27 0 45.5 -17.5t18.5 -43.5v-35q0 -26 -18.5 -43.5t-45.5 -17.5q-26 0 -43.5 17.5t-17.5 43.5zM946 43v958q0 24 13 38t36 14t37.5 -14.5t14.5 -37.5v-958q0 -23 -13.5 -37
t-36.5 -14t-37 14t-14 37z" />
    <glyph glyph-name="fl" unicode="fl" horiz-adv-x="1251" 
d="M252 43v909h-113q-20 0 -33.5 13.5t-13.5 33.5q0 19 14 32t33 13h113v103q0 180 92 272q82 82 219 82q64 0 125 -14q17 -5 28 -17.5t11 -29.5q0 -23 -16.5 -35.5t-40.5 -7.5q-66 12 -107 12q-211 0 -211 -264v-101h326q20 0 33.5 -13.5t13.5 -33.5q0 -19 -14 -32t-33 -13
h-326v-909q0 -23 -13 -37t-36 -14t-37 14t-14 37zM946 43v1409q0 23 13 37t36 14t37.5 -14t14.5 -37v-1409q0 -23 -13.5 -37t-36.5 -14t-37 14t-14 37z" />
    <glyph glyph-name="f_f_i" unicode="ffi" horiz-adv-x="1992" 
d="M252 43v909h-113q-20 0 -33.5 13.5t-13.5 33.5q0 19 14 32t33 13h113v103q0 180 92 272q82 82 219 82q64 0 125 -14q17 -5 28 -17.5t11 -29.5q0 -23 -16.5 -35.5t-40.5 -7.5q-66 12 -107 12q-211 0 -211 -264v-101h326q20 0 33.5 -13.5t13.5 -33.5q0 -19 -14 -32t-33 -13
h-326v-909q0 -23 -13 -37t-36 -14t-37 14t-14 37zM993 43v909h-112q-20 0 -33.5 13.5t-13.5 33.5q0 19 14 32t33 13h112v103q0 180 92 272q82 82 220 82q64 0 125 -14q38 -10 38 -47q0 -23 -16.5 -35.5t-40.5 -7.5q-66 12 -106 12q-211 0 -211 -264v-101h325
q20 0 33.5 -13.5t13.5 -33.5q0 -19 -14 -32t-33 -13h-325v-909q0 -23 -13.5 -37t-36.5 -14t-37 14t-14 37zM1675 1368v35q0 26 18 43.5t44 17.5t44.5 -17.5t18.5 -43.5v-35q0 -26 -18.5 -43.5t-44.5 -17.5t-44 17.5t-18 43.5zM1688 43v958q0 24 13 38t36 14t37 -14.5
t14 -37.5v-958q0 -23 -13 -37t-36 -14t-37 14t-14 37z" />
    <glyph glyph-name="f_f_l" unicode="ffl" horiz-adv-x="1992" 
d="M252 43v909h-113q-20 0 -33.5 13.5t-13.5 33.5q0 19 14 32t33 13h113v103q0 180 92 272q82 82 219 82q64 0 125 -14q17 -5 28 -17.5t11 -29.5q0 -23 -16.5 -35.5t-40.5 -7.5q-66 12 -107 12q-211 0 -211 -264v-101h326q20 0 33.5 -13.5t13.5 -33.5q0 -19 -14 -32t-33 -13
h-326v-909q0 -23 -13 -37t-36 -14t-37 14t-14 37zM993 43v909h-112q-20 0 -33.5 13.5t-13.5 33.5q0 19 14 32t33 13h112v103q0 180 92 272q82 82 220 82q64 0 125 -14q38 -10 38 -47q0 -23 -16.5 -35.5t-40.5 -7.5q-66 12 -106 12q-211 0 -211 -264v-101h325
q20 0 33.5 -13.5t13.5 -33.5q0 -19 -14 -32t-33 -13h-325v-909q0 -23 -13.5 -37t-36.5 -14t-37 14t-14 37zM1688 43v1409q0 23 13 37t36 14t37 -14t14 -37v-1409q0 -23 -13 -37t-36 -14t-37 14t-14 37z" />
    <glyph glyph-name=".notdef" horiz-adv-x="1024" 
d="M0 -410v2048h1024v-2048h-1024zM145 1536l367 -799l367 799h-734zM102 -156l353 770l-353 770v-1540zM922 1384l-353 -770l353 -770v1540zM512 492l-367 -799h734z" />
    <glyph glyph-name=".null" horiz-adv-x="0" 
 />
    <glyph glyph-name="nonmarkingreturn" horiz-adv-x="682" 
 />
    <glyph glyph-name="space" unicode=" " horiz-adv-x="614" 
 />
    <glyph glyph-name="exclam" unicode="!" horiz-adv-x="516" 
d="M227 399l-32 990q0 23 14 37t37 14h24q23 0 37.5 -14t14.5 -37l-33 -990q0 -12 -9.5 -21t-21.5 -9t-21.5 9t-9.5 21zM190 59v56q0 29 19.5 48t48.5 19t48.5 -19t19.5 -48v-56q0 -29 -19.5 -48t-48.5 -19t-48.5 19t-19.5 48z" />
    <glyph glyph-name="quotedbl" unicode="&#x22;" horiz-adv-x="839" 
d="M512 944l61 440q9 54 58 54h39q32 0 32 -35q0 -19 -10 -49l-117 -412q-12 -37 -34 -37q-37 0 -29 39zM143 944l62 440q9 54 57 54h39q33 0 33 -35q0 -19 -10 -49l-117 -412q-12 -37 -35 -37q-37 0 -29 39z" />
    <glyph glyph-name="numbersign" unicode="#" horiz-adv-x="1433" 
d="M291 51l57 332h-207q-20 0 -34.5 13.5t-14.5 33.5t14.5 34.5t34.5 14.5h224l84 484h-226q-20 0 -34.5 13.5t-14.5 33.5t14.5 34.5t34.5 14.5h242l57 338q6 45 51 45q25 0 37.5 -18t7.5 -42l-55 -323h424l57 338q6 45 52 45q25 0 37.5 -18t7.5 -42l-56 -323h205
q20 0 34.5 -13.5t14.5 -33.5t-14.5 -34.5t-34.5 -14.5h-221l-84 -484h223q20 0 34.5 -13.5t14.5 -33.5t-14.5 -34.5t-34.5 -14.5h-239l-60 -346q-6 -45 -51 -45q-25 0 -37.5 17.5t-7.5 41.5l57 332h-424l-59 -346q-6 -45 -51 -45q-25 0 -37.5 17.5t-7.5 41.5zM463 479h424
l84 484h-424z" />
    <glyph glyph-name="dollar" unicode="$" horiz-adv-x="1294" 
d="M608 1434v77q0 20 14.5 35t34.5 15t35 -15t15 -35v-81q106 -10 190.5 -44.5t173.5 -99.5q16 -12 22.5 -21.5t6.5 -25.5q0 -23 -15 -37t-38 -14t-37 14q-139 111 -308 133v-573q232 -49 337.5 -141t105.5 -242q0 -161 -123.5 -267.5t-314.5 -111.5v-160q0 -20 -15 -34.5
t-35 -14.5t-34.5 14.5t-14.5 34.5v162q-134 10 -245 58.5t-216 140.5q-22 19 -22 43q0 20 15.5 35.5t35.5 15.5q23 0 37 -14q90 -83 185.5 -129t213.5 -58v584q-229 49 -331.5 140.5t-102.5 244.5q0 155 121 261t309 110zM1040 371q0 111 -73 177t-265 109v-565
q153 4 245.5 82t92.5 197zM283 1071q0 -74 27 -124t99.5 -91t202.5 -74v559q-147 -4 -238 -81t-91 -189z" />
    <glyph glyph-name="percent" unicode="%" horiz-adv-x="1687" 
d="M426 717q-137 0 -225 107.5t-88 254.5v4q0 148 89.5 257.5t227.5 109.5q91 0 163.5 -51.5t111 -134t38.5 -177.5v-4q0 -149 -89 -257.5t-228 -108.5zM299 35q0 18 8 26l998 1358q16 23 38 23q19 0 32.5 -12.5t13.5 -30.5t-9 -27l-997 -1358q-16 -22 -39 -22q-19 0 -32 12
t-13 31zM1257 -16q-137 0 -225 107.5t-88 254.5v4q0 148 90 257.5t228 109.5q91 0 163.5 -51.5t111 -134t38.5 -177.5v-4q0 -149 -89.5 -257.5t-228.5 -108.5zM430 805q90 0 148.5 78.5t58.5 195.5v4q0 117 -62 198t-149 81q-89 0 -148 -80.5t-59 -194.5v-4
q0 -121 61.5 -199.5t149.5 -78.5zM1262 72q90 0 148 78.5t58 195.5v4q0 117 -62 198t-149 81q-89 0 -147.5 -80t-58.5 -195v-4q0 -121 61.5 -199.5t149.5 -78.5z" />
    <glyph glyph-name="ampersand" unicode="&#x26;" horiz-adv-x="1425" 
d="M1288 -18q-25 0 -49 24l-213 221q-214 -247 -485 -247q-190 0 -315.5 111.5t-125.5 285.5v4q0 282 371 420q-86 96 -123 168t-37 159v5q0 140 101.5 232.5t257.5 92.5q139 0 234 -90.5t95 -220.5v-4q0 -250 -352 -371l377 -387q99 141 172 315l2 3q2 3 2.5 4t2.5 4l3 4.5
t4 4t5 3.5t5.5 3t6.5 3t7 1.5t9 0.5q23 0 37 -14t14 -37q0 -15 -6 -27q-92 -204 -194 -340l223 -229q24 -24 24 -49q0 -23 -15 -38t-38 -15zM584 838q309 99 309 301v4q0 97 -64.5 161t-162.5 64q-109 0 -178.5 -66t-69.5 -165v-4q0 -67 35.5 -129t130.5 -166zM543 72
q219 0 415 225l-423 438q-165 -58 -246.5 -149.5t-81.5 -200.5v-4q0 -132 95 -220.5t241 -88.5z" />
    <glyph glyph-name="quotesingle" unicode="'" horiz-adv-x="471" 
d="M143 944l62 440q9 54 57 54h39q33 0 33 -35q0 -19 -10 -49l-117 -412q-12 -37 -35 -37q-37 0 -29 39z" />
    <glyph glyph-name="parenleft" unicode="(" horiz-adv-x="880" 
d="M719 -285q-7 0 -25 6q-267 156 -408 375t-141 492t141 491.5t408 374.5q18 6 25 6q39 0 39 -39q0 -24 -23 -37q-483 -306 -483 -796q0 -491 483 -797q23 -13 23 -37q0 -39 -39 -39z" />
    <glyph glyph-name="parenright" unicode=")" horiz-adv-x="880" 
d="M162 -285q-39 0 -39 39q0 24 22 37q484 307 484 797q0 489 -484 796q-22 13 -22 37q0 39 39 39q6 0 24 -6q267 -156 408 -374.5t141 -491.5t-141 -492t-408 -375q-18 -6 -24 -6z" />
    <glyph glyph-name="asterisk" unicode="*" horiz-adv-x="880" 
d="M399 868l17 224l-187 -127q-20 -13 -32 -13q-17 0 -29 13t-12 30q0 27 28 39l211 101l-211 100q-28 16 -28 39q0 17 12 29t29 14q11 0 32 -12l187 -127l-17 223q-2 19 10 32t31 13t31 -13t10 -32l-16 -223l186 127q18 12 33 12q17 0 29 -13t12 -30q0 -27 -29 -39
l-211 -100l211 -101q29 -12 29 -39q0 -17 -12 -30t-29 -13q-14 0 -33 13l-186 127l16 -224q2 -19 -10 -32t-31 -13t-31 13t-10 32z" />
    <glyph glyph-name="plus" unicode="+" horiz-adv-x="1269" 
d="M584 274v398h-404q-20 0 -34.5 14.5t-14.5 34.5t14.5 34.5t34.5 14.5h404v397q0 23 14 37.5t37 14.5t37 -14.5t14 -37.5v-397h404q20 0 34.5 -14.5t14.5 -34.5t-14.5 -34.5t-34.5 -14.5h-404v-398q0 -23 -14 -37t-37 -14t-37 14t-14 37z" />
    <glyph glyph-name="comma" unicode="," horiz-adv-x="471" 
d="M111 -184q0 16 16 26q56 31 78 67.5t18 90.5q-55 14 -55 72v43q0 29 19.5 48t48.5 19t48 -19t19 -48v-52q0 -86 -13 -135t-42 -78q-27 -27 -59.5 -46t-47.5 -19q-12 0 -21 7.5t-9 23.5z" />
    <glyph glyph-name="hyphen" unicode="-" horiz-adv-x="835" 
d="M643 551h-450q-23 0 -40.5 17t-17.5 40t17.5 40.5t40.5 17.5h450q23 0 40 -17.5t17 -40.5t-17 -40t-40 -17z" />
    <glyph glyph-name="period" unicode="." horiz-adv-x="471" 
d="M168 59v56q0 29 19.5 48t48.5 19t48 -19t19 -48v-56q0 -29 -19 -48t-48 -19t-48.5 19t-19.5 48z" />
    <glyph glyph-name="slash" unicode="/" horiz-adv-x="1024" 
d="M-12 -227q0 14 6 26l926 1815q16 28 43 28q19 0 31 -12t12 -31q0 -12 -7 -26l-925 -1815q-16 -28 -43 -28q-19 0 -31 12t-12 31z" />
    <glyph glyph-name="zero" unicode="0" horiz-adv-x="1454" 
d="M725 -25q-134 0 -246.5 59.5t-187.5 161t-116.5 235.5t-41.5 282v4q0 148 42.5 282.5t118 236t189 162t246.5 60.5q134 0 246.5 -59.5t187.5 -161t116.5 -235t41.5 -281.5v-4q0 -148 -42.5 -282.5t-118 -236.5t-189 -162.5t-246.5 -60.5zM729 72q86 0 163 34.5t134 95
t99 141t63.5 175.5t21.5 195v4q0 125 -34.5 241.5t-96 206t-154 143.5t-200.5 54q-86 0 -163 -34.5t-134 -95t-99 -141t-63.5 -175.5t-21.5 -195v-4q0 -125 34.5 -241t96 -206t154 -144t200.5 -54z" />
    <glyph glyph-name="one" unicode="1" horiz-adv-x="686" 
d="M367 45v1292l-234 -80q-15 -6 -27 -6q-19 0 -32 13t-13 32q0 31 39 45l250 93q40 14 66 14h4q24 0 37.5 -15t13.5 -36v-1352q0 -23 -14 -38t-37 -15t-38 15t-15 38z" />
    <glyph glyph-name="two" unicode="2" horiz-adv-x="1208" 
d="M90 49q0 23 25 45l518 469q178 161 247.5 268.5t69.5 221.5q0 137 -94.5 222t-228.5 85q-126 0 -219.5 -59t-182.5 -181q-16 -22 -41 -22q-20 0 -34.5 13.5t-14.5 33.5q0 18 8 26q65 93 129 152t156.5 95t208.5 36q183 0 304.5 -112.5t121.5 -280.5v-4q0 -98 -40 -185
t-111 -167.5t-207 -204.5l-439 -398h768q23 0 37 -14t14 -37t-14 -37t-37 -14h-893q-23 0 -37 13t-14 36z" />
    <glyph glyph-name="three" unicode="3" horiz-adv-x="1249" 
d="M637 -25q-160 0 -289.5 64t-220.5 174q-14 19 -14 37q0 23 15 38t38 15q27 0 43 -20q177 -211 430 -211q146 0 250 89.5t104 227.5v4q0 147 -124 229.5t-322 82.5h-51q-21 0 -35.5 13.5t-14.5 33.5q0 17 19 39l471 542h-709q-23 0 -37 13t-14 36t14 37.5t37 14.5h815
q21 0 34.5 -12.5t13.5 -32.5q0 -21 -19 -43l-475 -543q105 -6 194.5 -34t161 -76.5t112 -124.5t40.5 -171v-4q0 -122 -65 -219t-171.5 -148t-230.5 -51z" />
    <glyph glyph-name="four" unicode="4" horiz-adv-x="1359" 
d="M911 43v307h-759q-25 0 -40.5 15.5t-15.5 40.5q0 19 17 43l790 976q24 27 51 27q26 0 43 -16.5t17 -42.5v-951h194q19 0 33 -14t14 -33t-14 -32t-33 -13h-194v-307q0 -23 -14 -37t-37 -14t-37.5 14t-14.5 37zM227 442h684v848z" />
    <glyph glyph-name="five" unicode="5" horiz-adv-x="1239" 
d="M618 -25q-129 0 -256.5 58t-216.5 147q-22 22 -22 47q0 20 14.5 34.5t36.5 14.5q27 0 45 -18q199 -186 404 -186q169 0 277 102.5t108 257.5v4q0 152 -110 246t-284 94q-63 0 -122 -12.5t-93 -27.5t-63 -27.5t-39 -12.5q-29 0 -59 19q-30 21 -27 71l35 590q3 58 55 58
h711q23 0 37 -14.5t14 -37.5t-14 -37t-37 -14h-668l-35 -536q151 77 318 77q137 0 249 -54t177 -153.5t65 -224.5v-4q0 -198 -142.5 -329.5t-357.5 -131.5z" />
    <glyph glyph-name="six" unicode="6" horiz-adv-x="1314" 
d="M678 -25q-108 0 -203 38.5t-162 105.5q-95 95 -138.5 220t-43.5 339v4q0 216 71 392t205 280t308 104q111 0 201.5 -35t181.5 -106q22 -19 22 -43q0 -23 -15 -38t-38 -15q-18 0 -33 12q-81 65 -158.5 97t-168.5 32q-144 0 -252.5 -94.5t-165 -263.5t-51.5 -386
q160 267 448 267q130 0 242.5 -54t182 -155t69.5 -225v-5q0 -133 -66 -241t-181 -169t-255 -61zM686 72q168 0 275.5 107t107.5 263v4q0 147 -110 246t-279 99q-86 0 -161.5 -31t-127 -81t-81 -114t-29.5 -129v-4q0 -154 116 -257t289 -103z" />
    <glyph glyph-name="seven" unicode="7" horiz-adv-x="1202" 
d="M346 41q0 18 8 31l617 1259h-789q-23 0 -37 14t-14 37t14 37.5t37 14.5h865q24 0 37.5 -12.5t13.5 -35.5q0 -10 -13 -40l-634 -1317q-7 -15 -21 -26t-31 -11q-24 0 -38.5 13t-14.5 36z" />
    <glyph glyph-name="eight" unicode="8" horiz-adv-x="1290" 
d="M645 -20q-149 0 -270.5 50.5t-191.5 143t-70 209.5v4q0 121 88 214.5t229 139.5q-116 44 -192 130t-76 204v4q0 107 69.5 194t179.5 134t234 47t234 -47t179.5 -134t69.5 -194v-4q0 -118 -76 -204t-192 -130q141 -46 229.5 -139.5t88.5 -214.5v-4q0 -117 -70.5 -209.5
t-192 -143t-270.5 -50.5zM645 780q155 0 264 83.5t109 211.5v4q0 122 -107 200.5t-266 78.5t-266 -78.5t-107 -200.5v-4q0 -128 109 -211.5t264 -83.5zM645 76q191 0 306.5 88t115.5 215v4q0 134 -121.5 220.5t-300.5 86.5t-300.5 -86.5t-121.5 -220.5v-4q0 -127 115.5 -215
t306.5 -88z" />
    <glyph glyph-name="nine" unicode="9" horiz-adv-x="1314" 
d="M600 -25q-211 0 -407 158q-23 20 -23 43t14 38t37 15q25 0 39 -14q168 -143 342 -143q143 0 254 94.5t170 263.5t51 381q-69 -123 -179.5 -199.5t-266.5 -76.5q-215 0 -355.5 126t-140.5 312v4q0 202 142 341.5t362 139.5t365 -145q88 -88 134 -220.5t46 -338.5v-4
q0 -222 -76 -399.5t-209.5 -276.5t-298.5 -99zM635 629q89 0 165.5 31.5t126.5 83t78.5 116.5t28.5 133v4q0 154 -115.5 259.5t-291.5 105.5q-114 0 -202.5 -54t-133.5 -140t-45 -187v-4q0 -151 109.5 -249.5t279.5 -98.5z" />
    <glyph glyph-name="colon" unicode=":" horiz-adv-x="491" 
d="M178 930v55q0 29 19.5 48.5t48.5 19.5t48 -19.5t19 -48.5v-55q0 -29 -19 -48.5t-48 -19.5t-48.5 19.5t-19.5 48.5zM178 59v56q0 29 19.5 48t48.5 19t48 -19t19 -48v-56q0 -29 -19 -48t-48 -19t-48.5 19t-19.5 48z" />
    <glyph glyph-name="semicolon" unicode=";" horiz-adv-x="491" 
d="M178 930v55q0 29 19.5 48.5t48.5 19.5t48 -19.5t19 -48.5v-55q0 -29 -19 -48.5t-48 -19.5t-48.5 19.5t-19.5 48.5zM121 -184q0 16 16 26q56 31 78 67.5t18 90.5q-55 14 -55 72v43q0 29 19.5 48t48.5 19t48 -19t19 -48v-52q0 -86 -13 -135t-42 -78q-28 -28 -59.5 -46.5
t-46.5 -18.5q-12 0 -21.5 7.5t-9.5 23.5z" />
    <glyph glyph-name="less" unicode="&#x3c;" horiz-adv-x="1269" 
d="M1042 213q-17 0 -30 8l-852 443q-37 21 -37 55v4q0 34 37 55l852 443q13 8 30 8q20 0 32.5 -14t12.5 -35q0 -29 -32 -47l-801 -410l801 -414q32 -18 32 -47q0 -21 -12.5 -35t-32.5 -14z" />
    <glyph glyph-name="equal" unicode="=" horiz-adv-x="1269" 
d="M1055 899h-840q-23 0 -38 14t-15 37t15 38.5t38 15.5h840q23 0 38 -15.5t15 -38.5t-15 -37t-38 -14zM1055 438h-840q-23 0 -38 14t-15 37t15 38.5t38 15.5h840q23 0 38 -15.5t15 -38.5t-15 -37t-38 -14z" />
    <glyph glyph-name="greater" unicode="&#x3e;" horiz-adv-x="1269" 
d="M227 1229q18 0 31 -8l852 -443q37 -21 37 -55v-4q0 -34 -37 -55l-852 -443q-13 -8 -31 -8q-20 0 -32.5 14t-12.5 35q0 29 33 47l801 410l-801 414q-33 18 -33 47q0 21 12.5 35t32.5 14z" />
    <glyph glyph-name="question" unicode="?" horiz-adv-x="1093" 
d="M504 367h-4q-30 0 -33 36l-23 265q-2 21 11.5 35.5t36.5 15.5q177 11 282 95t105 230v5q0 131 -93.5 220t-246.5 89q-212 0 -375 -187q-14 -20 -41 -20q-20 0 -33.5 12.5t-13.5 32.5t12 35q184 221 455 221q198 0 321 -115.5t123 -283.5v-4q0 -93 -34 -168.5t-94 -126
t-137.5 -82t-168.5 -41.5l-16 -228q-3 -36 -33 -36zM434 59v56q0 29 19.5 48t48.5 19t48 -19t19 -48v-56q0 -29 -19 -48t-48 -19t-48.5 19t-19.5 48z" />
    <glyph glyph-name="at" unicode="@" horiz-adv-x="2007" 
d="M1022 -332q-129 0 -249.5 32.5t-220.5 90.5t-183 140.5t-140 180.5t-88.5 213t-31.5 236q0 181 70 346t189.5 286t286 193t351.5 72q184 0 350.5 -66t284.5 -176.5t187.5 -259t69.5 -309.5q0 -126 -33 -224.5t-88 -156t-119 -87t-132 -29.5q-107 0 -179.5 50.5
t-99.5 139.5q-70 -88 -154 -139t-196 -51q-152 0 -257 102t-105 262q0 106 42.5 202.5t110 163t153 105.5t171.5 39q204 0 305 -182l22 121q9 49 52 49q24 0 38 -19.5t9 -44.5l-70 -397q-18 -108 -18 -148q0 -87 48 -133.5t136 -46.5q56 0 107 25t94 74.5t68.5 133.5
t25.5 191q0 140 -63.5 275.5t-171.5 239.5t-262.5 167.5t-325.5 63.5q-233 0 -423.5 -112.5t-297.5 -303t-107 -416.5q0 -170 63 -322.5t173 -263.5t268 -176t340 -65q148 0 263.5 31.5t234.5 99.5q12 4 20 4q10 0 18.5 -9t8.5 -20t-15 -26q-250 -146 -530 -146zM913 246
q93 0 179 56.5t138 148t52 190.5q0 122 -76.5 203.5t-193.5 81.5q-144 0 -257.5 -118.5t-113.5 -285.5q0 -129 74.5 -202.5t197.5 -73.5z" />
    <glyph glyph-name="A" unicode="A" horiz-adv-x="1617" 
d="M115 37q0 20 8 33l612 1327q23 51 72 51h4q49 0 72 -51l610 -1323q8 -13 8 -33q0 -21 -14 -35t-37 -14q-35 0 -53 41l-168 368h-846l-168 -370q-14 -39 -51 -39q-20 0 -34.5 13t-14.5 32zM428 498h756l-377 829z" />
    <glyph glyph-name="B" unicode="B" horiz-adv-x="1478" 
d="M213 53v1327q0 23 15 38.5t38 15.5h539q246 0 373 -127q92 -92 92 -226v-4q0 -238 -244 -340q144 -38 234 -121.5t90 -220.5v-4q0 -179 -140.5 -285t-373.5 -106h-570q-23 0 -38 15t-15 38zM319 772h474q164 0 266 78t102 217v4q0 121 -94 192.5t-264 71.5h-484v-563z
M319 98h521q185 0 293 79t108 214v4q0 134 -112 206.5t-324 72.5h-486v-576z" />
    <glyph glyph-name="C" unicode="C" horiz-adv-x="1511" 
d="M862 -25q-152 0 -285 57.5t-226 156.5t-147 235t-54 289v4q0 201 91.5 370.5t257 270t367.5 100.5q169 0 289.5 -50.5t237.5 -150.5q20 -20 20 -43t-16 -38t-39 -15q-22 0 -37 15q-100 91 -207.5 138.5t-249.5 47.5q-127 0 -239 -50t-192 -135.5t-126.5 -204
t-46.5 -251.5v-4q0 -133 47 -252.5t127.5 -205.5t193 -136.5t238.5 -50.5q143 0 251.5 48t215.5 150q17 17 37 17t35.5 -15.5t15.5 -35.5q0 -21 -16 -37q-121 -111 -247 -167.5t-296 -56.5z" />
    <glyph glyph-name="D" unicode="D" horiz-adv-x="1601" 
d="M213 53v1327q0 23 15 38.5t38 15.5h424q166 0 309 -55t242 -150t155 -226.5t56 -281.5v-4q0 -150 -56 -282t-155 -228t-242 -151.5t-309 -55.5h-424q-23 0 -38 15t-15 38zM319 98h371q146 0 269.5 48t206.5 131t129 195.5t46 240.5v4q0 126 -46 239t-129 197t-206.5 133
t-269.5 49h-371v-1237z" />
    <glyph glyph-name="E" unicode="E" horiz-adv-x="1372" 
d="M1202 0h-936q-23 0 -38 15t-15 38v1327q0 23 15 38.5t38 15.5h926q20 0 34.5 -15t14.5 -35t-14.5 -34.5t-34.5 -14.5h-873v-563h781q20 0 34.5 -14.5t14.5 -34.5t-14.5 -34.5t-34.5 -14.5h-781v-576h883q20 0 34.5 -14.5t14.5 -34.5t-14.5 -34.5t-34.5 -14.5z" />
    <glyph glyph-name="F" unicode="F" horiz-adv-x="1343" 
d="M213 45v1335q0 23 15 38.5t38 15.5h916q20 0 34.5 -15t14.5 -35t-14.5 -34.5t-34.5 -14.5h-863v-587h771q20 0 34.5 -15t14.5 -35t-14.5 -34.5t-34.5 -14.5h-771v-604q0 -23 -15 -38t-38 -15t-38 15t-15 38z" />
    <glyph glyph-name="G" unicode="G" horiz-adv-x="1605" 
d="M870 -25q-166 0 -303 58.5t-227.5 159.5t-140 235t-49.5 285v4q0 145 51 279t141.5 236.5t225 164t290.5 61.5q154 0 269 -40t221 -120q20 -14 20 -43q0 -23 -15 -38t-38 -15q-18 0 -33 15q-93 72 -191.5 108.5t-238.5 36.5q-170 0 -307 -88t-211 -234t-74 -319v-4
q0 -139 42.5 -257.5t120.5 -205t194 -135.5t257 -49q129 0 251.5 46.5t205.5 116.5v412h-446q-20 0 -34.5 14.5t-14.5 34.5t14.5 34.5t34.5 14.5h495q23 0 38.5 -15t15.5 -38v-469q0 -31 -37 -61q-244 -185 -527 -185z" />
    <glyph glyph-name="H" unicode="H" horiz-adv-x="1556" 
d="M213 45v1344q0 23 15 38t38 15t38 -15t15 -38v-619h918v619q0 23 15 38t38 15t38 -15t15 -38v-1344q0 -23 -15 -38t-38 -15t-38 15t-15 38v627h-918v-627q0 -23 -15 -38t-38 -15t-38 15t-15 38z" />
    <glyph glyph-name="I" unicode="I" horiz-adv-x="561" 
d="M227 45v1344q0 23 15.5 38t38.5 15t38 -15t15 -38v-1344q0 -23 -15 -38t-38 -15t-38.5 15t-15.5 38z" />
    <glyph glyph-name="J" unicode="J" horiz-adv-x="1124" 
d="M510 -20q-267 0 -416 235q-8 11 -8 29q0 23 15 38t38 15q28 0 43 -25q65 -101 142.5 -148.5t191.5 -47.5q137 0 224 100t87 283v930q0 23 15.5 38t38.5 15t38 -15t15 -38v-922q0 -242 -131 -373q-114 -114 -293 -114z" />
    <glyph glyph-name="K" unicode="K" horiz-adv-x="1464" 
d="M213 45v1344q0 23 15 38t38 15t38 -15t15 -38v-897l906 933q17 17 37 17t36.5 -16.5t16.5 -36.5t-17 -37l-546 -551l583 -715q17 -24 17 -39q0 -23 -16.5 -39t-39.5 -16q-25 0 -41 20l-579 713l-357 -360v-320q0 -23 -15 -38t-38 -15t-38 15t-15 38z" />
    <glyph glyph-name="L" unicode="L" horiz-adv-x="1267" 
d="M213 53v1336q0 23 15 38t38 15t38 -15t15 -38v-1291h801q20 0 34.5 -14.5t14.5 -34.5t-14.5 -34.5t-34.5 -14.5h-854q-23 0 -38 15t-15 38z" />
    <glyph glyph-name="M" unicode="M" horiz-adv-x="1777" 
d="M213 43v1343q0 23 15 38.5t38 15.5h10q29 0 54 -31l559 -823l559 823q22 31 53 31h10q23 0 38.5 -15.5t15.5 -38.5v-1341q0 -23 -15.5 -38t-38.5 -15t-38 15t-15 38v1200l-526 -766q-17 -26 -45 -26t-45 26l-527 766v-1202q0 -23 -14 -37t-37 -14t-37 14t-14 37z" />
    <glyph glyph-name="N" unicode="N" horiz-adv-x="1617" 
d="M213 43v1343q0 23 15 38.5t38 15.5h17q28 0 53 -31l967 -1227v1209q0 23 14 37t37 14t37 -14t14 -37v-1352q0 -19 -12 -32t-31 -13h-8q-30 0 -54 35l-985 1249v-1235q0 -23 -14 -37t-37 -14t-37 14t-14 37z" />
    <glyph glyph-name="O" unicode="O" horiz-adv-x="1740" 
d="M868 -25q-158 0 -294.5 60.5t-228 162t-143.5 235.5t-52 280v4q0 147 52.5 281.5t145 236.5t229.5 162.5t295 60.5q127 0 241 -39t200 -108t149.5 -161.5t96 -202t32.5 -226.5v-4q0 -147 -52.5 -281.5t-145.5 -236.5t-230 -163t-295 -61zM872 72q130 0 244 50.5
t193.5 137t125.5 204.5t46 249v4q0 131 -46.5 250t-127 205.5t-195 138t-244.5 51.5q-173 0 -313 -86t-217.5 -232.5t-77.5 -322.5v-4q0 -176 78.5 -323.5t219.5 -234.5t314 -87z" />
    <glyph glyph-name="P" unicode="P" horiz-adv-x="1368" 
d="M213 45v1335q0 23 15 38.5t38 15.5h467q240 0 386.5 -117.5t146.5 -321.5v-4q0 -89 -29 -163.5t-81 -128t-122.5 -91t-153 -55.5t-173.5 -18h-388v-490q0 -23 -15 -38t-38 -15t-38 15t-15 38zM319 633h394q201 0 323.5 96t122.5 256v4q0 166 -118.5 256t-315.5 90h-406
v-702z" />
    <glyph glyph-name="Q" unicode="Q" horiz-adv-x="1740" 
d="M868 -25q-158 0 -294.5 60.5t-228 162t-143.5 235.5t-52 280v4q0 147 52.5 281.5t145 236.5t229.5 162.5t295 60.5q127 0 241 -39t200 -108t149.5 -161.5t96 -202t32.5 -226.5v-4q0 -142 -48.5 -272.5t-139.5 -233.5l164 -137q24 -21 24 -47q0 -23 -16 -39.5t-39 -16.5
q-24 0 -45 21l-162 147q-194 -164 -461 -164zM1253 207l-239 205q-25 22 -25 47q0 23 16 39t39 16q26 0 46 -20l235 -215q156 183 156 434v4q0 131 -46.5 250t-127 205.5t-195 138t-244.5 51.5q-173 0 -313 -86t-217.5 -232.5t-77.5 -322.5v-4q0 -176 78.5 -323.5
t219.5 -234.5t314 -87q221 0 381 135z" />
    <glyph glyph-name="R" unicode="R" horiz-adv-x="1480" 
d="M213 45v1335q0 23 15 38.5t38 15.5h549q262 0 404 -142q108 -108 108 -266v-4q0 -173 -115.5 -278.5t-304.5 -131.5l408 -528q16 -22 16 -37q0 -23 -16 -39t-39 -16q-25 0 -47 28l-441 574h-469v-549q0 -23 -15 -38t-38 -15t-38 15t-15 38zM319 690h484q184 0 301 88.5
t117 239.5v4q0 147 -108 230t-304 83h-490v-645z" />
    <glyph glyph-name="S" unicode="S" horiz-adv-x="1310" 
d="M698 -20q-158 0 -288 49t-256 151q-21 17 -21 41q0 23 15 38t38 15q20 0 35 -12q106 -97 221.5 -141.5t262.5 -44.5q160 0 261 80t101 204v5q0 80 -32.5 133t-122 96t-250.5 76q-260 54 -372 146.5t-112 256.5v4q0 161 131 269t330 108q142 0 249 -35.5t208 -111.5
q22 -18 22 -43q0 -23 -15 -38.5t-38 -15.5q-19 0 -35 13q-176 135 -395 135q-156 0 -253 -79t-97 -192v-4q0 -61 17.5 -104.5t63.5 -82.5t127.5 -69t208.5 -57q250 -51 361 -144t111 -251v-4q0 -172 -134 -281.5t-342 -109.5z" />
    <glyph glyph-name="T" unicode="T" horiz-adv-x="1327" 
d="M610 45v1290h-458q-20 0 -35 14.5t-15 34.5t15 35t35 15h1024q20 0 34.5 -15t14.5 -35t-14.5 -34.5t-34.5 -14.5h-459v-1290q0 -23 -15 -38t-38 -15t-38.5 15t-15.5 38z" />
    <glyph glyph-name="U" unicode="U" horiz-adv-x="1556" 
d="M778 -23q-129 0 -237 41t-186 118t-121.5 194.5t-43.5 265.5v793q0 23 15.5 38t38.5 15t38 -15t15 -38v-783q0 -255 127.5 -393.5t357.5 -138.5q222 0 350 134t128 388v793q0 23 15 38t38 15t38 -15t15 -38v-781q0 -301 -160.5 -466t-427.5 -165z" />
    <glyph glyph-name="V" unicode="V" horiz-adv-x="1536" 
d="M770 -14h-4q-43 0 -64 47l-583 1335q-4 12 -4 23q0 20 15.5 35.5t37.5 15.5q38 0 55 -43l547 -1284l549 1286q18 41 53 41q22 0 36.5 -14.5t14.5 -34.5q0 -9 -4 -21l-585 -1339q-21 -47 -64 -47z" />
    <glyph glyph-name="W" unicode="W" horiz-adv-x="2256" 
d="M608 31l-479 1329q-6 15 -6 26q0 23 16 39.5t39 16.5q42 0 58 -49l436 -1235l407 1243q14 41 51 41h5q37 0 51 -41l407 -1243l439 1241q15 43 51 43q20 0 36.5 -16.5t16.5 -36.5q0 -10 -8 -29l-479 -1329q-17 -47 -56 -47h-4q-41 0 -55 47l-406 1204l-405 -1204
q-14 -47 -55 -47h-4q-41 0 -56 47z" />
    <glyph glyph-name="X" unicode="X" horiz-adv-x="1478" 
d="M150 41q0 18 14 35l512 655l-488 621q-18 25 -18 41q0 19 15.5 34t35.5 15q11 0 19.5 -4t12 -8t13.5 -15l475 -612l469 606q26 33 52 33q20 0 33.5 -14.5t13.5 -34.5q0 -17 -15 -35l-489 -625l506 -651q18 -21 18 -41q0 -19 -15.5 -34t-35.5 -15q-16 0 -24 5.5t-21 20.5
l-496 644l-489 -637q-26 -33 -51 -33q-20 0 -33.5 14.5t-13.5 34.5z" />
    <glyph glyph-name="Y" unicode="Y" horiz-adv-x="1466" 
d="M680 45v522l-559 789q-10 17 -10 33q0 23 16 38t39 15q27 0 49 -31l520 -747l522 747q1 1 4 4.5t4 5t4 4.5t4.5 4t4 3.5t4.5 3.5l5 2.5t5.5 2t6 1t6.5 0.5q20 0 36.5 -15.5t16.5 -35.5q0 -11 -17 -41l-555 -781v-524q0 -23 -15 -38t-38 -15t-38 15t-15 38z" />
    <glyph glyph-name="Z" unicode="Z" horiz-adv-x="1409" 
d="M1231 0h-1034q-20 0 -36 14t-16 31v2q0 23 19 45l956 1245h-905q-20 0 -34.5 13.5t-14.5 33.5t14.5 35t34.5 15h999q20 0 36 -14t16 -31v-3q0 -23 -19 -45l-956 -1245h940q20 0 34.5 -13.5t14.5 -33.5t-14.5 -34.5t-34.5 -14.5z" />
    <glyph glyph-name="bracketleft" unicode="[" horiz-adv-x="880" 
d="M201 -213v1593q0 23 15 38.5t38 15.5h475q17 0 28 -11t11 -28t-11 -28t-28 -11h-434v-1544h434q17 0 28 -11t11 -28t-11 -28t-28 -11h-475q-23 0 -38 15t-15 38z" />
    <glyph glyph-name="backslash" unicode="\" horiz-adv-x="1024" 
d="M1036 -227q0 -19 -12 -31t-31 -12q-27 0 -43 28l-925 1815q-7 14 -7 26q0 19 12 31t31 12q27 0 43 -28l926 -1815q6 -12 6 -26z" />
    <glyph glyph-name="bracketright" unicode="]" horiz-adv-x="880" 
d="M680 1380v-1593q0 -23 -15 -38t-38 -15h-475q-17 0 -28 11t-11 28t11 28t28 11h434v1544h-434q-17 0 -28 11t-11 28t11 28t28 11h475q23 0 38 -15.5t15 -38.5z" />
    <glyph glyph-name="asciicircum" unicode="^" horiz-adv-x="1024" 
d="M510 1352l-246 -322q-20 -29 -71 -29q-13 0 -21 7.5t-8 15.5q0 10 10 27l272 360q29 37 58 37h16q29 0 58 -37l272 -360q10 -17 10 -27q0 -9 -7.5 -16t-23.5 -7q-53 0 -73 29z" />
    <glyph glyph-name="underscore" unicode="_" horiz-adv-x="1228" 
d="M1233 -328h-1237q-19 0 -32 13t-13 32t13 32t32 13h1237q19 0 32 -13t13 -32t-13 -32t-32 -13z" />
    <glyph glyph-name="grave" unicode="`" horiz-adv-x="1024" 
d="M586 1212q-37 0 -66 27l-164 158q-22 22 -22 37q0 17 28 32t58 15q33 0 57 -37l127 -191q8 -11 8 -22q0 -19 -26 -19z" />
    <glyph glyph-name="a" unicode="a" horiz-adv-x="1175" 
d="M508 -25q-75 0 -145.5 21t-129 60.5t-94 103.5t-35.5 143v4q0 161 125 250.5t332 89.5q179 0 346 -45v45q0 157 -90 238.5t-254 81.5q-147 0 -297 -70q-12 -6 -22 -6q-19 0 -33 14t-14 33q0 28 28 45q176 78 344 78q215 0 330 -115q107 -107 107 -295v-608
q0 -23 -13.5 -37t-36.5 -14t-36 14t-13 37v131q-63 -86 -162.5 -142.5t-236.5 -56.5zM514 70q163 0 279 90.5t116 230.5v119q-180 47 -354 47q-163 0 -253.5 -66t-90.5 -178v-4q0 -110 88.5 -174.5t214.5 -64.5z" />
    <glyph glyph-name="b" unicode="b" 
d="M190 43v1409q0 23 13.5 37t36.5 14t37 -14t14 -37v-641q166 258 430 258q95 0 185.5 -38t162.5 -105.5t116 -172t44 -227.5v-4q0 -122 -44 -227t-115.5 -174t-162.5 -107.5t-186 -38.5q-262 0 -430 250v-182q0 -23 -13 -37t-36 -14t-37.5 14t-14.5 37zM711 72
q177 0 293 121t116 325v4q0 200 -119 325.5t-290 125.5q-82 0 -159 -33t-136 -91t-95 -143t-36 -182v-4q0 -130 61 -234t158 -159t207 -55z" />
    <glyph glyph-name="c" unicode="c" horiz-adv-x="1169" 
d="M651 -25q-147 0 -270 74.5t-192.5 199t-69.5 269.5v4q0 145 69.5 270.5t192.5 201t270 75.5q219 0 393 -166q15 -15 15 -37q0 -23 -14 -37t-37 -14t-35 12q-73 69 -150 108.5t-174 39.5q-178 0 -300 -130t-122 -319v-4q0 -190 125.5 -321t304.5 -131t328 149q17 17 33 17
q19 0 34 -15.5t15 -34.5q0 -18 -12 -30q-86 -87 -181.5 -134t-222.5 -47z" />
    <glyph glyph-name="d" unicode="d" 
d="M1161 1452v-1409q0 -23 -13 -37t-36 -14t-37 14t-14 37v190q-173 -258 -430 -258q-95 0 -185.5 38t-162.5 105.5t-116 172t-44 227.5v4q0 122 44 227t115.5 174t162.5 107.5t186 38.5q262 0 430 -250v633q0 23 13 37t36 14t37 -14t14 -37zM641 973q-177 0 -293.5 -121.5
t-116.5 -325.5v-4q0 -200 119.5 -325t290.5 -125q82 0 159 33t136 90.5t95 142.5t36 182v4q0 98 -36 183t-95 142.5t-136 90.5t-159 33z" />
    <glyph glyph-name="e" unicode="e" horiz-adv-x="1196" 
d="M225 571h760q-6 81 -32 152.5t-71 129t-115 91t-157 33.5q-155 0 -264 -116t-121 -290zM1038 145q-84 -84 -179 -127t-228 -43q-102 0 -195.5 39.5t-163.5 109.5t-111.5 173t-41.5 223v4q0 149 64 274t178 198t253 73q143 0 253.5 -72.5t168.5 -195t58 -273.5
q0 -19 -15.5 -33t-34.5 -14h-819q12 -188 131 -299.5t279 -111.5q192 0 338 143q14 14 33 14q20 0 34.5 -13.5t14.5 -33.5q0 -18 -17 -35z" />
    <glyph glyph-name="f" unicode="f" horiz-adv-x="741" 
d="M252 43v909h-113q-20 0 -33.5 13.5t-13.5 33.5q0 19 14 32t33 13h113v103q0 180 92 272q82 82 219 82q64 0 125 -14q17 -5 28 -17.5t11 -29.5q0 -23 -16.5 -35.5t-40.5 -7.5q-66 12 -107 12q-211 0 -211 -264v-101h326q20 0 33.5 -13.5t13.5 -33.5q0 -19 -14 -32t-33 -13
h-326v-909q0 -23 -13 -37t-36 -14t-37 14t-14 37z" />
    <glyph glyph-name="g" unicode="g" 
d="M649 -332q-250 0 -456 144q-23 16 -23 45q0 18 15.5 32.5t35.5 14.5q18 0 29 -8q184 -134 401 -134q185 0 297.5 105.5t112.5 300.5v151q-172 -241 -436 -241q-95 0 -185 35.5t-160.5 97.5t-113.5 155.5t-43 202.5v4q0 110 43 204.5t113.5 157.5t160.5 98.5t185 35.5
q269 0 436 -233v165q0 24 13 38t36 14t37 -14.5t14 -37.5v-839q0 -222 -133 -355q-139 -139 -379 -139zM635 174q110 0 208.5 48.5t161 141t62.5 207.5v4q0 117 -62.5 209.5t-160.5 140.5t-209 48q-171 0 -287.5 -108.5t-116.5 -286.5v-5q0 -115 56 -207t148.5 -142
t199.5 -50z" />
    <glyph glyph-name="h" unicode="h" horiz-adv-x="1255" 
d="M190 43v1409q0 23 13.5 37t36.5 14t37 -14t14 -37v-602q128 219 377 219q195 0 306 -118.5t111 -311.5v-596q0 -23 -13 -37t-36 -14t-37 14t-14 37v578q0 164 -87 260t-245 96q-155 0 -258.5 -105t-103.5 -268v-561q0 -23 -13 -37t-36 -14t-37.5 14t-14.5 37z" />
    <glyph glyph-name="i" unicode="i" horiz-adv-x="509" 
d="M193 1368v35q0 26 17.5 43.5t43.5 17.5t44.5 -17.5t18.5 -43.5v-35q0 -26 -18.5 -43.5t-44.5 -17.5t-43.5 17.5t-17.5 43.5zM205 43v958q0 24 13 38t36 14t37 -14.5t14 -37.5v-958q0 -23 -13 -37t-36 -14t-37 14t-14 37z" />
    <glyph glyph-name="j" unicode="j" horiz-adv-x="509" 
d="M193 1368v35q0 26 17.5 43.5t43.5 17.5t44.5 -17.5t18.5 -43.5v-35q0 -26 -18.5 -43.5t-44.5 -17.5t-43.5 17.5t-17.5 43.5zM82 -334q-35 0 -49 2q-43 10 -43 45q0 19 13 32t32 13q8 0 23 -1t22 -1q57 0 91 37.5t34 108.5v1099q0 24 13 38t36 14t37 -14.5t14 -37.5v-1093
q0 -120 -59 -181t-164 -61z" />
    <glyph glyph-name="k" unicode="k" horiz-adv-x="1146" 
d="M190 43v1409q0 23 13.5 37t36.5 14t37 -14t14 -37v-1077l641 663q15 15 35 15t33.5 -13.5t13.5 -33.5q0 -18 -17 -35l-383 -389l410 -506q14 -14 14 -37q0 -47 -49 -47q-21 0 -43 22l-401 496l-254 -256v-211q0 -23 -13 -37t-36 -14t-37.5 14t-14.5 37z" />
    <glyph glyph-name="l" unicode="l" horiz-adv-x="509" 
d="M205 43v1409q0 23 13 37t36 14t37 -14t14 -37v-1409q0 -23 -13 -37t-36 -14t-37 14t-14 37z" />
    <glyph glyph-name="m" unicode="m" horiz-adv-x="1947" 
d="M190 43v958q0 23 13.5 37.5t36.5 14.5t37 -14.5t14 -37.5v-143q27 45 57 79.5t71.5 66t97 48.5t122.5 17q129 0 216 -62t136 -163q131 225 377 225q185 0 293 -119t108 -317v-590q0 -23 -13 -37t-36 -14t-37 14t-14 37v578q0 170 -81 263t-228 93q-138 0 -234 -99.5
t-96 -269.5v-565q0 -23 -13 -37t-36 -14t-37 14t-14 37v584q0 164 -81.5 257t-223.5 93q-141 0 -237.5 -108.5t-96.5 -266.5v-559q0 -23 -13 -37t-36 -14t-37.5 14t-14.5 37z" />
    <glyph glyph-name="n" unicode="n" horiz-adv-x="1255" 
d="M190 43v958q0 23 13.5 37.5t36.5 14.5t37 -14.5t14 -37.5v-151q128 219 377 219q195 0 306 -118.5t111 -311.5v-596q0 -23 -13 -37t-36 -14t-37 14t-14 37v578q0 164 -87 260t-245 96q-155 0 -258.5 -105t-103.5 -268v-561q0 -23 -13 -37t-36 -14t-37.5 14t-14.5 37z" />
    <glyph glyph-name="o" unicode="o" horiz-adv-x="1310" 
d="M653 -25q-113 0 -213 44t-170 117.5t-110.5 173t-40.5 208.5v4q0 109 41 209t111 174.5t171 119t215 44.5q151 0 274.5 -74.5t192 -198.5t68.5 -270v-4q0 -146 -69 -271t-193.5 -200.5t-276.5 -75.5zM657 70q121 0 219.5 60.5t152.5 163t54 224.5v4q0 191 -124.5 322
t-305.5 131q-183 0 -304.5 -131t-121.5 -318v-4q0 -191 124.5 -321.5t305.5 -130.5z" />
    <glyph glyph-name="p" unicode="p" 
d="M190 -285v1286q0 23 13.5 37.5t36.5 14.5t37 -14.5t14 -37.5v-190q166 258 430 258q95 0 185.5 -38t162.5 -105.5t116 -172t44 -227.5v-4q0 -122 -44 -227t-115.5 -174t-162.5 -107.5t-186 -38.5q-262 0 -430 250v-510q0 -23 -13 -37t-36 -14t-37.5 14t-14.5 37zM711 72
q177 0 293 121t116 325v4q0 200 -119 325.5t-290 125.5q-82 0 -159 -33t-136 -91t-95 -143t-36 -182v-4q0 -130 61 -234t158 -159t207 -55z" />
    <glyph glyph-name="q" unicode="q" 
d="M1161 1001v-1286q0 -23 -13 -37t-36 -14t-37 14t-14 37v518q-173 -258 -430 -258q-95 0 -185.5 38t-162.5 105.5t-116 172t-44 227.5v4q0 122 44 227t115.5 174t162.5 107.5t186 38.5q262 0 430 -250v182q0 24 13 38t36 14t37 -14.5t14 -37.5zM641 973
q-177 0 -293.5 -121.5t-116.5 -325.5v-4q0 -200 119.5 -325t290.5 -125q82 0 159 33t136 90.5t95 142.5t36 182v4q0 98 -36 183t-95 142.5t-136 90.5t-159 33z" />
    <glyph glyph-name="r" unicode="r" horiz-adv-x="819" 
d="M190 43v958q0 23 13.5 37.5t36.5 14.5t37 -14.5t14 -37.5v-253q63 145 183.5 229t236.5 84q23 0 38 -16t15 -39q0 -24 -14.5 -39.5t-38.5 -16.5q-85 -9 -159 -44.5t-133.5 -97.5t-93.5 -159.5t-34 -220.5v-385q0 -23 -13 -37t-36 -14t-37.5 14t-14.5 37z" />
    <glyph glyph-name="s" unicode="s" horiz-adv-x="1017" 
d="M528 -20q-105 0 -214.5 37t-190.5 98q-19 14 -19 39q0 20 15 34.5t35 14.5q15 0 32 -10q165 -119 349 -119q108 0 179.5 54t71.5 144v4q0 30 -9.5 55t-30.5 44.5t-42.5 34.5t-58 29.5t-64 23.5t-71.5 22q-159 45 -221 79q-137 73 -137 208v4q0 126 96 207.5t248 81.5
q173 0 338 -94q26 -15 26 -45q0 -20 -14.5 -34.5t-34.5 -14.5q-18 0 -29 8q-141 86 -290 86q-107 0 -172.5 -52t-65.5 -131v-4q0 -17 3.5 -32.5t13 -29.5t17.5 -24.5t26 -22t28.5 -19t36 -18t37 -15t42.5 -14.5t42 -13.5t45 -13.5q51 -15 84.5 -26.5t78 -30t73 -39.5
t55.5 -49.5t40 -65.5t13 -82v-4q0 -137 -103 -221t-258 -84z" />
    <glyph glyph-name="t" unicode="t" horiz-adv-x="819" 
d="M539 -18q-131 0 -212 72t-81 214v684h-113q-19 0 -33 14t-14 33t14 32t33 13h113v291q0 23 13 37t36 14t37 -14t14 -37v-291h328q19 0 33 -14t14 -33t-14 -32t-33 -13h-328v-673q0 -203 209 -203q32 0 58 5t41.5 10t19.5 5q18 0 31.5 -13.5t13.5 -31.5q0 -32 -33 -43
q-76 -26 -147 -26z" />
    <glyph glyph-name="u" unicode="u" horiz-adv-x="1255" 
d="M1065 1001v-958q0 -23 -13 -37t-36 -14t-37 14t-14 37v152q-129 -220 -377 -220q-195 0 -306.5 119t-111.5 312v595q0 24 13 38t36 14t37 -14.5t14 -37.5v-577q0 -164 87 -260t245 -96q155 0 259 104.5t104 267.5v561q0 24 13 38t36 14t37 -14.5t14 -37.5z" />
    <glyph glyph-name="v" unicode="v" horiz-adv-x="1191" 
d="M1077 975l-422 -946q-12 -23 -23.5 -33t-33.5 -10h-4q-22 0 -33.5 10t-23.5 33l-420 942q-8 19 -8 30q0 23 15 37.5t38 14.5q35 0 53 -41l381 -899l387 903q13 37 49 37q23 0 37 -14.5t14 -37.5q0 -11 -6 -26z" />
    <glyph glyph-name="w" unicode="w" horiz-adv-x="1763" 
d="M528 -14h-4q-40 0 -55 45l-342 940q-8 19 -8 33q0 21 15 35t38 14q39 0 53 -43l303 -883l303 887q14 39 50 39h4q37 0 51 -39l303 -887l305 887q10 39 49 39q23 0 37.5 -14t14.5 -33q0 -14 -9 -35l-342 -940q-15 -45 -55 -45h-4q-40 0 -55 47l-297 854l-299 -854
q-15 -47 -56 -47z" />
    <glyph glyph-name="x" unicode="x" horiz-adv-x="1167" 
d="M137 39q0 17 13 33l370 460l-352 439q-14 17 -14 35q0 20 14.5 33.5t34.5 13.5q26 0 41 -21l342 -430l340 426q22 25 43 25q19 0 32 -14t13 -33q0 -17 -13 -33l-354 -438l369 -461q14 -17 14 -35q0 -20 -14.5 -33.5t-34.5 -13.5q-27 0 -41 20l-358 453l-357 -449
q-21 -24 -43 -24q-19 0 -32 14t-13 33z" />
    <glyph glyph-name="y" unicode="y" horiz-adv-x="1204" 
d="M317 -334q-99 0 -178 33q-28 9 -28 43q0 20 13.5 33.5t33.5 13.5q13 0 32 -8q50 -21 134 -21t141 55.5t110 176.5l7 14l-467 965q-9 21 -9 30q0 23 15.5 37.5t38.5 14.5q35 0 53 -41l418 -901l364 905q13 37 49 37q23 0 37.5 -14.5t14.5 -37.5q0 -11 -6 -26l-424 -1012
q-67 -160 -150 -228.5t-199 -68.5z" />
    <glyph glyph-name="z" unicode="z" horiz-adv-x="1134" 
d="M985 0h-813q-19 0 -33 12t-14 29v2q0 22 18 43l729 868h-688q-19 0 -32 13t-13 32t13 32t32 13h785q19 0 33 -11.5t14 -28.5v-3q0 -21 -19 -43l-729 -868h717q19 0 32 -13t13 -32t-13 -32t-32 -13z" />
    <glyph glyph-name="braceleft" unicode="{" horiz-adv-x="983" 
d="M831 -285q-103 21 -176 50.5t-118.5 64t-71.5 82t-35.5 97.5t-9.5 118v162q0 64 -10.5 108t-38 80.5t-79.5 54t-130 17.5q-49 0 -49 39t49 39q78 0 130 17.5t79.5 54t38 80.5t10.5 108v162q0 68 9.5 118t35.5 97.5t72 81.5t118.5 63.5t175.5 50.5q17 5 30 -4.5t13 -28.5
q0 -22 -24 -32q-89 -23 -148 -48t-95.5 -52.5t-55.5 -68t-25 -82.5t-6 -108v-153q0 -128 -54.5 -196.5t-158.5 -98.5q110 -34 161.5 -99.5t51.5 -195.5v-154q0 -66 6 -108t25 -82.5t56 -67.5t95.5 -52t147.5 -48q24 -10 24 -33q0 -19 -13 -28.5t-30 -4.5z" />
    <glyph glyph-name="bar" unicode="|" horiz-adv-x="585" 
d="M248 -225v1822q0 19 13 32t32 13t32 -13t13 -32v-1822q0 -19 -13 -32t-32 -13t-32 13t-13 32z" />
    <glyph glyph-name="braceright" unicode="}" horiz-adv-x="983" 
d="M152 1460q103 -21 175.5 -50.5t118.5 -63.5t72 -81.5t35.5 -97.5t9.5 -118v-162q0 -64 10.5 -108t38 -80.5t79.5 -54t130 -17.5q49 0 49 -39t-49 -39q-78 0 -130 -17.5t-79.5 -54t-38 -80.5t-10.5 -108v-162q0 -68 -9.5 -118t-35.5 -97.5t-71.5 -82t-118.5 -64
t-176 -50.5q-17 -5 -30 4.5t-13 28.5q0 23 24 33q89 23 147.5 48t95.5 52t56 67.5t25 82.5t6 108v154q0 128 54.5 196.5t158.5 98.5q-110 34 -161.5 99.5t-51.5 195.5v153q0 66 -6 108t-25 82.5t-55.5 68t-95.5 52.5t-148 48q-24 10 -24 32q0 19 13 28.5t30 4.5z" />
    <glyph glyph-name="asciitilde" unicode="~" horiz-adv-x="942" 
d="M248 520q-12 -28 -37 -28q-37 0 -37 34q0 9 4 25q28 87 66 120.5t96 33.5q39 0 133.5 -42t128.5 -42t53 17t39 60q12 29 37 29q37 0 37 -35q0 -8 -4 -24q-28 -87 -66 -120.5t-96 -33.5q-39 0 -133.5 42t-128.5 42t-53 -17.5t-39 -60.5z" />
    <glyph glyph-name="uni00A0" unicode="&#xa0;" horiz-adv-x="0" 
 />
    <glyph glyph-name="exclamdown" unicode="&#xa1;" horiz-adv-x="516" 
d="M289 1034l33 -989q0 -23 -14.5 -37t-37.5 -14h-24q-23 0 -37 14t-14 37l32 989q0 12 9.5 21.5t21.5 9.5t21.5 -9.5t9.5 -21.5zM326 1374v-55q0 -29 -19.5 -48.5t-48.5 -19.5t-48.5 19.5t-19.5 48.5v55q0 29 19.5 48.5t48.5 19.5t48.5 -19.5t19.5 -48.5z" />
    <glyph glyph-name="cent" unicode="&#xa2;" horiz-adv-x="1189" 
d="M449 43l34 168q-159 54 -257.5 196t-98.5 316v4q0 145 69.5 270.5t192.5 201t270 75.5h31l27 139q11 41 49 41q26 0 40.5 -17.5t8.5 -45.5l-27 -131q79 -18 140 -56.5t125 -97.5q18 -18 18 -41t-13 -37t-36 -14t-39 16q-115 108 -219 135l-172 -884q44 -7 74 -7
q177 0 327 150q18 18 39 18q19 0 32 -14t13 -33t-14 -33q-172 -182 -404 -182q-61 0 -79 4l-33 -164q-10 -40 -49 -40q-26 0 -40.5 17.5t-8.5 45.5zM236 731v-4q0 -145 74.5 -258.5t197.5 -163.5l168 875h-19q-178 0 -299.5 -130t-121.5 -319z" />
    <glyph glyph-name="sterling" unicode="&#xa3;" horiz-adv-x="1318" 
d="M135 27q0 22 25 28l159 37v533h-135q-20 0 -34.5 14.5t-14.5 34.5t14.5 34.5t34.5 14.5h135v242q0 236 134 370q119 119 307 119q139 0 236 -50.5t173 -139.5q15 -18 15 -39q0 -23 -14 -36t-37 -13t-41 18q-48 53 -88.5 85.5t-104 55.5t-141.5 23q-144 0 -232 -88
q-102 -102 -102 -303v-244h569q20 0 34.5 -14.5t14.5 -34.5t-14.5 -34.5t-34.5 -14.5h-569v-529h725q20 0 34.5 -14.5t14.5 -34.5t-14.5 -33.5t-34.5 -13.5h-987q-27 0 -27 27z" />
    <glyph glyph-name="yen" unicode="&#xa5;" horiz-adv-x="1404" 
d="M754 549v-201h397q19 0 33 -13.5t14 -33.5q0 -19 -14 -32t-33 -13h-397v-213q0 -23 -14.5 -37t-37.5 -14t-37 14t-14 37v213h-397q-19 0 -33 13t-14 32q0 20 14 33.5t33 13.5h397v201h-397q-19 0 -33 13t-14 32t14 33t33 14h360l-493 713q-12 18 -12 37q0 23 15 37t38 14
q29 0 49 -33l494 -739l497 743q19 29 49 29q20 0 33.5 -14.5t13.5 -34.5q0 -19 -14 -39l-496 -713h363q19 0 33 -14t14 -33t-14 -32t-33 -13h-397z" />
    <glyph glyph-name="section" unicode="&#xa7;" horiz-adv-x="1294" 
d="M674 -20q-124 0 -238.5 45.5t-199.5 121.5q-19 19 -19 41q0 23 16 38.5t39 15.5q22 0 41 -19q69 -65 166 -104t205 -39q118 0 178 44t60 114v4q0 66 -85.5 117.5t-289.5 99.5q-226 53 -320 119t-94 165v5q0 91 81 152.5t222 78.5q-176 78 -176 215v4q0 117 98.5 186.5
t262.5 69.5q123 0 238 -46t200 -122q18 -18 18 -41t-16 -38t-39 -15q-20 0 -41 18q-70 65 -166.5 104.5t-204.5 39.5q-117 0 -177 -44t-60 -114v-4q0 -67 85 -117.5t290 -99.5q229 -57 321 -120.5t92 -164.5v-4q0 -91 -81 -152.5t-222 -78.5q176 -78 176 -215v-4
q0 -117 -98 -186.5t-262 -69.5zM791 518q116 0 190 48t74 112v4q0 61 -69.5 107.5t-252.5 93.5q-125 32 -229 32q-116 0 -190 -47.5t-74 -111.5v-4q0 -61 69 -107.5t252 -93.5q127 -33 230 -33z" />
    <glyph glyph-name="dieresis" unicode="&#xa8;" horiz-adv-x="1024" 
d="M680 1391q31 0 51.5 -19.5t20.5 -50.5v-41q0 -31 -20.5 -50.5t-51.5 -19.5t-51.5 19.5t-20.5 50.5v41q0 31 20.5 50.5t51.5 19.5zM344 1391q31 0 51.5 -19.5t20.5 -50.5v-41q0 -31 -20.5 -50.5t-51.5 -19.5t-51.5 19.5t-20.5 50.5v41q0 31 20.5 50.5t51.5 19.5z" />
    <glyph glyph-name="copyright" unicode="&#xa9;" horiz-adv-x="1699" 
d="M848 -25q-153 0 -290.5 59t-235.5 158.5t-155.5 235.5t-57.5 285v4q0 148 58 284.5t156.5 237t237 160t291.5 59.5t290.5 -59t235.5 -158t155.5 -235t57.5 -285v-4q0 -148 -58 -284.5t-156.5 -237t-237 -160.5t-291.5 -60zM848 33q190 0 347 92.5t246 249.5t89 342v4
q0 186 -88 342t-244 247t-346 91t-347 -92.5t-246 -249.5t-89 -342v-4q0 -186 88 -342t244 -247t346 -91zM858 340q-157 0 -265 113t-108 272v4q0 158 109 272.5t266 114.5q85 0 146 -26.5t118 -75.5q19 -16 19 -37q0 -19 -13 -31t-32 -12q-16 0 -33 14q-101 86 -207 86
q-120 0 -201.5 -88.5t-81.5 -214.5v-4q0 -125 83.5 -215t201.5 -90t217 90q10 10 29 10q17 0 29 -12t12 -29q0 -22 -14 -30q-64 -55 -126.5 -83t-148.5 -28z" />
    <glyph glyph-name="ordfeminine" unicode="&#xaa;" horiz-adv-x="798" 
d="M356 842q-89 0 -156 48.5t-67 135.5v4q0 90 69.5 140.5t184.5 50.5q93 0 170 -23v10q0 77 -45.5 117.5t-124.5 40.5q-70 0 -154 -37q-12 -6 -22 -6q-37 0 -37 37q0 26 25 35q91 45 192 45q118 0 184 -66q58 -58 58 -164v-327q0 -17 -11 -27t-28 -10q-37 0 -37 37v55
q-76 -96 -201 -96zM360 915q80 0 138.5 44.5t58.5 113.5v55q-77 23 -174 23q-77 0 -122.5 -32.5t-45.5 -84.5v-4q0 -54 41.5 -84.5t103.5 -30.5zM610 600h-450q-17 0 -29 12t-12 29t12 29t29 12h450q17 0 29 -12t12 -29t-12 -29t-29 -12z" />
    <glyph glyph-name="guillemotleft" unicode="&#xab;" horiz-adv-x="1054" 
d="M870 88q-23 0 -39 23l-280 366q-21 27 -21 45t21 45l280 367q16 22 39 22q19 0 32 -12t13 -31t-12 -34l-258 -355l258 -358q12 -18 12 -35q-2 -19 -14 -31t-31 -12zM453 88q-23 0 -39 23l-281 366q-20 26 -20 45t20 45l281 367q16 22 39 22q19 0 32 -12t13 -31
q0 -18 -13 -34l-258 -355l258 -358q13 -16 13 -35t-13 -31t-32 -12z" />
    <glyph glyph-name="registered" unicode="&#xae;" horiz-adv-x="851" 
d="M426 737q-150 0 -253 105t-103 252v2q0 147 104 252.5t252 105.5q150 0 253 -104.5t103 -251.5v-2q0 -147 -104 -253t-252 -106zM426 776q132 0 223.5 94t91.5 226v2q0 131 -91 224t-224 93q-132 0 -223.5 -93.5t-91.5 -225.5v-2q0 -131 91 -224.5t224 -93.5zM293 946
v307q0 29 29 29h131q58 0 95.5 -29.5t37.5 -81.5q0 -40 -23.5 -69t-62.5 -41l78 -92q10 -13 10 -25q0 -26 -27 -26q-16 0 -29 16l-100 121h-82v-109q0 -28 -28 -28q-29 0 -29 28zM350 1102h96q38 0 59 17.5t21 47.5q0 64 -80 64h-96v-129z" />
    <glyph glyph-name="macron" unicode="&#xaf;" horiz-adv-x="1024" 
d="M782 1272h-540q-20 0 -34.5 14.5t-14.5 34.5t14.5 34.5t34.5 14.5h540q20 0 34.5 -14.5t14.5 -34.5t-14.5 -34.5t-34.5 -14.5z" />
    <glyph glyph-name="degree" unicode="&#xb0;" horiz-adv-x="921" 
d="M461 844q-122 0 -215.5 90.5t-93.5 208.5v4q0 118 93.5 208.5t215.5 90.5t215.5 -90.5t93.5 -208.5v-4q0 -118 -93.5 -208.5t-215.5 -90.5zM461 934q89 0 148 62.5t59 146.5v4q0 84 -59 146.5t-148 62.5t-148 -62.5t-59 -146.5v-4q0 -84 59 -146.5t148 -62.5z" />
    <glyph glyph-name="plusminus" unicode="&#xb1;" horiz-adv-x="1269" 
d="M584 360v373h-383q-20 0 -34.5 14.5t-14.5 34.5t14.5 34.5t34.5 14.5h383v373q0 23 14 37t37 14t37 -14t14 -37v-373h383q20 0 34.5 -14.5t14.5 -34.5t-14.5 -34.5t-34.5 -14.5h-383v-373q0 -23 -14 -37t-37 -14t-37 14t-14 37zM1069 0h-868q-20 0 -34.5 14.5t-14.5 34.5
t14.5 34.5t34.5 14.5h868q20 0 34.5 -14.5t14.5 -34.5t-14.5 -34.5t-34.5 -14.5z" />
    <glyph glyph-name="acute" unicode="&#xb4;" horiz-adv-x="1024" 
d="M438 1212q-26 0 -26 19q0 11 8 22l127 191q24 37 57 37q30 0 58 -15t28 -32q0 -15 -22 -37l-164 -158q-29 -27 -66 -27z" />
    <glyph glyph-name="mu" unicode="&#xb5;" horiz-adv-x="1357" 
d="M639 -25q-242 0 -356 232h-2q10 -118 10 -205v-287q0 -23 -13 -37t-36 -14t-37.5 14t-14.5 37v1286q0 23 13.5 37.5t36.5 14.5t37 -14.5t14 -37.5v-561q0 -155 101 -263.5t249 -108.5t248 108.5t100 263.5v561q0 24 13 38t36 14t37.5 -14.5t14.5 -37.5v-757
q0 -170 149 -170q20 0 38.5 3t22.5 3q17 0 26 -11.5t9 -29.5q0 -31 -30 -43q-35 -12 -74 -12q-219 0 -240 213q-54 -97 -137 -156q-97 -66 -215 -66z" />
    <glyph glyph-name="paragraph" unicode="&#xb6;" horiz-adv-x="983" 
d="M682 45v522h-12q-245 0 -403 115.5t-158 316.5v5q0 198 146.5 314t383.5 116h96q23 0 39.5 -16.5t16.5 -39.5v-1333q0 -23 -15.5 -38t-38.5 -15t-39 15t-16 38z" />
    <glyph glyph-name="periodcentered" unicode="&#xb7;" horiz-adv-x="471" 
d="M168 582v55q0 29 19.5 48.5t48.5 19.5t48 -19.5t19 -48.5v-55q0 -29 -19 -48.5t-48 -19.5t-48.5 19.5t-19.5 48.5z" />
    <glyph glyph-name="cedilla" unicode="&#xb8;" horiz-adv-x="1024" 
d="M604 20l-133 -270q-9 -16 -13.5 -22.5t-14.5 -12.5t-25 -6q-25 0 -47.5 16t-22.5 33q0 11 10 31l158 231h88z" />
    <glyph glyph-name="ordmasculine" unicode="&#xba;" horiz-adv-x="798" 
d="M397 842q-127 0 -210 87t-83 210v4q0 124 85 212.5t212 88.5t210 -87t83 -210v-4q0 -124 -85 -212.5t-212 -88.5zM662 600h-525q-17 0 -29 12t-12 29t12 29t29 12h525q17 0 28.5 -12t11.5 -29t-11.5 -29t-28.5 -12zM401 922q91 0 148 62.5t57 154.5v4q0 93 -60 157
t-149 64q-91 0 -147.5 -62t-56.5 -155v-4q0 -93 59.5 -157t148.5 -64z" />
    <glyph glyph-name="guillemotright" unicode="&#xbb;" horiz-adv-x="1054" 
d="M602 956q23 0 39 -22l281 -367q20 -26 20 -45t-20 -45l-281 -366q-16 -23 -39 -23q-19 0 -32 12t-13 31q0 20 12 35l258 354l-258 359q-12 15 -12 34t13 31t32 12zM184 956q23 0 39 -22l281 -367q20 -26 20 -45t-20 -45l-281 -366q-16 -23 -39 -23q-19 0 -32 12t-13 31
t13 35l258 354l-258 359q-2 3 -4.5 7.5t-4 6.5t-3 6t-1.5 6.5v7.5q2 19 14 31t31 12z" />
    <glyph glyph-name="questiondown" unicode="&#xbf;" horiz-adv-x="1093" 
d="M590 1067h4q30 0 33 -37l22 -264q2 -21 -11 -35.5t-36 -15.5q-177 -11 -282 -95.5t-105 -230.5v-4q0 -131 93.5 -220t246.5 -89q213 0 375 186q15 21 41 21q20 0 33.5 -12.5t13.5 -32.5t-12 -35q-184 -221 -455 -221q-198 0 -321.5 115.5t-123.5 283.5v4q0 122 60 214
t156 141t219 63l16 227q1 18 10.5 27.5t22.5 9.5zM659 1374v-55q0 -29 -19 -48.5t-48 -19.5t-48.5 19.5t-19.5 48.5v55q0 29 19.5 48.5t48.5 19.5t48 -19.5t19 -48.5z" />
    <glyph glyph-name="Agrave" unicode="&#xc0;" horiz-adv-x="1617" 
d="M115 37q0 20 8 33l612 1327q23 51 72 51h4q49 0 72 -51l610 -1323q8 -13 8 -33q0 -21 -14 -35t-37 -14q-35 0 -53 41l-168 368h-846l-168 -370q-14 -39 -51 -39q-20 0 -34.5 13t-14.5 32zM428 498h756l-377 829zM809 1581q-37 0 -66 27l-163 157q-23 23 -23 37
q0 17 28 32t58 15q33 0 57 -37l127 -190q9 -12 9 -23q0 -18 -27 -18z" />
    <glyph glyph-name="Aacute" unicode="&#xc1;" horiz-adv-x="1617" 
d="M115 37q0 20 8 33l612 1327q23 51 72 51h4q49 0 72 -51l610 -1323q8 -13 8 -33q0 -21 -14 -35t-37 -14q-35 0 -53 41l-168 368h-846l-168 -370q-14 -39 -51 -39q-20 0 -34.5 13t-14.5 32zM428 498h756l-377 829zM805 1581q-27 0 -27 18q0 12 8 23l127 190q24 37 58 37
q30 0 58 -15t28 -32q0 -14 -23 -37l-164 -157q-29 -27 -65 -27z" />
    <glyph glyph-name="Acircumflex" unicode="&#xc2;" horiz-adv-x="1617" 
d="M115 37q0 20 8 33l612 1327q23 51 72 51h4q49 0 72 -51l610 -1323q8 -13 8 -33q0 -21 -14 -35t-37 -14q-35 0 -53 41l-168 368h-846l-168 -370q-14 -39 -51 -39q-20 0 -34.5 13t-14.5 32zM428 498h756l-377 829zM805 1726l-129 -118q-29 -27 -66 -27q-26 0 -26 21
q0 11 10 24l147 180q29 37 58 37h16q28 0 57 -37l148 -180q10 -13 10 -24q0 -21 -29 -21q-38 0 -67 27z" />
    <glyph glyph-name="Atilde" unicode="&#xc3;" horiz-adv-x="1617" 
d="M115 37q0 20 8 33l612 1327q23 51 72 51h4q49 0 72 -51l610 -1323q8 -13 8 -33q0 -21 -14 -35t-37 -14q-35 0 -53 41l-168 368h-846l-168 -370q-14 -39 -51 -39q-20 0 -34.5 13t-14.5 32zM428 498h756l-377 829zM590 1593q-12 -28 -37 -28q-37 0 -37 34q0 9 4 25
q28 87 66 120.5t96 33.5q39 0 133.5 -42t128.5 -42t53 17.5t39 60.5q12 28 37 28q37 0 37 -35q0 -8 -4 -24q-28 -87 -66 -120.5t-96 -33.5q-39 0 -133.5 42t-128.5 42t-53 -17.5t-39 -60.5z" />
    <glyph glyph-name="Adieresis" unicode="&#xc4;" horiz-adv-x="1617" 
d="M115 37q0 20 8 33l612 1327q23 51 72 51h4q49 0 72 -51l610 -1323q8 -13 8 -33q0 -21 -14 -35t-37 -14q-35 0 -53 41l-168 368h-846l-168 -370q-14 -39 -51 -39q-20 0 -34.5 13t-14.5 32zM428 498h756l-377 829zM975 1759q31 0 51.5 -19.5t20.5 -49.5v-41
q0 -31 -20.5 -50.5t-51.5 -19.5t-51.5 19.5t-20.5 50.5v41q0 30 20.5 49.5t51.5 19.5zM639 1759q31 0 51.5 -19.5t20.5 -49.5v-41q0 -31 -20.5 -50.5t-51.5 -19.5t-51.5 19.5t-20.5 50.5v41q0 30 20.5 49.5t51.5 19.5z" />
    <glyph glyph-name="Aring" unicode="&#xc5;" horiz-adv-x="1617" 
d="M887 1389l610 -1323q4 -12 4 -23q0 -20 -15.5 -35.5t-37.5 -15.5q-33 0 -51 41l-168 368h-846l-168 -370q-14 -39 -49 -39q-22 0 -36.5 14.5t-14.5 34.5q0 4 4 20l612 1328q-56 24 -89.5 70t-33.5 104v4q0 77 60.5 133.5t140.5 56.5t140.5 -56.5t60.5 -133.5v-4
q0 -58 -33.5 -104t-89.5 -70zM809 1438q51 0 89 37t38 88v4q0 51 -37 88t-90 37t-90 -37t-37 -88v-4q0 -51 38 -88t89 -37zM428 498h756l-377 829z" />
    <glyph glyph-name="AE" unicode="&#xc6;" horiz-adv-x="2140" 
d="M72 39q0 12 10 29l807 1333q20 33 53 33h1018q20 0 34.5 -15t14.5 -35t-14.5 -34.5t-34.5 -14.5h-842v-563h750q20 0 34.5 -14.5t14.5 -34.5t-14.5 -34.5t-34.5 -14.5h-750v-576h852q20 0 34.5 -14.5t14.5 -34.5t-14.5 -34.5t-34.5 -14.5h-905q-23 0 -38 15t-15 38v348
h-615l-231 -385q-14 -26 -45 -26q-20 0 -34.5 14.5t-14.5 34.5zM455 498h557v839h-54z" />
    <glyph glyph-name="Ccedilla" unicode="&#xc7;" horiz-adv-x="1511" 
d="M1405 199q-115 -106 -236.5 -163t-279.5 -61l-111 -225q-9 -16 -13.5 -22.5t-14.5 -12.5t-25 -6q-25 0 -47.5 16t-22.5 33q0 9 11 31l129 191q-280 25 -462.5 233.5t-182.5 499.5v4q0 201 91.5 370.5t257 270t367.5 100.5q169 0 289.5 -50.5t237.5 -150.5q20 -20 20 -43
t-16 -38t-39 -15q-22 0 -37 15q-100 91 -207.5 138.5t-249.5 47.5q-127 0 -239 -50t-192 -135.5t-126.5 -204t-46.5 -251.5v-4q0 -133 47 -252.5t127.5 -205.5t193 -136.5t238.5 -50.5q143 0 251.5 48t215.5 150q17 17 37 17t35.5 -15.5t15.5 -35.5q0 -21 -16 -37z" />
    <glyph glyph-name="Egrave" unicode="&#xc8;" horiz-adv-x="1372" 
d="M1202 0h-936q-23 0 -38 15t-15 38v1327q0 23 15 38.5t38 15.5h926q20 0 34.5 -15t14.5 -35t-14.5 -34.5t-34.5 -14.5h-873v-563h781q20 0 34.5 -14.5t14.5 -34.5t-14.5 -34.5t-34.5 -14.5h-781v-576h883q20 0 34.5 -14.5t14.5 -34.5t-14.5 -34.5t-34.5 -14.5zM729 1561
q-21 0 -34 5t-31 21l-164 158q-23 23 -23 37q0 17 28 32t58 15q34 0 58 -37l127 -190q8 -11 8 -23q0 -18 -27 -18z" />
    <glyph glyph-name="Eacute" unicode="&#xc9;" horiz-adv-x="1372" 
d="M1202 0h-936q-23 0 -38 15t-15 38v1327q0 23 15 38.5t38 15.5h926q20 0 34.5 -15t14.5 -35t-14.5 -34.5t-34.5 -14.5h-873v-563h781q20 0 34.5 -14.5t14.5 -34.5t-14.5 -34.5t-34.5 -14.5h-781v-576h883q20 0 34.5 -14.5t14.5 -34.5t-14.5 -34.5t-34.5 -14.5zM725 1561
q-27 0 -27 18q0 11 9 23l127 190q24 37 57 37q30 0 58 -15t28 -32q0 -14 -23 -37l-163 -158q-28 -26 -66 -26z" />
    <glyph glyph-name="Ecircumflex" unicode="&#xca;" horiz-adv-x="1372" 
d="M1202 0h-936q-23 0 -38 15t-15 38v1327q0 23 15 38.5t38 15.5h926q20 0 34.5 -15t14.5 -35t-14.5 -34.5t-34.5 -14.5h-873v-563h781q20 0 34.5 -14.5t14.5 -34.5t-14.5 -34.5t-34.5 -14.5h-781v-576h883q20 0 34.5 -14.5t14.5 -34.5t-14.5 -34.5t-34.5 -14.5zM725 1706
l-129 -119q-28 -26 -66 -26q-26 0 -26 20q0 12 10 25l148 180q29 37 57 37h16q29 0 58 -37l147 -180q10 -13 10 -25q0 -20 -28 -20q-40 0 -68 26z" />
    <glyph glyph-name="Edieresis" unicode="&#xcb;" horiz-adv-x="1372" 
d="M1202 0h-936q-23 0 -38 15t-15 38v1327q0 23 15 38.5t38 15.5h926q20 0 34.5 -15t14.5 -35t-14.5 -34.5t-34.5 -14.5h-873v-563h781q20 0 34.5 -14.5t14.5 -34.5t-14.5 -34.5t-34.5 -14.5h-781v-576h883q20 0 34.5 -14.5t14.5 -34.5t-14.5 -34.5t-34.5 -14.5zM895 1739
q31 0 51.5 -19.5t20.5 -50.5v-41q0 -30 -20.5 -49.5t-51.5 -19.5t-51.5 19.5t-20.5 49.5v41q0 31 20.5 50.5t51.5 19.5zM559 1739q31 0 51.5 -19.5t20.5 -50.5v-41q0 -30 -20.5 -49.5t-51.5 -19.5t-51.5 19.5t-20.5 49.5v41q0 31 20.5 50.5t51.5 19.5z" />
    <glyph glyph-name="Igrave" unicode="&#xcc;" horiz-adv-x="561" 
d="M227 45v1344q0 23 15.5 38t38.5 15t38 -15t15 -38v-1344q0 -23 -15 -38t-38 -15t-38.5 15t-15.5 38zM285 1561q-38 0 -66 26l-164 158q-22 22 -22 37q0 17 28 32t58 15q33 0 57 -37l127 -190q8 -11 8 -23q0 -18 -26 -18z" />
    <glyph glyph-name="Iacute" unicode="&#xcd;" horiz-adv-x="561" 
d="M227 45v1344q0 23 15.5 38t38.5 15t38 -15t15 -38v-1344q0 -23 -15 -38t-38 -15t-38.5 15t-15.5 38zM281 1561q-27 0 -27 18q0 12 8 23l127 190q24 37 57 37q30 0 58 -15t28 -32q0 -15 -22 -37l-164 -158q-18 -16 -31 -21t-34 -5z" />
    <glyph glyph-name="Icircumflex" unicode="&#xce;" horiz-adv-x="561" 
d="M227 45v1344q0 23 15.5 38t38.5 15t38 -15t15 -38v-1344q0 -23 -15 -38t-38 -15t-38.5 15t-15.5 38zM281 1706l-129 -119q-28 -26 -66 -26q-27 0 -27 20q0 10 11 25l147 180q29 37 57 37h17q28 0 57 -37l148 -180q10 -13 10 -25q0 -20 -29 -20q-39 0 -67 26z" />
    <glyph glyph-name="Idieresis" unicode="&#xcf;" horiz-adv-x="561" 
d="M227 45v1344q0 23 15.5 38t38.5 15t38 -15t15 -38v-1344q0 -23 -15 -38t-38 -15t-38.5 15t-15.5 38zM451 1739q31 0 51 -19.5t20 -50.5v-41q0 -31 -20 -50t-51 -19t-51.5 19.5t-20.5 49.5v41q0 31 20.5 50.5t51.5 19.5zM115 1739q31 0 51 -19.5t20 -50.5v-41
q0 -31 -20 -50t-51 -19t-51.5 19.5t-20.5 49.5v41q0 31 20.5 50.5t51.5 19.5z" />
    <glyph glyph-name="Eth" unicode="&#xd0;" horiz-adv-x="1662" 
d="M162 770h112v610q0 23 15.5 38.5t38.5 15.5h424q166 0 308.5 -55t241.5 -150t155 -226.5t56 -281.5v-4q0 -150 -56 -282t-155 -228t-241.5 -151.5t-308.5 -55.5h-424q-23 0 -38.5 15t-15.5 38v619h-112q-20 0 -34.5 14.5t-14.5 34.5t14.5 34.5t34.5 14.5zM381 1335v-565
h434q20 0 34.5 -14.5t14.5 -34.5t-14.5 -34.5t-34.5 -14.5h-434v-574h371q146 0 269.5 48t206.5 131t129 195.5t46 240.5v4q0 126 -46 239t-129 197t-206.5 133t-269.5 49h-371z" />
    <glyph glyph-name="Ntilde" unicode="&#xd1;" horiz-adv-x="1617" 
d="M213 43v1343q0 23 15 38.5t38 15.5h17q28 0 53 -31l967 -1227v1209q0 23 14 37t37 14t37 -14t14 -37v-1352q0 -19 -12 -32t-31 -13h-8q-30 0 -54 35l-985 1249v-1235q0 -23 -14 -37t-37 -14t-37 14t-14 37zM592 1573q-12 -29 -37 -29q-37 0 -37 35q0 9 4 25
q28 87 65.5 120t96.5 33q39 0 133.5 -42t128.5 -42t53 17.5t39 60.5q12 29 37 29q37 0 37 -35q0 -9 -4 -25q-28 -87 -65.5 -120t-96.5 -33q-39 0 -133.5 42t-128.5 42t-53 -17.5t-39 -60.5z" />
    <glyph glyph-name="Ograve" unicode="&#xd2;" horiz-adv-x="1740" 
d="M868 -25q-158 0 -294.5 60.5t-228 162t-143.5 235.5t-52 280v4q0 147 52.5 281.5t145 236.5t229.5 162.5t295 60.5q127 0 241 -39t200 -108t149.5 -161.5t96 -202t32.5 -226.5v-4q0 -147 -52.5 -281.5t-145.5 -236.5t-230 -163t-295 -61zM872 72q130 0 244 50.5
t193.5 137t125.5 204.5t46 249v4q0 131 -46.5 250t-127 205.5t-195 138t-244.5 51.5q-173 0 -313 -86t-217.5 -232.5t-77.5 -322.5v-4q0 -176 78.5 -323.5t219.5 -234.5t314 -87zM872 1581q-36 0 -65 27l-164 157q-22 22 -22 37q0 17 28 32t58 15q33 0 57 -37l127 -190
q8 -11 8 -23q0 -18 -27 -18z" />
    <glyph glyph-name="Oacute" unicode="&#xd3;" horiz-adv-x="1740" 
d="M868 -25q-158 0 -294.5 60.5t-228 162t-143.5 235.5t-52 280v4q0 147 52.5 281.5t145 236.5t229.5 162.5t295 60.5q127 0 241 -39t200 -108t149.5 -161.5t96 -202t32.5 -226.5v-4q0 -147 -52.5 -281.5t-145.5 -236.5t-230 -163t-295 -61zM872 72q130 0 244 50.5
t193.5 137t125.5 204.5t46 249v4q0 131 -46.5 250t-127 205.5t-195 138t-244.5 51.5q-173 0 -313 -86t-217.5 -232.5t-77.5 -322.5v-4q0 -176 78.5 -323.5t219.5 -234.5t314 -87zM868 1581q-26 0 -26 18q0 12 8 23l127 190q24 37 57 37q30 0 58 -15t28 -32q0 -15 -22 -37
l-164 -157q-29 -27 -66 -27z" />
    <glyph glyph-name="Ocircumflex" unicode="&#xd4;" horiz-adv-x="1740" 
d="M868 -25q-158 0 -294.5 60.5t-228 162t-143.5 235.5t-52 280v4q0 147 52.5 281.5t145 236.5t229.5 162.5t295 60.5q127 0 241 -39t200 -108t149.5 -161.5t96 -202t32.5 -226.5v-4q0 -147 -52.5 -281.5t-145.5 -236.5t-230 -163t-295 -61zM872 72q130 0 244 50.5
t193.5 137t125.5 204.5t46 249v4q0 131 -46.5 250t-127 205.5t-195 138t-244.5 51.5q-173 0 -313 -86t-217.5 -232.5t-77.5 -322.5v-4q0 -176 78.5 -323.5t219.5 -234.5t314 -87zM868 1726l-129 -118q-29 -27 -65 -27q-27 0 -27 21q0 11 10 24l148 180q29 37 57 37h17
q28 0 57 -37l147 -180q11 -15 11 -24q0 -21 -29 -21q-39 0 -68 27z" />
    <glyph glyph-name="Otilde" unicode="&#xd5;" horiz-adv-x="1740" 
d="M868 -25q-158 0 -294.5 60.5t-228 162t-143.5 235.5t-52 280v4q0 147 52.5 281.5t145 236.5t229.5 162.5t295 60.5q127 0 241 -39t200 -108t149.5 -161.5t96 -202t32.5 -226.5v-4q0 -147 -52.5 -281.5t-145.5 -236.5t-230 -163t-295 -61zM872 72q130 0 244 50.5
t193.5 137t125.5 204.5t46 249v4q0 131 -46.5 250t-127 205.5t-195 138t-244.5 51.5q-173 0 -313 -86t-217.5 -232.5t-77.5 -322.5v-4q0 -176 78.5 -323.5t219.5 -234.5t314 -87zM653 1593q-12 -28 -37 -28q-36 0 -36 34q0 9 4 25q28 87 65.5 120.5t95.5 33.5q39 0 134 -42
t129 -42t53 17.5t39 60.5q12 28 37 28q37 0 37 -35q0 -4 -5 -24q-28 -87 -65.5 -120.5t-95.5 -33.5q-39 0 -134 42t-129 42t-53 -17.5t-39 -60.5z" />
    <glyph glyph-name="Odieresis" unicode="&#xd6;" horiz-adv-x="1740" 
d="M868 -25q-158 0 -294.5 60.5t-228 162t-143.5 235.5t-52 280v4q0 147 52.5 281.5t145 236.5t229.5 162.5t295 60.5q127 0 241 -39t200 -108t149.5 -161.5t96 -202t32.5 -226.5v-4q0 -147 -52.5 -281.5t-145.5 -236.5t-230 -163t-295 -61zM872 72q130 0 244 50.5
t193.5 137t125.5 204.5t46 249v4q0 131 -46.5 250t-127 205.5t-195 138t-244.5 51.5q-173 0 -313 -86t-217.5 -232.5t-77.5 -322.5v-4q0 -176 78.5 -323.5t219.5 -234.5t314 -87zM1038 1759q31 0 51.5 -19.5t20.5 -49.5v-41q0 -31 -20.5 -50.5t-51.5 -19.5t-51 19.5
t-20 50.5v41q0 31 20 50t51 19zM702 1759q31 0 51.5 -19.5t20.5 -49.5v-41q0 -31 -20.5 -50.5t-51.5 -19.5t-51 19.5t-20 50.5v41q0 31 20 50t51 19z" />
    <glyph glyph-name="multiply" unicode="&#xd7;" horiz-adv-x="1269" 
d="M1049 1065l-347 -342l345 -340q18 -18 18 -41t-14 -37t-37 -14t-41 18l-340 344l-342 -346q-16 -16 -37 -16q-20 0 -34.5 14.5t-14.5 34.5q0 21 16 37l346 342l-344 340q-18 18 -18 41t14 37t37 14t41 -18l340 -345l342 347q16 16 37 16q20 0 34.5 -14.5t14.5 -34.5
q0 -21 -16 -37z" />
    <glyph glyph-name="Oslash" unicode="&#xd8;" horiz-adv-x="1740" 
d="M868 -25q-268 0 -467 168l-137 -145q-16 -16 -37 -16q-19 0 -31 12t-12 31t13 32l139 150q-90 102 -138 232.5t-48 273.5v4q0 147 52.5 281.5t145 236.5t229.5 162.5t295 60.5q266 0 467 -170l138 148q16 16 36 16q19 0 31 -12t12 -31q0 -21 -12 -33l-141 -151
q91 -99 139.5 -229.5t48.5 -274.5v-4q0 -147 -52.5 -281.5t-145.5 -236.5t-230 -163t-295 -61zM260 721v-4q0 -248 152 -430l858 921q-167 154 -402 154q-173 0 -313 -86t-217.5 -232.5t-77.5 -322.5zM872 72q130 0 244 50.5t193.5 137t125.5 204.5t46 249v4q0 246 -152 428
l-860 -920q169 -153 403 -153z" />
    <glyph glyph-name="Ugrave" unicode="&#xd9;" horiz-adv-x="1556" 
d="M778 -23q-129 0 -237 41t-186 118t-121.5 194.5t-43.5 265.5v793q0 23 15.5 38t38.5 15t38 -15t15 -38v-783q0 -255 127.5 -393.5t357.5 -138.5q222 0 350 134t128 388v793q0 23 15 38t38 15t38 -15t15 -38v-781q0 -301 -160.5 -466t-427.5 -165zM780 1561q-21 0 -34 5
t-31 21l-164 158q-23 23 -23 37q0 17 28 32t58 15q34 0 58 -37l127 -190q8 -11 8 -23q0 -18 -27 -18z" />
    <glyph glyph-name="Uacute" unicode="&#xda;" horiz-adv-x="1556" 
d="M778 -23q-129 0 -237 41t-186 118t-121.5 194.5t-43.5 265.5v793q0 23 15.5 38t38.5 15t38 -15t15 -38v-783q0 -255 127.5 -393.5t357.5 -138.5q222 0 350 134t128 388v793q0 23 15 38t38 15t38 -15t15 -38v-781q0 -301 -160.5 -466t-427.5 -165zM776 1561q-26 0 -26 18
q0 12 8 23l127 190q24 37 57 37q30 0 58 -15t28 -32q0 -15 -22 -37l-164 -158q-28 -26 -66 -26z" />
    <glyph glyph-name="Ucircumflex" unicode="&#xdb;" horiz-adv-x="1556" 
d="M778 -23q-129 0 -237 41t-186 118t-121.5 194.5t-43.5 265.5v793q0 23 15.5 38t38.5 15t38 -15t15 -38v-783q0 -255 127.5 -393.5t357.5 -138.5q222 0 350 134t128 388v793q0 23 15 38t38 15t38 -15t15 -38v-781q0 -301 -160.5 -466t-427.5 -165zM776 1706l-129 -119
q-18 -16 -31 -21t-34 -5q-27 0 -27 20q0 12 10 25l148 180q29 37 57 37h16q29 0 58 -37l147 -180q10 -13 10 -25q0 -20 -28 -20q-40 0 -68 26z" />
    <glyph glyph-name="Udieresis" unicode="&#xdc;" horiz-adv-x="1556" 
d="M778 -23q-129 0 -237 41t-186 118t-121.5 194.5t-43.5 265.5v793q0 23 15.5 38t38.5 15t38 -15t15 -38v-783q0 -255 127.5 -393.5t357.5 -138.5q222 0 350 134t128 388v793q0 23 15 38t38 15t38 -15t15 -38v-781q0 -301 -160.5 -466t-427.5 -165zM946 1739
q31 0 51.5 -19.5t20.5 -50.5v-41q0 -30 -20.5 -49.5t-51.5 -19.5t-51.5 19.5t-20.5 49.5v41q0 31 20.5 50.5t51.5 19.5zM610 1739q31 0 51.5 -19.5t20.5 -50.5v-41q0 -30 -20.5 -49.5t-51.5 -19.5t-51 19t-20 50v41q0 31 20 50.5t51 19.5z" />
    <glyph glyph-name="Yacute" unicode="&#xdd;" horiz-adv-x="1466" 
d="M680 45v522l-559 789q-10 17 -10 33q0 23 16 38t39 15q27 0 49 -31l520 -747l522 747q1 1 4 4.5t4 5t4 4.5t4.5 4t4 3.5t4.5 3.5l5 2.5t5.5 2t6 1t6.5 0.5q20 0 36.5 -15.5t16.5 -35.5q0 -11 -17 -41l-555 -781v-524q0 -23 -15 -38t-38 -15t-38 15t-15 38zM731 1561
q-26 0 -26 18q0 12 8 23l127 190q24 37 57 37q30 0 58 -15t28 -32q0 -15 -22 -37l-164 -158q-28 -26 -66 -26z" />
    <glyph glyph-name="Thorn" unicode="&#xde;" horiz-adv-x="1378" 
d="M213 45v1344q0 23 15 38t38 15t38 -15t15 -38v-215h414q240 0 386.5 -117.5t146.5 -321.5v-4q0 -110 -45 -198.5t-122 -144.5t-177.5 -86t-214.5 -30h-388v-227q0 -23 -15 -38t-38 -15t-38 15t-15 38zM319 371h394q200 0 323 97.5t123 256.5v4q0 166 -118.5 256
t-315.5 90h-406v-704z" />
    <glyph glyph-name="germandbls" unicode="&#xdf;" horiz-adv-x="1269" 
d="M584 41q0 18 12.5 30.5t30.5 14.5q184 8 294.5 82.5t110.5 214.5v4q0 132 -110 208.5t-287 98.5q-51 6 -51 49q0 38 41 52q143 48 229 134.5t86 213.5v4q0 117 -85 192.5t-220 75.5q-151 0 -247.5 -106.5t-96.5 -284.5v-983q0 -23 -14 -36t-37 -13t-36.5 13t-13.5 36v983
q0 216 123 350.5t328 134.5q182 0 295 -101.5t113 -256.5v-4q0 -72 -27.5 -136.5t-74 -112.5t-102.5 -83.5t-118 -56.5q84 -15 155 -43t131 -71.5t94 -108t34 -144.5v-4q0 -123 -68 -211t-181.5 -131.5t-264.5 -48.5q-17 0 -30 13t-13 32z" />
    <glyph glyph-name="agrave" unicode="&#xe0;" horiz-adv-x="1175" 
d="M508 -25q-75 0 -145.5 21t-129 60.5t-94 103.5t-35.5 143v4q0 161 125 250.5t332 89.5q179 0 346 -45v45q0 157 -90 238.5t-254 81.5q-147 0 -297 -70q-12 -6 -22 -6q-19 0 -33 14t-14 33q0 28 28 45q176 78 344 78q215 0 330 -115q107 -107 107 -295v-608
q0 -23 -13.5 -37t-36.5 -14t-36 14t-13 37v131q-63 -86 -162.5 -142.5t-236.5 -56.5zM514 70q163 0 279 90.5t116 230.5v119q-180 47 -354 47q-163 0 -253.5 -66t-90.5 -178v-4q0 -110 88.5 -174.5t214.5 -64.5zM590 1212q-37 0 -66 27l-164 158q-22 22 -22 37q0 17 28 32
t58 15q33 0 57 -37l127 -191q8 -11 8 -22q0 -19 -26 -19z" />
    <glyph glyph-name="aacute" unicode="&#xe1;" horiz-adv-x="1175" 
d="M508 -25q-75 0 -145.5 21t-129 60.5t-94 103.5t-35.5 143v4q0 161 125 250.5t332 89.5q179 0 346 -45v45q0 157 -90 238.5t-254 81.5q-147 0 -297 -70q-12 -6 -22 -6q-19 0 -33 14t-14 33q0 28 28 45q176 78 344 78q215 0 330 -115q107 -107 107 -295v-608
q0 -23 -13.5 -37t-36.5 -14t-36 14t-13 37v131q-63 -86 -162.5 -142.5t-236.5 -56.5zM514 70q163 0 279 90.5t116 230.5v119q-180 47 -354 47q-163 0 -253.5 -66t-90.5 -178v-4q0 -110 88.5 -174.5t214.5 -64.5zM586 1212q-27 0 -27 19q0 11 8 22l127 191q24 37 58 37
q30 0 58 -15t28 -32q0 -14 -23 -37l-164 -158q-29 -27 -65 -27z" />
    <glyph glyph-name="acircumflex" unicode="&#xe2;" horiz-adv-x="1175" 
d="M508 -25q-75 0 -145.5 21t-129 60.5t-94 103.5t-35.5 143v4q0 161 125 250.5t332 89.5q179 0 346 -45v45q0 157 -90 238.5t-254 81.5q-147 0 -297 -70q-12 -6 -22 -6q-19 0 -33 14t-14 33q0 28 28 45q176 78 344 78q215 0 330 -115q107 -107 107 -295v-608
q0 -23 -13.5 -37t-36.5 -14t-36 14t-13 37v131q-63 -86 -162.5 -142.5t-236.5 -56.5zM514 70q163 0 279 90.5t116 230.5v119q-180 47 -354 47q-163 0 -253.5 -66t-90.5 -178v-4q0 -110 88.5 -174.5t214.5 -64.5zM586 1358l-129 -119q-29 -27 -66 -27q-26 0 -26 21
q0 11 10 24l147 181q29 37 58 37h16q28 0 57 -37l148 -181q10 -13 10 -24q0 -21 -29 -21q-38 0 -67 27z" />
    <glyph glyph-name="atilde" unicode="&#xe3;" horiz-adv-x="1175" 
d="M508 -25q-75 0 -145.5 21t-129 60.5t-94 103.5t-35.5 143v4q0 161 125 250.5t332 89.5q179 0 346 -45v45q0 157 -90 238.5t-254 81.5q-147 0 -297 -70q-12 -6 -22 -6q-19 0 -33 14t-14 33q0 28 28 45q176 78 344 78q215 0 330 -115q107 -107 107 -295v-608
q0 -23 -13.5 -37t-36.5 -14t-36 14t-13 37v131q-63 -86 -162.5 -142.5t-236.5 -56.5zM514 70q163 0 279 90.5t116 230.5v119q-180 47 -354 47q-163 0 -253.5 -66t-90.5 -178v-4q0 -110 88.5 -174.5t214.5 -64.5zM371 1225q-12 -29 -37 -29q-37 0 -37 35q0 8 4 24
q28 87 66 120.5t96 33.5q39 0 133.5 -42t128.5 -42t53 17.5t39 60.5q12 29 37 29q37 0 37 -35q0 -9 -4 -25q-28 -87 -65.5 -120t-96.5 -33q-39 0 -133.5 42t-128.5 42t-53 -17.5t-39 -60.5z" />
    <glyph glyph-name="adieresis" unicode="&#xe4;" horiz-adv-x="1175" 
d="M508 -25q-75 0 -145.5 21t-129 60.5t-94 103.5t-35.5 143v4q0 161 125 250.5t332 89.5q179 0 346 -45v45q0 157 -90 238.5t-254 81.5q-147 0 -297 -70q-12 -6 -22 -6q-19 0 -33 14t-14 33q0 28 28 45q176 78 344 78q215 0 330 -115q107 -107 107 -295v-608
q0 -23 -13.5 -37t-36.5 -14t-36 14t-13 37v131q-63 -86 -162.5 -142.5t-236.5 -56.5zM514 70q163 0 279 90.5t116 230.5v119q-180 47 -354 47q-163 0 -253.5 -66t-90.5 -178v-4q0 -110 88.5 -174.5t214.5 -64.5zM756 1391q31 0 51 -19.5t20 -50.5v-41q0 -31 -20 -50.5
t-51 -19.5t-51.5 19.5t-20.5 50.5v41q0 31 20.5 50.5t51.5 19.5zM420 1391q31 0 51.5 -19.5t20.5 -50.5v-41q0 -31 -20.5 -50.5t-51.5 -19.5t-51.5 19.5t-20.5 50.5v41q0 31 20.5 50.5t51.5 19.5z" />
    <glyph glyph-name="aring" unicode="&#xe5;" horiz-adv-x="1175" 
d="M508 -25q-75 0 -145.5 21t-129 60.5t-94 103.5t-35.5 143v4q0 161 125 250.5t332 89.5q179 0 346 -45v45q0 157 -90 238.5t-254 81.5q-147 0 -297 -70q-12 -6 -22 -6q-19 0 -33 14t-14 33q0 28 28 45q176 78 344 78q215 0 330 -115q107 -107 107 -295v-608
q0 -23 -13.5 -37t-36.5 -14t-36 14t-13 37v131q-63 -86 -162.5 -142.5t-236.5 -56.5zM514 70q163 0 279 90.5t116 230.5v119q-180 47 -354 47q-163 0 -253.5 -66t-90.5 -178v-4q0 -110 88.5 -174.5t214.5 -64.5zM588 1214q-80 0 -140.5 57t-60.5 134v4q0 77 60.5 133.5
t140.5 56.5t140 -56.5t60 -133.5v-4q0 -78 -60 -134.5t-140 -56.5zM588 1280q51 0 89 37t38 88v4q0 51 -36.5 88t-90.5 37t-90.5 -37t-36.5 -88v-4q0 -51 38 -88t89 -37z" />
    <glyph glyph-name="ae" unicode="&#xe6;" horiz-adv-x="1953" 
d="M983 571h760q-6 81 -32 152.5t-71 129t-115 91t-157 33.5q-155 0 -264 -116t-121 -290zM504 70q243 0 418 219q-42 106 -45 223q-172 45 -332 45q-159 0 -246.5 -66t-87.5 -178v-4q0 -110 84.5 -174.5t208.5 -64.5zM1796 145q-84 -84 -179 -127t-228 -43q-129 0 -241 61
t-181 169q-201 -230 -469 -230q-73 0 -142 21t-126 60.5t-91.5 103.5t-34.5 143v4q0 161 123 250.5t324 89.5q161 0 328 -45v45q0 158 -85 239t-245 81q-136 0 -283 -70q-12 -6 -22 -6q-19 0 -33 14t-14 33q0 28 28 45q169 78 330 78q157 0 258.5 -66.5t136.5 -195.5
q63 125 174 197.5t248 72.5q143 0 253 -72.5t168 -195t58 -273.5q0 -19 -15 -33t-34 -14h-819q12 -188 131 -299.5t279 -111.5q192 0 338 143q14 14 32 14q20 0 34.5 -13.5t14.5 -33.5q0 -19 -16 -35z" />
    <glyph glyph-name="ccedilla" unicode="&#xe7;" horiz-adv-x="1169" 
d="M1055 156q-164 -171 -379 -181l-111 -225q-9 -16 -13.5 -22.5t-14.5 -12.5t-25 -6q-25 0 -47.5 16t-22.5 33q0 9 11 31l129 191q-199 25 -331 180t-132 358v4q0 145 69.5 270.5t192.5 201t270 75.5q219 0 393 -166q15 -15 15 -37q0 -23 -14 -37t-37 -14t-35 12
q-73 69 -150 108.5t-174 39.5q-178 0 -300 -130t-122 -319v-4q0 -190 125.5 -321t304.5 -131t328 149q17 17 33 17q19 0 34 -15.5t15 -34.5q0 -18 -12 -30z" />
    <glyph glyph-name="egrave" unicode="&#xe8;" horiz-adv-x="1196" 
d="M225 571h760q-6 81 -32 152.5t-71 129t-115 91t-157 33.5q-155 0 -264 -116t-121 -290zM1038 145q-84 -84 -179 -127t-228 -43q-102 0 -195.5 39.5t-163.5 109.5t-111.5 173t-41.5 223v4q0 149 64 274t178 198t253 73q143 0 253.5 -72.5t168.5 -195t58 -273.5
q0 -19 -15.5 -33t-34.5 -14h-819q12 -188 131 -299.5t279 -111.5q192 0 338 143q14 14 33 14q20 0 34.5 -13.5t14.5 -33.5q0 -18 -17 -35zM616 1212q-36 0 -65 27l-164 158q-22 22 -22 37q0 17 28 32t58 15q33 0 57 -37l127 -191q8 -11 8 -22q0 -19 -27 -19z" />
    <glyph glyph-name="eacute" unicode="&#xe9;" horiz-adv-x="1196" 
d="M225 571h760q-6 81 -32 152.5t-71 129t-115 91t-157 33.5q-155 0 -264 -116t-121 -290zM1038 145q-84 -84 -179 -127t-228 -43q-102 0 -195.5 39.5t-163.5 109.5t-111.5 173t-41.5 223v4q0 149 64 274t178 198t253 73q143 0 253.5 -72.5t168.5 -195t58 -273.5
q0 -19 -15.5 -33t-34.5 -14h-819q12 -188 131 -299.5t279 -111.5q192 0 338 143q14 14 33 14q20 0 34.5 -13.5t14.5 -33.5q0 -18 -17 -35zM612 1212q-26 0 -26 19q0 11 8 22l127 191q24 37 57 37q30 0 58 -15t28 -32q0 -15 -22 -37l-164 -158q-29 -27 -66 -27z" />
    <glyph glyph-name="ecircumflex" unicode="&#xea;" horiz-adv-x="1196" 
d="M225 571h760q-6 81 -32 152.5t-71 129t-115 91t-157 33.5q-155 0 -264 -116t-121 -290zM1038 145q-84 -84 -179 -127t-228 -43q-102 0 -195.5 39.5t-163.5 109.5t-111.5 173t-41.5 223v4q0 149 64 274t178 198t253 73q143 0 253.5 -72.5t168.5 -195t58 -273.5
q0 -19 -15.5 -33t-34.5 -14h-819q12 -188 131 -299.5t279 -111.5q192 0 338 143q14 14 33 14q20 0 34.5 -13.5t14.5 -33.5q0 -18 -17 -35zM612 1358l-129 -119q-29 -27 -65 -27q-27 0 -27 21q0 11 10 24l148 181q29 37 57 37h17q28 0 57 -37l147 -181q11 -15 11 -24
q0 -21 -29 -21q-39 0 -68 27z" />
    <glyph glyph-name="edieresis" unicode="&#xeb;" horiz-adv-x="1196" 
d="M225 571h760q-6 81 -32 152.5t-71 129t-115 91t-157 33.5q-155 0 -264 -116t-121 -290zM1038 145q-84 -84 -179 -127t-228 -43q-102 0 -195.5 39.5t-163.5 109.5t-111.5 173t-41.5 223v4q0 149 64 274t178 198t253 73q143 0 253.5 -72.5t168.5 -195t58 -273.5
q0 -19 -15.5 -33t-34.5 -14h-819q12 -188 131 -299.5t279 -111.5q192 0 338 143q14 14 33 14q20 0 34.5 -13.5t14.5 -33.5q0 -18 -17 -35zM782 1391q31 0 51.5 -19.5t20.5 -50.5v-41q0 -31 -20.5 -50.5t-51.5 -19.5t-51 19.5t-20 50.5v41q0 31 20 50.5t51 19.5zM446 1391
q31 0 51.5 -19.5t20.5 -50.5v-41q0 -31 -20.5 -50.5t-51.5 -19.5t-51 19.5t-20 50.5v41q0 31 20 50.5t51 19.5z" />
    <glyph glyph-name="igrave" unicode="&#xec;" horiz-adv-x="509" 
d="M205 43v958q0 24 13 38t36 14t37 -14.5t14 -37.5v-958q0 -23 -13 -37t-36 -14t-37 14t-14 37zM258 1212q-36 0 -65 27l-164 158q-23 23 -23 37q0 17 28 32t58 15q34 0 58 -37l126 -191q9 -12 9 -22q0 -19 -27 -19z" />
    <glyph glyph-name="iacute" unicode="&#xed;" horiz-adv-x="509" 
d="M205 43v958q0 24 13 38t36 14t37 -14.5t14 -37.5v-958q0 -23 -13 -37t-36 -14t-37 14t-14 37zM254 1212q-27 0 -27 19q0 10 9 22l126 191q24 37 58 37q30 0 58 -15t28 -32q0 -14 -23 -37l-164 -158q-29 -27 -65 -27z" />
    <glyph glyph-name="icircumflex" unicode="&#xee;" horiz-adv-x="509" 
d="M205 43v958q0 24 13 38t36 14t37 -14.5t14 -37.5v-958q0 -23 -13 -37t-36 -14t-37 14t-14 37zM254 1358l-129 -119q-29 -27 -66 -27q-26 0 -26 21q0 11 10 24l147 181q29 37 58 37h16q29 0 58 -37l147 -181q10 -13 10 -24q0 -21 -28 -21q-39 0 -68 27z" />
    <glyph glyph-name="idieresis" unicode="&#xef;" horiz-adv-x="509" 
d="M205 43v958q0 24 13 38t36 14t37 -14.5t14 -37.5v-958q0 -23 -13 -37t-36 -14t-37 14t-14 37zM424 1391q31 0 51.5 -19.5t20.5 -50.5v-41q0 -31 -20.5 -50.5t-51.5 -19.5t-51.5 19.5t-20.5 50.5v41q0 31 20.5 50.5t51.5 19.5zM88 1391q31 0 51.5 -19.5t20.5 -50.5v-41
q0 -31 -20.5 -50.5t-51.5 -19.5t-51.5 19.5t-20.5 50.5v41q0 31 20.5 50.5t51.5 19.5z" />
    <glyph glyph-name="eth" unicode="&#xf0;" horiz-adv-x="1286" 
d="M973 866l-301 426l-250 -127q-12 -6 -25 -6q-19 0 -32 14t-13 33q0 25 29 41l240 117l-37 53q-13 16 -13 37t14.5 35t37.5 14q28 0 47 -26l43 -66l176 90q12 6 24 6q19 0 32 -14t13 -33q0 -25 -28 -41l-166 -82l221 -329q90 -130 134 -245t44 -255q0 -107 -38 -203.5
t-105.5 -170t-168 -116.5t-218.5 -43q-108 0 -204 42t-164 113.5t-107 167.5t-39 202q0 108 41 202t108.5 157.5t156.5 99.5t185 36q115 0 200.5 -34t162.5 -95zM1055 498q0 109 -56 202.5t-156 149t-220 55.5q-179 0 -287.5 -117t-108.5 -294q0 -109 52.5 -206
t149.5 -157.5t214 -60.5q119 0 214.5 60t146.5 157t51 211z" />
    <glyph glyph-name="ntilde" unicode="&#xf1;" horiz-adv-x="1255" 
d="M190 43v958q0 23 13.5 37.5t36.5 14.5t37 -14.5t14 -37.5v-151q128 219 377 219q195 0 306 -118.5t111 -311.5v-596q0 -23 -13 -37t-36 -14t-37 14t-14 37v578q0 164 -87 260t-245 96q-155 0 -258.5 -105t-103.5 -268v-561q0 -23 -13 -37t-36 -14t-37.5 14t-14.5 37z
M420 1225q-12 -29 -37 -29q-37 0 -37 35q0 8 4 24q28 87 66 120.5t96 33.5q39 0 133.5 -42t128.5 -42t53 17.5t39 60.5q12 29 37 29q37 0 37 -35q0 -9 -4 -25q-28 -87 -65.5 -120t-96.5 -33q-39 0 -133.5 42t-128.5 42t-53 -17.5t-39 -60.5z" />
    <glyph glyph-name="ograve" unicode="&#xf2;" horiz-adv-x="1310" 
d="M653 -25q-113 0 -213 44t-170 117.5t-110.5 173t-40.5 208.5v4q0 109 41 209t111 174.5t171 119t215 44.5q151 0 274.5 -74.5t192 -198.5t68.5 -270v-4q0 -146 -69 -271t-193.5 -200.5t-276.5 -75.5zM657 70q121 0 219.5 60.5t152.5 163t54 224.5v4q0 191 -124.5 322
t-305.5 131q-183 0 -304.5 -131t-121.5 -318v-4q0 -191 124.5 -321.5t305.5 -130.5zM657 1212q-36 0 -65 27l-164 158q-22 22 -22 37q0 17 28 32t58 15q33 0 57 -37l127 -191q8 -11 8 -22q0 -19 -27 -19z" />
    <glyph glyph-name="oacute" unicode="&#xf3;" horiz-adv-x="1310" 
d="M653 -25q-113 0 -213 44t-170 117.5t-110.5 173t-40.5 208.5v4q0 109 41 209t111 174.5t171 119t215 44.5q151 0 274.5 -74.5t192 -198.5t68.5 -270v-4q0 -146 -69 -271t-193.5 -200.5t-276.5 -75.5zM657 70q121 0 219.5 60.5t152.5 163t54 224.5v4q0 191 -124.5 322
t-305.5 131q-183 0 -304.5 -131t-121.5 -318v-4q0 -191 124.5 -321.5t305.5 -130.5zM653 1212q-26 0 -26 19q0 11 8 22l127 191q24 37 57 37q30 0 58 -15t28 -32q0 -15 -22 -37l-164 -158q-29 -27 -66 -27z" />
    <glyph glyph-name="ocircumflex" unicode="&#xf4;" horiz-adv-x="1310" 
d="M653 -25q-113 0 -213 44t-170 117.5t-110.5 173t-40.5 208.5v4q0 109 41 209t111 174.5t171 119t215 44.5q151 0 274.5 -74.5t192 -198.5t68.5 -270v-4q0 -146 -69 -271t-193.5 -200.5t-276.5 -75.5zM657 70q121 0 219.5 60.5t152.5 163t54 224.5v4q0 191 -124.5 322
t-305.5 131q-183 0 -304.5 -131t-121.5 -318v-4q0 -191 124.5 -321.5t305.5 -130.5zM653 1358l-129 -119q-29 -27 -65 -27q-27 0 -27 21q0 11 10 24l148 181q29 37 57 37h17q28 0 57 -37l147 -181q11 -15 11 -24q0 -21 -29 -21q-39 0 -68 27z" />
    <glyph glyph-name="otilde" unicode="&#xf5;" horiz-adv-x="1310" 
d="M653 -25q-113 0 -213 44t-170 117.5t-110.5 173t-40.5 208.5v4q0 109 41 209t111 174.5t171 119t215 44.5q151 0 274.5 -74.5t192 -198.5t68.5 -270v-4q0 -146 -69 -271t-193.5 -200.5t-276.5 -75.5zM657 70q121 0 219.5 60.5t152.5 163t54 224.5v4q0 191 -124.5 322
t-305.5 131q-183 0 -304.5 -131t-121.5 -318v-4q0 -191 124.5 -321.5t305.5 -130.5zM438 1225q-12 -29 -37 -29q-36 0 -36 35q0 8 4 24q28 87 65.5 120.5t95.5 33.5q39 0 134 -42t129 -42t53 17.5t39 60.5q12 29 37 29q36 0 36 -35q0 -9 -4 -25q-28 -87 -65.5 -120
t-95.5 -33q-39 0 -134 42t-129 42t-53 -17.5t-39 -60.5z" />
    <glyph glyph-name="odieresis" unicode="&#xf6;" horiz-adv-x="1310" 
d="M653 -25q-113 0 -213 44t-170 117.5t-110.5 173t-40.5 208.5v4q0 109 41 209t111 174.5t171 119t215 44.5q151 0 274.5 -74.5t192 -198.5t68.5 -270v-4q0 -146 -69 -271t-193.5 -200.5t-276.5 -75.5zM657 70q121 0 219.5 60.5t152.5 163t54 224.5v4q0 191 -124.5 322
t-305.5 131q-183 0 -304.5 -131t-121.5 -318v-4q0 -191 124.5 -321.5t305.5 -130.5zM823 1391q31 0 51.5 -19.5t20.5 -50.5v-41q0 -31 -20.5 -50.5t-51.5 -19.5t-51 19.5t-20 50.5v41q0 31 20 50.5t51 19.5zM487 1391q31 0 51.5 -19.5t20.5 -50.5v-41q0 -31 -20.5 -50.5
t-51.5 -19.5t-51 19.5t-20 50.5v41q0 31 20 50.5t51 19.5z" />
    <glyph glyph-name="divide" unicode="&#xf7;" horiz-adv-x="1269" 
d="M1090 672h-910q-20 0 -34.5 14.5t-14.5 34.5t14.5 34.5t34.5 14.5h910q20 0 34.5 -14.5t14.5 -34.5t-14.5 -34.5t-34.5 -14.5zM635 1214q35 0 58.5 -23t23.5 -58v-35q0 -35 -23.5 -58.5t-58.5 -23.5t-58.5 23.5t-23.5 58.5v35q0 35 23.5 58t58.5 23zM635 426
q35 0 58.5 -23.5t23.5 -58.5v-35q0 -35 -23.5 -58.5t-58.5 -23.5t-58.5 23.5t-23.5 58.5v35q0 35 23.5 58.5t58.5 23.5z" />
    <glyph glyph-name="oslash" unicode="&#xf8;" horiz-adv-x="1310" 
d="M653 -25q-196 0 -342 123l-98 -100q-16 -16 -37 -16q-18 0 -29.5 10.5t-11.5 27.5q0 19 12 31l103 107q-131 157 -131 360v4q0 109 41 209t111 174.5t171 119t215 44.5q201 0 342 -125l99 107q16 16 37 16q17 0 29 -11t12 -28q0 -18 -13 -31l-104 -110q133 -152 133 -361
v-4q0 -146 -69 -271t-193.5 -200.5t-276.5 -75.5zM657 70q121 0 219.5 60.5t152.5 163t54 224.5v4q0 165 -98 289l-608 -635q118 -106 280 -106zM227 526v-4q0 -166 97 -289l610 633q-122 109 -281 109q-183 0 -304.5 -131t-121.5 -318z" />
    <glyph glyph-name="ugrave" unicode="&#xf9;" horiz-adv-x="1255" 
d="M1065 1001v-958q0 -23 -13 -37t-36 -14t-37 14t-14 37v152q-129 -220 -377 -220q-195 0 -306.5 119t-111.5 312v595q0 24 13 38t36 14t37 -14.5t14 -37.5v-577q0 -164 87 -260t245 -96q155 0 259 104.5t104 267.5v561q0 24 13 38t36 14t37 -14.5t14 -37.5zM618 1212
q-36 0 -65 27l-164 158q-22 22 -22 37q0 17 28 32t58 15q33 0 57 -37l127 -191q8 -11 8 -22q0 -19 -27 -19z" />
    <glyph glyph-name="uacute" unicode="&#xfa;" horiz-adv-x="1255" 
d="M1065 1001v-958q0 -23 -13 -37t-36 -14t-37 14t-14 37v152q-129 -220 -377 -220q-195 0 -306.5 119t-111.5 312v595q0 24 13 38t36 14t37 -14.5t14 -37.5v-577q0 -164 87 -260t245 -96q155 0 259 104.5t104 267.5v561q0 24 13 38t36 14t37 -14.5t14 -37.5zM614 1212
q-26 0 -26 19q0 11 8 22l127 191q24 37 57 37q30 0 58 -15t28 -32q0 -15 -22 -37l-164 -158q-29 -27 -66 -27z" />
    <glyph glyph-name="ucircumflex" unicode="&#xfb;" horiz-adv-x="1255" 
d="M1065 1001v-958q0 -23 -13 -37t-36 -14t-37 14t-14 37v152q-129 -220 -377 -220q-195 0 -306.5 119t-111.5 312v595q0 24 13 38t36 14t37 -14.5t14 -37.5v-577q0 -164 87 -260t245 -96q155 0 259 104.5t104 267.5v561q0 24 13 38t36 14t37 -14.5t14 -37.5zM614 1358
l-129 -119q-29 -27 -65 -27q-27 0 -27 21q0 11 10 24l148 181q29 37 57 37h17q28 0 57 -37l147 -181q11 -15 11 -24q0 -21 -29 -21q-39 0 -68 27z" />
    <glyph glyph-name="udieresis" unicode="&#xfc;" horiz-adv-x="1255" 
d="M1065 1001v-958q0 -23 -13 -37t-36 -14t-37 14t-14 37v152q-129 -220 -377 -220q-195 0 -306.5 119t-111.5 312v595q0 24 13 38t36 14t37 -14.5t14 -37.5v-577q0 -164 87 -260t245 -96q155 0 259 104.5t104 267.5v561q0 24 13 38t36 14t37 -14.5t14 -37.5zM784 1391
q31 0 51.5 -19.5t20.5 -50.5v-41q0 -31 -20.5 -50.5t-51.5 -19.5t-51 19.5t-20 50.5v41q0 31 20 50.5t51 19.5zM449 1391q31 0 51 -19.5t20 -50.5v-41q0 -31 -20 -50.5t-51 -19.5t-51.5 19.5t-20.5 50.5v41q0 31 20.5 50.5t51.5 19.5z" />
    <glyph glyph-name="yacute" unicode="&#xfd;" horiz-adv-x="1204" 
d="M317 -334q-99 0 -178 33q-28 9 -28 43q0 20 13.5 33.5t33.5 13.5q13 0 32 -8q50 -21 134 -21t141 55.5t110 176.5l7 14l-467 965q-9 21 -9 30q0 23 15.5 37.5t38.5 14.5q35 0 53 -41l418 -901l364 905q13 37 49 37q23 0 37.5 -14.5t14.5 -37.5q0 -11 -6 -26l-424 -1012
q-67 -160 -150 -228.5t-199 -68.5zM608 1212q-26 0 -26 19q0 11 8 22l127 191q24 37 57 37q30 0 58 -15t28 -32q0 -15 -22 -37l-164 -158q-29 -27 -66 -27z" />
    <glyph glyph-name="thorn" unicode="&#xfe;" 
d="M190 -285v1737q0 23 13.5 37t36.5 14t37 -14t14 -37v-641q166 258 430 258q95 0 185.5 -38t162.5 -105.5t116 -172t44 -227.5v-4q0 -122 -44 -227t-115.5 -174t-162.5 -107.5t-186 -38.5q-262 0 -430 250v-510q0 -23 -13 -37t-36 -14t-37.5 14t-14.5 37zM711 72
q177 0 293 121t116 325v4q0 200 -119 325.5t-290 125.5q-82 0 -159 -33t-136 -91t-95 -143t-36 -182v-4q0 -130 61 -234t158 -159t207 -55z" />
    <glyph glyph-name="ydieresis" unicode="&#xff;" horiz-adv-x="1204" 
d="M317 -334q-99 0 -178 33q-28 9 -28 43q0 20 13.5 33.5t33.5 13.5q13 0 32 -8q50 -21 134 -21t141 55.5t110 176.5l7 14l-467 965q-9 21 -9 30q0 23 15.5 37.5t38.5 14.5q35 0 53 -41l418 -901l364 905q13 37 49 37q23 0 37.5 -14.5t14.5 -37.5q0 -11 -6 -26l-424 -1012
q-67 -160 -150 -228.5t-199 -68.5zM778 1391q31 0 51.5 -19.5t20.5 -50.5v-41q0 -31 -20.5 -50.5t-51.5 -19.5t-51 19.5t-20 50.5v41q0 31 20 50.5t51 19.5zM442 1391q31 0 51.5 -19.5t20.5 -50.5v-41q0 -31 -20.5 -50.5t-51.5 -19.5t-51 19.5t-20 50.5v41q0 31 20 50.5
t51 19.5z" />
    <glyph glyph-name="Amacron" unicode="&#x100;" horiz-adv-x="1617" 
d="M115 37q0 20 8 33l612 1327q23 51 72 51h4q49 0 72 -51l610 -1323q8 -13 8 -33q0 -21 -14 -35t-37 -14q-35 0 -53 41l-168 368h-846l-168 -370q-14 -39 -51 -39q-20 0 -34.5 13t-14.5 32zM428 498h756l-377 829zM1077 1640h-540q-20 0 -35 15t-15 35t15 34.5t35 14.5h540
q20 0 34.5 -14.5t14.5 -34.5t-14.5 -35t-34.5 -15z" />
    <glyph glyph-name="amacron" unicode="&#x101;" horiz-adv-x="1175" 
d="M508 -25q-75 0 -145.5 21t-129 60.5t-94 103.5t-35.5 143v4q0 161 125 250.5t332 89.5q179 0 346 -45v45q0 157 -90 238.5t-254 81.5q-147 0 -297 -70q-12 -6 -22 -6q-19 0 -33 14t-14 33q0 28 28 45q176 78 344 78q215 0 330 -115q107 -107 107 -295v-608
q0 -23 -13.5 -37t-36.5 -14t-36 14t-13 37v131q-63 -86 -162.5 -142.5t-236.5 -56.5zM514 70q163 0 279 90.5t116 230.5v119q-180 47 -354 47q-163 0 -253.5 -66t-90.5 -178v-4q0 -110 88.5 -174.5t214.5 -64.5zM858 1272h-541q-20 0 -34.5 14.5t-14.5 34.5t14.5 34.5
t34.5 14.5h541q20 0 34.5 -14.5t14.5 -34.5t-14.5 -34.5t-34.5 -14.5z" />
    <glyph glyph-name="Abreve" unicode="&#x102;" horiz-adv-x="1617" 
d="M115 37q0 20 8 33l612 1327q23 51 72 51h4q49 0 72 -51l610 -1323q8 -13 8 -33q0 -21 -14 -35t-37 -14q-35 0 -53 41l-168 368h-846l-168 -370q-14 -39 -51 -39q-20 0 -34.5 13t-14.5 32zM428 498h756l-377 829zM807 1583q-170 0 -244 139q-22 36 -22 78q0 45 39 45
q31 0 43 -35q46 -122 184 -122t184 122q12 35 43 35q39 0 39 -45q0 -42 -22 -78q-74 -139 -244 -139z" />
    <glyph glyph-name="abreve" unicode="&#x103;" horiz-adv-x="1175" 
d="M508 -25q-75 0 -145.5 21t-129 60.5t-94 103.5t-35.5 143v4q0 161 125 250.5t332 89.5q179 0 346 -45v45q0 157 -90 238.5t-254 81.5q-147 0 -297 -70q-12 -6 -22 -6q-19 0 -33 14t-14 33q0 28 28 45q176 78 344 78q215 0 330 -115q107 -107 107 -295v-608
q0 -23 -13.5 -37t-36.5 -14t-36 14t-13 37v131q-63 -86 -162.5 -142.5t-236.5 -56.5zM514 70q163 0 279 90.5t116 230.5v119q-180 47 -354 47q-163 0 -253.5 -66t-90.5 -178v-4q0 -110 88.5 -174.5t214.5 -64.5zM588 1214q-169 0 -244 140q-22 36 -22 78q0 45 38 45
q31 0 43 -35q46 -123 185 -123q138 0 184 123q12 35 43 35q39 0 39 -45q0 -40 -23 -78q-75 -140 -243 -140z" />
    <glyph glyph-name="Aogonek" unicode="&#x104;" horiz-adv-x="1617" 
d="M115 37q0 20 8 33l612 1327q23 51 72 51h4q49 0 72 -51l616 -1336q8 -13 8 -32q0 -26 -24 -43q-54 -43 -76.5 -76.5t-22.5 -71.5q0 -40 27.5 -61.5t81.5 -32.5q32 -6 43.5 -15t11.5 -26q0 -37 -41 -37q-16 0 -38.5 3t-57 13t-62 26.5t-47.5 47t-20 70.5q0 52 29.5 95
t93.5 93l-176 387h-846l-168 -370q-14 -39 -51 -39q-20 0 -34.5 13t-14.5 32zM428 498h756l-377 829z" />
    <glyph glyph-name="aogonek" unicode="&#x105;" horiz-adv-x="1175" 
d="M780 -174q0 52 31.5 97t95.5 95v154q-62 -85 -162 -141t-237 -56q-75 0 -145.5 21t-129 60.5t-94 103.5t-35.5 143v4q0 161 125 250.5t332 89.5q179 0 346 -45v45q0 157 -90 238.5t-254 81.5q-147 0 -297 -70q-12 -6 -22 -6q-19 0 -33 14t-14 33q0 28 28 45
q176 78 344 78q215 0 330 -115q107 -107 107 -295v-616q0 -30 -29 -53q-52 -45 -73 -75t-21 -69q0 -40 27 -61.5t81 -32.5q32 -6 44 -15t12 -26q0 -37 -41 -37q-16 0 -39 3t-57 13t-62 26.5t-48 47t-20 70.5zM514 70q163 0 279 90.5t116 230.5v119q-180 47 -354 47
q-163 0 -253.5 -66t-90.5 -178v-4q0 -110 88.5 -174.5t214.5 -64.5z" />
    <glyph glyph-name="Cacute" unicode="&#x106;" horiz-adv-x="1511" 
d="M862 -25q-152 0 -285 57.5t-226 156.5t-147 235t-54 289v4q0 201 91.5 370.5t257 270t367.5 100.5q169 0 289.5 -50.5t237.5 -150.5q20 -20 20 -43t-16 -38t-39 -15q-22 0 -37 15q-100 91 -207.5 138.5t-249.5 47.5q-127 0 -239 -50t-192 -135.5t-126.5 -204
t-46.5 -251.5v-4q0 -133 47 -252.5t127.5 -205.5t193 -136.5t238.5 -50.5q143 0 251.5 48t215.5 150q17 17 37 17t35.5 -15.5t15.5 -35.5q0 -21 -16 -37q-121 -111 -247 -167.5t-296 -56.5zM854 1581q-27 0 -27 18q0 11 9 23l127 190q24 37 57 37q30 0 58 -15t28 -32
q0 -14 -23 -37l-163 -157q-29 -27 -66 -27z" />
    <glyph glyph-name="cacute" unicode="&#x107;" horiz-adv-x="1169" 
d="M651 -25q-147 0 -270 74.5t-192.5 199t-69.5 269.5v4q0 145 69.5 270.5t192.5 201t270 75.5q219 0 393 -166q15 -15 15 -37q0 -23 -14 -37t-37 -14t-35 12q-73 69 -150 108.5t-174 39.5q-178 0 -300 -130t-122 -319v-4q0 -190 125.5 -321t304.5 -131t328 149q17 17 33 17
q19 0 34 -15.5t15 -34.5q0 -18 -12 -30q-86 -87 -181.5 -134t-222.5 -47zM639 1212q-27 0 -27 19q0 10 9 22l127 191q24 37 57 37q30 0 58 -15t28 -32q0 -14 -23 -37l-163 -158q-29 -27 -66 -27z" />
    <glyph glyph-name="Cdotaccent" unicode="&#x10a;" horiz-adv-x="1511" 
d="M862 -25q-152 0 -285 57.5t-226 156.5t-147 235t-54 289v4q0 201 91.5 370.5t257 270t367.5 100.5q169 0 289.5 -50.5t237.5 -150.5q20 -20 20 -43t-16 -38t-39 -15q-22 0 -37 15q-100 91 -207.5 138.5t-249.5 47.5q-127 0 -239 -50t-192 -135.5t-126.5 -204
t-46.5 -251.5v-4q0 -133 47 -252.5t127.5 -205.5t193 -136.5t238.5 -50.5q143 0 251.5 48t215.5 150q17 17 37 17t35.5 -15.5t15.5 -35.5q0 -21 -16 -37q-121 -111 -247 -167.5t-296 -56.5zM930 1690v-39q0 -32 -21 -52t-53 -20t-53 20t-21 52v39q0 32 20.5 51.5t53.5 19.5
t53.5 -19.5t20.5 -51.5z" />
    <glyph glyph-name="cdotaccent" unicode="&#x10b;" horiz-adv-x="1169" 
d="M651 -25q-147 0 -270 74.5t-192.5 199t-69.5 269.5v4q0 145 69.5 270.5t192.5 201t270 75.5q219 0 393 -166q15 -15 15 -37q0 -23 -14 -37t-37 -14t-35 12q-73 69 -150 108.5t-174 39.5q-178 0 -300 -130t-122 -319v-4q0 -190 125.5 -321t304.5 -131t328 149q17 17 33 17
q19 0 34 -15.5t15 -34.5q0 -18 -12 -30q-86 -87 -181.5 -134t-222.5 -47zM715 1321v-39q0 -32 -21 -52t-53 -20t-53 20t-21 52v39q0 32 21 52t53 20t53 -20t21 -52z" />
    <glyph glyph-name="Ccaron" unicode="&#x10c;" horiz-adv-x="1511" 
d="M862 -25q-152 0 -285 57.5t-226 156.5t-147 235t-54 289v4q0 201 91.5 370.5t257 270t367.5 100.5q169 0 289.5 -50.5t237.5 -150.5q20 -20 20 -43t-16 -38t-39 -15q-22 0 -37 15q-100 91 -207.5 138.5t-249.5 47.5q-127 0 -239 -50t-192 -135.5t-126.5 -204
t-46.5 -251.5v-4q0 -133 47 -252.5t127.5 -205.5t193 -136.5t238.5 -50.5q143 0 251.5 48t215.5 150q17 17 37 17t35.5 -15.5t15.5 -35.5q0 -21 -16 -37q-121 -111 -247 -167.5t-296 -56.5zM858 1698l129 119q28 26 66 26q26 0 26 -20q0 -12 -10 -25l-147 -180
q-29 -37 -58 -37h-16q-28 0 -57 37l-148 180q-10 13 -10 25q0 20 29 20q39 0 67 -26z" />
    <glyph glyph-name="ccaron" unicode="&#x10d;" horiz-adv-x="1169" 
d="M651 -25q-147 0 -270 74.5t-192.5 199t-69.5 269.5v4q0 145 69.5 270.5t192.5 201t270 75.5q219 0 393 -166q15 -15 15 -37q0 -23 -14 -37t-37 -14t-35 12q-73 69 -150 108.5t-174 39.5q-178 0 -300 -130t-122 -319v-4q0 -190 125.5 -321t304.5 -131t328 149q17 17 33 17
q19 0 34 -15.5t15 -34.5q0 -18 -12 -30q-86 -87 -181.5 -134t-222.5 -47zM643 1329l129 119q29 27 66 27q26 0 26 -21q0 -11 -10 -24l-147 -181q-29 -37 -58 -37h-16q-29 0 -58 37l-147 181q-10 13 -10 24q0 21 28 21q39 0 68 -27z" />
    <glyph glyph-name="Dcaron" unicode="&#x10e;" horiz-adv-x="1601" 
d="M213 53v1327q0 23 15 38.5t38 15.5h424q166 0 309 -55t242 -150t155 -226.5t56 -281.5v-4q0 -150 -56 -282t-155 -228t-242 -151.5t-309 -55.5h-424q-23 0 -38 15t-15 38zM319 98h371q146 0 269.5 48t206.5 131t129 195.5t46 240.5v4q0 126 -46 239t-129 197t-206.5 133
t-269.5 49h-371v-1237zM770 1677l129 119q29 27 66 27q26 0 26 -21q0 -11 -10 -24l-147 -181q-28 -36 -58 -36h-16q-30 0 -58 36l-147 181q-10 13 -10 24q0 21 28 21q39 0 68 -27z" />
    <glyph glyph-name="dcaron" unicode="&#x10f;" 
d="M1161 1452v-1409q0 -23 -13 -37t-36 -14t-37 14t-14 37v190q-173 -258 -430 -258q-95 0 -185.5 38t-162.5 105.5t-116 172t-44 227.5v4q0 122 44 227t115.5 174t162.5 107.5t186 38.5q262 0 430 -250v633q0 23 13 37t36 14t37 -14t14 -37zM641 973q-177 0 -293.5 -121.5
t-116.5 -325.5v-4q0 -200 119.5 -325t290.5 -125q82 0 159 33t136 90.5t95 142.5t36 182v4q0 98 -36 183t-95 142.5t-136 90.5t-159 33zM1305 1223l24 227q9 53 57 53h27q35 0 35 -35q0 -13 -12 -49l-68 -198q-12 -37 -35 -37q-36 0 -28 39z" />
    <glyph glyph-name="Dcroat" unicode="&#x110;" horiz-adv-x="1662" 
d="M162 770h112v610q0 23 15.5 38.5t38.5 15.5h424q166 0 308.5 -55t241.5 -150t155 -226.5t56 -281.5v-4q0 -150 -56 -282t-155 -228t-241.5 -151.5t-308.5 -55.5h-424q-23 0 -38.5 15t-15.5 38v619h-112q-20 0 -34.5 14.5t-14.5 34.5t14.5 34.5t34.5 14.5zM381 1335v-565
h434q20 0 34.5 -14.5t14.5 -34.5t-14.5 -34.5t-34.5 -14.5h-434v-574h371q146 0 269.5 48t206.5 131t129 195.5t46 240.5v4q0 126 -46 239t-129 197t-206.5 133t-269.5 49h-371z" />
    <glyph glyph-name="dcroat" unicode="&#x111;" 
d="M1161 1452v-94h107q19 0 32 -13t13 -32t-13 -32t-32 -13h-107v-1225q0 -23 -13 -37t-36 -14t-37 14t-14 37v190q-173 -258 -430 -258q-95 0 -185.5 38t-162.5 105.5t-116 172t-44 227.5v4q0 122 44 227t115.5 174t162.5 107.5t186 38.5q262 0 430 -250v449h-342
q-19 0 -32 13t-13 32t13 32t32 13h342v94q0 23 13 37t36 14t37 -14t14 -37zM641 973q-177 0 -293.5 -121.5t-116.5 -325.5v-4q0 -200 119.5 -325t290.5 -125q82 0 159 33t136 90.5t95 142.5t36 182v4q0 98 -36 183t-95 142.5t-136 90.5t-159 33z" />
    <glyph glyph-name="Emacron" unicode="&#x112;" horiz-adv-x="1372" 
d="M1202 0h-936q-23 0 -38 15t-15 38v1327q0 23 15 38.5t38 15.5h926q20 0 34.5 -15t14.5 -35t-14.5 -34.5t-34.5 -14.5h-873v-563h781q20 0 34.5 -14.5t14.5 -34.5t-14.5 -34.5t-34.5 -14.5h-781v-576h883q20 0 34.5 -14.5t14.5 -34.5t-14.5 -34.5t-34.5 -14.5zM997 1620
h-540q-20 0 -34.5 14.5t-14.5 34.5t14.5 34.5t34.5 14.5h540q20 0 35 -14.5t15 -34.5t-15 -34.5t-35 -14.5z" />
    <glyph glyph-name="emacron" unicode="&#x113;" horiz-adv-x="1196" 
d="M225 571h760q-6 81 -32 152.5t-71 129t-115 91t-157 33.5q-155 0 -264 -116t-121 -290zM1038 145q-84 -84 -179 -127t-228 -43q-102 0 -195.5 39.5t-163.5 109.5t-111.5 173t-41.5 223v4q0 149 64 274t178 198t253 73q143 0 253.5 -72.5t168.5 -195t58 -273.5
q0 -19 -15.5 -33t-34.5 -14h-819q12 -188 131 -299.5t279 -111.5q192 0 338 143q14 14 33 14q20 0 34.5 -13.5t14.5 -33.5q0 -18 -17 -35zM885 1272h-541q-20 0 -34.5 14.5t-14.5 34.5t14.5 34.5t34.5 14.5h541q20 0 34.5 -14.5t14.5 -34.5t-14.5 -34.5t-34.5 -14.5z" />
    <glyph glyph-name="Ebreve" unicode="&#x114;" horiz-adv-x="1372" 
d="M1202 0h-936q-23 0 -38 15t-15 38v1327q0 23 15 38.5t38 15.5h926q20 0 34.5 -15t14.5 -35t-14.5 -34.5t-34.5 -14.5h-873v-563h781q20 0 34.5 -14.5t14.5 -34.5t-14.5 -34.5t-34.5 -14.5h-781v-576h883q20 0 34.5 -14.5t14.5 -34.5t-14.5 -34.5t-34.5 -14.5zM727 1563
q-170 0 -244 139q-22 36 -22 78q0 45 39 45q31 0 43 -35q46 -123 184 -123t184 123q12 35 43 35q39 0 39 -45q0 -42 -22 -78q-74 -139 -244 -139z" />
    <glyph glyph-name="ebreve" unicode="&#x115;" horiz-adv-x="1196" 
d="M225 571h760q-6 81 -32 152.5t-71 129t-115 91t-157 33.5q-155 0 -264 -116t-121 -290zM1038 145q-84 -84 -179 -127t-228 -43q-102 0 -195.5 39.5t-163.5 109.5t-111.5 173t-41.5 223v4q0 149 64 274t178 198t253 73q143 0 253.5 -72.5t168.5 -195t58 -273.5
q0 -19 -15.5 -33t-34.5 -14h-819q12 -188 131 -299.5t279 -111.5q192 0 338 143q14 14 33 14q20 0 34.5 -13.5t14.5 -33.5q0 -18 -17 -35zM614 1214q-168 0 -243 140q-23 38 -23 78q0 45 39 45q31 0 43 -35q46 -123 184 -123q139 0 185 123q12 35 43 35q39 0 39 -45
q0 -40 -23 -78q-75 -140 -244 -140z" />
    <glyph glyph-name="Edotaccent" unicode="&#x116;" horiz-adv-x="1372" 
d="M1202 0h-936q-23 0 -38 15t-15 38v1327q0 23 15 38.5t38 15.5h926q20 0 34.5 -15t14.5 -35t-14.5 -34.5t-34.5 -14.5h-873v-563h781q20 0 34.5 -14.5t14.5 -34.5t-14.5 -34.5t-34.5 -14.5h-781v-576h883q20 0 34.5 -14.5t14.5 -34.5t-14.5 -34.5t-34.5 -14.5zM801 1669
v-39q0 -32 -20.5 -51.5t-53.5 -19.5t-53.5 19.5t-20.5 51.5v39q0 32 21 52t53 20t53 -20t21 -52z" />
    <glyph glyph-name="edotaccent" unicode="&#x117;" horiz-adv-x="1196" 
d="M225 571h760q-6 81 -32 152.5t-71 129t-115 91t-157 33.5q-155 0 -264 -116t-121 -290zM1038 145q-84 -84 -179 -127t-228 -43q-102 0 -195.5 39.5t-163.5 109.5t-111.5 173t-41.5 223v4q0 149 64 274t178 198t253 73q143 0 253.5 -72.5t168.5 -195t58 -273.5
q0 -19 -15.5 -33t-34.5 -14h-819q12 -188 131 -299.5t279 -111.5q192 0 338 143q14 14 33 14q20 0 34.5 -13.5t14.5 -33.5q0 -18 -17 -35zM688 1321v-39q0 -32 -21 -52t-53 -20t-52.5 20t-20.5 52v39q0 32 20.5 52t52.5 20t53 -20t21 -52z" />
    <glyph glyph-name="Eogonek" unicode="&#x118;" horiz-adv-x="1372" 
d="M1100 0h-834q-23 0 -38 15t-15 38v1327q0 23 15 38.5t38 15.5h926q20 0 34.5 -15t14.5 -35t-14.5 -34.5t-34.5 -14.5h-873v-563h781q20 0 34.5 -14.5t14.5 -34.5t-14.5 -34.5t-34.5 -14.5h-781v-576h879q53 0 53 -43q0 -28 -32 -53q-75 -59 -103.5 -92.5t-28.5 -73.5
t26.5 -60.5t80.5 -31.5q32 -6 43.5 -15t11.5 -26q0 -37 -41 -37q-23 0 -53 5t-72.5 19.5t-71 49t-28.5 84.5q0 86 117 176z" />
    <glyph glyph-name="eogonek" unicode="&#x119;" horiz-adv-x="1196" 
d="M1094 528q0 -19 -15.5 -33t-34.5 -14h-819q12 -188 131 -299.5t279 -111.5q192 0 338 143q14 14 33 14q20 0 34.5 -13.5t14.5 -33.5q0 -18 -17 -35q-15 -15 -41 -36.5t-39 -32.5q-92 -78 -125.5 -127.5t-33.5 -98.5q0 -50 27 -72t83 -34q32 -6 44 -15t12 -26
q0 -37 -41 -37q-37 0 -74 9t-72.5 27.5t-57.5 53t-22 80.5q0 78 78 156q-80 -17 -145 -17q-102 0 -195.5 39.5t-163.5 109.5t-111.5 173t-41.5 223v4q0 149 64 274t178 198t253 73q143 0 253.5 -72.5t168.5 -195t58 -273.5zM225 571h760q-6 81 -32 152.5t-71 129t-115 91
t-157 33.5q-155 0 -264 -116t-121 -290z" />
    <glyph glyph-name="Ecaron" unicode="&#x11a;" horiz-adv-x="1372" 
d="M1202 0h-936q-23 0 -38 15t-15 38v1327q0 23 15 38.5t38 15.5h926q20 0 34.5 -15t14.5 -35t-14.5 -34.5t-34.5 -14.5h-873v-563h781q20 0 34.5 -14.5t14.5 -34.5t-14.5 -34.5t-34.5 -14.5h-781v-576h883q20 0 34.5 -14.5t14.5 -34.5t-14.5 -34.5t-34.5 -14.5zM729 1677
l129 119q29 27 66 27q26 0 26 -21q0 -11 -10 -24l-147 -181q-28 -36 -58 -36h-16q-29 0 -57 36l-148 181q-10 13 -10 24q0 21 28 21q39 0 68 -27z" />
    <glyph glyph-name="ecaron" unicode="&#x11b;" horiz-adv-x="1196" 
d="M225 571h760q-6 81 -32 152.5t-71 129t-115 91t-157 33.5q-155 0 -264 -116t-121 -290zM1038 145q-84 -84 -179 -127t-228 -43q-102 0 -195.5 39.5t-163.5 109.5t-111.5 173t-41.5 223v4q0 149 64 274t178 198t253 73q143 0 253.5 -72.5t168.5 -195t58 -273.5
q0 -19 -15.5 -33t-34.5 -14h-819q12 -188 131 -299.5t279 -111.5q192 0 338 143q14 14 33 14q20 0 34.5 -13.5t14.5 -33.5q0 -18 -17 -35zM616 1329l129 119q29 27 66 27q27 0 27 -21q0 -9 -11 -24l-147 -181q-29 -37 -57 -37h-17q-28 0 -57 37l-148 181q-10 13 -10 24
q0 21 29 21q38 0 67 -27z" />
    <glyph glyph-name="Gbreve" unicode="&#x11e;" horiz-adv-x="1605" 
d="M870 -25q-166 0 -303 58.5t-227.5 159.5t-140 235t-49.5 285v4q0 145 51 279t141.5 236.5t225 164t290.5 61.5q154 0 269 -40t221 -120q20 -14 20 -43q0 -23 -15 -38t-38 -15q-18 0 -33 15q-93 72 -191.5 108.5t-238.5 36.5q-170 0 -307 -88t-211 -234t-74 -319v-4
q0 -139 42.5 -257.5t120.5 -205t194 -135.5t257 -49q129 0 251.5 46.5t205.5 116.5v412h-446q-20 0 -34.5 14.5t-14.5 34.5t14.5 34.5t34.5 14.5h495q23 0 38.5 -15t15.5 -38v-469q0 -31 -37 -61q-244 -185 -527 -185zM844 1583q-170 0 -244 139q-22 36 -22 78q0 45 38 45
q31 0 43 -35q46 -122 185 -122q138 0 184 122q12 35 43 35q39 0 39 -45q0 -40 -23 -78q-74 -139 -243 -139z" />
    <glyph glyph-name="gbreve" unicode="&#x11f;" 
d="M649 -332q-250 0 -456 144q-23 16 -23 45q0 18 15.5 32.5t35.5 14.5q18 0 29 -8q184 -134 401 -134q185 0 297.5 105.5t112.5 300.5v151q-172 -241 -436 -241q-95 0 -185 35.5t-160.5 97.5t-113.5 155.5t-43 202.5v4q0 110 43 204.5t113.5 157.5t160.5 98.5t185 35.5
q269 0 436 -233v165q0 24 13 38t36 14t37 -14.5t14 -37.5v-839q0 -222 -133 -355q-139 -139 -379 -139zM635 174q110 0 208.5 48.5t161 141t62.5 207.5v4q0 117 -62.5 209.5t-160.5 140.5t-209 48q-171 0 -287.5 -108.5t-116.5 -286.5v-5q0 -115 56 -207t148.5 -142
t199.5 -50zM676 1214q-169 0 -244 140q-22 36 -22 78q0 45 39 45q31 0 43 -35q46 -123 184 -123t184 123q12 35 43 35q39 0 39 -45q0 -42 -22 -78q-75 -140 -244 -140z" />
    <glyph glyph-name="Gdotaccent" unicode="&#x120;" horiz-adv-x="1605" 
d="M870 -25q-166 0 -303 58.5t-227.5 159.5t-140 235t-49.5 285v4q0 145 51 279t141.5 236.5t225 164t290.5 61.5q154 0 269 -40t221 -120q20 -14 20 -43q0 -23 -15 -38t-38 -15q-18 0 -33 15q-93 72 -191.5 108.5t-238.5 36.5q-170 0 -307 -88t-211 -234t-74 -319v-4
q0 -139 42.5 -257.5t120.5 -205t194 -135.5t257 -49q129 0 251.5 46.5t205.5 116.5v412h-446q-20 0 -34.5 14.5t-14.5 34.5t14.5 34.5t34.5 14.5h495q23 0 38.5 -15t15.5 -38v-469q0 -31 -37 -61q-244 -185 -527 -185zM918 1690v-39q0 -32 -21 -52t-53 -20t-53 20t-21 52v39
q0 32 20.5 51.5t53.5 19.5t53.5 -19.5t20.5 -51.5z" />
    <glyph glyph-name="gdotaccent" unicode="&#x121;" 
d="M649 -332q-250 0 -456 144q-23 16 -23 45q0 18 15.5 32.5t35.5 14.5q18 0 29 -8q184 -134 401 -134q185 0 297.5 105.5t112.5 300.5v151q-172 -241 -436 -241q-95 0 -185 35.5t-160.5 97.5t-113.5 155.5t-43 202.5v4q0 110 43 204.5t113.5 157.5t160.5 98.5t185 35.5
q269 0 436 -233v165q0 24 13 38t36 14t37 -14.5t14 -37.5v-839q0 -222 -133 -355q-139 -139 -379 -139zM635 174q110 0 208.5 48.5t161 141t62.5 207.5v4q0 117 -62.5 209.5t-160.5 140.5t-209 48q-171 0 -287.5 -108.5t-116.5 -286.5v-5q0 -115 56 -207t148.5 -142
t199.5 -50zM750 1321v-39q0 -32 -21 -52t-53 -20t-53 20t-21 52v39q0 32 21 52t53 20t53 -20t21 -52z" />
    <glyph glyph-name="Gcommaaccent" unicode="&#x122;" horiz-adv-x="1605" 
d="M870 -25q-166 0 -303 58.5t-227.5 159.5t-140 235t-49.5 285v4q0 145 51 279t141.5 236.5t225 164t290.5 61.5q154 0 269 -40t221 -120q20 -14 20 -43q0 -23 -15 -38t-38 -15q-18 0 -33 15q-93 72 -191.5 108.5t-238.5 36.5q-170 0 -307 -88t-211 -234t-74 -319v-4
q0 -139 42.5 -257.5t120.5 -205t194 -135.5t257 -49q129 0 251.5 46.5t205.5 116.5v412h-446q-20 0 -34.5 14.5t-14.5 34.5t14.5 34.5t34.5 14.5h495q23 0 38.5 -15t15.5 -38v-469q0 -31 -37 -61q-244 -185 -527 -185zM834 -301q-66 14 -66 72v12q0 31 21.5 52.5t52.5 21.5
q32 0 52.5 -22.5t20.5 -59.5v-13q0 -64 -10 -99t-39 -64q-25 -25 -65 -41.5t-66 -16.5t-26 23q0 19 26 28q56 17 77.5 40t21.5 67z" />
    <glyph glyph-name="gcommaaccent" unicode="&#x123;" 
d="M649 -332q-250 0 -456 144q-23 16 -23 45q0 18 15.5 32.5t35.5 14.5q18 0 29 -8q184 -134 401 -134q185 0 297.5 105.5t112.5 300.5v151q-172 -241 -436 -241q-95 0 -185 35.5t-160.5 97.5t-113.5 155.5t-43 202.5v4q0 110 43 204.5t113.5 157.5t160.5 98.5t185 35.5
q269 0 436 -233v165q0 24 13 38t36 14t37 -14.5t14 -37.5v-839q0 -222 -133 -355q-139 -139 -379 -139zM635 174q110 0 208.5 48.5t161 141t62.5 207.5v4q0 117 -62.5 209.5t-160.5 140.5t-209 48q-171 0 -287.5 -108.5t-116.5 -286.5v-5q0 -115 56 -207t148.5 -142
t199.5 -50zM684 1368q66 -14 66 -72v-12q0 -31 -21.5 -52.5t-52.5 -21.5q-32 0 -53 22.5t-21 59.5v13q0 64 10 99t39 64q25 25 65 41.5t66 16.5q27 0 27 -23q0 -19 -27 -28q-56 -17 -77 -40t-21 -67z" />
    <glyph glyph-name="Hbar" unicode="&#x126;" horiz-adv-x="1679" 
d="M274 45v999h-116q-19 0 -32 13.5t-13 32.5t13 32t32 13h116v254q0 23 15.5 38t38.5 15t38 -15t15 -38v-254h917v254q0 23 15.5 38t38.5 15t38 -15t15 -38v-254h117q19 0 32 -13t13 -32t-13 -32.5t-32 -13.5h-117v-999q0 -23 -15 -38t-38 -15t-38.5 15t-15.5 38v627h-917
v-627q0 -23 -15 -38t-38 -15t-38.5 15t-15.5 38zM381 770h917v274h-917v-274z" />
    <glyph glyph-name="hbar" unicode="&#x127;" horiz-adv-x="1255" 
d="M190 43v1225h-106q-19 0 -32 13t-13 32t13 32t32 13h106v94q0 23 13.5 37t36.5 14t37 -14t14 -37v-94h342q19 0 32 -13t13 -32t-13 -32t-32 -13h-342v-418q128 219 377 219q195 0 306 -118.5t111 -311.5v-596q0 -23 -13 -37t-36 -14t-37 14t-14 37v578q0 164 -87 260
t-245 96q-155 0 -258.5 -105t-103.5 -268v-561q0 -23 -13 -37t-36 -14t-37.5 14t-14.5 37z" />
    <glyph glyph-name="Imacron" unicode="&#x12a;" horiz-adv-x="561" 
d="M227 45v1344q0 23 15.5 38t38.5 15t38 -15t15 -38v-1344q0 -23 -15 -38t-38 -15t-38.5 15t-15.5 38zM553 1620h-541q-20 0 -34.5 14.5t-14.5 34.5t14.5 34.5t34.5 14.5h541q20 0 34.5 -14.5t14.5 -34.5t-14.5 -34.5t-34.5 -14.5z" />
    <glyph glyph-name="imacron" unicode="&#x12b;" horiz-adv-x="509" 
d="M205 43v958q0 24 13 38t36 14t37 -14.5t14 -37.5v-958q0 -23 -13 -37t-36 -14t-37 14t-14 37zM526 1272h-540q-20 0 -34.5 14.5t-14.5 34.5t14.5 34.5t34.5 14.5h540q20 0 34.5 -14.5t14.5 -34.5t-14.5 -34.5t-34.5 -14.5z" />
    <glyph glyph-name="Ibreve" unicode="&#x12c;" horiz-adv-x="561" 
d="M227 45v1344q0 23 15.5 38t38.5 15t38 -15t15 -38v-1344q0 -23 -15 -38t-38 -15t-38.5 15t-15.5 38zM283 1563q-170 0 -244 139q-23 38 -23 78q0 45 39 45q31 0 43 -35q46 -123 185 -123q138 0 184 123q12 35 43 35q39 0 39 -45q0 -40 -23 -78q-74 -139 -243 -139z" />
    <glyph glyph-name="ibreve" unicode="&#x12d;" horiz-adv-x="509" 
d="M205 43v958q0 24 13 38t36 14t37 -14.5t14 -37.5v-958q0 -23 -13 -37t-36 -14t-37 14t-14 37zM256 1214q-169 0 -244 140q-22 36 -22 78q0 45 39 45q31 0 43 -35q46 -123 184 -123t184 123q12 35 43 35q39 0 39 -45q0 -42 -22 -78q-75 -140 -244 -140z" />
    <glyph glyph-name="Iogonek" unicode="&#x12e;" horiz-adv-x="561" 
d="M109 -174q0 52 28 94.5t90 91.5v1377q0 23 15.5 38t38.5 15t38 -15t15 -38v-1354q0 -30 -27 -51q-55 -45 -75.5 -75.5t-20.5 -70.5t27 -61.5t81 -32.5q32 -6 44 -15t12 -26q0 -37 -41 -37q-16 0 -38.5 3t-57 13t-62 26.5t-47.5 47t-20 70.5z" />
    <glyph glyph-name="iogonek" unicode="&#x12f;" horiz-adv-x="509" 
d="M305 1001v-966q0 -30 -29 -53q-52 -45 -73 -75t-21 -69q0 -40 27.5 -61.5t81.5 -32.5q32 -6 43.5 -15t11.5 -26q0 -37 -41 -37q-16 0 -38.5 3t-57 13t-62 26.5t-47.5 47t-20 70.5q0 52 30.5 96.5t94.5 93.5v985q0 24 13 38t36 14t37 -14.5t14 -37.5zM193 1368v35
q0 26 17.5 43.5t43.5 17.5t44.5 -17.5t18.5 -43.5v-35q0 -26 -18.5 -43.5t-44.5 -17.5t-43.5 17.5t-17.5 43.5z" />
    <glyph glyph-name="Idotaccent" unicode="&#x130;" horiz-adv-x="561" 
d="M227 45v1344q0 23 15.5 38t38.5 15t38 -15t15 -38v-1344q0 -23 -15 -38t-38 -15t-38.5 15t-15.5 38zM356 1669v-39q0 -32 -20.5 -51.5t-52.5 -19.5q-33 0 -53.5 19.5t-20.5 51.5v39q0 32 21 52t53 20t52.5 -20t20.5 -52z" />
    <glyph glyph-name="dotlessi" unicode="&#x131;" horiz-adv-x="509" 
d="M205 43v958q0 24 13 38t36 14t37 -14.5t14 -37.5v-958q0 -23 -13 -37t-36 -14t-37 14t-14 37z" />
    <glyph glyph-name="Kcommaaccent" unicode="&#x136;" horiz-adv-x="1464" 
d="M213 45v1344q0 23 15 38t38 15t38 -15t15 -38v-897l906 933q17 17 37 17t36.5 -16.5t16.5 -36.5t-17 -37l-546 -551l583 -715q17 -24 17 -39q0 -23 -16.5 -39t-39.5 -16q-25 0 -41 20l-579 713l-357 -360v-320q0 -23 -15 -38t-38 -15t-38 15t-15 38zM731 -291
q-65 13 -65 72v12q0 31 21 52.5t52 21.5q32 0 53 -22.5t21 -59.5v-12q0 -65 -10 -100t-39 -64q-25 -25 -65 -41.5t-66 -16.5q-27 0 -27 23q0 20 27 29q56 17 77 39.5t21 66.5z" />
    <glyph glyph-name="kcommaaccent" unicode="&#x137;" horiz-adv-x="1146" 
d="M190 43v1409q0 23 13.5 37t36.5 14t37 -14t14 -37v-1077l641 663q15 15 35 15t33.5 -13.5t13.5 -33.5q0 -18 -17 -35l-383 -389l410 -506q14 -14 14 -37q0 -47 -49 -47q-21 0 -43 22l-401 496l-254 -256v-211q0 -23 -13 -37t-36 -14t-37.5 14t-14.5 37zM598 -301
q-66 14 -66 72v12q0 31 21.5 52.5t52.5 21.5q32 0 53 -22.5t21 -59.5v-13q0 -64 -10 -99t-39 -64q-25 -25 -65 -41.5t-66 -16.5q-27 0 -27 23q0 19 27 28q56 17 77 40t21 67z" />
    <glyph glyph-name="Lacute" unicode="&#x139;" horiz-adv-x="1267" 
d="M213 53v1336q0 23 15 38t38 15t38 -15t15 -38v-1291h801q20 0 34.5 -14.5t14.5 -34.5t-14.5 -34.5t-34.5 -14.5h-854q-23 0 -38 15t-15 38zM291 1561q-27 0 -27 18q0 12 8 23l127 190q24 37 58 37q30 0 58 -15t28 -32q0 -14 -23 -37l-164 -158q-18 -16 -31 -21t-34 -5z
" />
    <glyph glyph-name="lacute" unicode="&#x13a;" horiz-adv-x="509" 
d="M205 43v1409q0 23 13 37t36 14t37 -14t14 -37v-1409q0 -23 -13 -37t-36 -14t-37 14t-14 37zM260 1608q-27 0 -27 18q0 11 9 23l127 190q24 37 57 37q30 0 58 -15t28 -32q0 -14 -23 -37l-163 -158q-28 -26 -66 -26z" />
    <glyph glyph-name="Lcommaaccent" unicode="&#x13b;" horiz-adv-x="1267" 
d="M213 53v1336q0 23 15 38t38 15t38 -15t15 -38v-1291h801q20 0 34.5 -14.5t14.5 -34.5t-14.5 -34.5t-34.5 -14.5h-854q-23 0 -38 15t-15 38zM668 -301q-66 14 -66 72v12q0 31 21.5 52.5t52.5 21.5q32 0 53 -22.5t21 -59.5v-13q0 -64 -10.5 -99t-39.5 -64
q-25 -25 -65 -41.5t-66 -16.5t-26 23q0 19 26 28q56 17 77.5 40t21.5 67z" />
    <glyph glyph-name="lcommaaccent" unicode="&#x13c;" horiz-adv-x="509" 
d="M205 43v1409q0 23 13 37t36 14t37 -14t14 -37v-1409q0 -23 -13 -37t-36 -14t-37 14t-14 37zM246 -301q-66 14 -66 72v12q0 31 21.5 52.5t52.5 21.5q32 0 53 -22.5t21 -59.5v-13q0 -64 -10 -99t-39 -64q-25 -25 -65.5 -41.5t-66.5 -16.5t-26 23q0 19 26 28q56 17 77.5 40
t21.5 67z" />
    <glyph glyph-name="Lcaron" unicode="&#x13d;" horiz-adv-x="1267" 
d="M213 53v1336q0 23 15 38t38 15t38 -15t15 -38v-1291h801q20 0 34.5 -14.5t14.5 -34.5t-14.5 -34.5t-34.5 -14.5h-854q-23 0 -38 15t-15 38zM520 1161l25 228q9 53 57 53h27q35 0 35 -35q0 -10 -13 -49l-67 -199q-12 -37 -35 -37q-37 0 -29 39z" />
    <glyph glyph-name="lcaron" unicode="&#x13e;" horiz-adv-x="509" 
d="M205 43v1409q0 23 13 37t36 14t37 -14t14 -37v-1409q0 -23 -13 -37t-36 -14t-37 14t-14 37zM453 1221l24 227q9 53 58 53h26q35 0 35 -35q0 -13 -12 -49l-68 -198q-12 -37 -35 -37q-36 0 -28 39z" />
    <glyph glyph-name="Ldot" unicode="&#x13f;" horiz-adv-x="1267" 
d="M213 53v1336q0 23 15 38t38 15t38 -15t15 -38v-1291h801q20 0 34.5 -14.5t14.5 -34.5t-14.5 -34.5t-34.5 -14.5h-854q-23 0 -38 15t-15 38zM1010 762v-39q0 -32 -21 -52t-53 -20t-53 20t-21 52v39q0 32 21 52t53 20t53 -20t21 -52z" />
    <glyph glyph-name="ldot" unicode="&#x140;" horiz-adv-x="632" 
d="M647 766v-35q0 -31 -21.5 -52.5t-52.5 -21.5t-52 21.5t-21 52.5v35q0 31 21 52.5t52 21.5t52.5 -21.5t21.5 -52.5zM205 43v1409q0 23 13 37t36 14t37 -14t14 -37v-1409q0 -23 -13 -37t-36 -14t-37 14t-14 37z" />
    <glyph glyph-name="Lslash" unicode="&#x141;" horiz-adv-x="1329" 
d="M813 813l-434 -135v-580h803q20 0 34.5 -14.5t14.5 -34.5t-14.5 -34.5t-34.5 -14.5h-854q-23 0 -38.5 15t-15.5 38v594l-86 -26q-28 -7 -30 -7q-20 0 -32.5 13.5t-12.5 34.5q0 36 34 45l127 38v644q0 23 15.5 38t38.5 15t37 -15t14 -38v-613l393 123q24 6 31 6
q20 0 32.5 -13.5t12.5 -33.5q0 -36 -35 -45z" />
    <glyph glyph-name="lslash" unicode="&#x142;" horiz-adv-x="632" 
d="M496 760l-129 -41v-676q0 -23 -13.5 -37t-36.5 -14t-37 14t-14 37v645l-88 -26q-28 -7 -31 -7q-20 0 -32.5 13.5t-12.5 33.5q0 37 35 46q22 4 35 10q26 7 94 30v664q0 23 13 37t36 14t37.5 -14t14.5 -37v-633l88 27q24 6 30 6q20 0 32.5 -13.5t12.5 -33.5q0 -36 -34 -45z
" />
    <glyph glyph-name="Nacute" unicode="&#x143;" horiz-adv-x="1617" 
d="M213 43v1343q0 23 15 38.5t38 15.5h17q28 0 53 -31l967 -1227v1209q0 23 14 37t37 14t37 -14t14 -37v-1352q0 -19 -12 -32t-31 -13h-8q-30 0 -54 35l-985 1249v-1235q0 -23 -14 -37t-37 -14t-37 14t-14 37zM807 1561q-27 0 -27 18q0 12 8 23l127 190q24 37 58 37
q30 0 58 -15t28 -32q0 -14 -23 -37l-164 -158q-18 -16 -31 -21t-34 -5z" />
    <glyph glyph-name="nacute" unicode="&#x144;" horiz-adv-x="1255" 
d="M190 43v958q0 23 13.5 37.5t36.5 14.5t37 -14.5t14 -37.5v-151q128 219 377 219q195 0 306 -118.5t111 -311.5v-596q0 -23 -13 -37t-36 -14t-37 14t-14 37v578q0 164 -87 260t-245 96q-155 0 -258.5 -105t-103.5 -268v-561q0 -23 -13 -37t-36 -14t-37.5 14t-14.5 37z
M635 1212q-27 0 -27 19q0 11 8 22l127 191q24 37 58 37q30 0 58 -15t28 -32q0 -14 -23 -37l-164 -158q-29 -27 -65 -27z" />
    <glyph glyph-name="Ncommaaccent" unicode="&#x145;" horiz-adv-x="1617" 
d="M213 43v1343q0 23 15 38.5t38 15.5h17q28 0 53 -31l967 -1227v1209q0 23 14 37t37 14t37 -14t14 -37v-1352q0 -19 -12 -32t-31 -13h-8q-30 0 -54 35l-985 1249v-1235q0 -23 -14 -37t-37 -14t-37 14t-14 37zM799 -291q-66 14 -66 72v12q0 31 21.5 52.5t52.5 21.5
q32 0 53 -22.5t21 -59.5v-12q0 -64 -10.5 -99.5t-39.5 -64.5q-25 -25 -65 -41.5t-66 -16.5t-26 23q0 20 26 29q56 17 77.5 39.5t21.5 66.5z" />
    <glyph glyph-name="ncommaaccent" unicode="&#x146;" horiz-adv-x="1255" 
d="M190 43v958q0 23 13.5 37.5t36.5 14.5t37 -14.5t14 -37.5v-151q128 219 377 219q195 0 306 -118.5t111 -311.5v-596q0 -23 -13 -37t-36 -14t-37 14t-14 37v578q0 164 -87 260t-245 96q-155 0 -258.5 -105t-103.5 -268v-561q0 -23 -13 -37t-36 -14t-37.5 14t-14.5 37z
M627 -301q-66 14 -66 72v12q0 31 21.5 52.5t52.5 21.5q32 0 53 -22.5t21 -59.5v-13q0 -64 -10.5 -99t-39.5 -64q-25 -25 -65 -41.5t-66 -16.5t-26 23q0 19 26 28q56 17 77.5 40t21.5 67z" />
    <glyph glyph-name="Ncaron" unicode="&#x147;" horiz-adv-x="1617" 
d="M213 43v1343q0 23 15 38.5t38 15.5h17q28 0 53 -31l967 -1227v1209q0 23 14 37t37 14t37 -14t14 -37v-1352q0 -19 -12 -32t-31 -13h-8q-30 0 -54 35l-985 1249v-1235q0 -23 -14 -37t-37 -14t-37 14t-14 37zM811 1677l129 119q29 27 66 27q26 0 26 -21q0 -11 -10 -24
l-148 -181q-28 -36 -57 -36h-16q-30 0 -58 36l-147 181q-10 13 -10 24q0 21 28 21q39 0 68 -27z" />
    <glyph glyph-name="ncaron" unicode="&#x148;" horiz-adv-x="1255" 
d="M190 43v958q0 23 13.5 37.5t36.5 14.5t37 -14.5t14 -37.5v-151q128 219 377 219q195 0 306 -118.5t111 -311.5v-596q0 -23 -13 -37t-36 -14t-37 14t-14 37v578q0 164 -87 260t-245 96q-155 0 -258.5 -105t-103.5 -268v-561q0 -23 -13 -37t-36 -14t-37.5 14t-14.5 37z
M639 1329l129 119q29 27 66 27q26 0 26 -21q0 -11 -10 -24l-148 -181q-29 -37 -57 -37h-16q-29 0 -58 37l-147 181q-10 13 -10 24q0 21 28 21q39 0 68 -27z" />
    <glyph glyph-name="Omacron" unicode="&#x14c;" horiz-adv-x="1740" 
d="M868 -25q-158 0 -294.5 60.5t-228 162t-143.5 235.5t-52 280v4q0 147 52.5 281.5t145 236.5t229.5 162.5t295 60.5q127 0 241 -39t200 -108t149.5 -161.5t96 -202t32.5 -226.5v-4q0 -147 -52.5 -281.5t-145.5 -236.5t-230 -163t-295 -61zM872 72q130 0 244 50.5
t193.5 137t125.5 204.5t46 249v4q0 131 -46.5 250t-127 205.5t-195 138t-244.5 51.5q-173 0 -313 -86t-217.5 -232.5t-77.5 -322.5v-4q0 -176 78.5 -323.5t219.5 -234.5t314 -87zM1141 1640h-541q-20 0 -34.5 15t-14.5 35t14.5 34.5t34.5 14.5h541q20 0 34.5 -14.5
t14.5 -34.5t-14.5 -35t-34.5 -15z" />
    <glyph glyph-name="omacron" unicode="&#x14d;" horiz-adv-x="1310" 
d="M653 -25q-113 0 -213 44t-170 117.5t-110.5 173t-40.5 208.5v4q0 109 41 209t111 174.5t171 119t215 44.5q151 0 274.5 -74.5t192 -198.5t68.5 -270v-4q0 -146 -69 -271t-193.5 -200.5t-276.5 -75.5zM657 70q121 0 219.5 60.5t152.5 163t54 224.5v4q0 191 -124.5 322
t-305.5 131q-183 0 -304.5 -131t-121.5 -318v-4q0 -191 124.5 -321.5t305.5 -130.5zM926 1272h-541q-20 0 -34.5 14.5t-14.5 34.5t14.5 34.5t34.5 14.5h541q20 0 34.5 -14.5t14.5 -34.5t-14.5 -34.5t-34.5 -14.5z" />
    <glyph glyph-name="Obreve" unicode="&#x14e;" horiz-adv-x="1740" 
d="M868 -25q-158 0 -294.5 60.5t-228 162t-143.5 235.5t-52 280v4q0 147 52.5 281.5t145 236.5t229.5 162.5t295 60.5q127 0 241 -39t200 -108t149.5 -161.5t96 -202t32.5 -226.5v-4q0 -147 -52.5 -281.5t-145.5 -236.5t-230 -163t-295 -61zM872 72q130 0 244 50.5
t193.5 137t125.5 204.5t46 249v4q0 131 -46.5 250t-127 205.5t-195 138t-244.5 51.5q-173 0 -313 -86t-217.5 -232.5t-77.5 -322.5v-4q0 -176 78.5 -323.5t219.5 -234.5t314 -87zM870 1583q-169 0 -243 139q-23 38 -23 78q0 45 39 45q31 0 43 -35q46 -122 184 -122
q139 0 185 122q12 35 43 35q39 0 39 -45q0 -40 -23 -78q-74 -139 -244 -139z" />
    <glyph glyph-name="obreve" unicode="&#x14f;" horiz-adv-x="1310" 
d="M653 -25q-113 0 -213 44t-170 117.5t-110.5 173t-40.5 208.5v4q0 109 41 209t111 174.5t171 119t215 44.5q151 0 274.5 -74.5t192 -198.5t68.5 -270v-4q0 -146 -69 -271t-193.5 -200.5t-276.5 -75.5zM657 70q121 0 219.5 60.5t152.5 163t54 224.5v4q0 191 -124.5 322
t-305.5 131q-183 0 -304.5 -131t-121.5 -318v-4q0 -191 124.5 -321.5t305.5 -130.5zM655 1214q-168 0 -243 140q-23 38 -23 78q0 45 39 45q31 0 43 -35q46 -123 184 -123q139 0 185 123q12 35 43 35q39 0 39 -45q0 -40 -23 -78q-75 -140 -244 -140z" />
    <glyph glyph-name="Ohungarumlaut" unicode="&#x150;" horiz-adv-x="1740" 
d="M868 -25q-158 0 -294.5 60.5t-228 162t-143.5 235.5t-52 280v4q0 147 52.5 281.5t145 236.5t229.5 162.5t295 60.5q127 0 241 -39t200 -108t149.5 -161.5t96 -202t32.5 -226.5v-4q0 -147 -52.5 -281.5t-145.5 -236.5t-230 -163t-295 -61zM872 72q130 0 244 50.5
t193.5 137t125.5 204.5t46 249v4q0 131 -46.5 250t-127 205.5t-195 138t-244.5 51.5q-173 0 -313 -86t-217.5 -232.5t-77.5 -322.5v-4q0 -176 78.5 -323.5t219.5 -234.5t314 -87zM997 1581q-26 0 -26 18q0 12 8 23l129 193q21 34 55 34q30 0 55 -14t25 -31q0 -15 -20 -35
l-160 -161q-29 -27 -66 -27zM686 1581q-27 0 -27 18q0 11 9 23l129 193q21 34 55 34q30 0 55 -14t25 -31q0 -14 -21 -35l-159 -161q-29 -27 -66 -27z" />
    <glyph glyph-name="ohungarumlaut" unicode="&#x151;" horiz-adv-x="1310" 
d="M653 -25q-113 0 -213 44t-170 117.5t-110.5 173t-40.5 208.5v4q0 109 41 209t111 174.5t171 119t215 44.5q151 0 274.5 -74.5t192 -198.5t68.5 -270v-4q0 -146 -69 -271t-193.5 -200.5t-276.5 -75.5zM657 70q121 0 219.5 60.5t152.5 163t54 224.5v4q0 191 -124.5 322
t-305.5 131q-183 0 -304.5 -131t-121.5 -318v-4q0 -191 124.5 -321.5t305.5 -130.5zM782 1212q-26 0 -26 19q0 11 8 22l129 193q21 35 55 35q30 0 55 -14t25 -31q0 -15 -20 -35l-160 -162q-29 -27 -66 -27zM471 1212q-27 0 -27 19q0 10 9 22l129 193q21 35 55 35
q30 0 55 -14t25 -31q0 -14 -21 -35l-159 -162q-29 -27 -66 -27z" />
    <glyph glyph-name="OE" unicode="&#x152;" horiz-adv-x="2359" 
d="M2189 0h-1278q-222 0 -396 93t-269.5 255.5t-95.5 364.5v4q0 150 56 282t155 228t241.5 151.5t308.5 55.5h1268q20 0 34.5 -15t14.5 -35t-14.5 -34.5t-34.5 -14.5h-842v-563h750q20 0 34.5 -14.5t14.5 -34.5t-14.5 -34.5t-34.5 -14.5h-750v-576h852q20 0 34.5 -14.5
t14.5 -34.5t-14.5 -34.5t-34.5 -14.5zM911 98h320v1237h-320q-146 0 -269.5 -48t-206.5 -131t-129 -195t-46 -240v-4q0 -126 46 -239t129 -197.5t206.5 -133.5t269.5 -49z" />
    <glyph glyph-name="oe" unicode="&#x153;" horiz-adv-x="2160" 
d="M1190 571h760q-6 81 -32 152.5t-71 129t-115 91t-157 33.5q-155 0 -264 -116t-121 -290zM657 70q121 0 219.5 60.5t152.5 163t54 224.5v4q0 191 -124.5 322t-305.5 131q-183 0 -304.5 -131t-121.5 -318v-4q0 -191 124.5 -321.5t305.5 -130.5zM2003 145q-84 -84 -179 -127
t-225 -43q-154 0 -278 86.5t-186 235.5q-64 -144 -192 -233t-292 -89q-149 0 -272 74.5t-191.5 199t-68.5 269.5v4q0 145 69.5 270.5t193.5 201t273 75.5q162 0 289 -88t191 -231q58 145 176.5 232t269.5 87q141 0 251 -72.5t168 -195.5t58 -273q0 -19 -15 -33t-34 -14h-819
q12 -188 130.5 -299.5t278.5 -111.5q192 0 338 143q14 14 33 14q20 0 34.5 -13.5t14.5 -33.5q0 -19 -16 -35z" />
    <glyph glyph-name="Racute" unicode="&#x154;" horiz-adv-x="1480" 
d="M213 45v1335q0 23 15 38.5t38 15.5h549q262 0 404 -142q108 -108 108 -266v-4q0 -173 -115.5 -278.5t-304.5 -131.5l408 -528q16 -22 16 -37q0 -23 -16 -39t-39 -16q-25 0 -47 28l-441 574h-469v-549q0 -23 -15 -38t-38 -15t-38 15t-15 38zM319 690h484q184 0 301 88.5
t117 239.5v4q0 147 -108 230t-304 83h-490v-645zM717 1561q-27 0 -27 18q0 12 8 23l127 190q24 37 58 37q30 0 58 -15t28 -32q0 -14 -23 -37l-164 -158q-18 -16 -31 -21t-34 -5z" />
    <glyph glyph-name="racute" unicode="&#x155;" horiz-adv-x="819" 
d="M190 43v958q0 23 13.5 37.5t36.5 14.5t37 -14.5t14 -37.5v-253q63 145 183.5 229t236.5 84q23 0 38 -16t15 -39q0 -24 -14.5 -39.5t-38.5 -16.5q-85 -9 -159 -44.5t-133.5 -97.5t-93.5 -159.5t-34 -220.5v-385q0 -23 -13 -37t-36 -14t-37.5 14t-14.5 37zM432 1212
q-26 0 -26 19q0 11 8 22l127 191q24 37 57 37q30 0 58 -15t28 -32q0 -15 -22 -37l-164 -158q-29 -27 -66 -27z" />
    <glyph glyph-name="Rcommaaccent" unicode="&#x156;" horiz-adv-x="1480" 
d="M213 45v1335q0 23 15 38.5t38 15.5h549q262 0 404 -142q108 -108 108 -266v-4q0 -173 -115.5 -278.5t-304.5 -131.5l408 -528q16 -22 16 -37q0 -23 -16 -39t-39 -16q-25 0 -47 28l-441 574h-469v-549q0 -23 -15 -38t-38 -15t-38 15t-15 38zM319 690h484q184 0 301 88.5
t117 239.5v4q0 147 -108 230t-304 83h-490v-645zM709 -291q-66 14 -66 72v12q0 31 21.5 52.5t52.5 21.5q32 0 53 -22.5t21 -59.5v-12q0 -64 -10.5 -99.5t-39.5 -64.5q-25 -25 -65 -41.5t-66 -16.5t-26 23q0 20 26 29q56 17 77.5 39.5t21.5 66.5z" />
    <glyph glyph-name="rcommaaccent" unicode="&#x157;" horiz-adv-x="819" 
d="M190 43v958q0 23 13.5 37.5t36.5 14.5t37 -14.5t14 -37.5v-253q63 145 183.5 229t236.5 84q23 0 38 -16t15 -39q0 -24 -14.5 -39.5t-38.5 -16.5q-85 -9 -159 -44.5t-133.5 -97.5t-93.5 -159.5t-34 -220.5v-385q0 -23 -13 -37t-36 -14t-37.5 14t-14.5 37zM250 -301
q-66 14 -66 72v12q0 31 21.5 52.5t52.5 21.5q32 0 53 -22.5t21 -59.5v-13q0 -64 -10 -99t-39 -64q-25 -25 -65 -41.5t-66 -16.5q-27 0 -27 23q0 19 27 28q56 17 77 40t21 67z" />
    <glyph glyph-name="Rcaron" unicode="&#x158;" horiz-adv-x="1480" 
d="M213 45v1335q0 23 15 38.5t38 15.5h549q262 0 404 -142q108 -108 108 -266v-4q0 -173 -115.5 -278.5t-304.5 -131.5l408 -528q16 -22 16 -37q0 -23 -16 -39t-39 -16q-25 0 -47 28l-441 574h-469v-549q0 -23 -15 -38t-38 -15t-38 15t-15 38zM319 690h484q184 0 301 88.5
t117 239.5v4q0 147 -108 230t-304 83h-490v-645zM721 1677l129 119q29 27 65 27q27 0 27 -21q0 -11 -10 -24l-148 -181q-28 -36 -57 -36h-16q-30 0 -58 36l-147 181q-10 13 -10 24q0 21 28 21q39 0 68 -27z" />
    <glyph glyph-name="rcaron" unicode="&#x159;" horiz-adv-x="819" 
d="M190 43v958q0 23 13.5 37.5t36.5 14.5t37 -14.5t14 -37.5v-253q63 145 183.5 229t236.5 84q23 0 38 -16t15 -39q0 -24 -14.5 -39.5t-38.5 -16.5q-85 -9 -159 -44.5t-133.5 -97.5t-93.5 -159.5t-34 -220.5v-385q0 -23 -13 -37t-36 -14t-37.5 14t-14.5 37zM436 1329
l129 119q29 27 66 27q26 0 26 -21q0 -11 -10 -24l-147 -181q-29 -37 -58 -37h-16q-28 0 -57 37l-148 181q-10 13 -10 24q0 21 29 21q38 0 67 -27z" />
    <glyph glyph-name="Sacute" unicode="&#x15a;" horiz-adv-x="1310" 
d="M698 -20q-158 0 -288 49t-256 151q-21 17 -21 41q0 23 15 38t38 15q20 0 35 -12q106 -97 221.5 -141.5t262.5 -44.5q160 0 261 80t101 204v5q0 80 -32.5 133t-122 96t-250.5 76q-260 54 -372 146.5t-112 256.5v4q0 161 131 269t330 108q142 0 249 -35.5t208 -111.5
q22 -18 22 -43q0 -23 -15 -38.5t-38 -15.5q-19 0 -35 13q-176 135 -395 135q-156 0 -253 -79t-97 -192v-4q0 -61 17.5 -104.5t63.5 -82.5t127.5 -69t208.5 -57q250 -51 361 -144t111 -251v-4q0 -172 -134 -281.5t-342 -109.5zM670 1581q-27 0 -27 18q0 12 8 23l127 190
q24 37 58 37q30 0 58 -15t28 -32q0 -14 -23 -37l-164 -157q-29 -27 -65 -27z" />
    <glyph glyph-name="sacute" unicode="&#x15b;" horiz-adv-x="1017" 
d="M528 -20q-105 0 -214.5 37t-190.5 98q-19 14 -19 39q0 20 15 34.5t35 14.5q15 0 32 -10q165 -119 349 -119q108 0 179.5 54t71.5 144v4q0 30 -9.5 55t-30.5 44.5t-42.5 34.5t-58 29.5t-64 23.5t-71.5 22q-159 45 -221 79q-137 73 -137 208v4q0 126 96 207.5t248 81.5
q173 0 338 -94q26 -15 26 -45q0 -20 -14.5 -34.5t-34.5 -14.5q-18 0 -29 8q-141 86 -290 86q-107 0 -172.5 -52t-65.5 -131v-4q0 -17 3.5 -32.5t13 -29.5t17.5 -24.5t26 -22t28.5 -19t36 -18t37 -15t42.5 -14.5t42 -13.5t45 -13.5q51 -15 84.5 -26.5t78 -30t73 -39.5
t55.5 -49.5t40 -65.5t13 -82v-4q0 -137 -103 -221t-258 -84zM514 1212q-27 0 -27 19q0 10 9 22l127 191q24 37 57 37q30 0 58 -15t28 -32q0 -14 -23 -37l-163 -158q-29 -27 -66 -27z" />
    <glyph glyph-name="Scedilla" unicode="&#x15e;" horiz-adv-x="1310" 
d="M1174 375v-4q0 -165 -124.5 -273t-320.5 -116l-113 -232q-9 -16 -13.5 -22.5t-14.5 -12.5t-25 -6q-25 0 -47 16t-22 33q0 11 10 31l131 193q-140 10 -255 57.5t-226 140.5q-21 17 -21 41q0 23 15 38t38 15q20 0 35 -12q106 -97 221.5 -141.5t262.5 -44.5q160 0 261 80
t101 204v5q0 80 -32.5 133t-122 96t-250.5 76q-260 54 -372 146.5t-112 256.5v4q0 161 131 269t330 108q142 0 249 -35.5t208 -111.5q22 -18 22 -43q0 -23 -15 -38.5t-38 -15.5q-19 0 -35 13q-176 135 -395 135q-156 0 -253 -79t-97 -192v-4q0 -61 17.5 -104.5t63.5 -82.5
t127.5 -69t208.5 -57q250 -51 361 -144t111 -251z" />
    <glyph glyph-name="scedilla" unicode="&#x15f;" horiz-adv-x="1017" 
d="M889 289v-4q0 -131 -98 -215.5t-244 -89.5l-113 -230q-9 -16 -13.5 -22.5t-14.5 -12.5t-25 -6q-25 0 -47.5 16t-22.5 33q0 9 11 31l133 197q-194 22 -332 129q-19 14 -19 39q0 20 15 34.5t35 14.5q15 0 32 -10q165 -119 349 -119q108 0 179.5 54t71.5 144v4q0 30 -9.5 55
t-30.5 44.5t-42.5 34.5t-58 29.5t-64 23.5t-71.5 22q-159 45 -221 79q-137 73 -137 208v4q0 126 96 207.5t248 81.5q173 0 338 -94q26 -15 26 -45q0 -20 -14.5 -34.5t-34.5 -14.5q-18 0 -29 8q-141 86 -290 86q-107 0 -172.5 -52t-65.5 -131v-4q0 -17 3.5 -32.5t13 -29.5
t17.5 -24.5t26 -22t28.5 -19t36 -18t37 -15t42.5 -14.5t42 -13.5t45 -13.5q51 -15 84.5 -26.5t78 -30t73 -39.5t55.5 -49.5t40 -65.5t13 -82z" />
    <glyph glyph-name="Scaron" unicode="&#x160;" horiz-adv-x="1310" 
d="M698 -20q-158 0 -288 49t-256 151q-21 17 -21 41q0 23 15 38t38 15q20 0 35 -12q106 -97 221.5 -141.5t262.5 -44.5q160 0 261 80t101 204v5q0 80 -32.5 133t-122 96t-250.5 76q-260 54 -372 146.5t-112 256.5v4q0 161 131 269t330 108q142 0 249 -35.5t208 -111.5
q22 -18 22 -43q0 -23 -15 -38.5t-38 -15.5q-19 0 -35 13q-176 135 -395 135q-156 0 -253 -79t-97 -192v-4q0 -61 17.5 -104.5t63.5 -82.5t127.5 -69t208.5 -57q250 -51 361 -144t111 -251v-4q0 -172 -134 -281.5t-342 -109.5zM674 1698l129 119q18 16 31 21t34 5
q27 0 27 -20q0 -12 -10 -25l-148 -180q-29 -37 -57 -37h-16q-29 0 -58 37l-147 180q-10 13 -10 25q0 20 28 20q40 0 68 -26z" />
    <glyph glyph-name="scaron" unicode="&#x161;" horiz-adv-x="1017" 
d="M528 -20q-105 0 -214.5 37t-190.5 98q-19 14 -19 39q0 20 15 34.5t35 14.5q15 0 32 -10q165 -119 349 -119q108 0 179.5 54t71.5 144v4q0 30 -9.5 55t-30.5 44.5t-42.5 34.5t-58 29.5t-64 23.5t-71.5 22q-159 45 -221 79q-137 73 -137 208v4q0 126 96 207.5t248 81.5
q173 0 338 -94q26 -15 26 -45q0 -20 -14.5 -34.5t-34.5 -14.5q-18 0 -29 8q-141 86 -290 86q-107 0 -172.5 -52t-65.5 -131v-4q0 -17 3.5 -32.5t13 -29.5t17.5 -24.5t26 -22t28.5 -19t36 -18t37 -15t42.5 -14.5t42 -13.5t45 -13.5q51 -15 84.5 -26.5t78 -30t73 -39.5
t55.5 -49.5t40 -65.5t13 -82v-4q0 -137 -103 -221t-258 -84zM518 1329l129 119q29 27 66 27q26 0 26 -21q0 -11 -10 -24l-147 -181q-29 -37 -58 -37h-16q-28 0 -57 37l-148 181q-10 13 -10 24q0 21 29 21q38 0 67 -27z" />
    <glyph glyph-name="Tcommaaccent" unicode="&#x162;" horiz-adv-x="1327" 
d="M610 45v1290h-458q-20 0 -35 14.5t-15 34.5t15 35t35 15h1024q20 0 34.5 -15t14.5 -35t-14.5 -34.5t-34.5 -14.5h-459v-1290q0 -23 -15 -38t-38 -15t-38.5 15t-15.5 38zM653 -301q-65 13 -65 72v12q0 31 21.5 52.5t52.5 21.5q32 0 52.5 -22.5t20.5 -59.5v-13
q0 -64 -10 -99t-39 -64q-25 -25 -65 -41.5t-66 -16.5q-27 0 -27 23q0 19 27 28q56 17 77 40t21 67z" />
    <glyph glyph-name="Tcommaaccent" unicode="&#x21a;" horiz-adv-x="1327" 
d="M610 45v1290h-458q-20 0 -35 14.5t-15 34.5t15 35t35 15h1024q20 0 34.5 -15t14.5 -35t-14.5 -34.5t-34.5 -14.5h-459v-1290q0 -23 -15 -38t-38 -15t-38.5 15t-15.5 38zM653 -301q-65 13 -65 72v12q0 31 21.5 52.5t52.5 21.5q32 0 52.5 -22.5t20.5 -59.5v-13
q0 -64 -10 -99t-39 -64q-25 -25 -65 -41.5t-66 -16.5q-27 0 -27 23q0 19 27 28q56 17 77 40t21 67z" />
    <glyph glyph-name="tcommaaccent" unicode="&#x163;" horiz-adv-x="819" 
d="M539 -18q-131 0 -212 72t-81 214v684h-113q-19 0 -33 14t-14 33t14 32t33 13h113v291q0 23 13 37t36 14t37 -14t14 -37v-291h328q19 0 33 -14t14 -33t-14 -32t-33 -13h-328v-673q0 -203 209 -203q32 0 58 5t41.5 10t19.5 5q18 0 31.5 -13.5t13.5 -31.5q0 -32 -33 -43
q-76 -26 -147 -26zM455 -301q-66 14 -66 72v12q0 31 21.5 52.5t52.5 21.5q32 0 53 -22.5t21 -59.5v-13q0 -64 -10.5 -99t-39.5 -64q-25 -25 -65 -41.5t-66 -16.5t-26 23q0 19 26 28q56 17 77.5 40t21.5 67z" />
    <glyph glyph-name="tcommaaccent" unicode="&#x21b;" horiz-adv-x="819" 
d="M539 -18q-131 0 -212 72t-81 214v684h-113q-19 0 -33 14t-14 33t14 32t33 13h113v291q0 23 13 37t36 14t37 -14t14 -37v-291h328q19 0 33 -14t14 -33t-14 -32t-33 -13h-328v-673q0 -203 209 -203q32 0 58 5t41.5 10t19.5 5q18 0 31.5 -13.5t13.5 -31.5q0 -32 -33 -43
q-76 -26 -147 -26zM455 -301q-66 14 -66 72v12q0 31 21.5 52.5t52.5 21.5q32 0 53 -22.5t21 -59.5v-13q0 -64 -10.5 -99t-39.5 -64q-25 -25 -65 -41.5t-66 -16.5t-26 23q0 19 26 28q56 17 77.5 40t21.5 67z" />
    <glyph glyph-name="Tcaron" unicode="&#x164;" horiz-adv-x="1327" 
d="M610 45v1290h-458q-20 0 -35 14.5t-15 34.5t15 35t35 15h1024q20 0 34.5 -15t14.5 -35t-14.5 -34.5t-34.5 -14.5h-459v-1290q0 -23 -15 -38t-38 -15t-38.5 15t-15.5 38zM666 1677l129 119q29 27 65 27q27 0 27 -21q0 -11 -10 -24l-148 -181q-28 -36 -57 -36h-17
q-29 0 -57 36l-147 181q-11 15 -11 24q0 21 29 21q39 0 68 -27z" />
    <glyph glyph-name="tcaron" unicode="&#x165;" horiz-adv-x="819" 
d="M539 -18q-131 0 -212 72t-81 214v684h-113q-19 0 -33 14t-14 33t14 32t33 13h113v291q0 23 13 37t36 14t37 -14t14 -37v-291h328q19 0 33 -14t14 -33t-14 -32t-33 -13h-328v-673q0 -203 209 -203q32 0 58 5t41.5 10t19.5 5q18 0 31.5 -13.5t13.5 -31.5q0 -32 -33 -43
q-76 -26 -147 -26zM594 1221l24 227q9 53 58 53h26q35 0 35 -35q0 -13 -12 -49l-68 -198q-12 -37 -34 -37q-37 0 -29 39z" />
    <glyph glyph-name="Umacron" unicode="&#x16a;" horiz-adv-x="1556" 
d="M778 -23q-129 0 -237 41t-186 118t-121.5 194.5t-43.5 265.5v793q0 23 15.5 38t38.5 15t38 -15t15 -38v-783q0 -255 127.5 -393.5t357.5 -138.5q222 0 350 134t128 388v793q0 23 15 38t38 15t38 -15t15 -38v-781q0 -301 -160.5 -466t-427.5 -165zM1049 1620h-541
q-20 0 -34.5 14.5t-14.5 34.5t14.5 34.5t34.5 14.5h541q20 0 34.5 -14.5t14.5 -34.5t-14.5 -34.5t-34.5 -14.5z" />
    <glyph glyph-name="umacron" unicode="&#x16b;" horiz-adv-x="1255" 
d="M1065 1001v-958q0 -23 -13 -37t-36 -14t-37 14t-14 37v152q-129 -220 -377 -220q-195 0 -306.5 119t-111.5 312v595q0 24 13 38t36 14t37 -14.5t14 -37.5v-577q0 -164 87 -260t245 -96q155 0 259 104.5t104 267.5v561q0 24 13 38t36 14t37 -14.5t14 -37.5zM887 1272h-541
q-20 0 -34.5 14.5t-14.5 34.5t14.5 34.5t34.5 14.5h541q20 0 34.5 -14.5t14.5 -34.5t-14.5 -34.5t-34.5 -14.5z" />
    <glyph glyph-name="Ubreve" unicode="&#x16c;" horiz-adv-x="1556" 
d="M778 -23q-129 0 -237 41t-186 118t-121.5 194.5t-43.5 265.5v793q0 23 15.5 38t38.5 15t38 -15t15 -38v-783q0 -255 127.5 -393.5t357.5 -138.5q222 0 350 134t128 388v793q0 23 15 38t38 15t38 -15t15 -38v-781q0 -301 -160.5 -466t-427.5 -165zM778 1563
q-169 0 -243 139q-23 38 -23 78q0 45 39 45q31 0 43 -35q46 -123 184 -123q139 0 185 123q12 35 43 35q38 0 38 -45q0 -42 -22 -78q-74 -139 -244 -139z" />
    <glyph glyph-name="ubreve" unicode="&#x16d;" horiz-adv-x="1255" 
d="M1065 1001v-958q0 -23 -13 -37t-36 -14t-37 14t-14 37v152q-129 -220 -377 -220q-195 0 -306.5 119t-111.5 312v595q0 24 13 38t36 14t37 -14.5t14 -37.5v-577q0 -164 87 -260t245 -96q155 0 259 104.5t104 267.5v561q0 24 13 38t36 14t37 -14.5t14 -37.5zM616 1214
q-168 0 -243 140q-23 38 -23 78q0 45 39 45q31 0 43 -35q46 -123 184 -123q139 0 185 123q12 35 43 35q39 0 39 -45q0 -40 -23 -78q-75 -140 -244 -140z" />
    <glyph glyph-name="Uring" unicode="&#x16e;" horiz-adv-x="1556" 
d="M778 -23q-129 0 -237 41t-186 118t-121.5 194.5t-43.5 265.5v793q0 23 15.5 38t38.5 15t38 -15t15 -38v-783q0 -255 127.5 -393.5t357.5 -138.5q222 0 350 134t128 388v793q0 23 15 38t38 15t38 -15t15 -38v-781q0 -301 -160.5 -466t-427.5 -165zM778 1542
q-80 0 -140 56.5t-60 134.5v4q0 77 60 133.5t140 56.5t140.5 -56.5t60.5 -133.5v-4q0 -77 -60.5 -134t-140.5 -57zM778 1608q51 0 89 37t38 88v4q0 51 -36.5 88t-90.5 37t-90.5 -37t-36.5 -88v-4q0 -51 38 -88t89 -37z" />
    <glyph glyph-name="uring" unicode="&#x16f;" horiz-adv-x="1255" 
d="M1065 1001v-958q0 -23 -13 -37t-36 -14t-37 14t-14 37v152q-129 -220 -377 -220q-195 0 -306.5 119t-111.5 312v595q0 24 13 38t36 14t37 -14.5t14 -37.5v-577q0 -164 87 -260t245 -96q155 0 259 104.5t104 267.5v561q0 24 13 38t36 14t37 -14.5t14 -37.5zM616 1206
q-80 0 -140 56.5t-60 134.5v4q0 77 60 133.5t140 56.5t140.5 -56.5t60.5 -133.5v-4q0 -77 -60.5 -134t-140.5 -57zM616 1272q51 0 89 37t38 88v4q0 51 -36.5 88t-90.5 37t-90.5 -37t-36.5 -88v-4q0 -51 38 -88t89 -37z" />
    <glyph glyph-name="Uhungarumlaut" unicode="&#x170;" horiz-adv-x="1556" 
d="M778 -23q-129 0 -237 41t-186 118t-121.5 194.5t-43.5 265.5v793q0 23 15.5 38t38.5 15t38 -15t15 -38v-783q0 -255 127.5 -393.5t357.5 -138.5q222 0 350 134t128 388v793q0 23 15 38t38 15t38 -15t15 -38v-781q0 -301 -160.5 -466t-427.5 -165zM905 1561q-26 0 -26 18
q0 12 8 23l129 192q21 35 55 35q30 0 55 -14t25 -31q0 -14 -21 -35l-159 -162q-28 -26 -66 -26zM594 1561q-27 0 -27 18q0 12 8 23l130 192q21 35 55 35q30 0 55 -14t25 -31q0 -14 -21 -35l-160 -162q-18 -16 -31 -21t-34 -5z" />
    <glyph glyph-name="uhungarumlaut" unicode="&#x171;" horiz-adv-x="1255" 
d="M1065 1001v-958q0 -23 -13 -37t-36 -14t-37 14t-14 37v152q-129 -220 -377 -220q-195 0 -306.5 119t-111.5 312v595q0 24 13 38t36 14t37 -14.5t14 -37.5v-577q0 -164 87 -260t245 -96q155 0 259 104.5t104 267.5v561q0 24 13 38t36 14t37 -14.5t14 -37.5zM743 1212
q-26 0 -26 19q0 11 8 22l129 193q21 35 55 35q30 0 55 -14t25 -31q0 -15 -20 -35l-160 -162q-29 -27 -66 -27zM432 1212q-26 0 -26 19q0 11 8 22l129 193q21 35 55 35q30 0 55 -14t25 -31q0 -14 -21 -35l-159 -162q-29 -27 -66 -27z" />
    <glyph glyph-name="Uogonek" unicode="&#x172;" horiz-adv-x="1556" 
d="M637 -174q0 80 82 156q-240 18 -384.5 178t-144.5 436v793q0 23 15.5 38t38.5 15t38 -15t15 -38v-783q0 -255 127.5 -393.5t357.5 -138.5q222 0 350 134t128 388v793q0 23 15 38t38 15t38 -15t15 -38v-781q0 -287 -145 -448.5t-392 -179.5q-49 -43 -69.5 -74t-20.5 -68
q0 -40 27.5 -61.5t81.5 -32.5q32 -6 43.5 -15t11.5 -26q0 -37 -41 -37q-16 0 -38.5 3t-57 13t-62 26.5t-47.5 47t-20 70.5z" />
    <glyph glyph-name="uogonek" unicode="&#x173;" horiz-adv-x="1255" 
d="M1065 1001v-966q0 -30 -29 -53q-52 -45 -73 -75t-21 -69q0 -40 27.5 -61.5t81.5 -32.5q32 -6 43.5 -15t11.5 -26q0 -37 -41 -37q-16 0 -38.5 3t-57 13t-62 26.5t-47.5 47t-20 70.5q0 52 30.5 96.5t94.5 93.5v177q-130 -218 -377 -218q-195 0 -306.5 119t-111.5 312v595
q0 24 13 38t36 14t37 -14.5t14 -37.5v-577q0 -164 87 -260t245 -96q155 0 259 104.5t104 267.5v561q0 24 13 38t36 14t37 -14.5t14 -37.5z" />
    <glyph glyph-name="Wcircumflex" unicode="&#x174;" horiz-adv-x="2256" 
d="M608 31l-479 1329q-6 15 -6 26q0 23 16 39.5t39 16.5q42 0 58 -49l436 -1235l407 1243q14 41 51 41h5q37 0 51 -41l407 -1243l439 1241q15 43 51 43q20 0 36.5 -16.5t16.5 -36.5q0 -10 -8 -29l-479 -1329q-17 -47 -56 -47h-4q-41 0 -55 47l-406 1204l-405 -1204
q-14 -47 -55 -47h-4q-41 0 -56 47zM1126 1706l-129 -119q-18 -16 -31 -21t-34 -5q-27 0 -27 20q0 12 10 25l148 180q29 37 57 37h17q28 0 57 -37l147 -180q11 -15 11 -25q0 -20 -29 -20q-40 0 -68 26z" />
    <glyph glyph-name="wcircumflex" unicode="&#x175;" horiz-adv-x="1763" 
d="M528 -14h-4q-40 0 -55 45l-342 940q-8 19 -8 33q0 21 15 35t38 14q39 0 53 -43l303 -883l303 887q14 39 50 39h4q37 0 51 -39l303 -887l305 887q10 39 49 39q23 0 37.5 -14t14.5 -33q0 -14 -9 -35l-342 -940q-15 -45 -55 -45h-4q-40 0 -55 47l-297 854l-299 -854
q-15 -47 -56 -47zM879 1358l-129 -119q-29 -27 -66 -27q-27 0 -27 21q0 9 11 24l147 181q29 37 57 37h17q28 0 57 -37l148 -181q10 -13 10 -24q0 -21 -29 -21q-38 0 -67 27z" />
    <glyph glyph-name="Ycircumflex" unicode="&#x176;" horiz-adv-x="1466" 
d="M680 45v522l-559 789q-10 17 -10 33q0 23 16 38t39 15q27 0 49 -31l520 -747l522 747q1 1 4 4.5t4 5t4 4.5t4.5 4t4 3.5t4.5 3.5l5 2.5t5.5 2t6 1t6.5 0.5q20 0 36.5 -15.5t16.5 -35.5q0 -11 -17 -41l-555 -781v-524q0 -23 -15 -38t-38 -15t-38 15t-15 38zM731 1706
l-129 -119q-18 -16 -31 -21t-34 -5q-27 0 -27 20q0 12 10 25l148 180q29 37 57 37h16q29 0 58 -37l147 -180q10 -13 10 -25q0 -20 -28 -20q-40 0 -68 26z" />
    <glyph glyph-name="ycircumflex" unicode="&#x177;" horiz-adv-x="1204" 
d="M317 -334q-99 0 -178 33q-28 9 -28 43q0 20 13.5 33.5t33.5 13.5q13 0 32 -8q50 -21 134 -21t141 55.5t110 176.5l7 14l-467 965q-9 21 -9 30q0 23 15.5 37.5t38.5 14.5q35 0 53 -41l418 -901l364 905q13 37 49 37q23 0 37.5 -14.5t14.5 -37.5q0 -11 -6 -26l-424 -1012
q-67 -160 -150 -228.5t-199 -68.5zM608 1358l-129 -119q-29 -27 -65 -27q-27 0 -27 21q0 11 10 24l148 181q29 37 57 37h16q29 0 58 -37l147 -181q11 -15 11 -24q0 -21 -29 -21q-39 0 -68 27z" />
    <glyph glyph-name="Ydieresis" unicode="&#x178;" horiz-adv-x="1466" 
d="M680 45v522l-559 789q-10 17 -10 33q0 23 16 38t39 15q27 0 49 -31l520 -747l522 747q1 1 4 4.5t4 5t4 4.5t4.5 4t4 3.5t4.5 3.5l5 2.5t5.5 2t6 1t6.5 0.5q20 0 36.5 -15.5t16.5 -35.5q0 -11 -17 -41l-555 -781v-524q0 -23 -15 -38t-38 -15t-38 15t-15 38zM901 1739
q31 0 51.5 -19.5t20.5 -50.5v-41q0 -30 -20.5 -49.5t-51.5 -19.5t-51.5 19.5t-20.5 49.5v41q0 31 20.5 50.5t51.5 19.5zM565 1739q31 0 51.5 -19.5t20.5 -50.5v-41q0 -30 -20.5 -49.5t-51.5 -19.5t-51 19t-20 50v41q0 31 20 50.5t51 19.5z" />
    <glyph glyph-name="Zacute" unicode="&#x179;" horiz-adv-x="1409" 
d="M1231 0h-1034q-20 0 -36 14t-16 31v2q0 23 19 45l956 1245h-905q-20 0 -34.5 13.5t-14.5 33.5t14.5 35t34.5 15h999q20 0 36 -14t16 -31v-3q0 -23 -19 -45l-956 -1245h940q20 0 34.5 -13.5t14.5 -33.5t-14.5 -34.5t-34.5 -14.5zM721 1561q-27 0 -27 18q0 12 8 23l127 190
q24 37 58 37q30 0 58 -15t28 -32q0 -14 -23 -37l-164 -158q-18 -16 -31 -21t-34 -5z" />
    <glyph glyph-name="zacute" unicode="&#x17a;" horiz-adv-x="1134" 
d="M985 0h-813q-19 0 -33 12t-14 29v2q0 22 18 43l729 868h-688q-19 0 -32 13t-13 32t13 32t32 13h785q19 0 33 -11.5t14 -28.5v-3q0 -21 -19 -43l-729 -868h717q19 0 32 -13t13 -32t-13 -32t-32 -13zM575 1212q-26 0 -26 19q0 11 8 22l127 191q24 37 57 37q30 0 58 -15
t28 -32q0 -15 -22 -37l-164 -158q-29 -27 -66 -27z" />
    <glyph glyph-name="Zdotaccent" unicode="&#x17b;" horiz-adv-x="1409" 
d="M1231 0h-1034q-20 0 -36 14t-16 31v2q0 23 19 45l956 1245h-905q-20 0 -34.5 13.5t-14.5 33.5t14.5 35t34.5 15h999q20 0 36 -14t16 -31v-3q0 -23 -19 -45l-956 -1245h940q20 0 34.5 -13.5t14.5 -33.5t-14.5 -34.5t-34.5 -14.5zM797 1669v-39q0 -32 -20.5 -51.5
t-53.5 -19.5t-53.5 19.5t-20.5 51.5v39q0 32 21 52t53 20t53 -20t21 -52z" />
    <glyph glyph-name="zdotaccent" unicode="&#x17c;" horiz-adv-x="1134" 
d="M985 0h-813q-19 0 -33 12t-14 29v2q0 22 18 43l729 868h-688q-19 0 -32 13t-13 32t13 32t32 13h785q19 0 33 -11.5t14 -28.5v-3q0 -21 -19 -43l-729 -868h717q19 0 32 -13t13 -32t-13 -32t-32 -13zM651 1321v-39q0 -32 -20.5 -52t-52.5 -20t-53 20t-21 52v39q0 32 21 52
t53 20t52.5 -20t20.5 -52z" />
    <glyph glyph-name="Zcaron" unicode="&#x17d;" horiz-adv-x="1409" 
d="M1231 0h-1034q-20 0 -36 14t-16 31v2q0 23 19 45l956 1245h-905q-20 0 -34.5 13.5t-14.5 33.5t14.5 35t34.5 15h999q20 0 36 -14t16 -31v-3q0 -23 -19 -45l-956 -1245h940q20 0 34.5 -13.5t14.5 -33.5t-14.5 -34.5t-34.5 -14.5zM725 1677l129 119q29 27 66 27
q26 0 26 -21q0 -11 -10 -24l-148 -181q-28 -36 -57 -36h-16q-30 0 -58 36l-147 181q-10 13 -10 24q0 21 28 21q39 0 68 -27z" />
    <glyph glyph-name="zcaron" unicode="&#x17e;" horiz-adv-x="1134" 
d="M985 0h-813q-19 0 -33 12t-14 29v2q0 22 18 43l729 868h-688q-19 0 -32 13t-13 32t13 32t32 13h785q19 0 33 -11.5t14 -28.5v-3q0 -21 -19 -43l-729 -868h717q19 0 32 -13t13 -32t-13 -32t-32 -13zM580 1329l129 119q29 27 65 27q27 0 27 -21q0 -11 -10 -24l-148 -181
q-29 -37 -57 -37h-17q-28 0 -57 37l-147 181q-11 15 -11 24q0 21 29 21q39 0 68 -27z" />
    <glyph glyph-name="florin" unicode="&#x192;" horiz-adv-x="1036" 
d="M193 -10q-78 0 -78 45t63 45q138 0 168 168l100 538h-184q-19 0 -33 13t-14 32q0 20 14 34t33 14h201l53 278q29 152 99 219.5t194 67.5q72 0 121 -12q41 -9 41 -48q0 -19 -13 -31t-32 -12q-2 0 -38 6.5t-69 6.5q-86 0 -130 -46t-64 -157l-52 -272h279q19 0 33 -14.5
t14 -33.5t-14 -32t-33 -13h-295l-102 -544q-49 -252 -262 -252z" />
    <glyph glyph-name="Aringacute" unicode="&#x1fa;" horiz-adv-x="1617" 
d="M887 1389l610 -1323q4 -12 4 -23q0 -20 -15.5 -35.5t-37.5 -15.5q-33 0 -51 41l-168 368h-846l-168 -370q-14 -39 -49 -39q-22 0 -36.5 14.5t-14.5 34.5q0 4 4 20l612 1328q-56 24 -89.5 70t-33.5 104v4q0 77 60.5 133.5t140.5 56.5t140.5 -56.5t60.5 -133.5v-4
q0 -58 -33.5 -104t-89.5 -70zM809 1438q51 0 89 37t38 88v4q0 51 -37 88t-90 37t-90 -37t-37 -88v-4q0 -51 38 -88t89 -37zM428 498h756l-377 829zM809 1825q-27 0 -27 18q0 11 9 23l127 190q24 37 57 37q30 0 58 -15t28 -32q0 -14 -23 -37l-164 -158q-18 -16 -31 -21
t-34 -5z" />
    <glyph glyph-name="aringacute" unicode="&#x1fb;" horiz-adv-x="1175" 
d="M508 -25q-75 0 -145.5 21t-129 60.5t-94 103.5t-35.5 143v4q0 161 125 250.5t332 89.5q179 0 346 -45v45q0 157 -90 238.5t-254 81.5q-147 0 -297 -70q-12 -6 -22 -6q-19 0 -33 14t-14 33q0 28 28 45q176 78 344 78q215 0 330 -115q107 -107 107 -295v-608
q0 -23 -13.5 -37t-36.5 -14t-36 14t-13 37v131q-63 -86 -162.5 -142.5t-236.5 -56.5zM514 70q163 0 279 90.5t116 230.5v119q-180 47 -354 47q-163 0 -253.5 -66t-90.5 -178v-4q0 -110 88.5 -174.5t214.5 -64.5zM588 1214q-80 0 -140.5 57t-60.5 134v4q0 77 60.5 133.5
t140.5 56.5t140 -56.5t60 -133.5v-4q0 -78 -60 -134.5t-140 -56.5zM588 1280q51 0 89 37t38 88v4q0 51 -36.5 88t-90.5 37t-90.5 -37t-36.5 -88v-4q0 -51 38 -88t89 -37zM586 1673q-27 0 -27 19q0 11 8 22l127 191q24 37 58 37q30 0 58 -15.5t28 -32.5q0 -13 -23 -36
l-164 -158q-29 -27 -65 -27z" />
    <glyph glyph-name="AEacute" unicode="&#x1fc;" horiz-adv-x="2140" 
d="M72 39q0 12 10 29l807 1333q20 33 53 33h1018q20 0 34.5 -15t14.5 -35t-14.5 -34.5t-34.5 -14.5h-842v-563h750q20 0 34.5 -14.5t14.5 -34.5t-14.5 -34.5t-34.5 -14.5h-750v-576h852q20 0 34.5 -14.5t14.5 -34.5t-14.5 -34.5t-34.5 -14.5h-905q-23 0 -38 15t-15 38v348
h-615l-231 -385q-14 -26 -45 -26q-20 0 -34.5 14.5t-14.5 34.5zM455 498h557v839h-54zM1042 1561q-26 0 -26 18q0 12 8 23l127 190q24 37 57 37q30 0 58 -15t28 -32q0 -15 -22 -37l-164 -158q-28 -26 -66 -26z" />
    <glyph glyph-name="aeacute" unicode="&#x1fd;" horiz-adv-x="1953" 
d="M983 571h760q-6 81 -32 152.5t-71 129t-115 91t-157 33.5q-155 0 -264 -116t-121 -290zM504 70q243 0 418 219q-42 106 -45 223q-172 45 -332 45q-159 0 -246.5 -66t-87.5 -178v-4q0 -110 84.5 -174.5t208.5 -64.5zM1796 145q-84 -84 -179 -127t-228 -43q-129 0 -241 61
t-181 169q-201 -230 -469 -230q-73 0 -142 21t-126 60.5t-91.5 103.5t-34.5 143v4q0 161 123 250.5t324 89.5q161 0 328 -45v45q0 158 -85 239t-245 81q-136 0 -283 -70q-12 -6 -22 -6q-19 0 -33 14t-14 33q0 28 28 45q169 78 330 78q157 0 258.5 -66.5t136.5 -195.5
q63 125 174 197.5t248 72.5q143 0 253 -72.5t168 -195t58 -273.5q0 -19 -15 -33t-34 -14h-819q12 -188 131 -299.5t279 -111.5q192 0 338 143q14 14 32 14q20 0 34.5 -13.5t14.5 -33.5q0 -19 -16 -35zM975 1212q-27 0 -27 19q0 11 8 22l127 191q24 37 58 37q30 0 58 -15
t28 -32q0 -14 -23 -37l-164 -158q-29 -27 -65 -27z" />
    <glyph glyph-name="Oslashacute" unicode="&#x1fe;" horiz-adv-x="1740" 
d="M868 -25q-268 0 -467 168l-137 -145q-16 -16 -37 -16q-19 0 -31 12t-12 31t13 32l139 150q-90 102 -138 232.5t-48 273.5v4q0 147 52.5 281.5t145 236.5t229.5 162.5t295 60.5q266 0 467 -170l138 148q16 16 36 16q19 0 31 -12t12 -31q0 -21 -12 -33l-141 -151
q91 -99 139.5 -229.5t48.5 -274.5v-4q0 -147 -52.5 -281.5t-145.5 -236.5t-230 -163t-295 -61zM260 721v-4q0 -248 152 -430l858 921q-167 154 -402 154q-173 0 -313 -86t-217.5 -232.5t-77.5 -322.5zM872 72q130 0 244 50.5t193.5 137t125.5 204.5t46 249v4q0 246 -152 428
l-860 -920q169 -153 403 -153zM868 1581q-26 0 -26 18q0 12 8 23l127 190q24 37 57 37q30 0 58 -15t28 -32q0 -15 -22 -37l-164 -157q-29 -27 -66 -27z" />
    <glyph glyph-name="oslashacute" unicode="&#x1ff;" horiz-adv-x="1310" 
d="M653 -25q-196 0 -342 123l-98 -100q-16 -16 -37 -16q-18 0 -29.5 10.5t-11.5 27.5q0 19 12 31l103 107q-131 157 -131 360v4q0 109 41 209t111 174.5t171 119t215 44.5q201 0 342 -125l99 107q16 16 37 16q17 0 29 -11t12 -28q0 -18 -13 -31l-104 -110q133 -152 133 -361
v-4q0 -146 -69 -271t-193.5 -200.5t-276.5 -75.5zM657 70q121 0 219.5 60.5t152.5 163t54 224.5v4q0 165 -98 289l-608 -635q118 -106 280 -106zM227 526v-4q0 -166 97 -289l610 633q-122 109 -281 109q-183 0 -304.5 -131t-121.5 -318zM653 1212q-26 0 -26 19q0 11 8 22
l127 191q24 37 57 37q30 0 58 -15t28 -32q0 -15 -22 -37l-164 -158q-29 -27 -66 -27z" />
    <glyph glyph-name="Scommaaccent" unicode="&#x218;" horiz-adv-x="1310" 
d="M698 -20q-158 0 -288 49t-256 151q-21 17 -21 41q0 23 15 38t38 15q20 0 35 -12q106 -97 221.5 -141.5t262.5 -44.5q160 0 261 80t101 204v5q0 80 -32.5 133t-122 96t-250.5 76q-260 54 -372 146.5t-112 256.5v4q0 161 131 269t330 108q142 0 249 -35.5t208 -111.5
q22 -18 22 -43q0 -23 -15 -38.5t-38 -15.5q-19 0 -35 13q-176 135 -395 135q-156 0 -253 -79t-97 -192v-4q0 -61 17.5 -104.5t63.5 -82.5t127.5 -69t208.5 -57q250 -51 361 -144t111 -251v-4q0 -172 -134 -281.5t-342 -109.5zM662 -301q-66 14 -66 72v12q0 31 21.5 52.5
t52.5 21.5q32 0 52.5 -22.5t20.5 -59.5v-13q0 -64 -10 -99t-39 -64q-25 -25 -65 -41.5t-66 -16.5t-26 23q0 19 26 28q56 17 77.5 40t21.5 67z" />
    <glyph glyph-name="scommaaccent" unicode="&#x219;" horiz-adv-x="1017" 
d="M528 -20q-105 0 -214.5 37t-190.5 98q-19 14 -19 39q0 20 15 34.5t35 14.5q15 0 32 -10q165 -119 349 -119q108 0 179.5 54t71.5 144v4q0 30 -9.5 55t-30.5 44.5t-42.5 34.5t-58 29.5t-64 23.5t-71.5 22q-159 45 -221 79q-137 73 -137 208v4q0 126 96 207.5t248 81.5
q173 0 338 -94q26 -15 26 -45q0 -20 -14.5 -34.5t-34.5 -14.5q-18 0 -29 8q-141 86 -290 86q-107 0 -172.5 -52t-65.5 -131v-4q0 -17 3.5 -32.5t13 -29.5t17.5 -24.5t26 -22t28.5 -19t36 -18t37 -15t42.5 -14.5t42 -13.5t45 -13.5q51 -15 84.5 -26.5t78 -30t73 -39.5
t55.5 -49.5t40 -65.5t13 -82v-4q0 -137 -103 -221t-258 -84zM506 -301q-66 14 -66 72v12q0 31 21.5 52.5t52.5 21.5q32 0 53 -22.5t21 -59.5v-13q0 -64 -10 -99t-39 -64q-25 -25 -65 -41.5t-66 -16.5q-27 0 -27 23q0 19 27 28q56 17 77 40t21 67z" />
    <glyph glyph-name="schwa" unicode="&#x259;" horiz-adv-x="1196" 
d="M971 473h-760q6 -81 32 -152.5t71 -129t115 -90.5t157 -33q155 0 264 115.5t121 289.5zM158 899q84 84 179 127t228 43q102 0 195.5 -39.5t163.5 -109.5t111.5 -173t41.5 -223v-4q0 -151 -64 -275.5t-178 -197t-253 -72.5q-143 0 -253.5 72.5t-168.5 195t-58 273.5
q0 18 15.5 32.5t34.5 14.5h819q-12 188 -131 300t-279 112q-190 0 -338 -144q-14 -14 -33 -14q-20 0 -34.5 13.5t-14.5 33.5q0 18 17 35z" />
    <glyph glyph-name="circumflex" unicode="&#x2c6;" horiz-adv-x="1024" 
d="M510 1358l-129 -119q-29 -27 -66 -27q-26 0 -26 21q0 11 10 24l147 181q29 37 58 37h16q29 0 58 -37l147 -181q10 -13 10 -24q0 -21 -28 -21q-39 0 -68 27z" />
    <glyph glyph-name="caron" unicode="&#x2c7;" horiz-adv-x="1024" 
d="M514 1329l129 119q29 27 66 27q26 0 26 -21q0 -11 -10 -24l-147 -181q-29 -37 -58 -37h-16q-29 0 -58 37l-147 181q-10 13 -10 24q0 21 28 21q39 0 68 -27z" />
    <glyph glyph-name="breve" unicode="&#x2d8;" horiz-adv-x="1024" 
d="M512 1214q-169 0 -244 140q-22 36 -22 78q0 45 39 45q31 0 43 -35q46 -123 184 -123t184 123q12 35 43 35q39 0 39 -45q0 -42 -22 -78q-75 -140 -244 -140z" />
    <glyph glyph-name="dotaccent" unicode="&#x2d9;" horiz-adv-x="1024" 
d="M586 1321v-39q0 -32 -21 -52t-53 -20t-53 20t-21 52v39q0 32 21 52t53 20t53 -20t21 -52z" />
    <glyph glyph-name="ring" unicode="&#x2da;" horiz-adv-x="1024" 
d="M512 1214q-80 0 -140.5 57t-60.5 134v4q0 77 60.5 133.5t140.5 56.5t140.5 -56.5t60.5 -133.5v-4q0 -77 -60.5 -134t-140.5 -57zM512 1280q51 0 89 37t38 88v4q0 51 -36.5 88t-90.5 37t-90.5 -37t-36.5 -88v-4q0 -51 38 -88t89 -37z" />
    <glyph glyph-name="ogonek" unicode="&#x2db;" horiz-adv-x="1024" 
d="M399 -174q0 57 36 104t114 107l72 -35q-65 -53 -92 -88t-27 -76q0 -40 27 -61.5t81 -32.5q32 -6 44 -15t12 -26q0 -37 -41 -37q-16 0 -39 3t-57 13t-62 26.5t-48 47t-20 70.5z" />
    <glyph glyph-name="tilde" unicode="&#x2dc;" horiz-adv-x="1024" 
d="M289 1225q-12 -29 -37 -29q-37 0 -37 35q0 8 4 24q28 87 66 120.5t96 33.5q39 0 133.5 -42t128.5 -42t53 17.5t39 60.5q12 29 37 29q37 0 37 -35q0 -9 -4 -25q-28 -87 -65.5 -120t-96.5 -33q-39 0 -133.5 42t-128.5 42t-53 -17.5t-39 -60.5z" />
    <glyph glyph-name="hungarumlaut" unicode="&#x2dd;" horiz-adv-x="1024" 
d="M561 1212q-26 0 -26 19q0 11 8 22l129 193q21 35 55 35q30 0 55 -14t25 -31q0 -14 -21 -35l-159 -162q-29 -27 -66 -27zM250 1212q-27 0 -27 19q0 11 8 22l129 193q21 35 56 35q30 0 55 -14t25 -31q0 -14 -21 -35l-160 -162q-29 -27 -65 -27z" />
    <glyph glyph-name="commaaccent" unicode="&#x326;" horiz-adv-x="1024" 
d="M504 -301q-66 14 -66 72v12q0 31 21.5 52.5t52.5 21.5q32 0 53 -22.5t21 -59.5v-13q0 -64 -10 -99t-39 -64q-25 -25 -65 -41.5t-66 -16.5q-27 0 -27 23q0 19 27 28q56 17 77 40t21 67z" />
    <glyph glyph-name="Wgrave" unicode="&#x1e80;" horiz-adv-x="2256" 
d="M608 31l-479 1329q-6 15 -6 26q0 23 16 39.5t39 16.5q42 0 58 -49l436 -1235l407 1243q14 41 51 41h5q37 0 51 -41l407 -1243l439 1241q15 43 51 43q20 0 36.5 -16.5t16.5 -36.5q0 -10 -8 -29l-479 -1329q-17 -47 -56 -47h-4q-41 0 -55 47l-406 1204l-405 -1204
q-14 -47 -55 -47h-4q-41 0 -56 47zM1130 1561q-21 0 -34 5t-31 21l-164 158q-22 22 -22 37q0 17 28 32t58 15q33 0 57 -37l127 -190q8 -11 8 -23q0 -18 -27 -18z" />
    <glyph glyph-name="wgrave" unicode="&#x1e81;" horiz-adv-x="1763" 
d="M528 -14h-4q-40 0 -55 45l-342 940q-8 19 -8 33q0 21 15 35t38 14q39 0 53 -43l303 -883l303 887q14 39 50 39h4q37 0 51 -39l303 -887l305 887q10 39 49 39q23 0 37.5 -14t14.5 -33q0 -14 -9 -35l-342 -940q-15 -45 -55 -45h-4q-40 0 -55 47l-297 854l-299 -854
q-15 -47 -56 -47zM883 1212q-37 0 -66 27l-164 158q-22 22 -22 37q0 17 28 32t58 15q33 0 57 -37l127 -191q8 -11 8 -22q0 -19 -26 -19z" />
    <glyph glyph-name="Wacute" unicode="&#x1e82;" horiz-adv-x="2256" 
d="M608 31l-479 1329q-6 15 -6 26q0 23 16 39.5t39 16.5q42 0 58 -49l436 -1235l407 1243q14 41 51 41h5q37 0 51 -41l407 -1243l439 1241q15 43 51 43q20 0 36.5 -16.5t16.5 -36.5q0 -10 -8 -29l-479 -1329q-17 -47 -56 -47h-4q-41 0 -55 47l-406 1204l-405 -1204
q-14 -47 -55 -47h-4q-41 0 -56 47zM1126 1561q-26 0 -26 18q0 12 8 23l127 190q24 37 57 37q30 0 58 -15t28 -32q0 -15 -22 -37l-164 -158q-28 -26 -66 -26z" />
    <glyph glyph-name="wacute" unicode="&#x1e83;" horiz-adv-x="1763" 
d="M528 -14h-4q-40 0 -55 45l-342 940q-8 19 -8 33q0 21 15 35t38 14q39 0 53 -43l303 -883l303 887q14 39 50 39h4q37 0 51 -39l303 -887l305 887q10 39 49 39q23 0 37.5 -14t14.5 -33q0 -14 -9 -35l-342 -940q-15 -45 -55 -45h-4q-40 0 -55 47l-297 854l-299 -854
q-15 -47 -56 -47zM879 1212q-27 0 -27 19q0 11 8 22l127 191q24 37 57 37q30 0 58 -15t28 -32q0 -15 -22 -37l-164 -158q-29 -27 -65 -27z" />
    <glyph glyph-name="Wdieresis" unicode="&#x1e84;" horiz-adv-x="2256" 
d="M608 31l-479 1329q-6 15 -6 26q0 23 16 39.5t39 16.5q42 0 58 -49l436 -1235l407 1243q14 41 51 41h5q37 0 51 -41l407 -1243l439 1241q15 43 51 43q20 0 36.5 -16.5t16.5 -36.5q0 -10 -8 -29l-479 -1329q-17 -47 -56 -47h-4q-41 0 -55 47l-406 1204l-405 -1204
q-14 -47 -55 -47h-4q-41 0 -56 47zM1296 1739q31 0 51.5 -19.5t20.5 -50.5v-41q0 -30 -20.5 -49.5t-51.5 -19.5t-51 19t-20 50v41q0 31 20 50.5t51 19.5zM961 1739q31 0 51 -19.5t20 -50.5v-41q0 -31 -20 -50t-51 -19t-51.5 19.5t-20.5 49.5v41q0 31 20.5 50.5t51.5 19.5z
" />
    <glyph glyph-name="wdieresis" unicode="&#x1e85;" horiz-adv-x="1763" 
d="M528 -14h-4q-40 0 -55 45l-342 940q-8 19 -8 33q0 21 15 35t38 14q39 0 53 -43l303 -883l303 887q14 39 50 39h4q37 0 51 -39l303 -887l305 887q10 39 49 39q23 0 37.5 -14t14.5 -33q0 -14 -9 -35l-342 -940q-15 -45 -55 -45h-4q-40 0 -55 47l-297 854l-299 -854
q-15 -47 -56 -47zM1049 1391q31 0 51 -19.5t20 -50.5v-41q0 -31 -20 -50.5t-51 -19.5t-51.5 19.5t-20.5 50.5v41q0 31 20.5 50.5t51.5 19.5zM713 1391q31 0 51 -19.5t20 -50.5v-41q0 -31 -20 -50.5t-51 -19.5t-51.5 19.5t-20.5 50.5v41q0 31 20.5 50.5t51.5 19.5z" />
    <glyph glyph-name="Ygrave" unicode="&#x1ef2;" horiz-adv-x="1466" 
d="M680 45v522l-559 789q-10 17 -10 33q0 23 16 38t39 15q27 0 49 -31l520 -747l522 747q1 1 4 4.5t4 5t4 4.5t4.5 4t4 3.5t4.5 3.5l5 2.5t5.5 2t6 1t6.5 0.5q20 0 36.5 -15.5t16.5 -35.5q0 -11 -17 -41l-555 -781v-524q0 -23 -15 -38t-38 -15t-38 15t-15 38zM735 1561
q-21 0 -34 5t-31 21l-164 158q-23 23 -23 37q0 17 28 32t58 15q34 0 58 -37l127 -190q8 -11 8 -23q0 -18 -27 -18z" />
    <glyph glyph-name="ygrave" unicode="&#x1ef3;" horiz-adv-x="1204" 
d="M317 -334q-99 0 -178 33q-28 9 -28 43q0 20 13.5 33.5t33.5 13.5q13 0 32 -8q50 -21 134 -21t141 55.5t110 176.5l7 14l-467 965q-9 21 -9 30q0 23 15.5 37.5t38.5 14.5q35 0 53 -41l418 -901l364 905q13 37 49 37q23 0 37.5 -14.5t14.5 -37.5q0 -11 -6 -26l-424 -1012
q-67 -160 -150 -228.5t-199 -68.5zM612 1212q-36 0 -65 27l-164 158q-23 23 -23 37q0 17 28 32t58 15q34 0 58 -37l127 -191q8 -11 8 -22q0 -19 -27 -19z" />
    <glyph glyph-name="enspace" unicode="&#x2002;" horiz-adv-x="1024" 
 />
    <glyph glyph-name="emspace" unicode="&#x2003;" horiz-adv-x="2048" 
 />
    <glyph glyph-name="threeperemspace" unicode="&#x2004;" horiz-adv-x="681" 
 />
    <glyph glyph-name="fourperemspace" unicode="&#x2005;" horiz-adv-x="512" 
 />
    <glyph glyph-name="thinspace" unicode="&#x2009;" horiz-adv-x="272" 
 />
    <glyph glyph-name="hairspace" unicode="&#x200a;" horiz-adv-x="153" 
 />
    <glyph glyph-name="endash" unicode="&#x2013;" horiz-adv-x="1081" 
d="M893 555h-705q-23 0 -38 15t-15 38t15 38.5t38 15.5h705q23 0 38 -15.5t15 -38.5t-15 -38t-38 -15z" />
    <glyph glyph-name="emdash" unicode="&#x2014;" horiz-adv-x="1839" 
d="M1651 555h-1463q-23 0 -38 15t-15 38t15 38.5t38 15.5h1463q23 0 38 -15.5t15 -38.5t-15 -38t-38 -15z" />
    <glyph glyph-name="quoteleft" unicode="&#x2018;" horiz-adv-x="471" 
d="M350 1409q0 -17 -16 -27q-56 -31 -78 -67t-18 -90q55 -14 55 -72v-43q0 -29 -19.5 -48.5t-48.5 -19.5t-48 19.5t-19 48.5v51q0 86 13 135t42 78q28 28 59.5 47t46.5 19q12 0 21.5 -7.5t9.5 -23.5z" />
    <glyph glyph-name="quoteright" unicode="&#x2019;" horiz-adv-x="471" 
d="M121 1075q0 17 16 27q56 31 78 67.5t18 90.5q-55 14 -55 71v43q0 29 19.5 48.5t48.5 19.5t48 -19.5t19 -48.5v-51q0 -86 -13 -135t-42 -78q-28 -28 -60 -47t-46 -19q-12 0 -21.5 7.5t-9.5 23.5z" />
    <glyph glyph-name="quotesinglbase" unicode="&#x201a;" horiz-adv-x="471" 
d="M111 -184q0 16 16 26q56 31 78 67.5t18 90.5q-55 14 -55 72v43q0 29 19.5 48t48.5 19t48 -19t19 -48v-52q0 -86 -13 -135t-42 -78q-27 -27 -59.5 -46t-47.5 -19q-12 0 -21 7.5t-9 23.5z" />
    <glyph glyph-name="quotedblleft" unicode="&#x201c;" horiz-adv-x="839" 
d="M719 1409q0 -17 -17 -27q-56 -31 -78 -67t-18 -90q56 -14 56 -72v-43q0 -29 -19.5 -48.5t-48.5 -19.5t-48.5 19.5t-19.5 48.5v51q0 85 13 134t43 79q28 28 60 47t46 19q12 0 21.5 -7.5t9.5 -23.5zM350 1409q0 -17 -16 -27q-56 -31 -78 -67t-18 -90q55 -14 55 -72v-43
q0 -29 -19.5 -48.5t-48.5 -19.5t-48 19.5t-19 48.5v51q0 86 13 135t42 78q28 28 59.5 47t46.5 19q12 0 21.5 -7.5t9.5 -23.5z" />
    <glyph glyph-name="quotedblright" unicode="&#x201d;" horiz-adv-x="839" 
d="M121 1075q0 17 16 27q56 31 78 67.5t18 90.5q-55 14 -55 71v43q0 29 19.5 48.5t48.5 19.5t48 -19.5t19 -48.5v-51q0 -86 -13 -135t-42 -78q-28 -28 -60 -47t-46 -19q-12 0 -21.5 7.5t-9.5 23.5zM489 1075q0 17 17 27q56 31 78 67.5t18 90.5q-55 14 -55 71v43
q0 29 19 48.5t48 19.5t48.5 -19.5t19.5 -48.5v-51q0 -86 -13 -135t-42 -78q-28 -28 -60 -47t-47 -19q-12 0 -21.5 7.5t-9.5 23.5z" />
    <glyph glyph-name="quotedblbase" unicode="&#x201e;" horiz-adv-x="839" 
d="M111 -184q0 16 16 26q56 31 78 67.5t18 90.5q-55 14 -55 72v43q0 29 19.5 48t48.5 19t48 -19t19 -48v-52q0 -86 -13 -135t-42 -78q-27 -27 -59.5 -46t-47.5 -19q-12 0 -21 7.5t-9 23.5zM479 -184q0 16 17 26q56 31 78 67.5t18 90.5q-55 14 -55 72v43q0 29 19 48t48 19
t48.5 -19t19.5 -48v-52q0 -85 -13 -134t-43 -79q-28 -28 -59.5 -46.5t-46.5 -18.5q-12 0 -21.5 7.5t-9.5 23.5z" />
    <glyph glyph-name="dagger" unicode="&#x2020;" horiz-adv-x="839" 
d="M375 526l10 547l-217 -12q-19 -2 -33 11t-14 32t14 32.5t33 12.5l215 -12l-12 252q-2 23 12 38t37 15t37 -15t12 -38l-12 -252l215 12q19 1 33 -12.5t14 -32.5t-14 -32t-33 -11l-217 12l10 -547q0 -22 -12.5 -34.5t-32.5 -12.5t-32.5 12.5t-12.5 34.5z" />
    <glyph glyph-name="daggerdbl" unicode="&#x2021;" horiz-adv-x="880" 
d="M391 45l12 252l-215 -12q-19 -1 -33 12.5t-14 32.5t14 32t33 11l218 -13l-11 357l11 356l-218 -12q-19 -2 -33 11t-14 32t14 32.5t33 12.5l215 -12l-12 252q-2 23 12 38t37 15t37 -15t12 -38l-12 -252l215 12q19 1 33 -12.5t14 -32.5t-14 -32t-33 -11l-217 12l10 -356
l-10 -357l217 13q19 2 33 -11t14 -32t-14 -32.5t-33 -12.5l-215 12l12 -252q2 -23 -12 -38t-37 -15t-37 15t-12 38z" />
    <glyph glyph-name="bullet" unicode="&#x2022;" horiz-adv-x="962" 
d="M481 467q-104 0 -179 74t-75 178v4q0 103 76.5 177.5t177.5 74.5q100 0 177 -74.5t77 -177.5v-4q0 -104 -75 -178t-179 -74z" />
    <glyph glyph-name="ellipsis" unicode="&#x2026;" horiz-adv-x="1392" 
d="M1094 59v56q0 29 18 48t47 19t47.5 -19t18.5 -48v-56q0 -29 -18.5 -48t-47.5 -19t-47 19t-18 48zM631 59v56q0 29 18 48t47 19t47.5 -19t18.5 -48v-56q0 -29 -18.5 -48t-47.5 -19t-47 19t-18 48zM168 59v56q0 29 18 48t47 19t47.5 -19t18.5 -48v-56q0 -29 -18.5 -48
t-47.5 -19t-47 19t-18 48z" />
    <glyph glyph-name="perthousand" unicode="&#x2030;" horiz-adv-x="2457" 
d="M426 717q-137 0 -225 107.5t-88 254.5v4q0 148 89.5 257.5t227.5 109.5q91 0 163.5 -51.5t111 -134t38.5 -177.5v-4q0 -149 -89 -257.5t-228 -108.5zM299 35q0 18 8 26l998 1358q16 23 38 23q19 0 32.5 -12.5t13.5 -30.5t-9 -27l-997 -1358q-16 -22 -39 -22q-19 0 -32 12
t-13 31zM2028 -16q-137 0 -225.5 107.5t-88.5 254.5v4q0 148 90 257.5t228 109.5q91 0 163.5 -51.5t111 -134t38.5 -177.5v-4q0 -149 -89 -257.5t-228 -108.5zM1257 -16q-137 0 -225 107.5t-88 254.5v4q0 148 90 257.5t228 109.5q91 0 163.5 -51.5t111 -134t38.5 -177.5v-4
q0 -149 -89.5 -257.5t-228.5 -108.5zM430 805q90 0 148.5 78.5t58.5 195.5v4q0 117 -62 198t-149 81q-89 0 -148 -80.5t-59 -194.5v-4q0 -121 61.5 -199.5t149.5 -78.5zM2032 72q90 0 148 78.5t58 195.5v4q0 118 -61.5 198.5t-148.5 80.5q-89 0 -148 -80.5t-59 -194.5v-4
q0 -121 61.5 -199.5t149.5 -78.5zM1262 72q90 0 148 78.5t58 195.5v4q0 117 -62 198t-149 81q-89 0 -147.5 -80t-58.5 -195v-4q0 -121 61.5 -199.5t149.5 -78.5z" />
    <glyph glyph-name="guilsinglleft" unicode="&#x2039;" horiz-adv-x="636" 
d="M453 88q-23 0 -39 23l-281 366q-20 26 -20 45t20 45l281 367q16 22 39 22q19 0 32 -12t13 -31q0 -18 -13 -34l-258 -355l258 -358q13 -16 13 -35t-13 -31t-32 -12z" />
    <glyph glyph-name="guilsinglright" unicode="&#x203a;" horiz-adv-x="636" 
d="M184 956q23 0 39 -22l281 -367q20 -26 20 -45t-20 -45l-281 -366q-16 -23 -39 -23q-19 0 -32 12t-13 31t13 35l258 354l-258 359q-2 3 -4.5 7.5t-4 6.5t-3 6t-1.5 6.5v7.5q2 19 14 31t31 12z" />
    <glyph glyph-name="fraction" unicode="&#x2044;" horiz-adv-x="839" 
d="M-109 -164q0 16 9 31l909 1663q15 31 45 31q21 0 35 -12.5t14 -32.5q0 -18 -8 -31l-909 -1663q-16 -31 -45 -31q-21 0 -35.5 12.5t-14.5 32.5z" />
    <glyph glyph-name="Euro" unicode="&#x20ac;" horiz-adv-x="1474" 
d="M1348 279q0 -11 -11 -29q-44 -62 -88 -108t-100 -85.5t-124.5 -60.5t-147.5 -21q-209 0 -364.5 145t-205.5 382h-145q-20 0 -34.5 14.5t-14.5 34.5t14.5 34.5t34.5 14.5h129q-6 56 -6 115q0 74 8 137h-131q-20 0 -34.5 14.5t-14.5 34.5t14.5 34.5t34.5 14.5h151
q55 225 204 366.5t345 141.5q159 0 269.5 -66.5t201.5 -189.5q13 -16 13 -33q0 -20 -15 -34.5t-35 -14.5q-27 0 -43 23q-85 113 -175 167t-220 54q-152 0 -270.5 -115t-169.5 -299h540q20 0 35 -14.5t15 -34.5t-15 -34.5t-35 -14.5h-559q-10 -72 -10 -133q0 -63 6 -119h563
q20 0 35 -14.5t15 -34.5t-15 -34.5t-35 -14.5h-544q51 -198 174.5 -315t294.5 -117q121 0 212 60t165 171q16 23 40 23q21 0 34.5 -12.5t13.5 -32.5z" />
    <glyph glyph-name="published" unicode="&#x2117;" horiz-adv-x="1699" 
d="M848 -25q-153 0 -290.5 59t-235.5 158.5t-155.5 235.5t-57.5 285v4q0 148 58 284.5t156.5 237t237 160t291.5 59.5t290.5 -59t235.5 -158t155.5 -235t57.5 -285v-4q0 -148 -58 -284.5t-156.5 -237t-237 -160.5t-291.5 -60zM848 33q190 0 347 92.5t246 249.5t89 342v4
q0 186 -88 342t-244 247t-346 91t-347 -92.5t-246 -249.5t-89 -342v-4q0 -186 88 -342t244 -247t346 -91zM606 395v668q0 19 13 32t32 13h244q136 0 214.5 -61t78.5 -175v-4q0 -120 -88.5 -183.5t-218.5 -63.5h-185v-226q0 -19 -13 -32t-32 -13t-32 13t-13 32zM696 705h187
q100 0 156.5 41t56.5 118v4q0 78 -54 117t-153 39h-193v-319z" />
    <glyph glyph-name="servicemark" unicode="&#x2120;" horiz-adv-x="1449" 
d="M719 829v570q0 35 35 35h10q20 0 33 -19l243 -371l244 371q13 19 33 19h8q13 0 24 -11t11 -24v-570q0 -34 -37 -34q-35 0 -35 34v463l-215 -321q-15 -21 -33 -21q-19 0 -34 21l-215 321v-463q0 -34 -37 -34q-15 0 -25 9t-10 25zM74 909q0 33 32 33q10 0 27 -10
q96 -74 205 -74q65 0 106 31.5t41 79.5v2q0 45 -36 70.5t-134 48.5q-115 24 -166 64t-51 116v2q0 74 62.5 123t156.5 49q114 0 203 -62q19 -13 19 -30q0 -14 -10 -24.5t-23 -10.5q-10 0 -27 10q-68 51 -164 51q-65 0 -104 -29t-39 -73v-2q0 -45 36 -72t138 -49
q108 -24 160.5 -65.5t52.5 -112.5v-2q0 -80 -64.5 -130t-158.5 -50q-143 0 -244 84q-18 15 -18 32z" />
    <glyph glyph-name="trademark" unicode="&#x2122;" horiz-adv-x="1413" 
d="M260 829v535h-180q-14 0 -24.5 11t-10.5 24t10.5 24t24.5 11h432q14 0 24.5 -11t10.5 -24t-10.5 -24t-24.5 -11h-180v-535q0 -34 -37 -34q-35 0 -35 34zM682 829v570q0 35 35 35h10q20 0 33 -19l244 -371l243 371q13 19 33 19h8q14 0 24.5 -11t10.5 -24v-570
q0 -34 -37 -34q-35 0 -35 34v463l-215 -321q-15 -21 -32 -21q-20 0 -35 21l-215 321v-463q0 -34 -37 -34q-15 0 -25 9t-10 25z" />
    <glyph glyph-name="minus" unicode="&#x2212;" horiz-adv-x="1269" 
d="M1087 670h-905q-23 0 -37 14t-14 37t14 37t37 14h905q23 0 37.5 -14t14.5 -37t-14.5 -37t-37.5 -14z" />
    <glyph glyph-name="NUL" horiz-adv-x="0" 
 />
    <glyph glyph-name="CR" horiz-adv-x="614" 
 />
    <glyph glyph-name="Q.alt" horiz-adv-x="1740" 
d="M1591 721v-4q0 -176 -72.5 -330.5t-203.5 -259.5l260 -244q20 -20 20 -43t-16 -39t-39 -16t-39 16l-284 260q-156 -86 -349 -86q-158 0 -294.5 60.5t-228 162t-143.5 235.5t-52 280v4q0 147 52.5 281.5t145 236.5t229.5 162.5t295 60.5q127 0 241 -39t200 -108
t149.5 -161.5t96 -202t32.5 -226.5zM1481 713v4q0 131 -46.5 250t-127 205.5t-195 138t-244.5 51.5q-173 0 -313 -86t-217.5 -232.5t-77.5 -322.5v-4q0 -176 78.5 -323.5t219.5 -234.5t314 -87q130 0 244 50.5t193.5 137t125.5 204.5t46 249z" />
    <glyph glyph-name="a.alt" 
d="M1061 819v182q0 24 13 38t36 14t37 -14.5t14 -37.5v-958q0 -23 -13 -37t-36 -14t-37 14t-14 37v190q-173 -258 -430 -258q-95 0 -185.5 38t-162.5 105.5t-116 172t-44 227.5v4q0 122 44 227t115.5 174t162.5 107.5t186 38.5q262 0 430 -250zM641 973
q-177 0 -293.5 -121.5t-116.5 -325.5v-4q0 -200 119.5 -325t290.5 -125q82 0 159 33t136 90.5t95 142.5t36 182v4q0 98 -36 183t-95 142.5t-136 90.5t-159 33z" />
    <glyph glyph-name="aacute.alt" 
d="M1061 819v182q0 24 13 38t36 14t37 -14.5t14 -37.5v-958q0 -23 -13 -37t-36 -14t-37 14t-14 37v190q-173 -258 -430 -258q-95 0 -185.5 38t-162.5 105.5t-116 172t-44 227.5v4q0 122 44 227t115.5 174t162.5 107.5t186 38.5q262 0 430 -250zM641 973
q-177 0 -293.5 -121.5t-116.5 -325.5v-4q0 -200 119.5 -325t290.5 -125q82 0 159 33t136 90.5t95 142.5t36 182v4q0 98 -36 183t-95 142.5t-136 90.5t-159 33zM678 1212q-27 0 -27 19q0 11 8 22l127 191q24 37 58 37q30 0 58 -15t28 -32q0 -14 -23 -37l-164 -158
q-29 -27 -65 -27z" />
    <glyph glyph-name="abreve.alt" 
d="M1061 819v182q0 24 13 38t36 14t37 -14.5t14 -37.5v-958q0 -23 -13 -37t-36 -14t-37 14t-14 37v190q-173 -258 -430 -258q-95 0 -185.5 38t-162.5 105.5t-116 172t-44 227.5v4q0 122 44 227t115.5 174t162.5 107.5t186 38.5q262 0 430 -250zM641 973
q-177 0 -293.5 -121.5t-116.5 -325.5v-4q0 -200 119.5 -325t290.5 -125q82 0 159 33t136 90.5t95 142.5t36 182v4q0 98 -36 183t-95 142.5t-136 90.5t-159 33zM680 1214q-169 0 -244 140q-22 36 -22 78q0 45 39 45q31 0 43 -35q46 -123 184 -123t184 123q12 35 43 35
q39 0 39 -45q0 -42 -22 -78q-75 -140 -244 -140z" />
    <glyph glyph-name="acircumflex.alt" 
d="M1061 819v182q0 24 13 38t36 14t37 -14.5t14 -37.5v-958q0 -23 -13 -37t-36 -14t-37 14t-14 37v190q-173 -258 -430 -258q-95 0 -185.5 38t-162.5 105.5t-116 172t-44 227.5v4q0 122 44 227t115.5 174t162.5 107.5t186 38.5q262 0 430 -250zM641 973
q-177 0 -293.5 -121.5t-116.5 -325.5v-4q0 -200 119.5 -325t290.5 -125q82 0 159 33t136 90.5t95 142.5t36 182v4q0 98 -36 183t-95 142.5t-136 90.5t-159 33zM678 1358l-129 -119q-29 -27 -66 -27q-26 0 -26 21q0 11 10 24l147 181q29 37 58 37h16q28 0 57 -37l148 -181
q10 -13 10 -24q0 -21 -29 -21q-38 0 -67 27z" />
    <glyph glyph-name="adieresis.alt" 
d="M1061 819v182q0 24 13 38t36 14t37 -14.5t14 -37.5v-958q0 -23 -13 -37t-36 -14t-37 14t-14 37v190q-173 -258 -430 -258q-95 0 -185.5 38t-162.5 105.5t-116 172t-44 227.5v4q0 122 44 227t115.5 174t162.5 107.5t186 38.5q262 0 430 -250zM641 973
q-177 0 -293.5 -121.5t-116.5 -325.5v-4q0 -200 119.5 -325t290.5 -125q82 0 159 33t136 90.5t95 142.5t36 182v4q0 98 -36 183t-95 142.5t-136 90.5t-159 33zM848 1391q31 0 51.5 -19.5t20.5 -50.5v-41q0 -31 -20.5 -50.5t-51.5 -19.5t-51.5 19.5t-20.5 50.5v41
q0 31 20.5 50.5t51.5 19.5zM512 1391q31 0 51.5 -19.5t20.5 -50.5v-41q0 -31 -20.5 -50.5t-51.5 -19.5t-51.5 19.5t-20.5 50.5v41q0 31 20.5 50.5t51.5 19.5z" />
    <glyph glyph-name="agrave.alt" 
d="M1061 819v182q0 24 13 38t36 14t37 -14.5t14 -37.5v-958q0 -23 -13 -37t-36 -14t-37 14t-14 37v190q-173 -258 -430 -258q-95 0 -185.5 38t-162.5 105.5t-116 172t-44 227.5v4q0 122 44 227t115.5 174t162.5 107.5t186 38.5q262 0 430 -250zM641 973
q-177 0 -293.5 -121.5t-116.5 -325.5v-4q0 -200 119.5 -325t290.5 -125q82 0 159 33t136 90.5t95 142.5t36 182v4q0 98 -36 183t-95 142.5t-136 90.5t-159 33zM682 1212q-37 0 -66 27l-163 158q-23 23 -23 37q0 17 28 32t58 15q33 0 57 -37l127 -191q9 -12 9 -22
q0 -19 -27 -19z" />
    <glyph glyph-name="amacron.alt" 
d="M1061 819v182q0 24 13 38t36 14t37 -14.5t14 -37.5v-958q0 -23 -13 -37t-36 -14t-37 14t-14 37v190q-173 -258 -430 -258q-95 0 -185.5 38t-162.5 105.5t-116 172t-44 227.5v4q0 122 44 227t115.5 174t162.5 107.5t186 38.5q262 0 430 -250zM641 973
q-177 0 -293.5 -121.5t-116.5 -325.5v-4q0 -200 119.5 -325t290.5 -125q82 0 159 33t136 90.5t95 142.5t36 182v4q0 98 -36 183t-95 142.5t-136 90.5t-159 33zM950 1272h-540q-20 0 -35 14.5t-15 34.5t15 34.5t35 14.5h540q20 0 34.5 -14.5t14.5 -34.5t-14.5 -34.5
t-34.5 -14.5z" />
    <glyph glyph-name="aogonek.alt" 
d="M1061 819v182q0 24 13 38t36 14t37 -14.5t14 -37.5v-966q0 -31 -28 -53q-52 -46 -73.5 -75.5t-21.5 -68.5q0 -40 27.5 -61.5t81.5 -32.5q32 -6 43.5 -15t11.5 -26q0 -37 -41 -37q-16 0 -38.5 3t-57 13t-62 26.5t-47.5 47t-20 70.5q0 52 30.5 96.5t94.5 93.5v215
q-39 -56 -78.5 -98t-91.5 -80t-118 -58t-142 -20q-95 0 -185.5 38t-162.5 105.5t-116 172t-44 227.5v4q0 122 44 227t115.5 174t162.5 107.5t186 38.5q262 0 430 -250zM641 973q-177 0 -293.5 -121.5t-116.5 -325.5v-4q0 -200 119.5 -325t290.5 -125q82 0 159 33t136 90.5
t95 142.5t36 182v4q0 98 -36 183t-95 142.5t-136 90.5t-159 33z" />
    <glyph glyph-name="aring.alt" 
d="M1061 819v182q0 24 13 38t36 14t37 -14.5t14 -37.5v-958q0 -23 -13 -37t-36 -14t-37 14t-14 37v190q-173 -258 -430 -258q-95 0 -185.5 38t-162.5 105.5t-116 172t-44 227.5v4q0 122 44 227t115.5 174t162.5 107.5t186 38.5q262 0 430 -250zM641 973
q-177 0 -293.5 -121.5t-116.5 -325.5v-4q0 -200 119.5 -325t290.5 -125q82 0 159 33t136 90.5t95 142.5t36 182v4q0 98 -36 183t-95 142.5t-136 90.5t-159 33zM680 1214q-80 0 -140.5 57t-60.5 134v4q0 77 60.5 133.5t140.5 56.5t140.5 -56.5t60.5 -133.5v-4
q0 -77 -60.5 -134t-140.5 -57zM680 1280q51 0 89 37t38 88v4q0 51 -36.5 88t-90.5 37t-90.5 -37t-36.5 -88v-4q0 -51 38 -88t89 -37z" />
    <glyph glyph-name="aring.alt2" horiz-adv-x="1175" 
d="M508 -25q-75 0 -145.5 21t-129 60.5t-94 103.5t-35.5 143v4q0 161 125 250.5t332 89.5q179 0 346 -45v45q0 157 -90 238.5t-254 81.5q-147 0 -297 -70q-12 -6 -22 -6q-19 0 -33 14t-14 33q0 28 28 45q107 49 226 70q-64 54 -64 135v4q0 77 60.5 133.5t140.5 56.5
t140 -56.5t60 -133.5v-4q0 -91 -75 -144q111 -26 186 -98q107 -107 107 -295v-608q0 -23 -13.5 -37t-36.5 -14t-36 14t-13 37v131q-63 -86 -162.5 -142.5t-236.5 -56.5zM514 70q163 0 279 90.5t116 230.5v119q-180 47 -354 47q-163 0 -253.5 -66t-90.5 -178v-4
q0 -110 88.5 -174.5t214.5 -64.5zM588 1063q51 0 89 37t38 88v4q0 52 -36.5 88.5t-90.5 36.5t-90.5 -36.5t-36.5 -88.5v-4q0 -51 38 -88t89 -37z" />
    <glyph glyph-name="aringacute.alt" 
d="M1061 819v182q0 24 13 38t36 14t37 -14.5t14 -37.5v-958q0 -23 -13 -37t-36 -14t-37 14t-14 37v190q-173 -258 -430 -258q-95 0 -185.5 38t-162.5 105.5t-116 172t-44 227.5v4q0 122 44 227t115.5 174t162.5 107.5t186 38.5q262 0 430 -250zM641 973
q-177 0 -293.5 -121.5t-116.5 -325.5v-4q0 -200 119.5 -325t290.5 -125q82 0 159 33t136 90.5t95 142.5t36 182v4q0 98 -36 183t-95 142.5t-136 90.5t-159 33zM680 1214q-80 0 -140.5 57t-60.5 134v4q0 77 60.5 133.5t140.5 56.5t140.5 -56.5t60.5 -133.5v-4
q0 -77 -60.5 -134t-140.5 -57zM680 1280q51 0 89 37t38 88v4q0 51 -36.5 88t-90.5 37t-90.5 -37t-36.5 -88v-4q0 -51 38 -88t89 -37zM678 1673q-27 0 -27 19q0 11 8 22l127 191q24 37 58 37q30 0 58 -15.5t28 -32.5q0 -13 -23 -36l-164 -158q-29 -27 -65 -27z" />
    <glyph glyph-name="aringacute.alt2" horiz-adv-x="1175" 
d="M508 -25q-75 0 -145.5 21t-129 60.5t-94 103.5t-35.5 143v4q0 161 125 250.5t332 89.5q179 0 346 -45v45q0 157 -90 238.5t-254 81.5q-147 0 -297 -70q-12 -6 -22 -6q-19 0 -33 14t-14 33q0 28 28 45q107 49 226 70q-64 54 -64 135v4q0 77 60.5 133.5t140.5 56.5
t140 -56.5t60 -133.5v-4q0 -91 -75 -144q111 -26 186 -98q107 -107 107 -295v-608q0 -23 -13.5 -37t-36.5 -14t-36 14t-13 37v131q-63 -86 -162.5 -142.5t-236.5 -56.5zM514 70q163 0 279 90.5t116 230.5v119q-180 47 -354 47q-163 0 -253.5 -66t-90.5 -178v-4
q0 -110 88.5 -174.5t214.5 -64.5zM588 1063q51 0 89 37t38 88v4q0 52 -36.5 88.5t-90.5 36.5t-90.5 -36.5t-36.5 -88.5v-4q0 -51 38 -88t89 -37zM586 1456q-27 0 -27 19q0 11 8 22l127 191q23 36 58 36q30 0 58 -15t28 -32q0 -14 -23 -37l-164 -157q-29 -27 -65 -27z" />
    <glyph glyph-name="atilde.alt" 
d="M1061 819v182q0 24 13 38t36 14t37 -14.5t14 -37.5v-958q0 -23 -13 -37t-36 -14t-37 14t-14 37v190q-173 -258 -430 -258q-95 0 -185.5 38t-162.5 105.5t-116 172t-44 227.5v4q0 122 44 227t115.5 174t162.5 107.5t186 38.5q262 0 430 -250zM641 973
q-177 0 -293.5 -121.5t-116.5 -325.5v-4q0 -200 119.5 -325t290.5 -125q82 0 159 33t136 90.5t95 142.5t36 182v4q0 98 -36 183t-95 142.5t-136 90.5t-159 33zM463 1225q-12 -29 -37 -29q-37 0 -37 35q0 8 4 24q28 87 66 120.5t96 33.5q39 0 133.5 -42t128.5 -42t53 17.5
t39 60.5q12 29 37 29q37 0 37 -35q0 -9 -4 -25q-28 -87 -65.5 -120t-96.5 -33q-39 0 -133.5 42t-128.5 42t-53 -17.5t-39 -60.5z" />
    <glyph glyph-name="i.dot" horiz-adv-x="509" 
d="M193 1368v35q0 26 17.5 43.5t43.5 17.5t44.5 -17.5t18.5 -43.5v-35q0 -26 -18.5 -43.5t-44.5 -17.5t-43.5 17.5t-17.5 43.5zM205 43v958q0 24 13 38t36 14t37 -14.5t14 -37.5v-958q0 -23 -13 -37t-36 -14t-37 14t-14 37z" />
    <glyph glyph-name="three.alt" horiz-adv-x="1228" 
d="M621 -25q-154 0 -283 62.5t-221 171.5q-17 24 -17 41q0 23 15 37t39 14q26 0 45 -22q172 -207 426 -207q157 0 260.5 84t103.5 219v4q0 140 -111 218.5t-313 78.5h-104q-20 0 -33.5 13.5t-13.5 33.5t13.5 33.5t33.5 13.5h106q167 0 275 80.5t108 218.5v4q0 126 -95 207.5
t-249 81.5q-122 0 -214 -49t-169 -148q-16 -22 -41 -22q-20 0 -33.5 13.5t-13.5 33.5t12 35q183 233 463 233q195 0 323 -108.5t128 -272.5v-4q0 -71 -23.5 -129.5t-64 -98.5t-86 -67t-99.5 -45q140 -39 226 -129t86 -223v-4q0 -168 -136 -285t-343 -117z" />
    <glyph glyph-name="registered.alt" horiz-adv-x="1699" 
d="M848 -25q-153 0 -290.5 59t-235.5 158.5t-155.5 235.5t-57.5 285v4q0 148 58 284.5t156.5 237t237 160t291.5 59.5t290.5 -59t235.5 -158t155.5 -235t57.5 -285v-4q0 -148 -58 -284.5t-156.5 -237t-237 -160.5t-291.5 -60zM848 33q190 0 347 92.5t246 249.5t89 342v4
q0 186 -88 342t-244 247t-346 91t-347 -92.5t-246 -249.5t-89 -342v-4q0 -186 88 -342t244 -247t346 -91zM565 397v672q0 19 12 31t31 12h293q143 0 219 -76q58 -58 58 -139v-4q0 -86 -55 -141.5t-150 -73.5l196 -248q13 -16 13 -33q0 -19 -13 -31t-32 -12q-24 0 -39 21
l-228 289h-217v-267q0 -19 -13 -31t-32 -12t-31 12t-12 31zM653 745h234q89 0 143.5 37t54.5 107v4q0 62 -50.5 98.5t-137.5 36.5h-244v-283z" />
    <glyph glyph-name="hcoslug" horiz-adv-x="1421" 
d="M506 37h53q3 45 -39 45q-19 0 -30 -11.5t-11 -31.5q3 -41 43 -41q31 0 37 29h-14q-3 -15 -19 -15q-20 0 -20 25zM520 72q15 0 15 -25h-29q0 25 14 25zM399 160q-16 0 -16 33q0 30 16 30q17 0 17 -30q0 -33 -17 -33zM430 8q-16 0 -16 33q0 31 16 31t16 -31q0 -33 -16 -33z
M430 -2q19 0 31 12t12 31t-12 30t-31 11t-31 -11t-12 -30q0 -20 12 -31.5t31 -11.5zM1118 8q-16 0 -16 33q0 31 16 31q17 0 17 -31q0 -33 -17 -33zM1118 -2q19 0 31 12t12 31t-12 30t-31 11t-31 -11t-12 -30q0 -20 12 -31.5t31 -11.5zM256 166v-14h61v14h-20v33h8
q9 0 12 -17h15v47h-15q-3 -16 -12 -16h-8v37h25q10 0 13.5 -4.5t8.5 -22.5h16v41h-104v-14h14v-84h-14zM399 150q19 0 31 12t12 31q0 18 -12 29t-31 11t-31 -11t-12 -29q0 -20 12 -31.5t31 -11.5zM1319 1434v-1639h-1217v1639h1217zM1020 -2q46 0 49 47h-16q-3 -33 -29 -33
q-33 0 -33 45t29 45q23 0 31 -32h16v45h-16l-2 -13q-15 15 -33 15q-24 0 -39.5 -16.5t-15.5 -45.5q0 -57 59 -57zM762 164q-17 0 -17 26q0 27 17 27q14 0 14 -27q0 -26 -14 -26zM565 14v-14h47v14h-10v52h29v-52h-10v-14h47v14h-13v107l-20 -4q-12 4 -19 4q-38 0 -38 -39v-2
h-15v-14h15v-52h-13zM754 14v-14h53v14h-16v33q9 19 14 19v-3q0 -12 12 -12q14 0 14 15q0 16 -16 16q-14 0 -24 -23v21h-37v-14h12v-52h-12zM721 256v-106h12l8 16q10 -16 29 -16q17 0 25 13.5t8 29.5q0 40 -31 40q-21 0 -27 -18v55h-36v-14h12zM819 154q-14 0 -14 -15
q0 -18 22 -18q26 0 37 33l27 63h10v14h-35v-14h11l-17 -41l-18 41h12v14h-51v-14h10q5 -16 12 -27l21 -40q-3 -17 -17 -17q5 5 2.5 13t-12.5 8zM506 877q0 26 15 42.5t40 16.5q26 0 43 -21.5t17 -56.5q0 -46 -37 -102l-10 10q-26 26 -37.5 38.5t-21 32t-9.5 40.5zM618 180
v-28h15l2 8q10 -10 27 -10q28 0 28 26q0 19 -24.5 25t-24.5 12q0 8 10 8q13 0 21 -14h14v26h-12l-4 -10q-7 10 -23 10q-29 0 -29 -24q0 -19 25 -26t25 -13q0 -8 -11 -8q-12 0 -24 18h-15zM535 449q-47 0 -77 31t-30 79q0 49 33 82q62 -56 151 -168q-30 -24 -77 -24zM586 254
l-25 -4v-19h-14v-14h14v-41q0 -26 25 -26q22 0 28 26l-10 4q-3 -14 -10 -14q-8 0 -8 10v41h26v14h-26v23zM877 627q30 -52 88 -52q43 0 72.5 32t29.5 79t-29.5 77t-72.5 30q-69 0 -123 -78q-9 79 -101 76q19 32 19 69q0 60 -52.5 106t-142.5 46q-99 0 -161 -51.5t-62 -122.5
q0 -42 15 -73.5t49 -68.5q-168 -58 -168 -186q0 -81 65 -136t158 -55q129 0 213 93q50 -53 88 -73t86 -20q68 0 114 52t50 141l-15 4q-20 -30 -39 -44.5t-49 -14.5t-59 19.5t-68 64.5q42 55 95 86zM449 166v-14h45v14h-9v31q0 20 15 20q12 0 12 -14v-37h-8v-14h45v14h-12v39
q0 28 -25 28q-20 0 -29 -22v20h-34v-14h12v-51h-12zM950 68h-37v-15h13q-2 -7 -13 -18l-24 26q22 9 22 25q0 25 -28 25q-17 0 -26 -8t-9 -21t12 -25q-26 -9 -26 -30q0 -29 36 -29q19 0 31 12q9 -12 25 -12q20 0 26 25l-10 2q-4 -11 -8 -11q-5 0 -12 11q10 11 18 28h10v15z
M879 12q-21 0 -21 21q0 10 8 18q19 -19 29 -33q-9 -6 -16 -6zM602 80v6q0 25 12 25q5 0 7 -2q-3 -3 -3 -9q0 -10 13 -10v-10h-29zM870 88q0 10 11 10q12 0 12 -12q0 -11 -10 -18q-13 13 -13 20zM639 700q57 38 86 70q23 -23 29 -49t-2 -52.5t-29 -62.5q-68 78 -84 94z
M696 37h54q3 45 -39 45q-17 0 -29 -12t-12 -31q0 -41 43 -41q27 0 37 29h-15q-3 -15 -18 -15q-21 0 -21 25zM711 72q14 0 14 -25h-29q0 25 15 25zM254 14v-14h59v14h-16v37h45v-37h-16v-14h59v14h-16v84h16v15h-59v-15h16v-32h-45v32h16v15h-59v-15h16v-84h-16zM1180 27
q-15 0 -15 -15q0 -14 15 -14q14 0 14 14q0 15 -14 15z" />
    <glyph glyph-name="caron.alt" horiz-adv-x="1024" 
d="M436 1221l25 227q9 53 57 53h27q35 0 35 -35q0 -10 -13 -49l-67 -198q-12 -37 -35 -37q-37 0 -29 39z" />
    </font>
</defs>
</svg>
